<svg xmlns="http://www.w3.org/2000/svg" version="1.1" xmlns:xlink="http://www.w3.org/1999/xlink" xmlns:svgjs="http://svgjs.com/svgjs" width="1600" height="600" preserveAspectRatio="none" viewBox="0 0 1600 600"><g mask="url(&quot;#SvgjsMask1365&quot;)" fill="none"><g mask="url(&quot;#SvgjsMask1367&quot;)"><path d="M55 305L65 295M185 285L195 295L205 295L215 295L225 295L235 295L245 295L255 305L265 305L275 305L285 305L295 315L305 315L315 315M295 275L305 285L315 285L325 285M175 295L185 295L195 305M265 275L275 285L285 285L295 285L305 295M155 295L165 305L175 305M245 275L255 285L265 285M125 305L135 295M-5 305L5 305L15 305L25 305L35 305L45 305L55 305L65 305L75 305L85 305L95 305L105 305L115 305L125 305L135 305L145 305L155 295L165 295L175 295L185 285L195 285L205 285L215 285L225 285L235 275L245 275L255 275L265 275L275 275L285 275L295 275L305 275" stroke="url(#SvgjsLinearGradient1366)" stroke-width="1.67"></path><path d="M302.5 275 a2.5 2.5 0 1 0 5 0 a2.5 2.5 0 1 0 -5 0zM62.5 295 a2.5 2.5 0 1 0 5 0 a2.5 2.5 0 1 0 -5 0zM312.5 315 a2.5 2.5 0 1 0 5 0 a2.5 2.5 0 1 0 -5 0zM322.5 285 a2.5 2.5 0 1 0 5 0 a2.5 2.5 0 1 0 -5 0zM192.5 305 a2.5 2.5 0 1 0 5 0 a2.5 2.5 0 1 0 -5 0zM302.5 295 a2.5 2.5 0 1 0 5 0 a2.5 2.5 0 1 0 -5 0zM172.5 305 a2.5 2.5 0 1 0 5 0 a2.5 2.5 0 1 0 -5 0zM262.5 285 a2.5 2.5 0 1 0 5 0 a2.5 2.5 0 1 0 -5 0zM132.5 295 a2.5 2.5 0 1 0 5 0 a2.5 2.5 0 1 0 -5 0z" fill="url(#SvgjsLinearGradient1366)"></path><path d="M455 235L465 245L475 245L485 245L495 255L505 255M355 255L365 265L375 265L385 265L395 265L405 265L415 265L425 265L435 265L445 265M45 295L55 295M335 255L345 265L355 265L365 275L375 285M95 285L105 275L115 275L125 275L135 275L145 275L155 275L165 275M295 265L305 265L315 265L325 265L335 265L345 275M505 245L515 235L525 235L535 235L545 235L555 245L565 245L575 245L585 245L595 245L605 245L615 245L625 245L635 245L645 245L655 245L665 245L675 245M445 245L455 245L465 255L475 255M75 285L85 295L95 295L105 295L115 295L125 295M495 245L505 235M425 245L435 255L445 255M515 245L525 255L535 265L545 265L555 265L565 265M65 285L75 275L85 275L95 275M265 265L275 255L285 255L295 255M-5 295L5 295L15 295L25 295L35 295L45 295L55 285L65 285L75 285L85 285L95 285L105 285L115 285L125 285L135 285L145 285L155 285L165 285L175 275L185 275L195 275L205 275L215 275L225 275L235 265L245 265L255 265L265 265L275 265L285 265L295 265L305 255L315 255L325 255L335 255L345 255L355 255L365 255L375 255L385 255L395 255L405 255L415 245L425 245L435 245L445 245L455 235L465 235L475 235L485 235L495 245L505 245L515 245L525 245L535 255L545 255" stroke="url(#SvgjsLinearGradient1366)" stroke-width="1.67"></path><path d="M542.5 255 a2.5 2.5 0 1 0 5 0 a2.5 2.5 0 1 0 -5 0zM502.5 255 a2.5 2.5 0 1 0 5 0 a2.5 2.5 0 1 0 -5 0zM442.5 265 a2.5 2.5 0 1 0 5 0 a2.5 2.5 0 1 0 -5 0zM52.5 295 a2.5 2.5 0 1 0 5 0 a2.5 2.5 0 1 0 -5 0zM372.5 285 a2.5 2.5 0 1 0 5 0 a2.5 2.5 0 1 0 -5 0zM162.5 275 a2.5 2.5 0 1 0 5 0 a2.5 2.5 0 1 0 -5 0zM342.5 275 a2.5 2.5 0 1 0 5 0 a2.5 2.5 0 1 0 -5 0zM672.5 245 a2.5 2.5 0 1 0 5 0 a2.5 2.5 0 1 0 -5 0zM472.5 255 a2.5 2.5 0 1 0 5 0 a2.5 2.5 0 1 0 -5 0zM122.5 295 a2.5 2.5 0 1 0 5 0 a2.5 2.5 0 1 0 -5 0zM502.5 235 a2.5 2.5 0 1 0 5 0 a2.5 2.5 0 1 0 -5 0zM442.5 255 a2.5 2.5 0 1 0 5 0 a2.5 2.5 0 1 0 -5 0zM562.5 265 a2.5 2.5 0 1 0 5 0 a2.5 2.5 0 1 0 -5 0zM92.5 275 a2.5 2.5 0 1 0 5 0 a2.5 2.5 0 1 0 -5 0zM292.5 255 a2.5 2.5 0 1 0 5 0 a2.5 2.5 0 1 0 -5 0z" fill="url(#SvgjsLinearGradient1366)"></path><path d="M275 325L285 325L295 325L305 325L315 325L325 325L335 325L345 325L355 325L365 325L375 325L385 325L395 325L405 325L415 325L425 315L435 315L445 315L455 315L465 315L475 315L485 315L495 305L505 305L515 305L525 305L535 305L545 305L555 305L565 305L575 305L585 295L595 295L605 295M895 325L905 335L915 335L925 335L935 335L945 335L955 335L965 335L975 335L985 335L995 345L1005 345L1015 345L1025 345L1035 345L1045 345L1055 345L1065 345L1075 345L1085 345L1095 345L1105 345L1115 345L1125 345L1135 345L1145 345L1155 335L1165 335L1175 345L1185 345L1195 345L1205 335L1215 335L1225 335L1235 335L1245 335L1255 335L1265 335L1275 335L1285 335L1295 335M765 315L775 325L785 325L795 335L805 335L815 335L825 335L835 335L845 345L855 345L865 345L875 335L885 335L895 335L905 345L915 345L925 345L935 345M815 325L825 315L835 315L845 305L855 305L865 305L875 305L885 305L895 305L905 305L915 305L925 305L935 305L945 305L955 305L965 305L975 305L985 315L995 315L1005 315L1015 315L1025 315M215 325L225 335L235 335L245 335L255 335L265 335L275 335M775 315L785 305L795 305L805 305L815 305L825 305M435 325L445 335L455 335L465 335L475 335L485 335L495 335L505 335L515 335L525 335L535 335L545 335L555 335L565 335L575 335M155 325L165 335L175 335L185 335L195 335L205 335L215 335M605 315L615 325L625 325L635 325L645 325L655 325L665 325L675 325L685 335L695 335L705 335L715 335L725 335L735 335L745 325L755 325M1015 335L1025 325L1035 325L1045 325L1055 325M195 325L205 315L215 305L225 305L235 305L245 305L255 315L265 315L275 315L285 315M945 325L955 315L965 315L975 315M615 315L625 305L635 305L645 305L655 305L665 305L675 305L685 305L695 295M335 345L345 335L355 335L365 335M865 315L875 315L885 315L895 315L905 315L915 315L925 315L935 315L945 315M705 325L715 315L725 315L735 305L745 305L755 305L765 305L775 305L785 295M685 325L695 315L705 315L715 305L725 305L735 295L745 295L755 295L765 295L775 295L785 285L795 285L805 285M855 315L865 325M175 325L185 315L195 315M425 325L435 335L445 345M985 325L995 325L1005 325L1015 325M1075 325L1085 315L1095 315L1105 315L1115 325L1125 325L1135 325L1145 325M785 315L795 315L805 315L815 315M565 315L575 325L585 325L595 325L605 325L615 335L625 335L635 335L645 335L655 335L665 335L675 335L685 345L695 345L705 345L715 345L725 345L735 345L745 345L755 345L765 345L775 345L785 345L795 345L805 345L815 345L825 345L835 345L845 355L855 355L865 355L875 355L885 345L895 345L905 355L915 355L925 355L935 355L945 355L955 355L965 355L975 355L985 355L995 355L1005 355L1015 355M595 315L605 305L615 305L625 295L635 295L645 295M285 335L295 345L305 345M315 345L325 335L335 335M545 325L555 325L565 325M-5 315L5 315L15 315L25 315L35 315L45 315L55 315L65 315L75 315L85 315L95 315L105 315L115 315L125 315L135 315L145 315L155 325L165 325L175 325L185 325L195 325L205 325L215 325L225 325L235 325L245 325L255 325L265 325L275 325L285 335L295 335L305 335L315 345L325 345L335 345L345 345L355 345L365 345L375 335L385 335L395 335L405 335L415 335L425 325L435 325L445 325L455 325L465 325L475 325L485 325L495 325L505 325L515 325L525 325L535 325L545 325L555 315L565 315L575 315L585 315L595 315L605 315L615 315L625 315L635 315L645 315L655 315L665 315L675 315L685 325L695 325L705 325L715 325L725 325L735 315L745 315L755 315L765 315L775 315L785 315L795 325L805 325L815 325L825 325L835 325L845 315L855 315L865 315L875 325L885 325L895 325L905 325L915 325L925 325L935 325L945 325L955 325L965 325L975 325L985 325L995 335L1005 335L1015 335L1025 335L1035 335L1045 335L1055 335L1065 325L1075 325L1085 325L1095 335L1105 335" stroke="url(#SvgjsLinearGradient1366)" stroke-width="1.67"></path><path d="M1102.5 335 a2.5 2.5 0 1 0 5 0 a2.5 2.5 0 1 0 -5 0zM602.5 295 a2.5 2.5 0 1 0 5 0 a2.5 2.5 0 1 0 -5 0zM1292.5 335 a2.5 2.5 0 1 0 5 0 a2.5 2.5 0 1 0 -5 0zM932.5 345 a2.5 2.5 0 1 0 5 0 a2.5 2.5 0 1 0 -5 0zM1022.5 315 a2.5 2.5 0 1 0 5 0 a2.5 2.5 0 1 0 -5 0zM272.5 335 a2.5 2.5 0 1 0 5 0 a2.5 2.5 0 1 0 -5 0zM822.5 305 a2.5 2.5 0 1 0 5 0 a2.5 2.5 0 1 0 -5 0zM572.5 335 a2.5 2.5 0 1 0 5 0 a2.5 2.5 0 1 0 -5 0zM212.5 335 a2.5 2.5 0 1 0 5 0 a2.5 2.5 0 1 0 -5 0zM752.5 325 a2.5 2.5 0 1 0 5 0 a2.5 2.5 0 1 0 -5 0zM1052.5 325 a2.5 2.5 0 1 0 5 0 a2.5 2.5 0 1 0 -5 0zM282.5 315 a2.5 2.5 0 1 0 5 0 a2.5 2.5 0 1 0 -5 0zM972.5 315 a2.5 2.5 0 1 0 5 0 a2.5 2.5 0 1 0 -5 0zM692.5 295 a2.5 2.5 0 1 0 5 0 a2.5 2.5 0 1 0 -5 0zM362.5 335 a2.5 2.5 0 1 0 5 0 a2.5 2.5 0 1 0 -5 0zM942.5 315 a2.5 2.5 0 1 0 5 0 a2.5 2.5 0 1 0 -5 0zM782.5 295 a2.5 2.5 0 1 0 5 0 a2.5 2.5 0 1 0 -5 0zM802.5 285 a2.5 2.5 0 1 0 5 0 a2.5 2.5 0 1 0 -5 0zM862.5 325 a2.5 2.5 0 1 0 5 0 a2.5 2.5 0 1 0 -5 0zM192.5 315 a2.5 2.5 0 1 0 5 0 a2.5 2.5 0 1 0 -5 0zM442.5 345 a2.5 2.5 0 1 0 5 0 a2.5 2.5 0 1 0 -5 0zM1012.5 325 a2.5 2.5 0 1 0 5 0 a2.5 2.5 0 1 0 -5 0zM1142.5 325 a2.5 2.5 0 1 0 5 0 a2.5 2.5 0 1 0 -5 0zM812.5 315 a2.5 2.5 0 1 0 5 0 a2.5 2.5 0 1 0 -5 0zM1012.5 355 a2.5 2.5 0 1 0 5 0 a2.5 2.5 0 1 0 -5 0zM642.5 295 a2.5 2.5 0 1 0 5 0 a2.5 2.5 0 1 0 -5 0zM302.5 345 a2.5 2.5 0 1 0 5 0 a2.5 2.5 0 1 0 -5 0zM332.5 335 a2.5 2.5 0 1 0 5 0 a2.5 2.5 0 1 0 -5 0zM562.5 325 a2.5 2.5 0 1 0 5 0 a2.5 2.5 0 1 0 -5 0z" fill="url(#SvgjsLinearGradient1366)"></path><path d="M585 215L595 225L605 225L615 225L625 225L635 225L645 225L655 225L665 225L675 225L685 225L695 225L705 225L715 225L725 225L735 225M635 205L645 215L655 215M55 275L65 275M145 265L155 255L165 255M565 215L575 225L585 235M175 265L185 255L195 255L205 255L215 255L225 255M555 225L565 225L575 235M255 255L265 255M665 205L675 215M625 215L635 215M135 265L145 255M-5 285L5 285L15 285L25 285L35 285L45 285L55 275L65 265L75 265L85 265L95 265L105 265L115 265L125 265L135 265L145 265L155 265L165 265L175 265L185 265L195 265L205 265L215 265L225 265L235 255L245 255L255 255L265 245L275 245L285 245L295 245L305 245L315 245L325 245L335 245L345 245L355 245L365 245L375 245L385 245L395 245L405 245L415 235L425 235L435 235L445 235L455 225L465 225L475 225L485 225L495 225L505 225L515 225L525 225L535 225L545 225L555 225L565 215L575 215L585 215L595 215L605 215L615 215L625 215L635 205L645 205L655 205L665 205L675 205L685 205" stroke="url(#SvgjsLinearGradient1366)" stroke-width="1.67"></path><path d="M682.5 205 a2.5 2.5 0 1 0 5 0 a2.5 2.5 0 1 0 -5 0zM732.5 225 a2.5 2.5 0 1 0 5 0 a2.5 2.5 0 1 0 -5 0zM652.5 215 a2.5 2.5 0 1 0 5 0 a2.5 2.5 0 1 0 -5 0zM62.5 275 a2.5 2.5 0 1 0 5 0 a2.5 2.5 0 1 0 -5 0zM162.5 255 a2.5 2.5 0 1 0 5 0 a2.5 2.5 0 1 0 -5 0zM582.5 235 a2.5 2.5 0 1 0 5 0 a2.5 2.5 0 1 0 -5 0zM222.5 255 a2.5 2.5 0 1 0 5 0 a2.5 2.5 0 1 0 -5 0zM572.5 235 a2.5 2.5 0 1 0 5 0 a2.5 2.5 0 1 0 -5 0zM262.5 255 a2.5 2.5 0 1 0 5 0 a2.5 2.5 0 1 0 -5 0zM672.5 215 a2.5 2.5 0 1 0 5 0 a2.5 2.5 0 1 0 -5 0zM632.5 215 a2.5 2.5 0 1 0 5 0 a2.5 2.5 0 1 0 -5 0zM142.5 255 a2.5 2.5 0 1 0 5 0 a2.5 2.5 0 1 0 -5 0z" fill="url(#SvgjsLinearGradient1366)"></path><path d="M-5 325L5 325L15 325L25 325L35 325L45 325L55 325L65 325L75 325L85 325L95 325L105 325L115 325L125 325L135 325L145 325" stroke="url(#SvgjsLinearGradient1366)" stroke-width="1.67"></path><path d="M142.5 325 a2.5 2.5 0 1 0 5 0 a2.5 2.5 0 1 0 -5 0z" fill="url(#SvgjsLinearGradient1366)"></path><path d="M735 195L745 205L755 205L765 205L775 205L785 205L795 205L805 205L815 205L825 205L835 205L845 215L855 215L865 215L875 215L885 215L895 215M545 215L555 205L565 195L575 195L585 195L595 195L605 195L615 195M205 245L215 235L225 235L235 235L245 235L255 235L265 225L275 225M465 215L475 205L485 205L495 205L505 205L515 205L525 205L535 205L545 205L555 195M415 225L425 215L435 215L445 215L455 205L465 205M125 255L135 255M675 195L685 185L695 185L705 185L715 185L725 175L735 175M25 275L35 265L45 265M325 235L335 225L345 225L355 225M655 195L665 185L675 185L685 175L695 175L705 175L715 175L725 165L735 165L745 165L755 165L765 165L775 165L785 165L795 175L805 175L815 175L825 175L835 175L845 175L855 185L865 185L875 175L885 175L895 185L905 185L915 185L925 185M315 235L325 225L335 215L345 215L355 215L365 215L375 215L385 215L395 215L405 215L415 215L425 205L435 205M715 195L725 205L735 205M645 195L655 185L665 175L675 175M705 195L715 205L725 215L735 215L745 215L755 215L765 215L775 225L785 225L795 225L805 225M695 195L705 205M375 235L385 225L395 225L405 225M295 235L305 225L315 225M365 235L375 225M15 275L25 265M-5 275L5 275L15 275L25 275L35 275L45 275L55 265L65 255L75 255L85 255L95 255L105 255L115 255L125 255L135 245L145 245L155 245L165 245L175 245L185 245L195 245L205 245L215 245L225 245L235 245L245 245L255 245L265 235L275 235L285 235L295 235L305 235L315 235L325 235L335 235L345 235L355 235L365 235L375 235L385 235L395 235L405 235L415 225L425 225L435 225L445 225L455 215L465 215L475 215L485 215L495 215L505 215L515 215L525 215L535 215L545 215L555 215L565 205L575 205L585 205L595 205L605 205L615 205L625 205L635 195L645 195L655 195L665 195L675 195L685 195L695 195L705 195L715 195L725 195L735 195L745 185" stroke="url(#SvgjsLinearGradient1366)" stroke-width="1.67"></path><path d="M742.5 185 a2.5 2.5 0 1 0 5 0 a2.5 2.5 0 1 0 -5 0zM892.5 215 a2.5 2.5 0 1 0 5 0 a2.5 2.5 0 1 0 -5 0zM612.5 195 a2.5 2.5 0 1 0 5 0 a2.5 2.5 0 1 0 -5 0zM272.5 225 a2.5 2.5 0 1 0 5 0 a2.5 2.5 0 1 0 -5 0zM552.5 195 a2.5 2.5 0 1 0 5 0 a2.5 2.5 0 1 0 -5 0zM462.5 205 a2.5 2.5 0 1 0 5 0 a2.5 2.5 0 1 0 -5 0zM132.5 255 a2.5 2.5 0 1 0 5 0 a2.5 2.5 0 1 0 -5 0zM732.5 175 a2.5 2.5 0 1 0 5 0 a2.5 2.5 0 1 0 -5 0zM42.5 265 a2.5 2.5 0 1 0 5 0 a2.5 2.5 0 1 0 -5 0zM352.5 225 a2.5 2.5 0 1 0 5 0 a2.5 2.5 0 1 0 -5 0zM922.5 185 a2.5 2.5 0 1 0 5 0 a2.5 2.5 0 1 0 -5 0zM432.5 205 a2.5 2.5 0 1 0 5 0 a2.5 2.5 0 1 0 -5 0zM732.5 205 a2.5 2.5 0 1 0 5 0 a2.5 2.5 0 1 0 -5 0zM672.5 175 a2.5 2.5 0 1 0 5 0 a2.5 2.5 0 1 0 -5 0zM802.5 225 a2.5 2.5 0 1 0 5 0 a2.5 2.5 0 1 0 -5 0zM702.5 205 a2.5 2.5 0 1 0 5 0 a2.5 2.5 0 1 0 -5 0zM402.5 225 a2.5 2.5 0 1 0 5 0 a2.5 2.5 0 1 0 -5 0zM312.5 225 a2.5 2.5 0 1 0 5 0 a2.5 2.5 0 1 0 -5 0zM372.5 225 a2.5 2.5 0 1 0 5 0 a2.5 2.5 0 1 0 -5 0zM22.5 265 a2.5 2.5 0 1 0 5 0 a2.5 2.5 0 1 0 -5 0z" fill="url(#SvgjsLinearGradient1366)"></path><path d="M545 355L555 365L565 365L575 365L585 365L595 365L605 365L615 365L625 365L635 365L645 365L655 365L665 365L675 365L685 365L695 365L705 365L715 365L725 365L735 365M145 345L155 335M345 355L355 365L365 365L375 365L385 365L395 365L405 365L415 365L425 365L435 365L445 365L455 365L465 365L475 365M795 355L805 365L815 365L825 375L835 375L845 375L855 385L865 385L875 385L885 385L895 385L905 385L915 385L925 385L935 385L945 385L955 385L965 385L975 385L985 385L995 385L1005 385L1015 385L1025 385L1035 385L1045 385M765 355L775 365M855 365L865 375L875 375L885 375L895 375L905 375L915 375L925 375L935 375L945 375L955 375M295 355L305 365L315 365L325 365L335 365L345 365L355 375L365 375L375 375L385 375L395 375L405 375L415 375L425 375L435 375M535 345L545 345L555 345L565 345L575 345L585 345L595 335L605 335M595 345L605 355L615 355M385 355L395 345L405 345L415 345L425 345L435 345M665 355L675 345M755 355L765 365L775 375L785 375L795 375L805 375L815 375L825 385L835 385L845 385M495 345L505 355L515 355L525 355L535 355L545 365L555 375L565 385L575 385L585 385L595 385L605 385L615 385L625 385L635 385L645 385L655 385L665 385L675 385L685 385L695 385L705 385L715 385M465 345L475 355M635 355L645 345M275 345L285 345M815 355L825 355M655 355L665 345M625 355L635 345M135 335L145 335M875 365L885 365L895 365L905 365L915 365L925 365L935 365L945 365L955 365L965 365M455 345L465 355M-5 335L5 335L15 335L25 335L35 335L45 335L55 335L65 335L75 335L85 335L95 335L105 335L115 335L125 335L135 335L145 345L155 345L165 345L175 345L185 345L195 345L205 345L215 345L225 345L235 345L245 345L255 345L265 345L275 345L285 355L295 355L305 355L315 355L325 355L335 355L345 355L355 355L365 355L375 355L385 355L395 355L405 355L415 355L425 355L435 355L445 355L455 345L465 345L475 345L485 345L495 345L505 345L515 345L525 345L535 345L545 355L555 355L565 355L575 355L585 355L595 345L605 345L615 345L625 355L635 355L645 355L655 355L665 355L675 355L685 355L695 355L705 355L715 355L725 355L735 355L745 355L755 355L765 355L775 355L785 355L795 355L805 355L815 355L825 365L835 365L845 365L855 365L865 365L875 365L885 355" stroke="url(#SvgjsLinearGradient1366)" stroke-width="1.67"></path><path d="M882.5 355 a2.5 2.5 0 1 0 5 0 a2.5 2.5 0 1 0 -5 0zM732.5 365 a2.5 2.5 0 1 0 5 0 a2.5 2.5 0 1 0 -5 0zM152.5 335 a2.5 2.5 0 1 0 5 0 a2.5 2.5 0 1 0 -5 0zM472.5 365 a2.5 2.5 0 1 0 5 0 a2.5 2.5 0 1 0 -5 0zM1042.5 385 a2.5 2.5 0 1 0 5 0 a2.5 2.5 0 1 0 -5 0zM772.5 365 a2.5 2.5 0 1 0 5 0 a2.5 2.5 0 1 0 -5 0zM952.5 375 a2.5 2.5 0 1 0 5 0 a2.5 2.5 0 1 0 -5 0zM432.5 375 a2.5 2.5 0 1 0 5 0 a2.5 2.5 0 1 0 -5 0zM602.5 335 a2.5 2.5 0 1 0 5 0 a2.5 2.5 0 1 0 -5 0zM612.5 355 a2.5 2.5 0 1 0 5 0 a2.5 2.5 0 1 0 -5 0zM432.5 345 a2.5 2.5 0 1 0 5 0 a2.5 2.5 0 1 0 -5 0zM672.5 345 a2.5 2.5 0 1 0 5 0 a2.5 2.5 0 1 0 -5 0zM842.5 385 a2.5 2.5 0 1 0 5 0 a2.5 2.5 0 1 0 -5 0zM712.5 385 a2.5 2.5 0 1 0 5 0 a2.5 2.5 0 1 0 -5 0zM472.5 355 a2.5 2.5 0 1 0 5 0 a2.5 2.5 0 1 0 -5 0zM642.5 345 a2.5 2.5 0 1 0 5 0 a2.5 2.5 0 1 0 -5 0zM282.5 345 a2.5 2.5 0 1 0 5 0 a2.5 2.5 0 1 0 -5 0zM822.5 355 a2.5 2.5 0 1 0 5 0 a2.5 2.5 0 1 0 -5 0zM662.5 345 a2.5 2.5 0 1 0 5 0 a2.5 2.5 0 1 0 -5 0zM632.5 345 a2.5 2.5 0 1 0 5 0 a2.5 2.5 0 1 0 -5 0zM142.5 335 a2.5 2.5 0 1 0 5 0 a2.5 2.5 0 1 0 -5 0zM962.5 365 a2.5 2.5 0 1 0 5 0 a2.5 2.5 0 1 0 -5 0zM462.5 355 a2.5 2.5 0 1 0 5 0 a2.5 2.5 0 1 0 -5 0z" fill="url(#SvgjsLinearGradient1366)"></path><path d="M5 265L15 265M-5 265L5 265L15 255L25 255L35 255L45 255L55 255L65 245L75 245L85 245" stroke="url(#SvgjsLinearGradient1366)" stroke-width="1.67"></path><path d="M82.5 245 a2.5 2.5 0 1 0 5 0 a2.5 2.5 0 1 0 -5 0zM12.5 265 a2.5 2.5 0 1 0 5 0 a2.5 2.5 0 1 0 -5 0z" fill="url(#SvgjsLinearGradient1366)"></path><path d="M145 355L155 365M205 355L215 365L225 365M105 345L115 355M45 345L55 355L65 355M185 355L195 365L205 365L215 375L225 375L235 375L245 375L255 375M265 355L275 365L285 375L295 375M245 355L255 365L265 365L275 375L285 385L295 385M-5 345L5 345L15 345L25 345L35 345L45 345L55 345L65 345L75 345L85 345L95 345L105 345L115 345L125 345L135 345L145 355L155 355L165 355L175 355L185 355L195 355L205 355L215 355L225 355L235 355L245 355L255 355L265 355L275 355L285 365" stroke="url(#SvgjsLinearGradient1366)" stroke-width="1.67"></path><path d="M282.5 365 a2.5 2.5 0 1 0 5 0 a2.5 2.5 0 1 0 -5 0zM152.5 365 a2.5 2.5 0 1 0 5 0 a2.5 2.5 0 1 0 -5 0zM222.5 365 a2.5 2.5 0 1 0 5 0 a2.5 2.5 0 1 0 -5 0zM112.5 355 a2.5 2.5 0 1 0 5 0 a2.5 2.5 0 1 0 -5 0zM62.5 355 a2.5 2.5 0 1 0 5 0 a2.5 2.5 0 1 0 -5 0zM252.5 375 a2.5 2.5 0 1 0 5 0 a2.5 2.5 0 1 0 -5 0zM292.5 375 a2.5 2.5 0 1 0 5 0 a2.5 2.5 0 1 0 -5 0zM292.5 385 a2.5 2.5 0 1 0 5 0 a2.5 2.5 0 1 0 -5 0z" fill="url(#SvgjsLinearGradient1366)"></path><path d="M95 245L105 235M85 235L95 235M-5 255L5 255L15 245L25 245L35 245L45 245L55 235L65 235L75 235L85 235L95 245L105 245L115 245L125 245" stroke="url(#SvgjsLinearGradient1366)" stroke-width="1.67"></path><path d="M122.5 245 a2.5 2.5 0 1 0 5 0 a2.5 2.5 0 1 0 -5 0zM102.5 235 a2.5 2.5 0 1 0 5 0 a2.5 2.5 0 1 0 -5 0zM92.5 235 a2.5 2.5 0 1 0 5 0 a2.5 2.5 0 1 0 -5 0z" fill="url(#SvgjsLinearGradient1366)"></path><path d="M535 405L545 415L555 415L565 425M385 405L395 395L405 395L415 385M365 395L375 385L385 385L395 385L405 385M525 405L535 395L545 395L555 385M505 405L515 395M195 395L205 385L215 385L225 395L235 395M255 405L265 395L275 395L285 395M105 375L115 365L125 365L135 365L145 365L155 375M65 375L75 365L85 365L95 365L105 365M165 395L175 385L185 385M295 405L305 395L315 395L325 395L335 395L345 385L355 385L365 385M575 405L585 415L595 415L605 415L615 415L625 415L635 415L645 415M25 355L35 355L45 355L55 365L65 365M515 405L525 415M445 405L455 395L465 395L475 395L485 395L495 395L505 395L515 385L525 375L535 375L545 375M-5 355L5 355L15 355L25 355L35 365L45 375L55 375L65 375L75 375L85 375L95 375L105 375L115 375L125 375L135 375L145 385L155 395L165 395L175 395L185 395L195 395L205 395L215 405L225 405L235 405L245 405L255 405L265 405L275 405L285 405L295 405L305 405L315 405L325 405L335 405L345 395L355 395L365 395L375 395L385 405L395 405L405 405L415 405L425 405L435 405L445 405L455 405L465 405L475 405L485 405L495 405L505 405L515 405L525 405L535 405L545 405L555 405L565 405L575 405L585 405L595 405" stroke="url(#SvgjsLinearGradient1366)" stroke-width="1.67"></path><path d="M592.5 405 a2.5 2.5 0 1 0 5 0 a2.5 2.5 0 1 0 -5 0zM562.5 425 a2.5 2.5 0 1 0 5 0 a2.5 2.5 0 1 0 -5 0zM412.5 385 a2.5 2.5 0 1 0 5 0 a2.5 2.5 0 1 0 -5 0zM402.5 385 a2.5 2.5 0 1 0 5 0 a2.5 2.5 0 1 0 -5 0zM552.5 385 a2.5 2.5 0 1 0 5 0 a2.5 2.5 0 1 0 -5 0zM512.5 395 a2.5 2.5 0 1 0 5 0 a2.5 2.5 0 1 0 -5 0zM232.5 395 a2.5 2.5 0 1 0 5 0 a2.5 2.5 0 1 0 -5 0zM282.5 395 a2.5 2.5 0 1 0 5 0 a2.5 2.5 0 1 0 -5 0zM152.5 375 a2.5 2.5 0 1 0 5 0 a2.5 2.5 0 1 0 -5 0zM102.5 365 a2.5 2.5 0 1 0 5 0 a2.5 2.5 0 1 0 -5 0zM182.5 385 a2.5 2.5 0 1 0 5 0 a2.5 2.5 0 1 0 -5 0zM362.5 385 a2.5 2.5 0 1 0 5 0 a2.5 2.5 0 1 0 -5 0zM642.5 415 a2.5 2.5 0 1 0 5 0 a2.5 2.5 0 1 0 -5 0zM62.5 365 a2.5 2.5 0 1 0 5 0 a2.5 2.5 0 1 0 -5 0zM522.5 415 a2.5 2.5 0 1 0 5 0 a2.5 2.5 0 1 0 -5 0zM542.5 375 a2.5 2.5 0 1 0 5 0 a2.5 2.5 0 1 0 -5 0z" fill="url(#SvgjsLinearGradient1366)"></path><path d="M175 235L185 225M145 235L155 225M135 235L145 225L155 215M165 235L175 225L185 215M-5 245L5 245L15 235L25 235L35 235L45 235L55 225L65 225L75 225L85 225L95 225L105 225L115 225L125 225L135 235L145 235L155 235L165 235L175 235L185 235L195 235" stroke="url(#SvgjsLinearGradient1366)" stroke-width="1.67"></path><path d="M192.5 235 a2.5 2.5 0 1 0 5 0 a2.5 2.5 0 1 0 -5 0zM182.5 225 a2.5 2.5 0 1 0 5 0 a2.5 2.5 0 1 0 -5 0zM152.5 225 a2.5 2.5 0 1 0 5 0 a2.5 2.5 0 1 0 -5 0zM152.5 215 a2.5 2.5 0 1 0 5 0 a2.5 2.5 0 1 0 -5 0zM182.5 215 a2.5 2.5 0 1 0 5 0 a2.5 2.5 0 1 0 -5 0z" fill="url(#SvgjsLinearGradient1366)"></path><path d="M355 415L365 405L375 405M825 445L835 435L845 435L855 425M785 435L795 425L805 425L815 425L825 425L835 425L845 425L855 415L865 415L875 415L885 415L895 415L905 415L915 415L925 415L935 415L945 415L955 415L965 415M755 435L765 445L775 445L785 445L795 445M645 435L655 425L665 425L675 425L685 425L695 425L705 425L715 415M315 415L325 425L335 425L345 425L355 425L365 425L375 425L385 425L395 425L405 425L415 425L425 425L435 425M805 445L815 435L825 435M635 435L645 425M655 435L665 445M465 425L475 425L485 425L495 425L505 425L515 425L525 425L535 425L545 425L555 425L565 435L575 435L585 435L595 435L605 425L615 425L625 425L635 425M865 435L875 445L885 445L895 445L905 445L915 445M455 425L465 415L475 415L485 415M625 435L635 445L645 445L655 445M435 415L445 415M845 445L855 445L865 445M595 445L605 445L615 445L625 445M195 405L205 415M545 435L555 435M735 435L745 425L755 425L765 425L775 425L785 425L795 415M725 435L735 425L745 415L755 415L765 405L775 405L785 405L795 405L805 405L815 405L825 405L835 405L845 405L855 405L865 405L875 405L885 405M345 415L355 405M715 435L725 425L735 415L745 405L755 405L765 395L775 395L785 395L795 395L805 395L815 395L825 395L835 395L845 395M-5 365L5 365L15 365L25 365L35 375L45 385L55 385L65 385L75 385L85 385L95 385L105 385L115 385L125 385L135 385L145 395L155 405L165 405L175 405L185 405L195 405L205 405L215 415L225 415L235 415L245 415L255 415L265 415L275 415L285 415L295 415L305 415L315 415L325 415L335 415L345 415L355 415L365 415L375 415L385 415L395 415L405 415L415 415L425 415L435 415L445 425L455 425L465 425L475 435L485 435L495 435L505 435L515 435L525 435L535 435L545 435L555 445L565 445L575 445L585 445L595 445L605 435L615 435L625 435L635 435L645 435L655 435L665 435L675 435L685 435L695 435L705 435L715 435L725 435L735 435L745 435L755 435L765 435L775 435L785 435L795 435L805 445L815 445L825 445L835 445L845 445L855 435L865 435L875 435L885 435L895 425" stroke="url(#SvgjsLinearGradient1366)" stroke-width="1.67"></path><path d="M892.5 425 a2.5 2.5 0 1 0 5 0 a2.5 2.5 0 1 0 -5 0zM372.5 405 a2.5 2.5 0 1 0 5 0 a2.5 2.5 0 1 0 -5 0zM852.5 425 a2.5 2.5 0 1 0 5 0 a2.5 2.5 0 1 0 -5 0zM962.5 415 a2.5 2.5 0 1 0 5 0 a2.5 2.5 0 1 0 -5 0zM792.5 445 a2.5 2.5 0 1 0 5 0 a2.5 2.5 0 1 0 -5 0zM712.5 415 a2.5 2.5 0 1 0 5 0 a2.5 2.5 0 1 0 -5 0zM432.5 425 a2.5 2.5 0 1 0 5 0 a2.5 2.5 0 1 0 -5 0zM822.5 435 a2.5 2.5 0 1 0 5 0 a2.5 2.5 0 1 0 -5 0zM642.5 425 a2.5 2.5 0 1 0 5 0 a2.5 2.5 0 1 0 -5 0zM662.5 445 a2.5 2.5 0 1 0 5 0 a2.5 2.5 0 1 0 -5 0zM632.5 425 a2.5 2.5 0 1 0 5 0 a2.5 2.5 0 1 0 -5 0zM912.5 445 a2.5 2.5 0 1 0 5 0 a2.5 2.5 0 1 0 -5 0zM482.5 415 a2.5 2.5 0 1 0 5 0 a2.5 2.5 0 1 0 -5 0zM652.5 445 a2.5 2.5 0 1 0 5 0 a2.5 2.5 0 1 0 -5 0zM442.5 415 a2.5 2.5 0 1 0 5 0 a2.5 2.5 0 1 0 -5 0zM862.5 445 a2.5 2.5 0 1 0 5 0 a2.5 2.5 0 1 0 -5 0zM622.5 445 a2.5 2.5 0 1 0 5 0 a2.5 2.5 0 1 0 -5 0zM202.5 415 a2.5 2.5 0 1 0 5 0 a2.5 2.5 0 1 0 -5 0zM552.5 435 a2.5 2.5 0 1 0 5 0 a2.5 2.5 0 1 0 -5 0zM792.5 415 a2.5 2.5 0 1 0 5 0 a2.5 2.5 0 1 0 -5 0zM882.5 405 a2.5 2.5 0 1 0 5 0 a2.5 2.5 0 1 0 -5 0zM352.5 405 a2.5 2.5 0 1 0 5 0 a2.5 2.5 0 1 0 -5 0zM842.5 395 a2.5 2.5 0 1 0 5 0 a2.5 2.5 0 1 0 -5 0z" fill="url(#SvgjsLinearGradient1366)"></path><path d="M575 185L585 185L595 185L605 185L615 185L625 185L635 185L645 185L655 175M265 175L275 185L285 185L295 185L305 195L315 195L325 195L335 195L345 195M385 175L395 185M185 205L195 195L205 195L215 195M305 185L315 175L325 165M295 175L305 175L315 165M845 145L855 135L865 125M405 175L415 185L425 195L435 195L445 205M755 145L765 155L775 155L785 155L795 155L805 155L815 155L825 155L835 165L845 165L855 175L865 175L875 165L885 165L895 165L905 175L915 175L925 175L935 175L945 185M395 175L405 165L415 165L425 165L435 165L445 165L455 165L465 165L475 165L485 165L495 175L505 175L515 175L525 175L535 175L545 175L555 175L565 175L575 175L585 165M615 165L625 175L635 175L645 175M195 205L205 215L215 215L225 225L235 225L245 225L255 225L265 215L275 215L285 215L295 215L305 215L315 215L325 215L335 205L345 205L355 205L365 205L375 205L385 205L395 205L405 205L415 205M155 205L165 195L175 195L185 195M685 165L695 155L705 145L715 145L725 145M725 155L735 155M465 175L475 175L485 175M645 165L655 155L665 155M675 165L685 155L695 145M165 205L175 215M345 175L355 165L365 165L375 165L385 165L395 165M225 195L235 205L245 205L255 205M595 165L605 155L615 155L625 145L635 145L645 145L655 145L665 145L675 145L685 145L695 135L705 135M-5 235L5 235L15 225L25 225L35 225L45 225L55 215L65 215L75 215L85 215L95 215L105 215L115 215L125 215L135 205L145 205L155 205L165 205L175 205L185 205L195 205L205 205L215 205L225 195L235 195L245 195L255 185L265 175L275 175L285 175L295 175L305 185L315 185L325 175L335 175L345 175L355 175L365 175L375 175L385 175L395 175L405 175L415 175L425 175L435 175L445 175L455 175L465 175L475 185L485 185L495 185L505 185L515 185L525 185L535 185L545 185L555 185L565 185L575 185L585 175L595 165L605 165L615 165L625 165L635 165L645 165L655 165L665 165L675 165L685 165L695 165L705 155L715 155L725 155L735 145L745 145L755 145L765 145L775 145L785 145L795 145L805 145L815 145L825 145L835 145L845 145L855 145L865 135L875 135" stroke="url(#SvgjsLinearGradient1366)" stroke-width="1.67"></path><path d="M872.5 135 a2.5 2.5 0 1 0 5 0 a2.5 2.5 0 1 0 -5 0zM652.5 175 a2.5 2.5 0 1 0 5 0 a2.5 2.5 0 1 0 -5 0zM342.5 195 a2.5 2.5 0 1 0 5 0 a2.5 2.5 0 1 0 -5 0zM392.5 185 a2.5 2.5 0 1 0 5 0 a2.5 2.5 0 1 0 -5 0zM212.5 195 a2.5 2.5 0 1 0 5 0 a2.5 2.5 0 1 0 -5 0zM322.5 165 a2.5 2.5 0 1 0 5 0 a2.5 2.5 0 1 0 -5 0zM312.5 165 a2.5 2.5 0 1 0 5 0 a2.5 2.5 0 1 0 -5 0zM862.5 125 a2.5 2.5 0 1 0 5 0 a2.5 2.5 0 1 0 -5 0zM442.5 205 a2.5 2.5 0 1 0 5 0 a2.5 2.5 0 1 0 -5 0zM942.5 185 a2.5 2.5 0 1 0 5 0 a2.5 2.5 0 1 0 -5 0zM582.5 165 a2.5 2.5 0 1 0 5 0 a2.5 2.5 0 1 0 -5 0zM642.5 175 a2.5 2.5 0 1 0 5 0 a2.5 2.5 0 1 0 -5 0zM412.5 205 a2.5 2.5 0 1 0 5 0 a2.5 2.5 0 1 0 -5 0zM182.5 195 a2.5 2.5 0 1 0 5 0 a2.5 2.5 0 1 0 -5 0zM722.5 145 a2.5 2.5 0 1 0 5 0 a2.5 2.5 0 1 0 -5 0zM732.5 155 a2.5 2.5 0 1 0 5 0 a2.5 2.5 0 1 0 -5 0zM482.5 175 a2.5 2.5 0 1 0 5 0 a2.5 2.5 0 1 0 -5 0zM662.5 155 a2.5 2.5 0 1 0 5 0 a2.5 2.5 0 1 0 -5 0zM692.5 145 a2.5 2.5 0 1 0 5 0 a2.5 2.5 0 1 0 -5 0zM172.5 215 a2.5 2.5 0 1 0 5 0 a2.5 2.5 0 1 0 -5 0zM392.5 165 a2.5 2.5 0 1 0 5 0 a2.5 2.5 0 1 0 -5 0zM252.5 205 a2.5 2.5 0 1 0 5 0 a2.5 2.5 0 1 0 -5 0zM702.5 135 a2.5 2.5 0 1 0 5 0 a2.5 2.5 0 1 0 -5 0z" fill="url(#SvgjsLinearGradient1366)"></path><path d="M-5 375L5 375L15 375L25 375L35 385L45 395L55 395L65 395L75 395L85 395L95 395L105 395L115 395L125 395L135 395L145 405L155 415L165 415L175 415" stroke="url(#SvgjsLinearGradient1366)" stroke-width="1.67"></path><path d="M172.5 415 a2.5 2.5 0 1 0 5 0 a2.5 2.5 0 1 0 -5 0z" fill="url(#SvgjsLinearGradient1366)"></path><path d="M335 155L345 165M285 155L295 165L305 165M215 185L225 175L235 175L245 175L255 165M275 165L285 165M205 185L215 175M145 195L155 195M-5 225L5 225L15 215L25 215L35 215L45 215L55 205L65 205L75 205L85 205L95 205L105 205L115 205L125 205L135 195L145 195L155 185L165 185L175 185L185 185L195 185L205 185L215 185L225 185L235 185L245 185L255 175L265 165L275 165L285 155L295 155L305 155L315 155L325 155L335 155L345 155L355 155L365 155L375 155L385 155L395 155L405 155L415 155L425 155" stroke="url(#SvgjsLinearGradient1366)" stroke-width="1.67"></path><path d="M422.5 155 a2.5 2.5 0 1 0 5 0 a2.5 2.5 0 1 0 -5 0zM342.5 165 a2.5 2.5 0 1 0 5 0 a2.5 2.5 0 1 0 -5 0zM302.5 165 a2.5 2.5 0 1 0 5 0 a2.5 2.5 0 1 0 -5 0zM252.5 165 a2.5 2.5 0 1 0 5 0 a2.5 2.5 0 1 0 -5 0zM282.5 165 a2.5 2.5 0 1 0 5 0 a2.5 2.5 0 1 0 -5 0zM212.5 175 a2.5 2.5 0 1 0 5 0 a2.5 2.5 0 1 0 -5 0zM152.5 195 a2.5 2.5 0 1 0 5 0 a2.5 2.5 0 1 0 -5 0z" fill="url(#SvgjsLinearGradient1366)"></path><path d="M845 455L855 465L865 465L875 465L885 465M885 455L895 455L905 455L915 455L925 455L935 455L945 455L955 445L965 445L975 445L985 445L995 445L1005 445L1015 455L1025 455L1035 455L1045 455L1055 445L1065 445L1075 445L1085 455L1095 455L1105 455L1115 455L1125 455L1135 455L1145 455L1155 445M775 455L785 465L795 465L805 465L815 465L825 465L835 465L845 465L855 475L865 475L875 475M275 425L285 435L295 435L305 435M735 455L745 445L755 445M305 425L315 425M725 445L735 445M685 445L695 455L705 455M185 425L195 415M665 455L675 455L685 455M455 435L465 445M445 435L455 445M-5 385L5 385L15 385L25 385L35 395L45 405L55 405L65 405L75 405L85 405L95 405L105 405L115 405L125 405L135 405L145 415L155 425L165 425L175 425L185 425L195 425L205 425L215 425L225 425L235 425L245 425L255 425L265 425L275 425L285 425L295 425L305 425L315 435L325 435L335 435L345 435L355 435L365 435L375 435L385 435L395 435L405 435L415 435L425 435L435 435L445 435L455 435L465 435L475 445L485 445L495 445L505 445L515 445L525 445L535 445L545 445L555 455L565 455L575 455L585 455L595 455L605 455L615 455L625 455L635 455L645 455L655 455L665 455L675 445L685 445L695 445L705 445L715 445L725 445L735 455L745 455L755 455L765 455L775 455L785 455L795 455L805 455L815 455L825 455L835 455L845 455L855 455L865 455L875 455L885 455L895 465L905 465L915 465L925 465L935 465L945 465" stroke="url(#SvgjsLinearGradient1366)" stroke-width="1.67"></path><path d="M942.5 465 a2.5 2.5 0 1 0 5 0 a2.5 2.5 0 1 0 -5 0zM882.5 465 a2.5 2.5 0 1 0 5 0 a2.5 2.5 0 1 0 -5 0zM1152.5 445 a2.5 2.5 0 1 0 5 0 a2.5 2.5 0 1 0 -5 0zM872.5 475 a2.5 2.5 0 1 0 5 0 a2.5 2.5 0 1 0 -5 0zM302.5 435 a2.5 2.5 0 1 0 5 0 a2.5 2.5 0 1 0 -5 0zM752.5 445 a2.5 2.5 0 1 0 5 0 a2.5 2.5 0 1 0 -5 0zM312.5 425 a2.5 2.5 0 1 0 5 0 a2.5 2.5 0 1 0 -5 0zM732.5 445 a2.5 2.5 0 1 0 5 0 a2.5 2.5 0 1 0 -5 0zM702.5 455 a2.5 2.5 0 1 0 5 0 a2.5 2.5 0 1 0 -5 0zM192.5 415 a2.5 2.5 0 1 0 5 0 a2.5 2.5 0 1 0 -5 0zM682.5 455 a2.5 2.5 0 1 0 5 0 a2.5 2.5 0 1 0 -5 0zM462.5 445 a2.5 2.5 0 1 0 5 0 a2.5 2.5 0 1 0 -5 0zM452.5 445 a2.5 2.5 0 1 0 5 0 a2.5 2.5 0 1 0 -5 0z" fill="url(#SvgjsLinearGradient1366)"></path><path d="M115 195L125 185M-5 215L5 215L15 205L25 205L35 205L45 205L55 195L65 195L75 195L85 195L95 195L105 195L115 195L125 195L135 185L145 185L155 175L165 175L175 175L185 175L195 175" stroke="url(#SvgjsLinearGradient1366)" stroke-width="1.67"></path><path d="M192.5 175 a2.5 2.5 0 1 0 5 0 a2.5 2.5 0 1 0 -5 0zM122.5 185 a2.5 2.5 0 1 0 5 0 a2.5 2.5 0 1 0 -5 0z" fill="url(#SvgjsLinearGradient1366)"></path><path d="M-5 395L5 395L15 395L25 395L35 405L45 415L55 415L65 415L75 415L85 415L95 415L105 415L115 415L125 415L135 415L145 425L155 435" stroke="url(#SvgjsLinearGradient1366)" stroke-width="1.67"></path><path d="M152.5 435 a2.5 2.5 0 1 0 5 0 a2.5 2.5 0 1 0 -5 0z" fill="url(#SvgjsLinearGradient1366)"></path><path d="M55 185L65 175L75 175M555 135L565 145L575 145L585 145L595 145L605 145L615 145M485 135L495 145L505 145L515 145L525 145L535 145L545 145L555 145L565 155M775 135L785 125L795 125L805 125L815 125L825 125L835 125L845 125M675 135L685 135M525 135L535 125M435 135L445 145L455 145L465 145L475 145M635 135L645 125L655 125L665 125L675 125L685 115L695 115M705 125L715 125L725 125L735 125L745 125L755 125L765 125L775 125L785 115L795 115L805 115L815 115L825 115L835 115L845 115L855 115L865 115L875 115L885 115L895 115L905 125L915 125L925 125L935 125L945 125L955 125L965 125L975 125L985 125L995 125L1005 125L1015 125M185 165L195 155M545 135L555 125L565 125L575 125L585 125L595 125L605 115L615 115L625 115L635 105L645 105M495 135L505 125L515 125L525 125M175 165L185 155M35 195L45 185M235 155L245 165M105 185L115 185M425 145L435 145L445 155L455 155L465 155M85 185L95 175L105 175M625 135L635 125L645 115L655 115M475 135L485 125L495 125M615 135L625 125M-5 205L5 205L15 195L25 195L35 195L45 195L55 185L65 185L75 185L85 185L95 185L105 185L115 175L125 175L135 175L145 175L155 165L165 165L175 165L185 165L195 165L205 165L215 165L225 165L235 155L245 155L255 155L265 155L275 155L285 145L295 145L305 145L315 145L325 145L335 145L345 145L355 145L365 145L375 145L385 145L395 145L405 145L415 145L425 145L435 135L445 135L455 135L465 135L475 135L485 135L495 135L505 135L515 135L525 135L535 135L545 135L555 135L565 135L575 135L585 135L595 135L605 135L615 135L625 135L635 135L645 135L655 135L665 135L675 135L685 125L695 125L705 125L715 135L725 135L735 135L745 135L755 135L765 135L775 135L785 135L795 135L805 135L815 135L825 135L835 135" stroke="url(#SvgjsLinearGradient1366)" stroke-width="1.67"></path><path d="M832.5 135 a2.5 2.5 0 1 0 5 0 a2.5 2.5 0 1 0 -5 0zM72.5 175 a2.5 2.5 0 1 0 5 0 a2.5 2.5 0 1 0 -5 0zM612.5 145 a2.5 2.5 0 1 0 5 0 a2.5 2.5 0 1 0 -5 0zM562.5 155 a2.5 2.5 0 1 0 5 0 a2.5 2.5 0 1 0 -5 0zM842.5 125 a2.5 2.5 0 1 0 5 0 a2.5 2.5 0 1 0 -5 0zM682.5 135 a2.5 2.5 0 1 0 5 0 a2.5 2.5 0 1 0 -5 0zM532.5 125 a2.5 2.5 0 1 0 5 0 a2.5 2.5 0 1 0 -5 0zM472.5 145 a2.5 2.5 0 1 0 5 0 a2.5 2.5 0 1 0 -5 0zM692.5 115 a2.5 2.5 0 1 0 5 0 a2.5 2.5 0 1 0 -5 0zM1012.5 125 a2.5 2.5 0 1 0 5 0 a2.5 2.5 0 1 0 -5 0zM192.5 155 a2.5 2.5 0 1 0 5 0 a2.5 2.5 0 1 0 -5 0zM642.5 105 a2.5 2.5 0 1 0 5 0 a2.5 2.5 0 1 0 -5 0zM522.5 125 a2.5 2.5 0 1 0 5 0 a2.5 2.5 0 1 0 -5 0zM182.5 155 a2.5 2.5 0 1 0 5 0 a2.5 2.5 0 1 0 -5 0zM42.5 185 a2.5 2.5 0 1 0 5 0 a2.5 2.5 0 1 0 -5 0zM242.5 165 a2.5 2.5 0 1 0 5 0 a2.5 2.5 0 1 0 -5 0zM112.5 185 a2.5 2.5 0 1 0 5 0 a2.5 2.5 0 1 0 -5 0zM462.5 155 a2.5 2.5 0 1 0 5 0 a2.5 2.5 0 1 0 -5 0zM102.5 175 a2.5 2.5 0 1 0 5 0 a2.5 2.5 0 1 0 -5 0zM652.5 115 a2.5 2.5 0 1 0 5 0 a2.5 2.5 0 1 0 -5 0zM492.5 125 a2.5 2.5 0 1 0 5 0 a2.5 2.5 0 1 0 -5 0zM622.5 125 a2.5 2.5 0 1 0 5 0 a2.5 2.5 0 1 0 -5 0z" fill="url(#SvgjsLinearGradient1366)"></path><path d="M195 435L205 445L215 445L225 445L235 445L245 445L255 445L265 445M265 435L275 435M705 465L715 465L725 465M125 425L135 425M185 435L195 445M435 445L445 445M275 445L285 455M175 435L185 445M-5 405L5 405L15 405L25 405L35 415L45 425L55 425L65 425L75 425L85 425L95 425L105 425L115 425L125 425L135 435L145 435L155 445L165 445L175 435L185 435L195 435L205 435L215 435L225 435L235 435L245 435L255 435L265 435L275 445L285 445L295 445L305 445L315 445L325 445L335 445L345 445L355 445L365 445L375 445L385 445L395 445L405 445L415 445L425 445L435 445L445 455L455 455L465 455L475 455L485 455L495 455L505 455L515 455L525 455L535 455L545 455L555 465L565 465L575 465L585 465L595 465L605 465L615 465L625 465L635 465L645 465L655 465L665 465L675 465L685 465L695 465L705 465L715 455L725 455L735 465L745 465L755 465L765 465" stroke="url(#SvgjsLinearGradient1366)" stroke-width="1.67"></path><path d="M762.5 465 a2.5 2.5 0 1 0 5 0 a2.5 2.5 0 1 0 -5 0zM262.5 445 a2.5 2.5 0 1 0 5 0 a2.5 2.5 0 1 0 -5 0zM272.5 435 a2.5 2.5 0 1 0 5 0 a2.5 2.5 0 1 0 -5 0zM722.5 465 a2.5 2.5 0 1 0 5 0 a2.5 2.5 0 1 0 -5 0zM132.5 425 a2.5 2.5 0 1 0 5 0 a2.5 2.5 0 1 0 -5 0zM192.5 445 a2.5 2.5 0 1 0 5 0 a2.5 2.5 0 1 0 -5 0zM442.5 445 a2.5 2.5 0 1 0 5 0 a2.5 2.5 0 1 0 -5 0zM282.5 455 a2.5 2.5 0 1 0 5 0 a2.5 2.5 0 1 0 -5 0zM182.5 445 a2.5 2.5 0 1 0 5 0 a2.5 2.5 0 1 0 -5 0z" fill="url(#SvgjsLinearGradient1366)"></path><path d="M125 165L135 155L145 155M165 145L175 155M105 165L115 155L125 155L135 145L145 145L155 145M85 155L95 155L105 155L115 145M25 185L35 185M195 145L205 145M45 175L55 175M455 115L465 125L475 125M445 115L455 125M65 165L75 165L85 165M155 155L165 155M435 125L445 125M-5 195L5 195L15 185L25 185L35 175L45 175L55 165L65 165L75 155L85 155L95 165L105 165L115 165L125 165L135 165L145 165L155 155L165 145L175 145L185 145L195 145L205 155L215 155L225 155L235 145L245 145L255 145L265 145L275 145L285 135L295 135L305 135L315 135L325 135L335 135L345 135L355 135L365 135L375 135L385 135L395 135L405 135L415 135L425 135L435 125L445 115L455 115L465 115L475 115L485 115L495 115L505 115L515 115L525 115L535 115L545 115L555 115L565 115L575 115" stroke="url(#SvgjsLinearGradient1366)" stroke-width="1.67"></path><path d="M572.5 115 a2.5 2.5 0 1 0 5 0 a2.5 2.5 0 1 0 -5 0zM142.5 155 a2.5 2.5 0 1 0 5 0 a2.5 2.5 0 1 0 -5 0zM172.5 155 a2.5 2.5 0 1 0 5 0 a2.5 2.5 0 1 0 -5 0zM152.5 145 a2.5 2.5 0 1 0 5 0 a2.5 2.5 0 1 0 -5 0zM112.5 145 a2.5 2.5 0 1 0 5 0 a2.5 2.5 0 1 0 -5 0zM32.5 185 a2.5 2.5 0 1 0 5 0 a2.5 2.5 0 1 0 -5 0zM202.5 145 a2.5 2.5 0 1 0 5 0 a2.5 2.5 0 1 0 -5 0zM52.5 175 a2.5 2.5 0 1 0 5 0 a2.5 2.5 0 1 0 -5 0zM472.5 125 a2.5 2.5 0 1 0 5 0 a2.5 2.5 0 1 0 -5 0zM452.5 125 a2.5 2.5 0 1 0 5 0 a2.5 2.5 0 1 0 -5 0zM82.5 165 a2.5 2.5 0 1 0 5 0 a2.5 2.5 0 1 0 -5 0zM162.5 155 a2.5 2.5 0 1 0 5 0 a2.5 2.5 0 1 0 -5 0zM442.5 125 a2.5 2.5 0 1 0 5 0 a2.5 2.5 0 1 0 -5 0z" fill="url(#SvgjsLinearGradient1366)"></path><path d="M915 475L925 485L935 485L945 485L955 485L965 485M995 475L1005 465L1015 465L1025 465L1035 465L1045 465L1055 455L1065 455L1075 455L1085 465L1095 465L1105 465L1115 465L1125 475L1135 475L1145 475L1155 475L1165 475L1175 475L1185 465L1195 465L1205 465L1215 465L1225 465L1235 465L1245 465M1045 485L1055 475L1065 475L1075 475L1085 475L1095 475L1105 475L1115 475M415 455L425 465L435 465L445 475L455 475L465 475M1185 475L1195 485L1205 485L1215 485L1225 485L1235 485L1245 485L1255 485L1265 485L1275 485L1285 485M355 455L365 465L375 465L385 465L395 465L405 465L415 465L425 475L435 475M825 485L835 475L845 475M295 455L305 465L315 465M105 435L115 445L125 445M765 475L775 475L785 475L795 475L805 475L815 475L825 475M1035 485L1045 475M975 475L985 465L995 455L1005 455M1025 475L1035 475M885 475L895 485L905 485L915 485L925 495L935 495L945 495L955 495M335 455L345 465L355 465L365 475L375 475L385 475L395 475L405 475L415 475M95 435L105 445M955 475L965 465L975 465L985 455M325 455L335 465M1175 485L1185 485M875 485L885 485M135 445L145 445M285 465L295 465M1255 475L1265 465L1275 465L1285 465L1295 465M-5 415L5 415L15 415L25 415L35 425L45 435L55 435L65 435L75 435L85 435L95 435L105 435L115 435L125 435L135 445L145 455L155 455L165 455L175 455L185 455L195 455L205 455L215 455L225 455L235 455L245 455L255 455L265 455L275 465L285 465L295 455L305 455L315 455L325 455L335 455L345 455L355 455L365 455L375 455L385 455L395 455L405 455L415 455L425 455L435 455L445 465L455 465L465 465L475 465L485 465L495 465L505 465L515 465L525 465L535 465L545 465L555 475L565 475L575 475L585 475L595 475L605 475L615 475L625 475L635 475L645 475L655 475L665 475L675 475L685 475L695 475L705 475L715 475L725 475L735 475L745 475L755 475L765 475L775 485L785 485L795 485L805 485L815 485L825 485L835 485L845 485L855 485L865 485L875 485L885 475L895 475L905 475L915 475L925 475L935 475L945 475L955 475L965 475L975 475L985 475L995 475L1005 475L1015 475L1025 475L1035 485L1045 485L1055 485L1065 485L1075 485L1085 485L1095 485L1105 485L1115 485L1125 485L1135 485L1145 485L1155 485L1165 485L1175 485L1185 475L1195 475L1205 475L1215 475L1225 475L1235 475L1245 475L1255 475L1265 475" stroke="url(#SvgjsLinearGradient1366)" stroke-width="1.67"></path><path d="M1262.5 475 a2.5 2.5 0 1 0 5 0 a2.5 2.5 0 1 0 -5 0zM962.5 485 a2.5 2.5 0 1 0 5 0 a2.5 2.5 0 1 0 -5 0zM1242.5 465 a2.5 2.5 0 1 0 5 0 a2.5 2.5 0 1 0 -5 0zM1112.5 475 a2.5 2.5 0 1 0 5 0 a2.5 2.5 0 1 0 -5 0zM462.5 475 a2.5 2.5 0 1 0 5 0 a2.5 2.5 0 1 0 -5 0zM1282.5 485 a2.5 2.5 0 1 0 5 0 a2.5 2.5 0 1 0 -5 0zM432.5 475 a2.5 2.5 0 1 0 5 0 a2.5 2.5 0 1 0 -5 0zM842.5 475 a2.5 2.5 0 1 0 5 0 a2.5 2.5 0 1 0 -5 0zM312.5 465 a2.5 2.5 0 1 0 5 0 a2.5 2.5 0 1 0 -5 0zM122.5 445 a2.5 2.5 0 1 0 5 0 a2.5 2.5 0 1 0 -5 0zM822.5 475 a2.5 2.5 0 1 0 5 0 a2.5 2.5 0 1 0 -5 0zM1042.5 475 a2.5 2.5 0 1 0 5 0 a2.5 2.5 0 1 0 -5 0zM1002.5 455 a2.5 2.5 0 1 0 5 0 a2.5 2.5 0 1 0 -5 0zM1032.5 475 a2.5 2.5 0 1 0 5 0 a2.5 2.5 0 1 0 -5 0zM952.5 495 a2.5 2.5 0 1 0 5 0 a2.5 2.5 0 1 0 -5 0zM412.5 475 a2.5 2.5 0 1 0 5 0 a2.5 2.5 0 1 0 -5 0zM102.5 445 a2.5 2.5 0 1 0 5 0 a2.5 2.5 0 1 0 -5 0zM982.5 455 a2.5 2.5 0 1 0 5 0 a2.5 2.5 0 1 0 -5 0zM332.5 465 a2.5 2.5 0 1 0 5 0 a2.5 2.5 0 1 0 -5 0zM1182.5 485 a2.5 2.5 0 1 0 5 0 a2.5 2.5 0 1 0 -5 0zM882.5 485 a2.5 2.5 0 1 0 5 0 a2.5 2.5 0 1 0 -5 0zM142.5 445 a2.5 2.5 0 1 0 5 0 a2.5 2.5 0 1 0 -5 0zM292.5 465 a2.5 2.5 0 1 0 5 0 a2.5 2.5 0 1 0 -5 0zM1292.5 465 a2.5 2.5 0 1 0 5 0 a2.5 2.5 0 1 0 -5 0z" fill="url(#SvgjsLinearGradient1366)"></path><path d="M875 105L885 95L895 95L905 95L915 95L925 95L935 95L945 95L955 95L965 95L975 95L985 95L995 95M905 105L915 115L925 115M615 95L625 85L635 85M1085 135L1095 125L1105 125M1185 125L1195 115M745 105L755 115L765 115L775 115M575 105L585 105L595 105L605 105L615 105M1025 115L1035 105L1045 105L1055 105L1065 105L1075 105L1085 105L1095 105L1105 105L1115 105L1125 105L1135 105L1145 105L1155 105L1165 105L1175 105L1185 105L1195 105L1205 105L1215 105L1225 105M955 115L965 105L975 105L985 105L995 105M845 105L855 95L865 85M925 105L935 105L945 105L955 105M1015 115L1025 105L1035 95L1045 85L1055 85L1065 85L1075 75L1085 75L1095 75L1105 75L1115 75L1125 65L1135 65L1145 65L1155 65L1165 65L1175 65L1185 65L1195 65L1205 65L1215 65L1225 65L1235 65L1245 75L1255 75L1265 75L1275 75L1285 75L1295 75M775 105L785 95L795 95L805 95L815 95L825 95L835 95L845 95L855 85L865 75L875 75M645 95L655 85L665 85L675 75L685 75L695 75L705 75L715 75L725 75M205 135L215 135M715 105L725 95L735 95L745 95L755 95L765 95L775 95L785 85L795 85L805 85L815 85L825 85M235 135L245 125L255 125L265 125L275 125L285 115L295 115L305 115M735 105L745 115M1115 135L1125 145L1135 145L1145 145L1155 145L1165 145L1175 145L1185 145L1195 145M1035 125L1045 135L1055 135L1065 135L1075 145L1085 145L1095 145L1105 155L1115 155L1125 155L1135 155L1145 155L1155 155L1165 155L1175 155L1185 155L1195 165L1205 165L1215 165M605 95L615 85L625 75L635 75L645 75M705 95L715 95L725 85L735 85L745 75L755 75L765 75L775 75L785 75L795 75L805 75M535 105L545 95L555 95L565 95L575 95L585 85L595 85L605 85L615 75L625 65L635 65L645 65L655 65L665 65L675 65L685 65L695 65L705 65L715 65L725 65L735 65L745 65L755 65L765 65L775 65L785 65L795 65M1045 125L1055 115L1065 115L1075 115L1085 115L1095 115L1105 115L1115 115L1125 115L1135 115L1145 115L1155 115L1165 115M665 95L675 95L685 105L695 105L705 105L715 115L725 115L735 115M1145 135L1155 135L1165 135L1175 135L1185 135M1205 125L1215 115L1225 115L1235 115L1245 115L1255 115L1265 115L1275 115L1285 115L1295 115M655 95L665 105L675 105M695 85L705 85L715 85M865 105L875 95L885 85M1125 135L1135 125L1145 125M-5 185L5 185L15 175L25 175L35 165L45 165L55 155L65 155L75 145L85 145L95 135L105 135L115 135L125 135L135 135L145 135L155 135L165 135L175 135L185 135L195 135L205 135L215 145L225 145L235 135L245 135L255 135L265 135L275 135L285 125L295 125L305 125L315 125L325 125L335 125L345 125L355 125L365 125L375 125L385 125L395 125L405 125L415 125L425 125L435 115L445 105L455 105L465 105L475 105L485 105L495 105L505 105L515 105L525 105L535 105L545 105L555 105L565 105L575 105L585 95L595 95L605 95L615 95L625 95L635 95L645 95L655 95L665 95L675 85L685 85L695 85L705 95L715 105L725 105L735 105L745 105L755 105L765 105L775 105L785 105L795 105L805 105L815 105L825 105L835 105L845 105L855 105L865 105L875 105L885 105L895 105L905 105L915 105L925 105L935 115L945 115L955 115L965 115L975 115L985 115L995 115L1005 115L1015 115L1025 115L1035 125L1045 125L1055 125L1065 125L1075 135L1085 135L1095 135L1105 135L1115 135L1125 135L1135 135L1145 135L1155 125L1165 125L1175 125L1185 125L1195 125L1205 125L1215 125L1225 125" stroke="url(#SvgjsLinearGradient1366)" stroke-width="1.67"></path><path d="M1222.5 125 a2.5 2.5 0 1 0 5 0 a2.5 2.5 0 1 0 -5 0zM992.5 95 a2.5 2.5 0 1 0 5 0 a2.5 2.5 0 1 0 -5 0zM922.5 115 a2.5 2.5 0 1 0 5 0 a2.5 2.5 0 1 0 -5 0zM632.5 85 a2.5 2.5 0 1 0 5 0 a2.5 2.5 0 1 0 -5 0zM1102.5 125 a2.5 2.5 0 1 0 5 0 a2.5 2.5 0 1 0 -5 0zM1192.5 115 a2.5 2.5 0 1 0 5 0 a2.5 2.5 0 1 0 -5 0zM772.5 115 a2.5 2.5 0 1 0 5 0 a2.5 2.5 0 1 0 -5 0zM612.5 105 a2.5 2.5 0 1 0 5 0 a2.5 2.5 0 1 0 -5 0zM1222.5 105 a2.5 2.5 0 1 0 5 0 a2.5 2.5 0 1 0 -5 0zM992.5 105 a2.5 2.5 0 1 0 5 0 a2.5 2.5 0 1 0 -5 0zM862.5 85 a2.5 2.5 0 1 0 5 0 a2.5 2.5 0 1 0 -5 0zM952.5 105 a2.5 2.5 0 1 0 5 0 a2.5 2.5 0 1 0 -5 0zM1292.5 75 a2.5 2.5 0 1 0 5 0 a2.5 2.5 0 1 0 -5 0zM872.5 75 a2.5 2.5 0 1 0 5 0 a2.5 2.5 0 1 0 -5 0zM722.5 75 a2.5 2.5 0 1 0 5 0 a2.5 2.5 0 1 0 -5 0zM212.5 135 a2.5 2.5 0 1 0 5 0 a2.5 2.5 0 1 0 -5 0zM822.5 85 a2.5 2.5 0 1 0 5 0 a2.5 2.5 0 1 0 -5 0zM302.5 115 a2.5 2.5 0 1 0 5 0 a2.5 2.5 0 1 0 -5 0zM742.5 115 a2.5 2.5 0 1 0 5 0 a2.5 2.5 0 1 0 -5 0zM1192.5 145 a2.5 2.5 0 1 0 5 0 a2.5 2.5 0 1 0 -5 0zM1212.5 165 a2.5 2.5 0 1 0 5 0 a2.5 2.5 0 1 0 -5 0zM642.5 75 a2.5 2.5 0 1 0 5 0 a2.5 2.5 0 1 0 -5 0zM802.5 75 a2.5 2.5 0 1 0 5 0 a2.5 2.5 0 1 0 -5 0zM792.5 65 a2.5 2.5 0 1 0 5 0 a2.5 2.5 0 1 0 -5 0zM1162.5 115 a2.5 2.5 0 1 0 5 0 a2.5 2.5 0 1 0 -5 0zM732.5 115 a2.5 2.5 0 1 0 5 0 a2.5 2.5 0 1 0 -5 0zM1182.5 135 a2.5 2.5 0 1 0 5 0 a2.5 2.5 0 1 0 -5 0zM1292.5 115 a2.5 2.5 0 1 0 5 0 a2.5 2.5 0 1 0 -5 0zM672.5 105 a2.5 2.5 0 1 0 5 0 a2.5 2.5 0 1 0 -5 0zM712.5 85 a2.5 2.5 0 1 0 5 0 a2.5 2.5 0 1 0 -5 0zM882.5 85 a2.5 2.5 0 1 0 5 0 a2.5 2.5 0 1 0 -5 0zM1142.5 125 a2.5 2.5 0 1 0 5 0 a2.5 2.5 0 1 0 -5 0z" fill="url(#SvgjsLinearGradient1366)"></path><path d="M-5 425L5 425L15 425L25 425L35 435L45 445L55 445L65 445L75 445" stroke="url(#SvgjsLinearGradient1366)" stroke-width="1.67"></path><path d="M72.5 445 a2.5 2.5 0 1 0 5 0 a2.5 2.5 0 1 0 -5 0z" fill="url(#SvgjsLinearGradient1366)"></path><path d="M195 125L205 115M165 125L175 115L185 115L195 115M215 125L225 125L235 125M-5 175L5 175L15 165L25 165L35 155L45 155L55 145L65 145L75 135L85 135L95 125L105 125L115 125L125 125L135 125L145 125L155 125L165 125L175 125L185 125L195 125L205 125L215 125L225 135" stroke="url(#SvgjsLinearGradient1366)" stroke-width="1.67"></path><path d="M222.5 135 a2.5 2.5 0 1 0 5 0 a2.5 2.5 0 1 0 -5 0zM202.5 115 a2.5 2.5 0 1 0 5 0 a2.5 2.5 0 1 0 -5 0zM192.5 115 a2.5 2.5 0 1 0 5 0 a2.5 2.5 0 1 0 -5 0zM232.5 125 a2.5 2.5 0 1 0 5 0 a2.5 2.5 0 1 0 -5 0z" fill="url(#SvgjsLinearGradient1366)"></path><path d="M1195 495L1205 505L1215 505L1225 505M505 475L515 485L525 485L535 485L545 485L555 495L565 495M335 475L345 485M975 485L985 495L995 495L1005 505L1015 505L1025 505L1035 505L1045 505L1055 505L1065 505L1075 505L1085 515L1095 515L1105 515L1115 515L1125 515L1135 515L1145 515L1155 515L1165 515L1175 515L1185 515L1195 515L1205 515L1215 515L1225 515L1235 515L1245 515L1255 515L1265 515L1275 515L1285 515L1295 515M655 485L665 495L675 495L685 495L695 495L705 495L715 495L725 495L735 495L745 495L755 495L765 495L775 505L785 505L795 505L805 505L815 505L825 505L835 505L845 505L855 505L865 505L875 505L885 505L895 505L905 505L915 515L925 515L935 515L945 525L955 525L965 525L975 535L985 535L995 535L1005 535L1015 535L1025 545L1035 545L1045 545L1055 545L1065 545L1075 545M325 475L335 485M595 485L605 495L615 495L625 495L635 495L645 495L655 495L665 505L675 505L685 505L695 505L705 505L715 505L725 505L735 505L745 505L755 505L765 505L775 515L785 515L795 515L805 515L815 515L825 515L835 515L845 515L855 515M495 475L505 485L515 495L525 505L535 505L545 505L555 505L565 505L575 505L585 505L595 505L605 505L615 505L625 505L635 505L645 505L655 505M1125 495L1135 505L1145 505L1155 505L1165 505L1175 505L1185 505L1195 505M85 455L95 445M585 485L595 495M1005 485L1015 495L1025 495M465 485L475 485L485 485L495 485L505 495L515 505L525 515L535 515L545 515L555 515L565 515L575 515L585 515M445 485L455 495L465 495L475 495L485 495M1115 495L1125 505M1105 495L1115 505M1085 495L1095 505L1105 505M315 475L325 485M905 495L915 495M955 505L965 505L975 505L985 505L995 505L1005 515M575 485L585 495M435 485L445 495L455 505L465 505L475 505L485 505L495 505L505 505L515 515L525 525M345 475L355 475M965 495L975 495M-5 435L5 435L15 435L25 435L35 445L45 455L55 455L65 455L75 455L85 455L95 455L105 455L115 455L125 455L135 455L145 465L155 465L165 465L175 465L185 465L195 465L205 465L215 465L225 465L235 465L245 465L255 465L265 465L275 475L285 475L295 475L305 475L315 475L325 475L335 475L345 475L355 485L365 485L375 485L385 485L395 485L405 485L415 485L425 485L435 485L445 485L455 485L465 485L475 475L485 475L495 475L505 475L515 475L525 475L535 475L545 475L555 485L565 485L575 485L585 485L595 485L605 485L615 485L625 485L635 485L645 485L655 485L665 485L675 485L685 485L695 485L705 485L715 485L725 485L735 485L745 485L755 485L765 485L775 495L785 495L795 495L805 495L815 495L825 495L835 495L845 495L855 495L865 495L875 495L885 495L895 495L905 495L915 505L925 505L935 505L945 505L955 505L965 495L975 485L985 485L995 485L1005 485L1015 485L1025 485L1035 495L1045 495L1055 495L1065 495L1075 495L1085 495L1095 495L1105 495L1115 495L1125 495L1135 495L1145 495L1155 495L1165 495L1175 495L1185 495L1195 495L1205 495L1215 495L1225 495L1235 495" stroke="url(#SvgjsLinearGradient1366)" stroke-width="1.67"></path><path d="M1232.5 495 a2.5 2.5 0 1 0 5 0 a2.5 2.5 0 1 0 -5 0zM1222.5 505 a2.5 2.5 0 1 0 5 0 a2.5 2.5 0 1 0 -5 0zM562.5 495 a2.5 2.5 0 1 0 5 0 a2.5 2.5 0 1 0 -5 0zM342.5 485 a2.5 2.5 0 1 0 5 0 a2.5 2.5 0 1 0 -5 0zM1292.5 515 a2.5 2.5 0 1 0 5 0 a2.5 2.5 0 1 0 -5 0zM1072.5 545 a2.5 2.5 0 1 0 5 0 a2.5 2.5 0 1 0 -5 0zM332.5 485 a2.5 2.5 0 1 0 5 0 a2.5 2.5 0 1 0 -5 0zM852.5 515 a2.5 2.5 0 1 0 5 0 a2.5 2.5 0 1 0 -5 0zM652.5 505 a2.5 2.5 0 1 0 5 0 a2.5 2.5 0 1 0 -5 0zM1192.5 505 a2.5 2.5 0 1 0 5 0 a2.5 2.5 0 1 0 -5 0zM92.5 445 a2.5 2.5 0 1 0 5 0 a2.5 2.5 0 1 0 -5 0zM592.5 495 a2.5 2.5 0 1 0 5 0 a2.5 2.5 0 1 0 -5 0zM1022.5 495 a2.5 2.5 0 1 0 5 0 a2.5 2.5 0 1 0 -5 0zM582.5 515 a2.5 2.5 0 1 0 5 0 a2.5 2.5 0 1 0 -5 0zM482.5 495 a2.5 2.5 0 1 0 5 0 a2.5 2.5 0 1 0 -5 0zM1122.5 505 a2.5 2.5 0 1 0 5 0 a2.5 2.5 0 1 0 -5 0zM1112.5 505 a2.5 2.5 0 1 0 5 0 a2.5 2.5 0 1 0 -5 0zM1102.5 505 a2.5 2.5 0 1 0 5 0 a2.5 2.5 0 1 0 -5 0zM322.5 485 a2.5 2.5 0 1 0 5 0 a2.5 2.5 0 1 0 -5 0zM912.5 495 a2.5 2.5 0 1 0 5 0 a2.5 2.5 0 1 0 -5 0zM1002.5 515 a2.5 2.5 0 1 0 5 0 a2.5 2.5 0 1 0 -5 0zM582.5 495 a2.5 2.5 0 1 0 5 0 a2.5 2.5 0 1 0 -5 0zM522.5 525 a2.5 2.5 0 1 0 5 0 a2.5 2.5 0 1 0 -5 0zM352.5 475 a2.5 2.5 0 1 0 5 0 a2.5 2.5 0 1 0 -5 0zM972.5 495 a2.5 2.5 0 1 0 5 0 a2.5 2.5 0 1 0 -5 0z" fill="url(#SvgjsLinearGradient1366)"></path><path d="M485 95L495 85L505 85L515 85L525 85L535 75L545 75L555 75L565 85L575 85L585 75L595 75L605 65L615 65M385 115L395 105M265 105L275 95L285 85L295 85L305 85L315 85L325 85L335 85L345 85L355 85L365 85L375 95L385 95L395 95M375 115L385 105M455 95L465 85L475 85L485 85L495 75L505 75L515 75L525 75M305 105L315 105L325 105L335 105L345 105M225 105L235 115L245 115L255 115L265 115L275 115M405 115L415 105L425 105L435 95L445 85L455 75L465 75L475 75L485 75M255 105L265 95M285 105L295 95L305 95L315 95L325 95L335 95L345 95L355 95L365 95L375 105M355 115L365 105M245 105L255 95M235 105L245 95L255 85L265 85M-5 165L5 165L15 155L25 155L35 145L45 145L55 135L65 135L75 125L85 125L95 115L105 115L115 115L125 115L135 115L145 115L155 115L165 105L175 105L185 105L195 105L205 105L215 105L225 105L235 105L245 105L255 105L265 105L275 105L285 105L295 105L305 105L315 115L325 115L335 115L345 115L355 115L365 115L375 115L385 115L395 115L405 115L415 115L425 115L435 105L445 95L455 95L465 95L475 95L485 95L495 95L505 95L515 95" stroke="url(#SvgjsLinearGradient1366)" stroke-width="1.67"></path><path d="M512.5 95 a2.5 2.5 0 1 0 5 0 a2.5 2.5 0 1 0 -5 0zM612.5 65 a2.5 2.5 0 1 0 5 0 a2.5 2.5 0 1 0 -5 0zM392.5 105 a2.5 2.5 0 1 0 5 0 a2.5 2.5 0 1 0 -5 0zM392.5 95 a2.5 2.5 0 1 0 5 0 a2.5 2.5 0 1 0 -5 0zM382.5 105 a2.5 2.5 0 1 0 5 0 a2.5 2.5 0 1 0 -5 0zM522.5 75 a2.5 2.5 0 1 0 5 0 a2.5 2.5 0 1 0 -5 0zM342.5 105 a2.5 2.5 0 1 0 5 0 a2.5 2.5 0 1 0 -5 0zM272.5 115 a2.5 2.5 0 1 0 5 0 a2.5 2.5 0 1 0 -5 0zM482.5 75 a2.5 2.5 0 1 0 5 0 a2.5 2.5 0 1 0 -5 0zM262.5 95 a2.5 2.5 0 1 0 5 0 a2.5 2.5 0 1 0 -5 0zM372.5 105 a2.5 2.5 0 1 0 5 0 a2.5 2.5 0 1 0 -5 0zM362.5 105 a2.5 2.5 0 1 0 5 0 a2.5 2.5 0 1 0 -5 0zM252.5 95 a2.5 2.5 0 1 0 5 0 a2.5 2.5 0 1 0 -5 0zM262.5 85 a2.5 2.5 0 1 0 5 0 a2.5 2.5 0 1 0 -5 0z" fill="url(#SvgjsLinearGradient1366)"></path><path d="M185 475L195 485L205 485M285 485L295 495L305 495L315 505L325 505L335 505L345 505L355 505L365 505L375 505L385 505L395 505L405 505L415 505L425 505L435 505L445 505L455 515L465 515M145 475L155 485L165 485L175 485L185 485M45 465L55 475L65 475L75 475L85 475M305 485L315 485M275 485L285 495L295 505L305 515M105 465L115 475L125 485L135 485L145 485L155 495L165 495L175 495L185 495L195 495L205 495L215 495L225 495M245 475L255 485L265 485L275 495L285 505L295 515L305 525L315 525L325 525M215 475L225 485M15 445L25 455L35 465L45 475L55 485L65 485L75 485L85 485L95 485L105 485L115 495L125 495L135 495L145 495M95 465L105 475M-5 445L5 445L15 445L25 445L35 455L45 465L55 465L65 465L75 465L85 465L95 465L105 465L115 465L125 465L135 465L145 475L155 475L165 475L175 475L185 475L195 475L205 475L215 475L225 475L235 475L245 475L255 475L265 475L275 485L285 485L295 485L305 485L315 495L325 495L335 495L345 495L355 495L365 495L375 495L385 495L395 495L405 495L415 495L425 495" stroke="url(#SvgjsLinearGradient1366)" stroke-width="1.67"></path><path d="M422.5 495 a2.5 2.5 0 1 0 5 0 a2.5 2.5 0 1 0 -5 0zM202.5 485 a2.5 2.5 0 1 0 5 0 a2.5 2.5 0 1 0 -5 0zM462.5 515 a2.5 2.5 0 1 0 5 0 a2.5 2.5 0 1 0 -5 0zM182.5 485 a2.5 2.5 0 1 0 5 0 a2.5 2.5 0 1 0 -5 0zM82.5 475 a2.5 2.5 0 1 0 5 0 a2.5 2.5 0 1 0 -5 0zM312.5 485 a2.5 2.5 0 1 0 5 0 a2.5 2.5 0 1 0 -5 0zM302.5 515 a2.5 2.5 0 1 0 5 0 a2.5 2.5 0 1 0 -5 0zM222.5 495 a2.5 2.5 0 1 0 5 0 a2.5 2.5 0 1 0 -5 0zM322.5 525 a2.5 2.5 0 1 0 5 0 a2.5 2.5 0 1 0 -5 0zM222.5 485 a2.5 2.5 0 1 0 5 0 a2.5 2.5 0 1 0 -5 0zM142.5 495 a2.5 2.5 0 1 0 5 0 a2.5 2.5 0 1 0 -5 0zM102.5 475 a2.5 2.5 0 1 0 5 0 a2.5 2.5 0 1 0 -5 0z" fill="url(#SvgjsLinearGradient1366)"></path><path d="M785 55L795 45L805 45L815 35L825 35L835 35L845 35L855 35L865 35L875 35L885 45L895 45L905 45L915 45L925 45M875 65L885 55L895 55L905 55L915 55L925 55L935 55L945 55L955 55L965 45L975 45L985 45L995 45L1005 45L1015 45L1025 45L1035 45M555 65L565 55L575 55M385 75L395 85M845 65L855 55L865 55L875 55M105 105L115 95L125 95L135 95L145 95L155 95L165 85L175 85L185 85L195 85L205 85L215 85L225 85L235 75L245 65L255 65L265 65L275 65L285 65L295 65L305 65L315 65L325 65L335 65L345 65L355 55M815 55L825 55L835 55L845 55L855 45L865 45L875 45M475 65L485 55L495 55L505 55L515 55L525 55L535 55L545 55L555 55L565 45L575 45L585 45L595 35L605 35L615 35L625 35L635 35L645 25L655 25L665 25L675 25L685 25L695 25L705 25L715 25L725 25L735 25L745 25L755 25L765 25L775 25L785 25L795 25L805 25M685 55L695 45L705 45L715 45L725 45L735 45L745 45L755 45L765 45L775 45L785 35L795 35L805 35M415 75L425 75M915 65L925 75L935 75L945 75M675 55L685 45L695 35L705 35L715 35L725 35L735 35L745 35L755 35L765 35L775 35M225 95L235 95M55 125L65 115L75 105L85 95L95 95L105 95L115 85L125 85L135 85L145 85L155 85L165 75L175 75L185 75L195 75L205 65L215 65L225 65L235 65L245 55L255 55L265 55L275 55L285 55L295 55L305 55L315 45L325 45L335 45L345 55M905 65L915 75L925 85L935 85L945 85L955 85L965 85L975 85L985 85L995 85L1005 85L1015 85L1025 85L1035 85L1045 75L1055 75M375 75L385 65L395 65L405 65L415 65M655 55L665 45L675 45L685 35M435 65L445 75M625 55L635 45L645 45L655 45L665 35L675 35M465 65L475 55L485 45L495 45L505 45M595 55L605 45L615 45L625 45M825 65L835 75L845 75L855 75M405 75L415 85M-5 155L5 155L15 145L25 145L35 135L45 135L55 125L65 125L75 115L85 105L95 105L105 105L115 105L125 105L135 105L145 105L155 105L165 95L175 95L185 95L195 95L205 95L215 95L225 95L235 85L245 75L255 75L265 75L275 75L285 75L295 75L305 75L315 75L325 75L335 75L345 75L355 75L365 75L375 75L385 75L395 75L405 75L415 75L425 65L435 65L445 65L455 65L465 65L475 65L485 65L495 65L505 65L515 65L525 65L535 65L545 65L555 65L565 65L575 65L585 65L595 55L605 55L615 55L625 55L635 55L645 55L655 55L665 55L675 55L685 55L695 55L705 55L715 55L725 55L735 55L745 55L755 55L765 55L775 55L785 55L795 55L805 55L815 55L825 65L835 65L845 65L855 65L865 65L875 65L885 65L895 65L905 65L915 65L925 65L935 65" stroke="url(#SvgjsLinearGradient1366)" stroke-width="1.67"></path><path d="M932.5 65 a2.5 2.5 0 1 0 5 0 a2.5 2.5 0 1 0 -5 0zM922.5 45 a2.5 2.5 0 1 0 5 0 a2.5 2.5 0 1 0 -5 0zM1032.5 45 a2.5 2.5 0 1 0 5 0 a2.5 2.5 0 1 0 -5 0zM572.5 55 a2.5 2.5 0 1 0 5 0 a2.5 2.5 0 1 0 -5 0zM392.5 85 a2.5 2.5 0 1 0 5 0 a2.5 2.5 0 1 0 -5 0zM872.5 55 a2.5 2.5 0 1 0 5 0 a2.5 2.5 0 1 0 -5 0zM352.5 55 a2.5 2.5 0 1 0 5 0 a2.5 2.5 0 1 0 -5 0zM872.5 45 a2.5 2.5 0 1 0 5 0 a2.5 2.5 0 1 0 -5 0zM802.5 25 a2.5 2.5 0 1 0 5 0 a2.5 2.5 0 1 0 -5 0zM802.5 35 a2.5 2.5 0 1 0 5 0 a2.5 2.5 0 1 0 -5 0zM422.5 75 a2.5 2.5 0 1 0 5 0 a2.5 2.5 0 1 0 -5 0zM942.5 75 a2.5 2.5 0 1 0 5 0 a2.5 2.5 0 1 0 -5 0zM772.5 35 a2.5 2.5 0 1 0 5 0 a2.5 2.5 0 1 0 -5 0zM232.5 95 a2.5 2.5 0 1 0 5 0 a2.5 2.5 0 1 0 -5 0zM342.5 55 a2.5 2.5 0 1 0 5 0 a2.5 2.5 0 1 0 -5 0zM1052.5 75 a2.5 2.5 0 1 0 5 0 a2.5 2.5 0 1 0 -5 0zM412.5 65 a2.5 2.5 0 1 0 5 0 a2.5 2.5 0 1 0 -5 0zM682.5 35 a2.5 2.5 0 1 0 5 0 a2.5 2.5 0 1 0 -5 0zM442.5 75 a2.5 2.5 0 1 0 5 0 a2.5 2.5 0 1 0 -5 0zM672.5 35 a2.5 2.5 0 1 0 5 0 a2.5 2.5 0 1 0 -5 0zM502.5 45 a2.5 2.5 0 1 0 5 0 a2.5 2.5 0 1 0 -5 0zM622.5 45 a2.5 2.5 0 1 0 5 0 a2.5 2.5 0 1 0 -5 0zM852.5 75 a2.5 2.5 0 1 0 5 0 a2.5 2.5 0 1 0 -5 0zM412.5 85 a2.5 2.5 0 1 0 5 0 a2.5 2.5 0 1 0 -5 0z" fill="url(#SvgjsLinearGradient1366)"></path></g></g><defs><mask id="SvgjsMask1365"><rect width="1600" height="600" fill="#ffffff"></rect></mask><linearGradient x1="1133.9616" y1="-178.02" x2="178.03840000000002" y2="778.02" gradientUnits="userSpaceOnUse" id="SvgjsLinearGradient1366"><stop stop-color="#3a7cc3" offset="0"></stop><stop stop-color="#dd1133" offset="1"></stop></linearGradient><mask id="SvgjsMask1367"><rect width="1600" height="600" fill="white"></rect><path d="M303.75 275 a1.25 1.25 0 1 0 2.5 0 a1.25 1.25 0 1 0 -2.5 0zM63.75 295 a1.25 1.25 0 1 0 2.5 0 a1.25 1.25 0 1 0 -2.5 0zM313.75 315 a1.25 1.25 0 1 0 2.5 0 a1.25 1.25 0 1 0 -2.5 0zM323.75 285 a1.25 1.25 0 1 0 2.5 0 a1.25 1.25 0 1 0 -2.5 0zM193.75 305 a1.25 1.25 0 1 0 2.5 0 a1.25 1.25 0 1 0 -2.5 0zM303.75 295 a1.25 1.25 0 1 0 2.5 0 a1.25 1.25 0 1 0 -2.5 0zM173.75 305 a1.25 1.25 0 1 0 2.5 0 a1.25 1.25 0 1 0 -2.5 0zM263.75 285 a1.25 1.25 0 1 0 2.5 0 a1.25 1.25 0 1 0 -2.5 0zM133.75 295 a1.25 1.25 0 1 0 2.5 0 a1.25 1.25 0 1 0 -2.5 0z" fill="black"></path><path d="M543.75 255 a1.25 1.25 0 1 0 2.5 0 a1.25 1.25 0 1 0 -2.5 0zM503.75 255 a1.25 1.25 0 1 0 2.5 0 a1.25 1.25 0 1 0 -2.5 0zM443.75 265 a1.25 1.25 0 1 0 2.5 0 a1.25 1.25 0 1 0 -2.5 0zM53.75 295 a1.25 1.25 0 1 0 2.5 0 a1.25 1.25 0 1 0 -2.5 0zM373.75 285 a1.25 1.25 0 1 0 2.5 0 a1.25 1.25 0 1 0 -2.5 0zM163.75 275 a1.25 1.25 0 1 0 2.5 0 a1.25 1.25 0 1 0 -2.5 0zM343.75 275 a1.25 1.25 0 1 0 2.5 0 a1.25 1.25 0 1 0 -2.5 0zM673.75 245 a1.25 1.25 0 1 0 2.5 0 a1.25 1.25 0 1 0 -2.5 0zM473.75 255 a1.25 1.25 0 1 0 2.5 0 a1.25 1.25 0 1 0 -2.5 0zM123.75 295 a1.25 1.25 0 1 0 2.5 0 a1.25 1.25 0 1 0 -2.5 0zM503.75 235 a1.25 1.25 0 1 0 2.5 0 a1.25 1.25 0 1 0 -2.5 0zM443.75 255 a1.25 1.25 0 1 0 2.5 0 a1.25 1.25 0 1 0 -2.5 0zM563.75 265 a1.25 1.25 0 1 0 2.5 0 a1.25 1.25 0 1 0 -2.5 0zM93.75 275 a1.25 1.25 0 1 0 2.5 0 a1.25 1.25 0 1 0 -2.5 0zM293.75 255 a1.25 1.25 0 1 0 2.5 0 a1.25 1.25 0 1 0 -2.5 0z" fill="black"></path><path d="M1103.75 335 a1.25 1.25 0 1 0 2.5 0 a1.25 1.25 0 1 0 -2.5 0zM603.75 295 a1.25 1.25 0 1 0 2.5 0 a1.25 1.25 0 1 0 -2.5 0zM1293.75 335 a1.25 1.25 0 1 0 2.5 0 a1.25 1.25 0 1 0 -2.5 0zM933.75 345 a1.25 1.25 0 1 0 2.5 0 a1.25 1.25 0 1 0 -2.5 0zM1023.75 315 a1.25 1.25 0 1 0 2.5 0 a1.25 1.25 0 1 0 -2.5 0zM273.75 335 a1.25 1.25 0 1 0 2.5 0 a1.25 1.25 0 1 0 -2.5 0zM823.75 305 a1.25 1.25 0 1 0 2.5 0 a1.25 1.25 0 1 0 -2.5 0zM573.75 335 a1.25 1.25 0 1 0 2.5 0 a1.25 1.25 0 1 0 -2.5 0zM213.75 335 a1.25 1.25 0 1 0 2.5 0 a1.25 1.25 0 1 0 -2.5 0zM753.75 325 a1.25 1.25 0 1 0 2.5 0 a1.25 1.25 0 1 0 -2.5 0zM1053.75 325 a1.25 1.25 0 1 0 2.5 0 a1.25 1.25 0 1 0 -2.5 0zM283.75 315 a1.25 1.25 0 1 0 2.5 0 a1.25 1.25 0 1 0 -2.5 0zM973.75 315 a1.25 1.25 0 1 0 2.5 0 a1.25 1.25 0 1 0 -2.5 0zM693.75 295 a1.25 1.25 0 1 0 2.5 0 a1.25 1.25 0 1 0 -2.5 0zM363.75 335 a1.25 1.25 0 1 0 2.5 0 a1.25 1.25 0 1 0 -2.5 0zM943.75 315 a1.25 1.25 0 1 0 2.5 0 a1.25 1.25 0 1 0 -2.5 0zM783.75 295 a1.25 1.25 0 1 0 2.5 0 a1.25 1.25 0 1 0 -2.5 0zM803.75 285 a1.25 1.25 0 1 0 2.5 0 a1.25 1.25 0 1 0 -2.5 0zM863.75 325 a1.25 1.25 0 1 0 2.5 0 a1.25 1.25 0 1 0 -2.5 0zM193.75 315 a1.25 1.25 0 1 0 2.5 0 a1.25 1.25 0 1 0 -2.5 0zM443.75 345 a1.25 1.25 0 1 0 2.5 0 a1.25 1.25 0 1 0 -2.5 0zM1013.75 325 a1.25 1.25 0 1 0 2.5 0 a1.25 1.25 0 1 0 -2.5 0zM1143.75 325 a1.25 1.25 0 1 0 2.5 0 a1.25 1.25 0 1 0 -2.5 0zM813.75 315 a1.25 1.25 0 1 0 2.5 0 a1.25 1.25 0 1 0 -2.5 0zM1013.75 355 a1.25 1.25 0 1 0 2.5 0 a1.25 1.25 0 1 0 -2.5 0zM643.75 295 a1.25 1.25 0 1 0 2.5 0 a1.25 1.25 0 1 0 -2.5 0zM303.75 345 a1.25 1.25 0 1 0 2.5 0 a1.25 1.25 0 1 0 -2.5 0zM333.75 335 a1.25 1.25 0 1 0 2.5 0 a1.25 1.25 0 1 0 -2.5 0zM563.75 325 a1.25 1.25 0 1 0 2.5 0 a1.25 1.25 0 1 0 -2.5 0z" fill="black"></path><path d="M683.75 205 a1.25 1.25 0 1 0 2.5 0 a1.25 1.25 0 1 0 -2.5 0zM733.75 225 a1.25 1.25 0 1 0 2.5 0 a1.25 1.25 0 1 0 -2.5 0zM653.75 215 a1.25 1.25 0 1 0 2.5 0 a1.25 1.25 0 1 0 -2.5 0zM63.75 275 a1.25 1.25 0 1 0 2.5 0 a1.25 1.25 0 1 0 -2.5 0zM163.75 255 a1.25 1.25 0 1 0 2.5 0 a1.25 1.25 0 1 0 -2.5 0zM583.75 235 a1.25 1.25 0 1 0 2.5 0 a1.25 1.25 0 1 0 -2.5 0zM223.75 255 a1.25 1.25 0 1 0 2.5 0 a1.25 1.25 0 1 0 -2.5 0zM573.75 235 a1.25 1.25 0 1 0 2.5 0 a1.25 1.25 0 1 0 -2.5 0zM263.75 255 a1.25 1.25 0 1 0 2.5 0 a1.25 1.25 0 1 0 -2.5 0zM673.75 215 a1.25 1.25 0 1 0 2.5 0 a1.25 1.25 0 1 0 -2.5 0zM633.75 215 a1.25 1.25 0 1 0 2.5 0 a1.25 1.25 0 1 0 -2.5 0zM143.75 255 a1.25 1.25 0 1 0 2.5 0 a1.25 1.25 0 1 0 -2.5 0z" fill="black"></path><path d="M143.75 325 a1.25 1.25 0 1 0 2.5 0 a1.25 1.25 0 1 0 -2.5 0z" fill="black"></path><path d="M743.75 185 a1.25 1.25 0 1 0 2.5 0 a1.25 1.25 0 1 0 -2.5 0zM893.75 215 a1.25 1.25 0 1 0 2.5 0 a1.25 1.25 0 1 0 -2.5 0zM613.75 195 a1.25 1.25 0 1 0 2.5 0 a1.25 1.25 0 1 0 -2.5 0zM273.75 225 a1.25 1.25 0 1 0 2.5 0 a1.25 1.25 0 1 0 -2.5 0zM553.75 195 a1.25 1.25 0 1 0 2.5 0 a1.25 1.25 0 1 0 -2.5 0zM463.75 205 a1.25 1.25 0 1 0 2.5 0 a1.25 1.25 0 1 0 -2.5 0zM133.75 255 a1.25 1.25 0 1 0 2.5 0 a1.25 1.25 0 1 0 -2.5 0zM733.75 175 a1.25 1.25 0 1 0 2.5 0 a1.25 1.25 0 1 0 -2.5 0zM43.75 265 a1.25 1.25 0 1 0 2.5 0 a1.25 1.25 0 1 0 -2.5 0zM353.75 225 a1.25 1.25 0 1 0 2.5 0 a1.25 1.25 0 1 0 -2.5 0zM923.75 185 a1.25 1.25 0 1 0 2.5 0 a1.25 1.25 0 1 0 -2.5 0zM433.75 205 a1.25 1.25 0 1 0 2.5 0 a1.25 1.25 0 1 0 -2.5 0zM733.75 205 a1.25 1.25 0 1 0 2.5 0 a1.25 1.25 0 1 0 -2.5 0zM673.75 175 a1.25 1.25 0 1 0 2.5 0 a1.25 1.25 0 1 0 -2.5 0zM803.75 225 a1.25 1.25 0 1 0 2.5 0 a1.25 1.25 0 1 0 -2.5 0zM703.75 205 a1.25 1.25 0 1 0 2.5 0 a1.25 1.25 0 1 0 -2.5 0zM403.75 225 a1.25 1.25 0 1 0 2.5 0 a1.25 1.25 0 1 0 -2.5 0zM313.75 225 a1.25 1.25 0 1 0 2.5 0 a1.25 1.25 0 1 0 -2.5 0zM373.75 225 a1.25 1.25 0 1 0 2.5 0 a1.25 1.25 0 1 0 -2.5 0zM23.75 265 a1.25 1.25 0 1 0 2.5 0 a1.25 1.25 0 1 0 -2.5 0z" fill="black"></path><path d="M883.75 355 a1.25 1.25 0 1 0 2.5 0 a1.25 1.25 0 1 0 -2.5 0zM733.75 365 a1.25 1.25 0 1 0 2.5 0 a1.25 1.25 0 1 0 -2.5 0zM153.75 335 a1.25 1.25 0 1 0 2.5 0 a1.25 1.25 0 1 0 -2.5 0zM473.75 365 a1.25 1.25 0 1 0 2.5 0 a1.25 1.25 0 1 0 -2.5 0zM1043.75 385 a1.25 1.25 0 1 0 2.5 0 a1.25 1.25 0 1 0 -2.5 0zM773.75 365 a1.25 1.25 0 1 0 2.5 0 a1.25 1.25 0 1 0 -2.5 0zM953.75 375 a1.25 1.25 0 1 0 2.5 0 a1.25 1.25 0 1 0 -2.5 0zM433.75 375 a1.25 1.25 0 1 0 2.5 0 a1.25 1.25 0 1 0 -2.5 0zM603.75 335 a1.25 1.25 0 1 0 2.5 0 a1.25 1.25 0 1 0 -2.5 0zM613.75 355 a1.25 1.25 0 1 0 2.5 0 a1.25 1.25 0 1 0 -2.5 0zM433.75 345 a1.25 1.25 0 1 0 2.5 0 a1.25 1.25 0 1 0 -2.5 0zM673.75 345 a1.25 1.25 0 1 0 2.5 0 a1.25 1.25 0 1 0 -2.5 0zM843.75 385 a1.25 1.25 0 1 0 2.5 0 a1.25 1.25 0 1 0 -2.5 0zM713.75 385 a1.25 1.25 0 1 0 2.5 0 a1.25 1.25 0 1 0 -2.5 0zM473.75 355 a1.25 1.25 0 1 0 2.5 0 a1.25 1.25 0 1 0 -2.5 0zM643.75 345 a1.25 1.25 0 1 0 2.5 0 a1.25 1.25 0 1 0 -2.5 0zM283.75 345 a1.25 1.25 0 1 0 2.5 0 a1.25 1.25 0 1 0 -2.5 0zM823.75 355 a1.25 1.25 0 1 0 2.5 0 a1.25 1.25 0 1 0 -2.5 0zM663.75 345 a1.25 1.25 0 1 0 2.5 0 a1.25 1.25 0 1 0 -2.5 0zM633.75 345 a1.25 1.25 0 1 0 2.5 0 a1.25 1.25 0 1 0 -2.5 0zM143.75 335 a1.25 1.25 0 1 0 2.5 0 a1.25 1.25 0 1 0 -2.5 0zM963.75 365 a1.25 1.25 0 1 0 2.5 0 a1.25 1.25 0 1 0 -2.5 0zM463.75 355 a1.25 1.25 0 1 0 2.5 0 a1.25 1.25 0 1 0 -2.5 0z" fill="black"></path><path d="M83.75 245 a1.25 1.25 0 1 0 2.5 0 a1.25 1.25 0 1 0 -2.5 0zM13.75 265 a1.25 1.25 0 1 0 2.5 0 a1.25 1.25 0 1 0 -2.5 0z" fill="black"></path><path d="M283.75 365 a1.25 1.25 0 1 0 2.5 0 a1.25 1.25 0 1 0 -2.5 0zM153.75 365 a1.25 1.25 0 1 0 2.5 0 a1.25 1.25 0 1 0 -2.5 0zM223.75 365 a1.25 1.25 0 1 0 2.5 0 a1.25 1.25 0 1 0 -2.5 0zM113.75 355 a1.25 1.25 0 1 0 2.5 0 a1.25 1.25 0 1 0 -2.5 0zM63.75 355 a1.25 1.25 0 1 0 2.5 0 a1.25 1.25 0 1 0 -2.5 0zM253.75 375 a1.25 1.25 0 1 0 2.5 0 a1.25 1.25 0 1 0 -2.5 0zM293.75 375 a1.25 1.25 0 1 0 2.5 0 a1.25 1.25 0 1 0 -2.5 0zM293.75 385 a1.25 1.25 0 1 0 2.5 0 a1.25 1.25 0 1 0 -2.5 0z" fill="black"></path><path d="M123.75 245 a1.25 1.25 0 1 0 2.5 0 a1.25 1.25 0 1 0 -2.5 0zM103.75 235 a1.25 1.25 0 1 0 2.5 0 a1.25 1.25 0 1 0 -2.5 0zM93.75 235 a1.25 1.25 0 1 0 2.5 0 a1.25 1.25 0 1 0 -2.5 0z" fill="black"></path><path d="M593.75 405 a1.25 1.25 0 1 0 2.5 0 a1.25 1.25 0 1 0 -2.5 0zM563.75 425 a1.25 1.25 0 1 0 2.5 0 a1.25 1.25 0 1 0 -2.5 0zM413.75 385 a1.25 1.25 0 1 0 2.5 0 a1.25 1.25 0 1 0 -2.5 0zM403.75 385 a1.25 1.25 0 1 0 2.5 0 a1.25 1.25 0 1 0 -2.5 0zM553.75 385 a1.25 1.25 0 1 0 2.5 0 a1.25 1.25 0 1 0 -2.5 0zM513.75 395 a1.25 1.25 0 1 0 2.5 0 a1.25 1.25 0 1 0 -2.5 0zM233.75 395 a1.25 1.25 0 1 0 2.5 0 a1.25 1.25 0 1 0 -2.5 0zM283.75 395 a1.25 1.25 0 1 0 2.5 0 a1.25 1.25 0 1 0 -2.5 0zM153.75 375 a1.25 1.25 0 1 0 2.5 0 a1.25 1.25 0 1 0 -2.5 0zM103.75 365 a1.25 1.25 0 1 0 2.5 0 a1.25 1.25 0 1 0 -2.5 0zM183.75 385 a1.25 1.25 0 1 0 2.5 0 a1.25 1.25 0 1 0 -2.5 0zM363.75 385 a1.25 1.25 0 1 0 2.5 0 a1.25 1.25 0 1 0 -2.5 0zM643.75 415 a1.25 1.25 0 1 0 2.5 0 a1.25 1.25 0 1 0 -2.5 0zM63.75 365 a1.25 1.25 0 1 0 2.5 0 a1.25 1.25 0 1 0 -2.5 0zM523.75 415 a1.25 1.25 0 1 0 2.5 0 a1.25 1.25 0 1 0 -2.5 0zM543.75 375 a1.25 1.25 0 1 0 2.5 0 a1.25 1.25 0 1 0 -2.5 0z" fill="black"></path><path d="M193.75 235 a1.25 1.25 0 1 0 2.5 0 a1.25 1.25 0 1 0 -2.5 0zM183.75 225 a1.25 1.25 0 1 0 2.5 0 a1.25 1.25 0 1 0 -2.5 0zM153.75 225 a1.25 1.25 0 1 0 2.5 0 a1.25 1.25 0 1 0 -2.5 0zM153.75 215 a1.25 1.25 0 1 0 2.5 0 a1.25 1.25 0 1 0 -2.5 0zM183.75 215 a1.25 1.25 0 1 0 2.5 0 a1.25 1.25 0 1 0 -2.5 0z" fill="black"></path><path d="M893.75 425 a1.25 1.25 0 1 0 2.5 0 a1.25 1.25 0 1 0 -2.5 0zM373.75 405 a1.25 1.25 0 1 0 2.5 0 a1.25 1.25 0 1 0 -2.5 0zM853.75 425 a1.25 1.25 0 1 0 2.5 0 a1.25 1.25 0 1 0 -2.5 0zM963.75 415 a1.25 1.25 0 1 0 2.5 0 a1.25 1.25 0 1 0 -2.5 0zM793.75 445 a1.25 1.25 0 1 0 2.5 0 a1.25 1.25 0 1 0 -2.5 0zM713.75 415 a1.25 1.25 0 1 0 2.5 0 a1.25 1.25 0 1 0 -2.5 0zM433.75 425 a1.25 1.25 0 1 0 2.5 0 a1.25 1.25 0 1 0 -2.5 0zM823.75 435 a1.25 1.25 0 1 0 2.5 0 a1.25 1.25 0 1 0 -2.5 0zM643.75 425 a1.25 1.25 0 1 0 2.5 0 a1.25 1.25 0 1 0 -2.5 0zM663.75 445 a1.25 1.25 0 1 0 2.5 0 a1.25 1.25 0 1 0 -2.5 0zM633.75 425 a1.25 1.25 0 1 0 2.5 0 a1.25 1.25 0 1 0 -2.5 0zM913.75 445 a1.25 1.25 0 1 0 2.5 0 a1.25 1.25 0 1 0 -2.5 0zM483.75 415 a1.25 1.25 0 1 0 2.5 0 a1.25 1.25 0 1 0 -2.5 0zM653.75 445 a1.25 1.25 0 1 0 2.5 0 a1.25 1.25 0 1 0 -2.5 0zM443.75 415 a1.25 1.25 0 1 0 2.5 0 a1.25 1.25 0 1 0 -2.5 0zM863.75 445 a1.25 1.25 0 1 0 2.5 0 a1.25 1.25 0 1 0 -2.5 0zM623.75 445 a1.25 1.25 0 1 0 2.5 0 a1.25 1.25 0 1 0 -2.5 0zM203.75 415 a1.25 1.25 0 1 0 2.5 0 a1.25 1.25 0 1 0 -2.5 0zM553.75 435 a1.25 1.25 0 1 0 2.5 0 a1.25 1.25 0 1 0 -2.5 0zM793.75 415 a1.25 1.25 0 1 0 2.5 0 a1.25 1.25 0 1 0 -2.5 0zM883.75 405 a1.25 1.25 0 1 0 2.5 0 a1.25 1.25 0 1 0 -2.5 0zM353.75 405 a1.25 1.25 0 1 0 2.5 0 a1.25 1.25 0 1 0 -2.5 0zM843.75 395 a1.25 1.25 0 1 0 2.5 0 a1.25 1.25 0 1 0 -2.5 0z" fill="black"></path><path d="M873.75 135 a1.25 1.25 0 1 0 2.5 0 a1.25 1.25 0 1 0 -2.5 0zM653.75 175 a1.25 1.25 0 1 0 2.5 0 a1.25 1.25 0 1 0 -2.5 0zM343.75 195 a1.25 1.25 0 1 0 2.5 0 a1.25 1.25 0 1 0 -2.5 0zM393.75 185 a1.25 1.25 0 1 0 2.5 0 a1.25 1.25 0 1 0 -2.5 0zM213.75 195 a1.25 1.25 0 1 0 2.5 0 a1.25 1.25 0 1 0 -2.5 0zM323.75 165 a1.25 1.25 0 1 0 2.5 0 a1.25 1.25 0 1 0 -2.5 0zM313.75 165 a1.25 1.25 0 1 0 2.5 0 a1.25 1.25 0 1 0 -2.5 0zM863.75 125 a1.25 1.25 0 1 0 2.5 0 a1.25 1.25 0 1 0 -2.5 0zM443.75 205 a1.25 1.25 0 1 0 2.5 0 a1.25 1.25 0 1 0 -2.5 0zM943.75 185 a1.25 1.25 0 1 0 2.5 0 a1.25 1.25 0 1 0 -2.5 0zM583.75 165 a1.25 1.25 0 1 0 2.5 0 a1.25 1.25 0 1 0 -2.5 0zM643.75 175 a1.25 1.25 0 1 0 2.5 0 a1.25 1.25 0 1 0 -2.5 0zM413.75 205 a1.25 1.25 0 1 0 2.5 0 a1.25 1.25 0 1 0 -2.5 0zM183.75 195 a1.25 1.25 0 1 0 2.5 0 a1.25 1.25 0 1 0 -2.5 0zM723.75 145 a1.25 1.25 0 1 0 2.5 0 a1.25 1.25 0 1 0 -2.5 0zM733.75 155 a1.25 1.25 0 1 0 2.5 0 a1.25 1.25 0 1 0 -2.5 0zM483.75 175 a1.25 1.25 0 1 0 2.5 0 a1.25 1.25 0 1 0 -2.5 0zM663.75 155 a1.25 1.25 0 1 0 2.5 0 a1.25 1.25 0 1 0 -2.5 0zM693.75 145 a1.25 1.25 0 1 0 2.5 0 a1.25 1.25 0 1 0 -2.5 0zM173.75 215 a1.25 1.25 0 1 0 2.5 0 a1.25 1.25 0 1 0 -2.5 0zM393.75 165 a1.25 1.25 0 1 0 2.5 0 a1.25 1.25 0 1 0 -2.5 0zM253.75 205 a1.25 1.25 0 1 0 2.5 0 a1.25 1.25 0 1 0 -2.5 0zM703.75 135 a1.25 1.25 0 1 0 2.5 0 a1.25 1.25 0 1 0 -2.5 0z" fill="black"></path><path d="M173.75 415 a1.25 1.25 0 1 0 2.5 0 a1.25 1.25 0 1 0 -2.5 0z" fill="black"></path><path d="M423.75 155 a1.25 1.25 0 1 0 2.5 0 a1.25 1.25 0 1 0 -2.5 0zM343.75 165 a1.25 1.25 0 1 0 2.5 0 a1.25 1.25 0 1 0 -2.5 0zM303.75 165 a1.25 1.25 0 1 0 2.5 0 a1.25 1.25 0 1 0 -2.5 0zM253.75 165 a1.25 1.25 0 1 0 2.5 0 a1.25 1.25 0 1 0 -2.5 0zM283.75 165 a1.25 1.25 0 1 0 2.5 0 a1.25 1.25 0 1 0 -2.5 0zM213.75 175 a1.25 1.25 0 1 0 2.5 0 a1.25 1.25 0 1 0 -2.5 0zM153.75 195 a1.25 1.25 0 1 0 2.5 0 a1.25 1.25 0 1 0 -2.5 0z" fill="black"></path><path d="M943.75 465 a1.25 1.25 0 1 0 2.5 0 a1.25 1.25 0 1 0 -2.5 0zM883.75 465 a1.25 1.25 0 1 0 2.5 0 a1.25 1.25 0 1 0 -2.5 0zM1153.75 445 a1.25 1.25 0 1 0 2.5 0 a1.25 1.25 0 1 0 -2.5 0zM873.75 475 a1.25 1.25 0 1 0 2.5 0 a1.25 1.25 0 1 0 -2.5 0zM303.75 435 a1.25 1.25 0 1 0 2.5 0 a1.25 1.25 0 1 0 -2.5 0zM753.75 445 a1.25 1.25 0 1 0 2.5 0 a1.25 1.25 0 1 0 -2.5 0zM313.75 425 a1.25 1.25 0 1 0 2.5 0 a1.25 1.25 0 1 0 -2.5 0zM733.75 445 a1.25 1.25 0 1 0 2.5 0 a1.25 1.25 0 1 0 -2.5 0zM703.75 455 a1.25 1.25 0 1 0 2.5 0 a1.25 1.25 0 1 0 -2.5 0zM193.75 415 a1.25 1.25 0 1 0 2.5 0 a1.25 1.25 0 1 0 -2.5 0zM683.75 455 a1.25 1.25 0 1 0 2.5 0 a1.25 1.25 0 1 0 -2.5 0zM463.75 445 a1.25 1.25 0 1 0 2.5 0 a1.25 1.25 0 1 0 -2.5 0zM453.75 445 a1.25 1.25 0 1 0 2.5 0 a1.25 1.25 0 1 0 -2.5 0z" fill="black"></path><path d="M193.75 175 a1.25 1.25 0 1 0 2.5 0 a1.25 1.25 0 1 0 -2.5 0zM123.75 185 a1.25 1.25 0 1 0 2.5 0 a1.25 1.25 0 1 0 -2.5 0z" fill="black"></path><path d="M153.75 435 a1.25 1.25 0 1 0 2.5 0 a1.25 1.25 0 1 0 -2.5 0z" fill="black"></path><path d="M833.75 135 a1.25 1.25 0 1 0 2.5 0 a1.25 1.25 0 1 0 -2.5 0zM73.75 175 a1.25 1.25 0 1 0 2.5 0 a1.25 1.25 0 1 0 -2.5 0zM613.75 145 a1.25 1.25 0 1 0 2.5 0 a1.25 1.25 0 1 0 -2.5 0zM563.75 155 a1.25 1.25 0 1 0 2.5 0 a1.25 1.25 0 1 0 -2.5 0zM843.75 125 a1.25 1.25 0 1 0 2.5 0 a1.25 1.25 0 1 0 -2.5 0zM683.75 135 a1.25 1.25 0 1 0 2.5 0 a1.25 1.25 0 1 0 -2.5 0zM533.75 125 a1.25 1.25 0 1 0 2.5 0 a1.25 1.25 0 1 0 -2.5 0zM473.75 145 a1.25 1.25 0 1 0 2.5 0 a1.25 1.25 0 1 0 -2.5 0zM693.75 115 a1.25 1.25 0 1 0 2.5 0 a1.25 1.25 0 1 0 -2.5 0zM1013.75 125 a1.25 1.25 0 1 0 2.5 0 a1.25 1.25 0 1 0 -2.5 0zM193.75 155 a1.25 1.25 0 1 0 2.5 0 a1.25 1.25 0 1 0 -2.5 0zM643.75 105 a1.25 1.25 0 1 0 2.5 0 a1.25 1.25 0 1 0 -2.5 0zM523.75 125 a1.25 1.25 0 1 0 2.5 0 a1.25 1.25 0 1 0 -2.5 0zM183.75 155 a1.25 1.25 0 1 0 2.5 0 a1.25 1.25 0 1 0 -2.5 0zM43.75 185 a1.25 1.25 0 1 0 2.5 0 a1.25 1.25 0 1 0 -2.5 0zM243.75 165 a1.25 1.25 0 1 0 2.5 0 a1.25 1.25 0 1 0 -2.5 0zM113.75 185 a1.25 1.25 0 1 0 2.5 0 a1.25 1.25 0 1 0 -2.5 0zM463.75 155 a1.25 1.25 0 1 0 2.5 0 a1.25 1.25 0 1 0 -2.5 0zM103.75 175 a1.25 1.25 0 1 0 2.5 0 a1.25 1.25 0 1 0 -2.5 0zM653.75 115 a1.25 1.25 0 1 0 2.5 0 a1.25 1.25 0 1 0 -2.5 0zM493.75 125 a1.25 1.25 0 1 0 2.5 0 a1.25 1.25 0 1 0 -2.5 0zM623.75 125 a1.25 1.25 0 1 0 2.5 0 a1.25 1.25 0 1 0 -2.5 0z" fill="black"></path><path d="M763.75 465 a1.25 1.25 0 1 0 2.5 0 a1.25 1.25 0 1 0 -2.5 0zM263.75 445 a1.25 1.25 0 1 0 2.5 0 a1.25 1.25 0 1 0 -2.5 0zM273.75 435 a1.25 1.25 0 1 0 2.5 0 a1.25 1.25 0 1 0 -2.5 0zM723.75 465 a1.25 1.25 0 1 0 2.5 0 a1.25 1.25 0 1 0 -2.5 0zM133.75 425 a1.25 1.25 0 1 0 2.5 0 a1.25 1.25 0 1 0 -2.5 0zM193.75 445 a1.25 1.25 0 1 0 2.5 0 a1.25 1.25 0 1 0 -2.5 0zM443.75 445 a1.25 1.25 0 1 0 2.5 0 a1.25 1.25 0 1 0 -2.5 0zM283.75 455 a1.25 1.25 0 1 0 2.5 0 a1.25 1.25 0 1 0 -2.5 0zM183.75 445 a1.25 1.25 0 1 0 2.5 0 a1.25 1.25 0 1 0 -2.5 0z" fill="black"></path><path d="M573.75 115 a1.25 1.25 0 1 0 2.5 0 a1.25 1.25 0 1 0 -2.5 0zM143.75 155 a1.25 1.25 0 1 0 2.5 0 a1.25 1.25 0 1 0 -2.5 0zM173.75 155 a1.25 1.25 0 1 0 2.5 0 a1.25 1.25 0 1 0 -2.5 0zM153.75 145 a1.25 1.25 0 1 0 2.5 0 a1.25 1.25 0 1 0 -2.5 0zM113.75 145 a1.25 1.25 0 1 0 2.5 0 a1.25 1.25 0 1 0 -2.5 0zM33.75 185 a1.25 1.25 0 1 0 2.5 0 a1.25 1.25 0 1 0 -2.5 0zM203.75 145 a1.25 1.25 0 1 0 2.5 0 a1.25 1.25 0 1 0 -2.5 0zM53.75 175 a1.25 1.25 0 1 0 2.5 0 a1.25 1.25 0 1 0 -2.5 0zM473.75 125 a1.25 1.25 0 1 0 2.5 0 a1.25 1.25 0 1 0 -2.5 0zM453.75 125 a1.25 1.25 0 1 0 2.5 0 a1.25 1.25 0 1 0 -2.5 0zM83.75 165 a1.25 1.25 0 1 0 2.5 0 a1.25 1.25 0 1 0 -2.5 0zM163.75 155 a1.25 1.25 0 1 0 2.5 0 a1.25 1.25 0 1 0 -2.5 0zM443.75 125 a1.25 1.25 0 1 0 2.5 0 a1.25 1.25 0 1 0 -2.5 0z" fill="black"></path><path d="M1263.75 475 a1.25 1.25 0 1 0 2.5 0 a1.25 1.25 0 1 0 -2.5 0zM963.75 485 a1.25 1.25 0 1 0 2.5 0 a1.25 1.25 0 1 0 -2.5 0zM1243.75 465 a1.25 1.25 0 1 0 2.5 0 a1.25 1.25 0 1 0 -2.5 0zM1113.75 475 a1.25 1.25 0 1 0 2.5 0 a1.25 1.25 0 1 0 -2.5 0zM463.75 475 a1.25 1.25 0 1 0 2.5 0 a1.25 1.25 0 1 0 -2.5 0zM1283.75 485 a1.25 1.25 0 1 0 2.5 0 a1.25 1.25 0 1 0 -2.5 0zM433.75 475 a1.25 1.25 0 1 0 2.5 0 a1.25 1.25 0 1 0 -2.5 0zM843.75 475 a1.25 1.25 0 1 0 2.5 0 a1.25 1.25 0 1 0 -2.5 0zM313.75 465 a1.25 1.25 0 1 0 2.5 0 a1.25 1.25 0 1 0 -2.5 0zM123.75 445 a1.25 1.25 0 1 0 2.5 0 a1.25 1.25 0 1 0 -2.5 0zM823.75 475 a1.25 1.25 0 1 0 2.5 0 a1.25 1.25 0 1 0 -2.5 0zM1043.75 475 a1.25 1.25 0 1 0 2.5 0 a1.25 1.25 0 1 0 -2.5 0zM1003.75 455 a1.25 1.25 0 1 0 2.5 0 a1.25 1.25 0 1 0 -2.5 0zM1033.75 475 a1.25 1.25 0 1 0 2.5 0 a1.25 1.25 0 1 0 -2.5 0zM953.75 495 a1.25 1.25 0 1 0 2.5 0 a1.25 1.25 0 1 0 -2.5 0zM413.75 475 a1.25 1.25 0 1 0 2.5 0 a1.25 1.25 0 1 0 -2.5 0zM103.75 445 a1.25 1.25 0 1 0 2.5 0 a1.25 1.25 0 1 0 -2.5 0zM983.75 455 a1.25 1.25 0 1 0 2.5 0 a1.25 1.25 0 1 0 -2.5 0zM333.75 465 a1.25 1.25 0 1 0 2.5 0 a1.25 1.25 0 1 0 -2.5 0zM1183.75 485 a1.25 1.25 0 1 0 2.5 0 a1.25 1.25 0 1 0 -2.5 0zM883.75 485 a1.25 1.25 0 1 0 2.5 0 a1.25 1.25 0 1 0 -2.5 0zM143.75 445 a1.25 1.25 0 1 0 2.5 0 a1.25 1.25 0 1 0 -2.5 0zM293.75 465 a1.25 1.25 0 1 0 2.5 0 a1.25 1.25 0 1 0 -2.5 0zM1293.75 465 a1.25 1.25 0 1 0 2.5 0 a1.25 1.25 0 1 0 -2.5 0z" fill="black"></path><path d="M1223.75 125 a1.25 1.25 0 1 0 2.5 0 a1.25 1.25 0 1 0 -2.5 0zM993.75 95 a1.25 1.25 0 1 0 2.5 0 a1.25 1.25 0 1 0 -2.5 0zM923.75 115 a1.25 1.25 0 1 0 2.5 0 a1.25 1.25 0 1 0 -2.5 0zM633.75 85 a1.25 1.25 0 1 0 2.5 0 a1.25 1.25 0 1 0 -2.5 0zM1103.75 125 a1.25 1.25 0 1 0 2.5 0 a1.25 1.25 0 1 0 -2.5 0zM1193.75 115 a1.25 1.25 0 1 0 2.5 0 a1.25 1.25 0 1 0 -2.5 0zM773.75 115 a1.25 1.25 0 1 0 2.5 0 a1.25 1.25 0 1 0 -2.5 0zM613.75 105 a1.25 1.25 0 1 0 2.5 0 a1.25 1.25 0 1 0 -2.5 0zM1223.75 105 a1.25 1.25 0 1 0 2.5 0 a1.25 1.25 0 1 0 -2.5 0zM993.75 105 a1.25 1.25 0 1 0 2.5 0 a1.25 1.25 0 1 0 -2.5 0zM863.75 85 a1.25 1.25 0 1 0 2.5 0 a1.25 1.25 0 1 0 -2.5 0zM953.75 105 a1.25 1.25 0 1 0 2.5 0 a1.25 1.25 0 1 0 -2.5 0zM1293.75 75 a1.25 1.25 0 1 0 2.5 0 a1.25 1.25 0 1 0 -2.5 0zM873.75 75 a1.25 1.25 0 1 0 2.5 0 a1.25 1.25 0 1 0 -2.5 0zM723.75 75 a1.25 1.25 0 1 0 2.5 0 a1.25 1.25 0 1 0 -2.5 0zM213.75 135 a1.25 1.25 0 1 0 2.5 0 a1.25 1.25 0 1 0 -2.5 0zM823.75 85 a1.25 1.25 0 1 0 2.5 0 a1.25 1.25 0 1 0 -2.5 0zM303.75 115 a1.25 1.25 0 1 0 2.5 0 a1.25 1.25 0 1 0 -2.5 0zM743.75 115 a1.25 1.25 0 1 0 2.5 0 a1.25 1.25 0 1 0 -2.5 0zM1193.75 145 a1.25 1.25 0 1 0 2.5 0 a1.25 1.25 0 1 0 -2.5 0zM1213.75 165 a1.25 1.25 0 1 0 2.5 0 a1.25 1.25 0 1 0 -2.5 0zM643.75 75 a1.25 1.25 0 1 0 2.5 0 a1.25 1.25 0 1 0 -2.5 0zM803.75 75 a1.25 1.25 0 1 0 2.5 0 a1.25 1.25 0 1 0 -2.5 0zM793.75 65 a1.25 1.25 0 1 0 2.5 0 a1.25 1.25 0 1 0 -2.5 0zM1163.75 115 a1.25 1.25 0 1 0 2.5 0 a1.25 1.25 0 1 0 -2.5 0zM733.75 115 a1.25 1.25 0 1 0 2.5 0 a1.25 1.25 0 1 0 -2.5 0zM1183.75 135 a1.25 1.25 0 1 0 2.5 0 a1.25 1.25 0 1 0 -2.5 0zM1293.75 115 a1.25 1.25 0 1 0 2.5 0 a1.25 1.25 0 1 0 -2.5 0zM673.75 105 a1.25 1.25 0 1 0 2.5 0 a1.25 1.25 0 1 0 -2.5 0zM713.75 85 a1.25 1.25 0 1 0 2.5 0 a1.25 1.25 0 1 0 -2.5 0zM883.75 85 a1.25 1.25 0 1 0 2.5 0 a1.25 1.25 0 1 0 -2.5 0zM1143.75 125 a1.25 1.25 0 1 0 2.5 0 a1.25 1.25 0 1 0 -2.5 0z" fill="black"></path><path d="M73.75 445 a1.25 1.25 0 1 0 2.5 0 a1.25 1.25 0 1 0 -2.5 0z" fill="black"></path><path d="M223.75 135 a1.25 1.25 0 1 0 2.5 0 a1.25 1.25 0 1 0 -2.5 0zM203.75 115 a1.25 1.25 0 1 0 2.5 0 a1.25 1.25 0 1 0 -2.5 0zM193.75 115 a1.25 1.25 0 1 0 2.5 0 a1.25 1.25 0 1 0 -2.5 0zM233.75 125 a1.25 1.25 0 1 0 2.5 0 a1.25 1.25 0 1 0 -2.5 0z" fill="black"></path><path d="M1233.75 495 a1.25 1.25 0 1 0 2.5 0 a1.25 1.25 0 1 0 -2.5 0zM1223.75 505 a1.25 1.25 0 1 0 2.5 0 a1.25 1.25 0 1 0 -2.5 0zM563.75 495 a1.25 1.25 0 1 0 2.5 0 a1.25 1.25 0 1 0 -2.5 0zM343.75 485 a1.25 1.25 0 1 0 2.5 0 a1.25 1.25 0 1 0 -2.5 0zM1293.75 515 a1.25 1.25 0 1 0 2.5 0 a1.25 1.25 0 1 0 -2.5 0zM1073.75 545 a1.25 1.25 0 1 0 2.5 0 a1.25 1.25 0 1 0 -2.5 0zM333.75 485 a1.25 1.25 0 1 0 2.5 0 a1.25 1.25 0 1 0 -2.5 0zM853.75 515 a1.25 1.25 0 1 0 2.5 0 a1.25 1.25 0 1 0 -2.5 0zM653.75 505 a1.25 1.25 0 1 0 2.5 0 a1.25 1.25 0 1 0 -2.5 0zM1193.75 505 a1.25 1.25 0 1 0 2.5 0 a1.25 1.25 0 1 0 -2.5 0zM93.75 445 a1.25 1.25 0 1 0 2.5 0 a1.25 1.25 0 1 0 -2.5 0zM593.75 495 a1.25 1.25 0 1 0 2.5 0 a1.25 1.25 0 1 0 -2.5 0zM1023.75 495 a1.25 1.25 0 1 0 2.5 0 a1.25 1.25 0 1 0 -2.5 0zM583.75 515 a1.25 1.25 0 1 0 2.5 0 a1.25 1.25 0 1 0 -2.5 0zM483.75 495 a1.25 1.25 0 1 0 2.5 0 a1.25 1.25 0 1 0 -2.5 0zM1123.75 505 a1.25 1.25 0 1 0 2.5 0 a1.25 1.25 0 1 0 -2.5 0zM1113.75 505 a1.25 1.25 0 1 0 2.5 0 a1.25 1.25 0 1 0 -2.5 0zM1103.75 505 a1.25 1.25 0 1 0 2.5 0 a1.25 1.25 0 1 0 -2.5 0zM323.75 485 a1.25 1.25 0 1 0 2.5 0 a1.25 1.25 0 1 0 -2.5 0zM913.75 495 a1.25 1.25 0 1 0 2.5 0 a1.25 1.25 0 1 0 -2.5 0zM1003.75 515 a1.25 1.25 0 1 0 2.5 0 a1.25 1.25 0 1 0 -2.5 0zM583.75 495 a1.25 1.25 0 1 0 2.5 0 a1.25 1.25 0 1 0 -2.5 0zM523.75 525 a1.25 1.25 0 1 0 2.5 0 a1.25 1.25 0 1 0 -2.5 0zM353.75 475 a1.25 1.25 0 1 0 2.5 0 a1.25 1.25 0 1 0 -2.5 0zM973.75 495 a1.25 1.25 0 1 0 2.5 0 a1.25 1.25 0 1 0 -2.5 0z" fill="black"></path><path d="M513.75 95 a1.25 1.25 0 1 0 2.5 0 a1.25 1.25 0 1 0 -2.5 0zM613.75 65 a1.25 1.25 0 1 0 2.5 0 a1.25 1.25 0 1 0 -2.5 0zM393.75 105 a1.25 1.25 0 1 0 2.5 0 a1.25 1.25 0 1 0 -2.5 0zM393.75 95 a1.25 1.25 0 1 0 2.5 0 a1.25 1.25 0 1 0 -2.5 0zM383.75 105 a1.25 1.25 0 1 0 2.5 0 a1.25 1.25 0 1 0 -2.5 0zM523.75 75 a1.25 1.25 0 1 0 2.5 0 a1.25 1.25 0 1 0 -2.5 0zM343.75 105 a1.25 1.25 0 1 0 2.5 0 a1.25 1.25 0 1 0 -2.5 0zM273.75 115 a1.25 1.25 0 1 0 2.5 0 a1.25 1.25 0 1 0 -2.5 0zM483.75 75 a1.25 1.25 0 1 0 2.5 0 a1.25 1.25 0 1 0 -2.5 0zM263.75 95 a1.25 1.25 0 1 0 2.5 0 a1.25 1.25 0 1 0 -2.5 0zM373.75 105 a1.25 1.25 0 1 0 2.5 0 a1.25 1.25 0 1 0 -2.5 0zM363.75 105 a1.25 1.25 0 1 0 2.5 0 a1.25 1.25 0 1 0 -2.5 0zM253.75 95 a1.25 1.25 0 1 0 2.5 0 a1.25 1.25 0 1 0 -2.5 0zM263.75 85 a1.25 1.25 0 1 0 2.5 0 a1.25 1.25 0 1 0 -2.5 0z" fill="black"></path><path d="M423.75 495 a1.25 1.25 0 1 0 2.5 0 a1.25 1.25 0 1 0 -2.5 0zM203.75 485 a1.25 1.25 0 1 0 2.5 0 a1.25 1.25 0 1 0 -2.5 0zM463.75 515 a1.25 1.25 0 1 0 2.5 0 a1.25 1.25 0 1 0 -2.5 0zM183.75 485 a1.25 1.25 0 1 0 2.5 0 a1.25 1.25 0 1 0 -2.5 0zM83.75 475 a1.25 1.25 0 1 0 2.5 0 a1.25 1.25 0 1 0 -2.5 0zM313.75 485 a1.25 1.25 0 1 0 2.5 0 a1.25 1.25 0 1 0 -2.5 0zM303.75 515 a1.25 1.25 0 1 0 2.5 0 a1.25 1.25 0 1 0 -2.5 0zM223.75 495 a1.25 1.25 0 1 0 2.5 0 a1.25 1.25 0 1 0 -2.5 0zM323.75 525 a1.25 1.25 0 1 0 2.5 0 a1.25 1.25 0 1 0 -2.5 0zM223.75 485 a1.25 1.25 0 1 0 2.5 0 a1.25 1.25 0 1 0 -2.5 0zM143.75 495 a1.25 1.25 0 1 0 2.5 0 a1.25 1.25 0 1 0 -2.5 0zM103.75 475 a1.25 1.25 0 1 0 2.5 0 a1.25 1.25 0 1 0 -2.5 0z" fill="black"></path><path d="M933.75 65 a1.25 1.25 0 1 0 2.5 0 a1.25 1.25 0 1 0 -2.5 0zM923.75 45 a1.25 1.25 0 1 0 2.5 0 a1.25 1.25 0 1 0 -2.5 0zM1033.75 45 a1.25 1.25 0 1 0 2.5 0 a1.25 1.25 0 1 0 -2.5 0zM573.75 55 a1.25 1.25 0 1 0 2.5 0 a1.25 1.25 0 1 0 -2.5 0zM393.75 85 a1.25 1.25 0 1 0 2.5 0 a1.25 1.25 0 1 0 -2.5 0zM873.75 55 a1.25 1.25 0 1 0 2.5 0 a1.25 1.25 0 1 0 -2.5 0zM353.75 55 a1.25 1.25 0 1 0 2.5 0 a1.25 1.25 0 1 0 -2.5 0zM873.75 45 a1.25 1.25 0 1 0 2.5 0 a1.25 1.25 0 1 0 -2.5 0zM803.75 25 a1.25 1.25 0 1 0 2.5 0 a1.25 1.25 0 1 0 -2.5 0zM803.75 35 a1.25 1.25 0 1 0 2.5 0 a1.25 1.25 0 1 0 -2.5 0zM423.75 75 a1.25 1.25 0 1 0 2.5 0 a1.25 1.25 0 1 0 -2.5 0zM943.75 75 a1.25 1.25 0 1 0 2.5 0 a1.25 1.25 0 1 0 -2.5 0zM773.75 35 a1.25 1.25 0 1 0 2.5 0 a1.25 1.25 0 1 0 -2.5 0zM233.75 95 a1.25 1.25 0 1 0 2.5 0 a1.25 1.25 0 1 0 -2.5 0zM343.75 55 a1.25 1.25 0 1 0 2.5 0 a1.25 1.25 0 1 0 -2.5 0zM1053.75 75 a1.25 1.25 0 1 0 2.5 0 a1.25 1.25 0 1 0 -2.5 0zM413.75 65 a1.25 1.25 0 1 0 2.5 0 a1.25 1.25 0 1 0 -2.5 0zM683.75 35 a1.25 1.25 0 1 0 2.5 0 a1.25 1.25 0 1 0 -2.5 0zM443.75 75 a1.25 1.25 0 1 0 2.5 0 a1.25 1.25 0 1 0 -2.5 0zM673.75 35 a1.25 1.25 0 1 0 2.5 0 a1.25 1.25 0 1 0 -2.5 0zM503.75 45 a1.25 1.25 0 1 0 2.5 0 a1.25 1.25 0 1 0 -2.5 0zM623.75 45 a1.25 1.25 0 1 0 2.5 0 a1.25 1.25 0 1 0 -2.5 0zM853.75 75 a1.25 1.25 0 1 0 2.5 0 a1.25 1.25 0 1 0 -2.5 0zM413.75 85 a1.25 1.25 0 1 0 2.5 0 a1.25 1.25 0 1 0 -2.5 0z" fill="black"></path></mask></defs></svg>