<?xml version="1.0" standalone="no"?>
<!DOCTYPE svg PUBLIC "-//W3C//DTD SVG 20010904//EN"
 "http://www.w3.org/TR/2001/REC-SVG-20010904/DTD/svg10.dtd">
<svg version="1.0" xmlns="http://www.w3.org/2000/svg"
 width="465.000000pt" height="279.000000pt" viewBox="0 0 465.000000 279.000000"
 preserveAspectRatio="xMidYMid meet">

<g transform="translate(0.000000,279.000000) scale(0.100000,-0.100000)"
fill="#000000" stroke="none">
<path d="M1263 2783 c9 -2 23 -2 30 0 6 3 -1 5 -18 5 -16 0 -22 -2 -12 -5z"/>
<path d="M1333 2773 c9 -2 25 -2 35 0 9 3 1 5 -18 5 -19 0 -27 -2 -17 -5z"/>
<path d="M1813 2761 c-10 -10 -56 -51 -103 -91 -114 -98 -188 -165 -170 -155
8 5 49 38 90 75 115 101 210 180 219 180 14 0 121 -102 116 -110 -3 -5 -28
-16 -56 -25 -28 -9 -49 -19 -46 -21 2 -2 25 3 51 12 37 13 50 14 56 4 5 -8 9
-5 13 9 4 15 -11 35 -58 80 -68 65 -84 72 -112 42z"/>
<path d="M2934 2771 c4 -5 30 -28 59 -51 47 -39 49 -39 15 -6 -21 20 -38 40
-38 45 0 5 -7 12 -16 15 -22 8 -26 8 -20 -3z"/>
<path d="M1438 2763 c6 -2 18 -2 25 0 6 3 1 5 -13 5 -14 0 -19 -2 -12 -5z"/>
<path d="M1214 2733 c-15 -24 -15 -26 -1 -15 15 13 17 4 20 -100 l3 -113 2
128 c1 70 0 127 -2 127 -2 0 -12 -12 -22 -27z"/>
<path d="M2990 2750 c8 -5 20 -10 25 -10 6 0 3 5 -5 10 -8 5 -19 10 -25 10 -5
0 -3 -5 5 -10z"/>
<path d="M1261 2734 c0 -11 3 -14 6 -6 3 7 2 16 -1 19 -3 4 -6 -2 -5 -13z"/>
<path d="M3570 2724 l-25 -15 25 7 c28 7 35 12 29 18 -2 2 -15 -2 -29 -10z"/>
<path d="M3086 2706 c17 -13 17 -18 6 -38 -12 -22 -12 -22 8 2 20 23 21 25 4
37 -10 7 -22 13 -28 13 -5 0 -1 -6 10 -14z"/>
<path d="M1435 2659 c-98 -70 -106 -83 -12 -19 65 44 99 72 85 69 -2 0 -34
-23 -73 -50z"/>
<path d="M1160 2655 c-17 -25 -29 -45 -26 -45 3 0 19 20 36 45 17 25 29 45 26
45 -3 0 -19 -20 -36 -45z"/>
<path d="M1272 2680 c0 -14 2 -19 5 -12 2 6 2 18 0 25 -3 6 -5 1 -5 -13z"/>
<path d="M1570 2670 c-8 -5 -10 -10 -5 -10 6 0 17 5 25 10 8 5 11 10 5 10 -5
0 -17 -5 -25 -10z"/>
<path d="M3555 2666 c17 -8 32 -12 34 -10 7 6 -2 11 -34 17 l-30 6 30 -13z"/>
<path d="M1440 2614 l-75 -36 62 -56 61 -57 2 -100 c1 -55 4 -102 6 -105 3 -2
4 41 2 98 -3 99 2 116 28 94 14 -13 130 -77 121 -67 -4 5 -39 28 -78 51 l-71
42 67 22 c84 28 81 36 -4 10 -34 -11 -66 -20 -71 -20 -5 0 -32 19 -61 42 l-53
42 79 37 c44 21 76 37 70 38 -5 0 -44 -16 -85 -35z"/>
<path d="M1281 2624 c0 -11 3 -14 6 -6 3 7 2 16 -1 19 -3 4 -6 -2 -5 -13z"/>
<path d="M3215 2614 c-59 -39 -67 -51 -14 -20 54 31 56 31 62 9 3 -11 5 -7 6
10 1 34 -4 34 -54 1z"/>
<path d="M1805 2595 c-25 -12 -26 -14 -5 -9 28 7 60 23 45 23 -5 0 -23 -6 -40
-14z"/>
<path d="M1951 2569 c-7 -22 -11 -43 -8 -45 2 -2 9 14 16 37 7 22 11 43 8 45
-2 2 -9 -14 -16 -37z"/>
<path d="M4223 2603 c30 -3 37 -8 38 -26 1 -16 3 -17 6 -5 4 15 7 15 39 -4 19
-11 38 -27 43 -35 4 -9 11 -11 14 -6 3 5 -19 26 -50 46 -41 27 -65 37 -92 35
l-36 -1 38 -4z"/>
<path d="M744 2569 c-24 -48 -44 -109 -35 -109 5 0 12 15 15 33 3 17 15 47 27
66 l20 34 30 -29 c16 -15 29 -31 29 -34 0 -4 -22 -17 -50 -30 -27 -13 -48 -25
-46 -27 4 -5 83 33 104 50 9 7 3 18 -25 43 -21 18 -41 33 -45 34 -4 0 -15 -14
-24 -31z"/>
<path d="M2305 2589 c-16 -8 -15 -8 8 -4 l29 6 -33 -58 c-18 -32 -37 -64 -43
-72 -8 -11 -8 -13 1 -8 11 7 83 129 83 141 0 9 -22 6 -45 -5z"/>
<path d="M4058 2593 c12 -2 32 -2 45 0 12 2 2 4 -23 4 -25 0 -35 -2 -22 -4z"/>
<path d="M194 2520 c-98 -70 -134 -102 -134 -123 0 -6 6 -3 13 7 11 15 17 10
51 -49 21 -36 40 -65 43 -65 5 0 -53 106 -70 128 -7 9 -7 16 -1 20 6 4 39 28
75 53 35 25 77 54 93 65 l28 18 -5 -35 c-6 -34 -6 -34 5 4 8 26 16 36 26 32
28 -10 142 -99 142 -109 0 -10 -233 -216 -244 -216 -3 0 0 14 6 31 6 16 8 32
6 35 -3 2 -10 -14 -17 -36 -12 -40 -12 -40 -64 -42 -47 -1 -48 -2 -12 -5 l40
-4 -25 -20 -25 -20 32 15 c18 9 36 16 42 16 23 0 131 -103 140 -133 l9 -32 1
31 c1 30 6 34 86 69 47 21 84 40 82 41 -2 2 -40 -12 -85 -31 -45 -19 -82 -33
-82 -30 0 2 9 25 20 51 11 26 19 49 17 51 -3 2 -14 -21 -27 -52 -12 -30 -24
-55 -27 -55 -7 0 -122 94 -122 100 0 4 140 124 221 189 l30 24 -6 -24 c-5 -18
-2 -16 11 8 l18 32 44 -19 c65 -30 63 -24 -4 13 -33 18 -94 56 -135 85 -40 28
-79 52 -85 52 -6 0 -56 -32 -111 -70z"/>
<path d="M3920 2503 l4 -88 6 79 5 79 63 -77 c35 -42 66 -76 68 -76 3 0 -20
30 -50 67 -30 38 -53 69 -51 71 2 2 31 -11 65 -28 34 -17 64 -30 66 -28 2 3
-28 20 -67 38 -54 27 -66 36 -52 41 12 5 5 8 -22 8 l-40 1 5 -87z"/>
<path d="M2240 2570 c-18 -12 -2 -12 25 0 13 6 15 9 5 9 -8 0 -22 -4 -30 -9z"/>
<path d="M3878 2573 c7 -3 16 -2 19 1 4 3 -2 6 -13 5 -11 0 -14 -3 -6 -6z"/>
<path d="M1682 2553 c-24 -8 -41 -17 -39 -19 4 -5 97 26 97 32 0 6 -11 4 -58
-13z"/>
<path d="M3272 2539 c-1 -20 -10 -43 -19 -52 -22 -19 -356 -207 -361 -203 -9
9 122 182 157 208 53 39 53 46 0 11 -22 -15 -59 -53 -80 -85 -22 -32 -43 -58
-46 -58 -4 0 -22 14 -40 32 -33 32 -33 32 -33 7 0 -16 3 -20 8 -11 6 9 15 5
34 -15 l26 -28 -23 -33 c-15 -22 -25 -29 -28 -20 -3 7 -6 3 -6 -9 -1 -19 -23
-34 -121 -83 -66 -33 -120 -62 -120 -65 0 -3 49 20 110 50 60 30 112 55 114
55 3 0 7 -15 9 -32 l4 -33 1 33 c1 17 5 32 10 32 7 0 64 -57 230 -231 50 -52
65 -75 69 -105 6 -47 13 -58 13 -21 0 33 25 47 81 47 65 0 41 9 -29 11 l-62 2
-135 143 c-74 78 -135 145 -135 149 0 4 19 4 43 1 l42 -5 -42 12 c-23 7 -44
15 -47 18 -3 3 60 43 142 89 81 46 165 94 188 107 22 12 44 20 47 16 4 -3 8
-25 9 -47 l1 -41 6 44 6 44 50 -40 c156 -122 225 -174 225 -170 0 3 -58 52
-130 109 -71 56 -130 106 -130 110 0 5 21 8 47 8 65 0 48 10 -20 11 l-56 2 -4
36 -4 36 -1 -36z"/>
<path d="M3415 2550 c-41 -20 -37 -20 26 0 30 10 41 9 67 -4 18 -9 32 -14 32
-12 0 8 -57 36 -72 36 -7 0 -31 -9 -53 -20z"/>
<path d="M3828 2563 c6 -2 18 -2 25 0 6 3 1 5 -13 5 -14 0 -19 -2 -12 -5z"/>
<path d="M2210 2556 c0 -11 40 -86 45 -86 3 0 -4 19 -16 43 -23 45 -29 54 -29
43z"/>
<path d="M3788 2553 c7 -3 16 -2 19 1 4 3 -2 6 -13 5 -11 0 -14 -3 -6 -6z"/>
<path d="M3748 2543 c7 -3 16 -2 19 1 4 3 -2 6 -13 5 -11 0 -14 -3 -6 -6z"/>
<path d="M3708 2533 c7 -3 16 -2 19 1 4 3 -2 6 -13 5 -11 0 -14 -3 -6 -6z"/>
<path d="M3340 2520 c-8 -5 -10 -10 -5 -10 6 0 17 5 25 10 8 5 11 10 5 10 -5
0 -17 -5 -25 -10z"/>
<path d="M3554 2522 c4 -6 -7 -12 -26 -15 -26 -3 -23 -4 14 -5 46 -2 47 -3 83
-62 20 -33 39 -60 42 -60 4 0 -16 35 -55 97 -12 19 -12 24 -1 27 37 12 41 16
11 11 -19 -3 -43 0 -54 6 -13 7 -18 7 -14 1z"/>
<path d="M3668 2523 c7 -3 16 -2 19 1 4 3 -2 6 -13 5 -11 0 -14 -3 -6 -6z"/>
<path d="M4280 2505 c0 -9 6 -12 15 -9 8 4 15 7 15 9 0 2 -7 5 -15 9 -9 3 -15
0 -15 -9z"/>
<path d="M271 2484 c0 -11 3 -14 6 -6 3 7 2 16 -1 19 -3 4 -6 -2 -5 -13z"/>
<path d="M828 2458 c-54 -23 -95 -45 -91 -51 3 -6 8 -6 12 0 3 5 48 27 99 48
78 32 95 36 103 24 7 -11 9 -11 9 4 0 25 -23 21 -132 -25z"/>
<path d="M2772 2493 c16 -4 17 -7 3 -34 -9 -16 -13 -29 -11 -29 6 0 36 55 36
65 0 3 -10 4 -22 4 -17 -1 -19 -2 -6 -6z"/>
<path d="M2725 2479 c-11 -16 -1 -19 13 -3 7 8 8 14 3 14 -5 0 -13 -5 -16 -11z"/>
<path d="M3097 2483 c18 -2 50 -2 70 0 21 2 7 4 -32 4 -38 0 -55 -2 -38 -4z"/>
<path d="M4294 2449 c3 -17 6 -52 7 -78 1 -44 1 -44 9 -13 7 31 -5 122 -17
122 -3 0 -3 -14 1 -31z"/>
<path d="M4177 2459 c7 -7 15 -10 18 -7 3 3 -2 9 -12 12 -14 6 -15 5 -6 -5z"/>
<path d="M261 2444 c0 -11 3 -14 6 -6 3 7 2 16 -1 19 -3 4 -6 -2 -5 -13z"/>
<path d="M941 2444 c0 -11 3 -14 6 -6 3 7 2 16 -1 19 -3 4 -6 -2 -5 -13z"/>
<path d="M2712 2425 c0 -16 2 -22 5 -12 2 9 2 23 0 30 -3 6 -5 -1 -5 -18z"/>
<path d="M1152 2400 c-34 -22 -62 -41 -62 -44 0 -2 7 -6 14 -9 9 -4 13 -1 10
6 -2 7 15 24 39 40 52 32 57 33 58 10 0 -15 2 -15 8 2 7 17 13 12 40 -38 32
-55 54 -81 30 -34 -22 42 -64 107 -70 107 -3 0 -34 -18 -67 -40z"/>
<path d="M630 2395 c25 -13 50 -24 55 -24 6 0 -10 11 -35 24 -25 13 -49 24
-55 24 -5 0 10 -11 35 -24z"/>
<path d="M4109 2364 l41 -52 -117 -143 -118 -142 -6 54 -6 54 -1 -51 c-2 -61
-13 -73 -79 -84 l-48 -8 58 -1 c31 0 57 -5 57 -9 0 -5 -9 -35 -20 -67 -11 -33
-19 -63 -17 -68 2 -6 11 18 22 52 12 40 21 57 27 49 5 -9 8 -5 8 12 0 23 2 22
47 -20 l47 -45 -47 56 -47 57 116 141 c64 78 119 139 123 136 3 -4 12 -25 18
-48 9 -31 12 -34 8 -11 -2 18 -7 43 -10 57 -6 21 -2 28 24 42 41 21 40 28 -1
10 -33 -14 -33 -14 -77 33 l-43 47 41 -51z"/>
<path d="M795 2381 c22 -10 51 -21 65 -25 14 -3 7 2 -15 13 -22 10 -51 21 -65
25 -14 3 -7 -2 15 -13z"/>
<path d="M236 2364 c-4 -14 -5 -28 -3 -31 3 -2 8 8 11 23 4 14 5 28 3 31 -3 2
-8 -8 -11 -23z"/>
<path d="M436 2375 c-9 -26 -7 -32 5 -12 6 10 9 21 6 23 -2 3 -7 -2 -11 -11z"/>
<path d="M957 2330 c-32 -28 -63 -50 -68 -50 -6 0 -27 10 -49 22 -37 22 -39
22 -72 5 -22 -11 -25 -15 -9 -11 17 5 -24 -53 -158 -219 -100 -125 -185 -229
-190 -232 -5 -3 -12 13 -16 36 -4 22 -9 38 -12 35 -3 -2 1 -28 7 -58 l12 -53
122 5 121 5 -105 5 -105 5 30 18 c27 16 17 16 -24 -1 -22 -8 -13 3 177 241 98
121 182 217 191 217 9 0 36 -12 61 -26 102 -58 114 -64 95 -50 -66 50 -66 40
0 100 75 69 70 72 -8 6z"/>
<path d="M1660 2376 c0 -3 14 -12 30 -21 17 -9 30 -13 30 -11 0 3 -13 12 -30
21 -16 9 -30 13 -30 11z"/>
<path d="M2698 2348 c-2 -21 -3 -38 -1 -38 10 0 19 39 13 55 -6 16 -8 12 -12
-17z"/>
<path d="M1197 2349 c-5 -17 -11 -20 -39 -15 l-33 5 32 -11 c20 -7 36 -20 41
-37 8 -22 9 -17 9 27 1 56 -2 63 -10 31z"/>
<path d="M3679 2355 c5 -11 17 -29 26 -40 l16 -20 -10 20 c-5 11 -17 29 -26
40 l-16 20 10 -20z"/>
<path d="M3914 2285 c0 -49 1 -71 3 -48 2 23 2 64 0 90 -2 26 -3 8 -3 -42z"/>
<path d="M900 2350 c-13 -8 -12 -10 3 -10 9 0 17 5 17 10 0 12 -1 12 -20 0z"/>
<path d="M1042 2278 c-1 -49 -5 -88 -8 -88 -3 0 -15 5 -27 11 -19 9 -18 7 3
-10 14 -11 29 -16 33 -12 4 4 6 48 4 97 l-3 89 -2 -87z"/>
<path d="M1863 2304 c-13 -32 -16 -51 -9 -45 13 11 41 90 34 96 -2 2 -13 -21
-25 -51z"/>
<path d="M15 2296 c-17 -45 -17 -45 9 -91 27 -46 39 -52 66 -35 12 8 10 10 -9
8 -18 -2 -31 6 -47 30 -23 33 -24 65 -3 104 6 11 8 22 6 24 -3 3 -13 -15 -22
-40z"/>
<path d="M416 2325 c-9 -26 -7 -32 5 -12 6 10 9 21 6 23 -2 3 -7 -2 -11 -11z"/>
<path d="M1730 2336 c0 -3 9 -10 20 -16 11 -6 20 -8 20 -6 0 3 -9 10 -20 16
-11 6 -20 8 -20 6z"/>
<path d="M3293 2305 c0 -22 2 -30 4 -17 2 12 2 30 0 40 -3 9 -5 -1 -4 -23z"/>
<path d="M4292 2290 c0 -14 2 -19 5 -12 2 6 2 18 0 25 -3 6 -5 1 -5 -13z"/>
<path d="M1320 2260 c11 -22 18 -40 14 -40 -3 0 -23 13 -43 28 -39 31 -61 45
-61 40 0 -2 29 -26 65 -52 70 -53 69 -47 20 -106 l-20 -25 28 25 c48 42 49 52
16 114 -35 64 -50 77 -19 16z"/>
<path d="M396 2275 c-9 -26 -7 -32 5 -12 6 10 9 21 6 23 -2 3 -7 -2 -11 -11z"/>
<path d="M690 2275 c-14 -8 -20 -14 -15 -14 6 0 21 6 35 14 14 8 21 14 15 14
-5 0 -21 -6 -35 -14z"/>
<path d="M3729 2275 c5 -11 17 -29 26 -40 l16 -20 -10 20 c-5 11 -17 29 -26
40 l-16 20 10 -20z"/>
<path d="M2358 2262 c-9 -11 -10 -14 0 -8 8 5 12 -1 13 -21 l1 -28 8 30 c5 24
8 26 14 13 4 -9 15 -19 23 -22 14 -6 14 -4 2 10 -12 15 -11 16 11 10 21 -6 22
-5 7 4 -9 6 -22 8 -27 5 -6 -3 -10 -2 -10 3 0 18 -28 21 -42 4z"/>
<path d="M620 2245 c-14 -8 -20 -14 -15 -14 6 0 21 6 35 14 14 8 21 14 15 14
-5 0 -21 -6 -35 -14z"/>
<path d="M1211 2250 c0 -8 4 -24 9 -35 5 -13 9 -14 9 -5 0 8 -4 24 -9 35 -5
13 -9 14 -9 5z"/>
<path d="M3610 2230 c69 -62 260 -203 266 -197 7 6 -60 124 -92 163 -21 26
-13 11 35 -70 23 -37 40 -70 38 -72 -2 -3 -26 12 -53 33 -117 92 -226 172
-194 143z"/>
<path d="M43 2243 c9 -2 25 -2 35 0 9 3 1 5 -18 5 -19 0 -27 -2 -17 -5z"/>
<path d="M1503 2175 c0 -44 2 -61 4 -37 2 23 2 59 0 80 -2 20 -4 1 -4 -43z"/>
<path d="M1735 2184 c-118 -85 -133 -103 -25 -29 77 53 132 96 120 95 -3 -1
-45 -30 -95 -66z"/>
<path d="M2470 2230 c8 -5 20 -10 25 -10 6 0 3 5 -5 10 -8 5 -19 10 -25 10 -5
0 -3 -5 5 -10z"/>
<path d="M3301 2206 l-1 -39 -52 6 c-58 7 -56 4 9 -13 l43 -11 -25 -52 c-14
-29 -20 -44 -13 -33 55 80 55 80 48 131 -7 48 -7 48 -9 11z"/>
<path d="M4282 2220 c0 -14 2 -19 5 -12 2 6 2 18 0 25 -3 6 -5 1 -5 -13z"/>
<path d="M550 2215 c-14 -8 -20 -14 -15 -14 6 0 21 6 35 14 14 8 21 14 15 14
-5 0 -21 -6 -35 -14z"/>
<path d="M831 2220 c0 -8 4 -24 9 -35 5 -13 9 -14 9 -5 0 8 -4 24 -9 35 -5 13
-9 14 -9 5z"/>
<path d="M3010 2220 c34 -11 60 -11 35 0 -11 5 -29 8 -40 8 -16 0 -15 -2 5 -8z"/>
<path d="M2530 2205 c14 -8 30 -14 35 -14 6 0 -1 6 -15 14 -14 8 -29 14 -35
14 -5 0 1 -6 15 -14z"/>
<path d="M2269 2162 c-20 -26 -53 -70 -73 -99 l-37 -51 57 -61 c31 -34 60 -58
65 -56 9 6 49 92 49 104 -1 3 -8 -7 -17 -24 -15 -27 -17 -28 -24 -10 -6 15 -8
11 -8 -17 -1 -21 -5 -38 -10 -38 -12 0 -91 87 -91 101 0 13 96 153 116 170 12
10 21 6 49 -21 28 -27 32 -36 24 -52 -6 -11 -8 -22 -5 -26 3 -3 6 1 7 9 1 8 5
3 9 -11 6 -19 8 -10 9 35 0 41 -2 55 -9 45 -8 -12 -15 -10 -42 17 l-33 31 -36
-46z"/>
<path d="M3088 2203 c7 -3 16 -2 19 1 4 3 -2 6 -13 5 -11 0 -14 -3 -6 -6z"/>
<path d="M3128 2193 c7 -3 16 -2 19 1 4 3 -2 6 -13 5 -11 0 -14 -3 -6 -6z"/>
<path d="M2582 2185 c6 -6 -13 -57 -27 -73 -2 -2 -16 4 -32 14 l-28 18 22 -25
23 -25 -65 -48 c-36 -26 -65 -50 -65 -53 0 -5 25 13 99 69 34 26 43 23 74 -27
16 -25 31 -45 34 -45 3 0 -2 11 -11 25 -9 14 -23 36 -32 50 -16 24 -16 27 2
41 10 9 13 13 7 9 -17 -8 -16 0 2 35 12 23 12 30 2 36 -6 4 -9 4 -5 -1z"/>
<path d="M3168 2183 c7 -3 16 -2 19 1 4 3 -2 6 -13 5 -11 0 -14 -3 -6 -6z"/>
<path d="M4182 2170 c0 -14 2 -19 5 -12 2 6 2 18 0 25 -3 6 -5 1 -5 -13z"/>
<path d="M4272 2170 c0 -14 2 -19 5 -12 2 6 2 18 0 25 -3 6 -5 1 -5 -13z"/>
<path d="M851 2154 c-1 -6 6 -33 14 -60 20 -66 20 -67 -23 -86 -20 -10 -28
-15 -17 -12 61 19 59 20 41 -15 -9 -17 -14 -31 -12 -31 3 0 13 14 22 31 l16
31 31 -28 31 -29 -28 34 -27 34 27 28 c32 33 22 40 -12 8 l-22 -20 -20 63
c-11 35 -20 58 -21 52z"/>
<path d="M1241 2156 c-2 -17 22 -86 30 -86 4 0 2 15 -5 33 -7 17 -16 39 -19
47 -3 8 -6 11 -6 6z"/>
<path d="M2842 2130 c0 -19 2 -27 5 -17 2 9 2 25 0 35 -3 9 -5 1 -5 -18z"/>
<path d="M3350 2140 c34 -11 60 -11 35 0 -11 5 -29 8 -40 8 -16 0 -15 -2 5 -8z"/>
<path d="M4191 2124 c0 -11 3 -14 6 -6 3 7 2 16 -1 19 -3 4 -6 -2 -5 -13z"/>
<path d="M4262 2120 c0 -14 2 -19 5 -12 2 6 2 18 0 25 -3 6 -5 1 -5 -13z"/>
<path d="M1861 2114 l-35 -15 22 -22 22 -22 37 38 c37 36 37 37 13 37 -14 -1
-40 -7 -59 -16z m37 -21 c-23 -23 -29 -25 -43 -13 -15 12 -13 15 12 26 48 21
60 16 31 -13z"/>
<path d="M3418 2123 c7 -3 16 -2 19 1 4 3 -2 6 -13 5 -11 0 -14 -3 -6 -6z"/>
<path d="M3458 2113 c7 -3 16 -2 19 1 4 3 -2 6 -13 5 -11 0 -14 -3 -6 -6z"/>
<path d="M2293 2075 c0 -22 2 -30 4 -17 2 12 2 30 0 40 -3 9 -5 -1 -4 -23z"/>
<path d="M1142 2074 c-7 -14 -8 -23 -2 -19 6 4 11 -8 11 -27 2 -28 2 -30 7 -8
4 20 8 15 18 -30 13 -52 13 -52 8 -10 -3 25 -8 56 -11 70 -5 21 -4 23 9 13 8
-7 49 -58 92 -112 68 -90 74 -101 59 -111 -17 -10 -16 -10 2 -8 11 2 20 8 20
15 0 14 -184 253 -194 253 -4 0 -13 -12 -19 -26z"/>
<path d="M4201 2084 c0 -11 3 -14 6 -6 3 7 2 16 -1 19 -3 4 -6 -2 -5 -13z"/>
<path d="M4245 2044 c-5 -34 -9 -43 -16 -33 -7 12 -9 12 -8 -1 1 -8 4 -26 8
-40 6 -20 10 -12 20 43 8 37 11 70 8 73 -2 3 -8 -16 -12 -42z"/>
<path d="M2346 2055 c-9 -26 -7 -32 5 -12 6 10 9 21 6 23 -2 3 -7 -2 -11 -11z"/>
<path d="M2832 2040 c0 -19 2 -27 5 -17 2 9 2 25 0 35 -3 9 -5 1 -5 -18z"/>
<path d="M3688 2053 c7 -3 16 -2 19 1 4 3 -2 6 -13 5 -11 0 -14 -3 -6 -6z"/>
<path d="M4211 2044 c0 -11 3 -14 6 -6 3 7 2 16 -1 19 -3 4 -6 -2 -5 -13z"/>
<path d="M352 2030 c0 -14 2 -19 5 -12 2 6 2 18 0 25 -3 6 -5 1 -5 -13z"/>
<path d="M2392 1958 c-2 -94 -3 -98 -24 -99 -19 -1 -19 -2 -5 -6 22 -6 19 -15
-29 -90 l-37 -58 -48 55 c-27 29 -49 57 -49 62 0 4 24 11 53 15 46 6 48 8 22
13 -16 3 -31 2 -33 -2 -2 -4 -16 -8 -30 -8 -19 0 -47 -18 -89 -56 -61 -54 -62
-56 -47 -79 9 -13 13 -28 11 -32 -3 -5 3 -9 13 -9 16 0 16 2 3 23 -8 12 -12
26 -9 32 3 5 1 11 -5 13 -6 2 13 23 41 47 l52 44 39 -44 c63 -71 65 -78 21
-74 -20 1 -25 0 -9 -2 32 -5 35 -16 8 -29 -18 -8 -18 -10 7 -28 15 -11 21 -13
15 -6 -15 16 -17 30 -4 30 5 0 15 -15 21 -34 6 -19 18 -40 27 -48 15 -12 15
-11 5 9 -19 34 -14 39 13 13 29 -27 32 -40 9 -40 -8 0 -12 -5 -9 -10 9 -14 35
7 35 28 0 12 6 10 27 -9 14 -13 3 6 -26 43 l-52 67 28 4 28 4 -27 2 c-16 0
-28 3 -28 6 0 3 21 37 46 76 l46 72 60 -59 c89 -89 89 -84 17 -159 -34 -36
-60 -67 -57 -70 2 -2 32 27 67 65 39 44 71 70 84 71 20 1 20 2 2 6 -31 7 -147
125 -132 135 9 5 7 8 -4 8 -27 0 -40 26 -37 74 l3 46 50 -33 c28 -19 64 -42
80 -51 34 -20 38 -23 -76 61 -46 34 -58 48 -62 75 -2 18 -5 -11 -5 -64z m-64
-307 c39 -48 41 -59 6 -32 -15 11 -31 18 -37 14 -5 -3 -7 -1 -3 5 3 6 2 13 -4
17 -12 7 -13 35 -2 35 5 0 23 -18 40 -39z"/>
<path d="M3728 2043 c7 -3 16 -2 19 1 4 3 -2 6 -13 5 -11 0 -14 -3 -6 -6z"/>
<path d="M3230 2020 c-6 -11 -8 -20 -6 -20 3 0 10 9 16 20 6 11 8 20 6 20 -3
0 -10 -9 -16 -20z"/>
<path d="M3768 2033 c7 -3 16 -2 19 1 4 3 -2 6 -13 5 -11 0 -14 -3 -6 -6z"/>
<path d="M361 1984 c0 -11 3 -14 6 -6 3 7 2 16 -1 19 -3 4 -6 -2 -5 -13z"/>
<path d="M2822 1970 c0 -19 2 -27 5 -17 2 9 2 25 0 35 -3 9 -5 1 -5 -18z"/>
<path d="M4021 1984 c1 -27 12 -49 27 -52 9 -2 8 7 -4 30 -21 43 -24 45 -23
22z"/>
<path d="M1096 1975 c-9 -26 -7 -32 5 -12 6 10 9 21 6 23 -2 3 -7 -2 -11 -11z"/>
<path d="M3718 1983 c12 -2 30 -2 40 0 9 3 -1 5 -23 4 -22 0 -30 -2 -17 -4z"/>
<path d="M750 1970 c-8 -5 -10 -10 -5 -10 6 0 17 5 25 10 8 5 11 10 5 10 -5 0
-17 -5 -25 -10z"/>
<path d="M2636 1953 c53 -83 67 -103 71 -103 3 0 -3 12 -13 28 -53 82 -67 102
-71 102 -3 0 3 -12 13 -27z"/>
<path d="M3623 1973 c9 -2 25 -2 35 0 9 3 1 5 -18 5 -19 0 -27 -2 -17 -5z"/>
<path d="M3548 1963 c6 -2 18 -2 25 0 6 3 1 5 -13 5 -14 0 -19 -2 -12 -5z"/>
<path d="M371 1944 c0 -11 3 -14 6 -6 3 7 2 16 -1 19 -3 4 -6 -2 -5 -13z"/>
<path d="M700 1950 c-8 -5 -10 -10 -5 -10 6 0 17 5 25 10 8 5 11 10 5 10 -5 0
-17 -5 -25 -10z"/>
<path d="M3423 1953 c9 -2 23 -2 30 0 6 3 -1 5 -18 5 -16 0 -22 -2 -12 -5z"/>
<path d="M3708 1909 c-54 -27 -98 -51 -98 -54 0 -3 45 17 100 45 55 28 100 52
100 55 0 7 6 9 -102 -46z"/>
<path d="M984 1909 c40 -52 44 -65 19 -72 -10 -3 -4 -5 13 -6 26 -1 34 -7 49
-41 10 -23 22 -43 26 -46 5 -3 -2 19 -16 47 -22 49 -23 55 -9 87 8 19 12 37
10 39 -2 3 -10 -12 -17 -32 l-14 -37 -48 54 c-45 49 -46 49 -13 7z"/>
<path d="M1143 1900 c0 -30 2 -43 4 -27 2 15 2 39 0 55 -2 15 -4 2 -4 -28z"/>
<path d="M3328 1943 c12 -2 30 -2 40 0 9 3 -1 5 -23 4 -22 0 -30 -2 -17 -4z"/>
<path d="M2050 1924 c0 -8 5 -12 10 -9 6 4 8 11 5 16 -9 14 -15 11 -15 -7z"/>
<path d="M630 1920 c-8 -5 -10 -10 -5 -10 6 0 17 5 25 10 8 5 11 10 5 10 -5 0
-17 -5 -25 -10z"/>
<path d="M1192 1910 c0 -14 2 -19 5 -12 2 6 2 18 0 25 -3 6 -5 1 -5 -13z"/>
<path d="M2812 1895 c0 -16 2 -22 5 -12 2 9 2 23 0 30 -3 6 -5 -1 -5 -18z"/>
<path d="M4041 1904 c0 -11 3 -14 6 -6 3 7 2 16 -1 19 -3 4 -6 -2 -5 -13z"/>
<path d="M570 1895 c-14 -8 -20 -14 -15 -14 6 0 21 6 35 14 14 8 21 14 15 14
-5 0 -21 -6 -35 -14z"/>
<path d="M2085 1880 c9 -16 18 -30 21 -30 2 0 -2 14 -11 30 -9 17 -18 30 -21
30 -2 0 2 -13 11 -30z"/>
<path d="M798 1858 c-20 -37 -29 -44 -63 -49 l-40 -6 38 -2 38 -1 -5 -47 c-4
-36 -4 -41 3 -21 18 53 21 52 93 -18 69 -68 69 -70 64 -112 -4 -27 -2 -41 4
-37 6 3 10 22 10 41 0 19 4 34 9 34 5 0 -22 30 -60 67 -51 49 -66 69 -57 76 9
6 7 7 -5 3 -12 -4 -17 -2 -15 6 3 7 18 16 34 20 20 5 16 6 -13 3 -24 -3 -43
-3 -43 0 0 3 9 24 20 45 27 53 18 51 -12 -2z"/>
<path d="M3913 1860 c0 -25 2 -35 4 -22 2 12 2 32 0 45 -2 12 -4 2 -4 -23z"/>
<path d="M2204 1868 c-19 -23 -19 -23 2 -5 11 9 24 14 27 10 4 -3 7 -1 7 5 0
19 -15 14 -36 -10z"/>
<path d="M510 1870 c-8 -5 -10 -10 -5 -10 6 0 17 5 25 10 8 5 11 10 5 10 -5 0
-17 -5 -25 -10z"/>
<path d="M1206 1842 c5 -38 1 -50 -31 -99 l-37 -56 -20 24 c-19 24 -19 24 -13
2 8 -27 9 -27 -45 -8 -58 20 -62 12 -5 -9 24 -10 47 -22 51 -27 7 -11 -44 -76
-123 -157 -30 -30 -52 -58 -51 -62 2 -5 48 43 103 106 54 63 105 114 113 114
7 0 10 4 7 10 -6 10 50 100 62 100 3 0 12 -8 20 -17 13 -16 13 -16 3 5 -13 27
-13 27 20 42 24 10 23 10 -7 6 -29 -5 -32 -2 -42 32 l-10 37 5 -43z"/>
<path d="M2043 1845 c0 -22 2 -30 4 -17 2 12 2 30 0 40 -3 9 -5 -1 -4 -23z"/>
<path d="M4056 1855 c2 -11 4 -23 4 -27 0 -15 20 -8 20 7 0 8 -4 15 -9 15 -5
0 -11 6 -14 13 -2 6 -3 3 -1 -8z"/>
<path d="M1991 1841 c-23 -32 -26 -41 -11 -41 6 0 10 5 10 12 0 6 10 22 22 35
12 13 17 23 10 23 -6 0 -20 -13 -31 -29z"/>
<path d="M2933 1799 l-133 -70 -1 33 c-1 30 -2 31 -8 8 -7 -24 -7 -24 -36 15
-56 76 -54 65 4 -25 19 -29 20 -29 -86 42 -40 27 -73 46 -73 43 0 -2 25 -21
55 -41 60 -40 65 -53 14 -35 -18 6 -34 9 -36 7 -2 -2 26 -15 64 -27 l68 -24
-85 -5 -85 -4 99 -6 100 -5 39 -73 c47 -88 46 -92 -61 -117 -40 -10 -71 -19
-69 -22 3 -2 40 5 83 16 43 11 80 19 81 17 2 -2 -13 -24 -33 -50 -34 -45 -38
-47 -73 -42 l-36 6 38 -18 c21 -10 49 -35 62 -55 31 -44 31 -47 3 -40 -13 3
-21 4 -18 1 9 -10 162 -50 168 -44 3 4 -3 14 -13 24 -18 16 -18 16 -5 -2 16
-21 20 -20 -48 -1 -31 9 -22 30 12 30 23 -1 24 1 11 14 -13 13 -18 12 -40 -9
-28 -27 -29 -26 -60 32 -21 38 -20 39 31 21 25 -8 47 -13 49 -11 3 2 -20 12
-51 22 l-55 17 18 28 c10 15 28 41 41 56 l23 29 94 -94 c55 -55 90 -97 84
-101 -6 -3 1 -9 15 -13 14 -3 32 -19 41 -36 9 -17 18 -30 21 -30 2 0 0 9 -6
19 -14 28 -13 39 8 44 12 3 10 5 -7 6 -21 1 -23 4 -16 39 13 74 14 96 1 47 -7
-28 -15 -57 -18 -65 -3 -10 -38 18 -107 85 l-103 100 29 12 28 12 -34 -2 c-33
-2 -36 1 -76 73 l-42 75 21 18 c12 11 72 46 134 79 61 33 112 62 112 64 0 6 3
8 -137 -67z"/>
<path d="M4010 1840 c-6 -11 -8 -20 -6 -20 3 0 10 9 16 20 6 11 8 20 6 20 -3
0 -10 -9 -16 -20z"/>
<path d="M2802 1825 c0 -16 2 -22 5 -12 2 9 2 23 0 30 -3 6 -5 -1 -5 -18z"/>
<path d="M3172 1746 l-2 -108 -47 5 c-46 6 -47 6 -13 -5 l35 -11 -35 -13 c-26
-10 -28 -13 -8 -9 14 3 33 8 42 11 12 4 16 0 17 -17 1 -20 2 -21 6 -5 4 17 10
14 40 -20 l35 -39 -26 37 c-14 20 -26 39 -26 42 0 3 78 7 173 8 l172 2 -170 6
-170 5 133 68 c72 37 132 69 132 72 0 3 -63 -26 -140 -65 l-139 -70 -4 108 -3
107 -2 -109z"/>
<path d="M2005 1820 c-3 -5 -1 -10 4 -10 6 0 11 5 11 10 0 6 -2 10 -4 10 -3 0
-8 -4 -11 -10z"/>
<path d="M1331 1790 c-23 -39 -26 -50 -11 -50 6 0 9 3 8 8 -3 13 13 52 22 52
5 0 12 -9 15 -21 4 -11 9 -18 12 -16 2 3 -2 18 -10 33 l-15 28 -21 -34z"/>
<path d="M2099 1803 c-13 -15 -12 -15 9 -4 23 12 28 21 13 21 -5 0 -15 -7 -22
-17z"/>
<path d="M3964 1763 l-29 -48 -6 40 -6 40 -2 -44 c0 -26 -8 -52 -18 -63 -16
-18 -16 -18 1 -12 11 4 21 1 27 -7 6 -10 9 -8 9 10 0 13 14 48 31 77 38 67 32
72 -7 7z"/>
<path d="M2030 1780 c0 -6 7 -10 15 -10 8 0 15 2 15 4 0 2 -7 6 -15 10 -8 3
-15 1 -15 -4z"/>
<path d="M860 1770 c8 -5 20 -10 25 -10 6 0 3 5 -5 10 -8 5 -19 10 -25 10 -5
0 -3 -5 5 -10z"/>
<path d="M685 1744 l-30 -26 33 22 c17 12 32 23 32 26 0 7 -4 5 -35 -22z"/>
<path d="M4086 1685 c-8 -90 -8 -90 -54 -137 -49 -51 -53 -65 -12 -43 14 8 18
14 11 15 -10 0 -2 13 19 35 26 26 37 32 47 24 20 -17 16 -25 -17 -39 -17 -7
-29 -15 -26 -17 7 -7 66 27 66 38 0 6 -7 17 -15 25 -9 10 -15 33 -14 62 1 39
2 42 9 22 l8 -25 0 25 c1 14 -3 43 -7 65 -7 36 -8 31 -15 -50z"/>
<path d="M393 1715 c0 -27 2 -38 4 -22 2 15 2 37 0 50 -2 12 -4 0 -4 -28z"/>
<path d="M970 1730 c8 -5 20 -10 25 -10 6 0 3 5 -5 10 -8 5 -19 10 -25 10 -5
0 -3 -5 5 -10z"/>
<path d="M1256 1728 c4 -13 -1 -21 -17 -27 -13 -5 -17 -10 -9 -10 8 0 23 4 33
7 16 7 16 9 2 27 -12 16 -14 17 -9 3z"/>
<path d="M3795 1680 l-18 -60 -71 -2 -71 -1 63 -6 63 -6 -146 -119 c-80 -66
-149 -124 -152 -129 -4 -6 61 44 144 111 82 67 152 122 156 122 3 0 1 -14 -5
-31 -6 -16 -8 -33 -4 -36 3 -4 6 -1 6 5 0 6 5 23 11 39 l11 28 28 -55 c16 -30
29 -51 30 -47 0 4 -8 24 -19 45 -35 69 -35 77 3 94 20 10 37 13 43 7 5 -5 9
-1 9 10 0 19 -1 19 -39 -1 -21 -10 -41 -18 -43 -15 -2 2 3 25 12 51 9 26 14
49 12 52 -3 2 -13 -23 -23 -56z"/>
<path d="M603 1689 c-24 -17 -43 -32 -43 -35 0 -3 20 9 45 26 25 17 45 33 45
35 0 7 -2 6 -47 -26z"/>
<path d="M2138 1713 c6 -2 18 -2 25 0 6 3 1 5 -13 5 -14 0 -19 -2 -12 -5z"/>
<path d="M2473 1703 c9 -2 23 -2 30 0 6 3 -1 5 -18 5 -16 0 -22 -2 -12 -5z"/>
<path d="M2850 1700 c14 -4 34 -8 45 -8 16 0 15 2 -5 8 -14 4 -34 8 -45 8 -16
0 -15 -2 5 -8z"/>
<path d="M752 1675 c0 -16 2 -22 5 -12 2 9 2 23 0 30 -3 6 -5 -1 -5 -18z"/>
<path d="M2726 1661 l-38 -39 -49 35 c-27 19 -49 32 -49 30 0 -3 20 -20 45
-38 36 -26 44 -37 39 -53 -4 -12 10 1 31 27 20 27 42 46 49 44 6 -3 12 4 12
14 0 11 -1 19 -1 19 -1 0 -18 -18 -39 -39z"/>
<path d="M1178 1683 c7 -3 16 -2 19 1 4 3 -2 6 -13 5 -11 0 -14 -3 -6 -6z"/>
<path d="M2928 1683 c7 -3 16 -2 19 1 4 3 -2 6 -13 5 -11 0 -14 -3 -6 -6z"/>
<path d="M2968 1673 c7 -3 16 -2 19 1 4 3 -2 6 -13 5 -11 0 -14 -3 -6 -6z"/>
<path d="M1068 1663 c7 -3 16 -2 19 1 4 3 -2 6 -13 5 -11 0 -14 -3 -6 -6z"/>
<path d="M3008 1663 c7 -3 16 -2 19 1 4 3 -2 6 -13 5 -11 0 -14 -3 -6 -6z"/>
<path d="M3048 1653 c7 -3 16 -2 19 1 4 3 -2 6 -13 5 -11 0 -14 -3 -6 -6z"/>
<path d="M478 1602 c-65 -46 -98 -74 -68 -57 26 15 140 97 140 101 0 7 -2 5
-72 -44z"/>
<path d="M1982 1593 c2 -36 8 -57 16 -59 7 -1 8 0 2 3 -5 2 -10 27 -10 55 l0
51 63 -6 c40 -4 55 -3 42 3 -11 5 -42 9 -68 9 l-48 1 3 -57z"/>
<path d="M2124 1634 c5 -27 -24 -74 -59 -95 -20 -13 -24 -19 -13 -19 9 0 30
16 45 37 15 20 39 47 53 61 16 16 19 23 9 19 -9 -3 -21 -1 -27 5 -7 7 -10 5
-8 -8z"/>
<path d="M2770 1645 c0 -5 5 -17 10 -25 5 -8 10 -10 10 -5 0 6 -5 17 -10 25
-5 8 -10 11 -10 5z"/>
<path d="M742 1620 c0 -14 2 -19 5 -12 2 6 2 18 0 25 -3 6 -5 1 -5 -13z"/>
<path d="M4112 1615 c0 -16 2 -22 5 -12 2 9 2 23 0 30 -3 6 -5 -1 -5 -18z"/>
<path d="M3900 1590 c11 -16 26 -33 32 -36 7 -4 -1 9 -16 29 -34 44 -46 50
-16 7z"/>
<path d="M381 1572 c-1 -38 21 -102 35 -102 2 0 0 9 -6 20 -8 14 -8 20 0 20
19 0 60 -48 60 -70 0 -12 7 -20 16 -20 12 0 14 4 7 13 -6 6 -13 20 -16 30 -6
15 -3 17 16 12 12 -3 -5 9 -38 27 -55 30 -61 37 -66 73 l-6 40 -2 -43z"/>
<path d="M2025 1586 c10 -14 19 -26 22 -26 7 0 -17 39 -28 46 -6 3 -3 -5 6
-20z"/>
<path d="M2618 1603 c7 -3 16 -2 19 1 4 3 -2 6 -13 5 -11 0 -14 -3 -6 -6z"/>
<path d="M2568 1593 c6 -2 18 -2 25 0 6 3 1 5 -13 5 -14 0 -19 -2 -12 -5z"/>
<path d="M2750 1590 c8 -5 20 -10 25 -10 6 0 3 5 -5 10 -8 5 -19 10 -25 10 -5
0 -3 -5 5 -10z"/>
<path d="M2790 1586 c0 -12 59 -41 65 -34 2 2 -13 13 -31 25 -24 16 -34 18
-34 9z"/>
<path d="M2528 1583 c7 -3 16 -2 19 1 4 3 -2 6 -13 5 -11 0 -14 -3 -6 -6z"/>
<path d="M2540 1530 c30 -28 60 -50 65 -50 6 1 -3 11 -20 23 -16 12 -43 34
-58 49 -16 16 -32 28 -35 28 -4 -1 18 -23 48 -50z"/>
<path d="M3152 1550 c0 -14 2 -19 5 -12 2 6 2 18 0 25 -3 6 -5 1 -5 -13z"/>
<path d="M912 1520 c0 -14 2 -19 5 -12 2 6 2 18 0 25 -3 6 -5 1 -5 -13z"/>
<path d="M2198 1523 c6 -2 18 -2 25 0 6 3 1 5 -13 5 -14 0 -19 -2 -12 -5z"/>
<path d="M2246 1515 c4 -8 8 -15 10 -15 2 0 4 7 4 15 0 8 -4 15 -10 15 -5 0
-7 -7 -4 -15z"/>
<path d="M2629 1504 c-7 -14 -26 -37 -42 -50 -25 -21 -36 -23 -85 -19 l-57 5
63 -14 c80 -16 108 -38 153 -115 50 -84 58 -90 20 -13 -18 34 -29 67 -26 72 3
5 20 14 38 19 28 9 27 10 -14 5 l-47 -6 -4 37 c-4 35 -3 36 21 31 84 -18 84
-19 13 10 -29 12 -32 16 -22 35 7 11 10 23 7 25 -2 2 -10 -8 -18 -22z m-9 -85
c0 -29 0 -29 -25 -13 -24 16 -25 18 -9 35 21 24 34 16 34 -22z"/>
<path d="M3240 1526 c0 -2 8 -10 18 -17 15 -13 16 -12 3 4 -13 16 -21 21 -21
13z"/>
<path d="M2118 1513 c6 -2 18 -2 25 0 6 3 1 5 -13 5 -14 0 -19 -2 -12 -5z"/>
<path d="M2031 1499 c-13 -5 -22 -11 -19 -14 5 -5 78 14 78 20 0 8 -33 4 -59
-6z"/>
<path d="M3142 1490 c0 -14 2 -19 5 -12 2 6 2 18 0 25 -3 6 -5 1 -5 -13z"/>
<path d="M886 1469 c5 -22 1 -29 -23 -38 l-28 -11 31 6 c28 4 32 1 49 -36 22
-48 35 -51 34 -7 0 26 -2 28 -8 12 -8 -19 -8 -19 -20 3 -6 12 -11 28 -10 35 3
27 -2 48 -10 43 -5 -4 -12 0 -15 6 -3 7 -3 1 0 -13z"/>
<path d="M2128 1483 c6 -2 18 -2 25 0 6 3 1 5 -13 5 -14 0 -19 -2 -12 -5z"/>
<path d="M2255 1480 c-4 -6 -21 -9 -38 -7 -18 2 -23 2 -13 0 16 -4 17 -7 5
-14 -9 -7 -5 -7 15 -3 28 7 29 6 23 -23 -3 -17 -9 -44 -12 -59 l-5 -29 11 29
c7 16 14 24 18 17 4 -6 8 6 8 25 1 20 6 39 11 43 6 4 5 11 -4 18 -8 9 -15 9
-19 3z"/>
<path d="M3292 1458 c52 -71 98 -136 98 -139 0 -2 -44 -3 -97 -3 l-98 1 92 -6
c50 -3 94 -8 97 -11 3 -3 -25 -52 -61 -109 l-66 -103 -19 23 c-20 24 -20 24
-2 -8 l18 -32 75 112 c75 110 77 112 121 118 44 6 44 6 8 7 -42 2 -51 10 -125
109 -31 40 -58 73 -60 73 -3 0 5 -15 19 -32z"/>
<path d="M3726 1454 c-4 -14 -5 -28 -3 -31 3 -2 8 8 11 23 4 14 5 28 3 31 -3
2 -8 -8 -11 -23z"/>
<path d="M603 1428 c48 -23 87 -44 87 -47 0 -16 -94 -112 -106 -107 -29 11 -1
-22 32 -37 43 -21 59 -22 22 -1 -16 8 -28 19 -28 24 0 17 75 99 87 95 6 -2 13
3 15 12 2 9 21 22 43 29 l40 12 -41 -5 c-40 -5 -41 -4 -39 23 1 16 0 20 -2 9
-9 -37 -20 -37 -104 -1 -111 48 -115 44 -6 -6z"/>
<path d="M1936 1386 l-66 -85 2 -73 c1 -59 2 -63 5 -23 3 37 7 46 15 35 8 -12
8 -10 3 5 -17 47 -15 61 19 100 l35 40 2 -40 c1 -38 2 -38 8 -10 l7 30 17 -32
c10 -18 20 -33 23 -33 3 0 -6 21 -21 46 l-27 45 23 6 c20 6 21 7 5 13 -16 5
-16 8 4 33 12 15 19 27 17 27 -3 0 -35 -38 -71 -84z"/>
<path d="M430 1440 c6 -11 13 -20 16 -20 2 0 0 9 -6 20 -6 11 -13 20 -16 20
-2 0 0 -9 6 -20z"/>
<path d="M2323 1453 c9 -2 23 -2 30 0 6 3 -1 5 -18 5 -16 0 -22 -2 -12 -5z"/>
<path d="M2393 1443 c9 -2 23 -2 30 0 6 3 -1 5 -18 5 -16 0 -22 -2 -12 -5z"/>
<path d="M2018 1413 c7 -3 16 -2 19 1 4 3 -2 6 -13 5 -11 0 -14 -3 -6 -6z"/>
<path d="M525 1360 c14 -27 28 -50 30 -50 3 0 -6 23 -20 50 -14 28 -28 50 -30
50 -3 0 6 -22 20 -50z"/>
<path d="M487 1366 c-3 -8 0 -19 7 -25 10 -9 12 -6 8 14 -5 29 -8 31 -15 11z"/>
<path d="M2590 1377 c0 -5 32 -62 71 -128 40 -66 70 -121 68 -123 -2 -2 -17
-8 -34 -15 l-30 -11 34 5 33 5 -6 -38 -5 -37 12 34 c8 19 19 37 26 39 9 3 8 7
-4 16 -8 6 -49 67 -90 136 -41 69 -75 121 -75 117z"/>
<path d="M2975 1360 c11 -5 27 -9 35 -9 9 0 8 4 -5 9 -11 5 -27 9 -35 9 -9 0
-8 -4 5 -9z"/>
<path d="M3765 1335 c-71 -41 -74 -42 -69 -12 3 17 2 15 -7 -5 -10 -27 -11
-27 -92 -23 l-82 4 68 -9 c91 -11 95 -13 100 -52 4 -31 4 -31 5 7 2 39 4 41
72 78 39 21 70 40 70 43 0 6 -1 6 -65 -31z"/>
<path d="M2250 1185 c-4 -131 -2 -190 8 -215 9 -25 11 -27 7 -7 -3 15 -3 27 1
27 3 0 42 -9 86 -21 44 -11 82 -18 85 -16 2 3 -28 12 -67 22 -38 9 -72 21 -75
25 -3 5 14 12 37 16 24 4 38 9 31 11 -6 2 -29 0 -49 -6 -21 -6 -39 -9 -41 -7
-3 3 48 77 144 209 19 26 32 47 30 47 -3 0 -45 -54 -94 -121 l-88 -121 -5 169
-5 168 -5 -180z"/>
<path d="M2221 1324 c0 -11 3 -14 6 -6 3 7 2 16 -1 19 -3 4 -6 -2 -5 -13z"/>
<path d="M2778 1333 c7 -3 16 -2 19 1 4 3 -2 6 -13 5 -11 0 -14 -3 -6 -6z"/>
<path d="M692 1298 c-1 -19 -8 -28 -19 -29 -15 0 -14 -2 3 -9 12 -4 24 -18 27
-30 5 -18 2 -20 -16 -14 -33 10 -16 -3 27 -21 21 -9 35 -11 31 -5 -4 6 4 20
17 31 l23 20 -27 -16 c-32 -20 -61 -9 -33 12 18 12 18 13 -2 13 -18 0 -23 7
-26 38 -3 27 -4 29 -5 10z"/>
<path d="M930 1291 c14 -11 27 -15 29 -10 4 13 2 15 -29 23 l-25 7 25 -20z"/>
<path d="M2459 1293 c-13 -16 -12 -17 4 -4 9 7 17 15 17 17 0 8 -8 3 -21 -13z"/>
<path d="M2201 1254 c-7 -25 -10 -48 -8 -51 3 -2 10 17 16 43 7 25 10 48 8 51
-3 2 -10 -17 -16 -43z"/>
<path d="M979 1281 c11 -7 11 -9 0 -14 -8 -3 0 -6 16 -6 29 0 29 0 11 14 -11
8 -25 15 -30 15 -6 0 -5 -4 3 -9z"/>
<path d="M1962 1265 c0 -16 2 -22 5 -12 2 9 2 23 0 30 -3 6 -5 -1 -5 -18z"/>
<path d="M2020 1270 c6 -11 13 -20 16 -20 2 0 0 9 -6 20 -6 11 -13 20 -16 20
-2 0 0 -9 6 -20z"/>
<path d="M3440 1286 c0 -2 8 -10 18 -17 15 -13 16 -12 3 4 -13 16 -21 21 -21
13z"/>
<path d="M802 1260 c-12 -20 -12 -20 12 -5 19 13 25 13 29 3 4 -8 6 -7 6 5 1
24 -31 22 -47 -3z"/>
<path d="M1050 1250 c0 -7 6 -10 14 -7 7 3 19 0 25 -6 6 -6 14 -8 18 -4 9 10
3 14 -30 22 -18 5 -27 3 -27 -5z"/>
<path d="M2924 1244 c-18 -14 -18 -15 4 -4 12 6 22 13 22 15 0 8 -5 6 -26 -11z"/>
<path d="M3496 1242 c12 -10 31 -36 42 -58 25 -46 28 -41 7 8 -8 19 -27 43
-42 52 -28 17 -28 17 -7 -2z"/>
<path d="M3175 1205 c15 -27 32 -54 38 -60 6 -5 -2 13 -18 40 -15 28 -32 55
-38 60 -6 6 2 -12 18 -40z"/>
<path d="M831 1218 c-1 -24 3 -28 25 -28 25 0 26 -3 21 -34 -3 -22 -1 -36 6
-39 8 -3 12 9 13 35 0 35 -3 40 -27 45 -18 3 -29 13 -32 27 -3 17 -5 15 -6 -6z"/>
<path d="M2863 1209 c-35 -22 -46 -37 -15 -20 22 13 58 40 52 41 -3 0 -20 -10
-37 -21z"/>
<path d="M3880 1228 c0 -18 23 -67 30 -63 5 3 20 -14 34 -37 24 -40 25 -44 9
-55 -19 -14 -6 -18 16 -4 15 10 8 26 -47 106 -37 55 -42 61 -42 53z"/>
<path d="M1972 1185 c0 -16 2 -22 5 -12 2 9 2 23 0 30 -3 6 -5 -1 -5 -18z"/>
<path d="M2086 1163 c15 -27 33 -57 41 -68 20 -29 17 -34 -32 -46 -62 -16 -51
-22 12 -8 47 11 54 10 87 -10 20 -13 36 -20 36 -18 0 3 -16 15 -35 27 -26 16
-34 27 -31 43 1 12 1 16 -1 10 -8 -23 -17 -14 -57 52 -21 36 -40 65 -43 65 -3
0 7 -21 23 -47z"/>
<path d="M3562 1194 c9 -11 21 -31 27 -44 7 -18 10 -20 10 -7 1 22 5 22 49 -8
46 -32 52 -31 51 3 -1 25 -1 25 -7 4 -7 -22 -9 -21 -77 24 -38 26 -62 38 -53
28z"/>
<path d="M2181 1174 c0 -11 3 -14 6 -6 3 7 2 16 -1 19 -3 4 -6 -2 -5 -13z"/>
<path d="M820 1171 c0 -8 -7 -10 -20 -6 -31 10 -24 -1 16 -24 19 -12 32 -15
27 -9 -4 7 -8 19 -9 26 -3 18 -14 29 -14 13z"/>
<path d="M1921 1175 c0 -5 8 -26 19 -45 11 -19 19 -30 19 -25 0 6 -8 26 -19
45 -11 19 -19 31 -19 25z"/>
<path d="M2788 1164 c-38 -20 -36 -28 2 -9 17 9 30 18 30 20 0 7 -1 6 -32 -11z"/>
<path d="M1028 1128 c-13 -13 -17 -17 -8 -10 9 6 22 12 28 12 7 0 12 5 12 10
0 15 -6 12 -32 -12z"/>
<path d="M1870 1143 c0 -6 29 -37 64 -68 49 -42 71 -55 88 -52 22 4 22 4 1 6
-18 1 -23 9 -28 49 -9 69 -13 73 -14 17 l-1 -49 -55 54 c-30 30 -55 49 -55 43z"/>
<path d="M2171 1134 c0 -11 3 -14 6 -6 3 7 2 16 -1 19 -3 4 -6 -2 -5 -13z"/>
<path d="M1093 1129 c9 -6 14 -15 11 -21 -5 -7 2 -9 20 -4 20 5 26 3 26 -10 0
-13 3 -14 15 -4 24 20 18 30 -19 30 -19 0 -38 5 -41 10 -3 6 -12 10 -18 10 -7
0 -4 -5 6 -11z"/>
<path d="M1053 1112 c-8 -5 0 -16 25 -32 l36 -25 -45 -4 -44 -5 54 -5 c51 -6
55 -8 68 -41 11 -30 12 -31 6 -5 -3 17 -7 40 -7 52 -1 11 -5 19 -9 16 -15 -9
-57 20 -57 39 0 19 -8 22 -27 10z"/>
<path d="M2828 1113 c17 -2 32 -7 32 -10 0 -3 -26 -35 -57 -71 -32 -35 -68
-76 -81 -91 l-23 -26 5 35 c5 33 5 33 -10 -8 -15 -39 -19 -43 -41 -37 -14 3
-39 8 -57 10 -24 4 -22 2 9 -7 49 -14 67 -31 62 -60 -2 -13 -2 -17 0 -10 10
28 22 9 29 -45 7 -56 6 -58 -27 -85 -24 -20 -35 -24 -41 -15 -5 8 -8 7 -8 -5
0 -23 -8 -22 -66 2 -26 11 -49 18 -52 15 -3 -3 -1 -5 4 -5 6 0 18 -6 28 -13
16 -12 13 -13 -20 -11 -22 2 -11 -2 24 -8 61 -11 63 -12 57 -37 l-6 -26 20 29
c11 16 39 46 62 66 l43 37 -13 77 -12 77 94 107 c53 59 93 110 91 114 -3 5
-22 7 -42 6 l-37 -1 33 -4z"/>
<path d="M3570 1119 c0 -12 52 -120 56 -116 2 2 1 18 -2 36 -4 17 -9 29 -12
26 -4 -3 -14 9 -24 27 -9 18 -17 30 -18 27z"/>
<path d="M3601 1104 c0 -11 3 -14 6 -6 3 7 2 16 -1 19 -3 4 -6 -2 -5 -13z"/>
<path d="M3920 1115 c0 -5 5 -17 10 -25 5 -8 10 -10 10 -5 0 6 -5 17 -10 25
-5 8 -10 11 -10 5z"/>
<path d="M875 1096 c11 -8 23 -12 26 -10 4 2 10 -3 13 -12 3 -8 11 -12 17 -8
8 4 7 9 -2 15 -20 13 17 12 41 -1 12 -6 21 -7 25 -1 7 12 -57 25 -85 18 -11
-3 -23 -1 -26 4 -3 5 -10 9 -17 9 -6 0 -2 -6 8 -14z"/>
<path d="M2638 1093 c7 -3 16 -2 19 1 4 3 -2 6 -13 5 -11 0 -14 -3 -6 -6z"/>
<path d="M1235 1075 c11 -9 29 -21 40 -26 l20 -10 -20 16 c-11 9 -29 21 -40
26 l-20 10 20 -16z"/>
<path d="M2588 1083 c7 -3 16 -2 19 1 4 3 -2 6 -13 5 -11 0 -14 -3 -6 -6z"/>
<path d="M3303 1066 c0 -18 3 -24 9 -18 7 7 7 16 0 28 -8 14 -9 13 -9 -10z"/>
<path d="M2548 1073 c7 -3 16 -2 19 1 4 3 -2 6 -13 5 -11 0 -14 -3 -6 -6z"/>
<path d="M965 1038 c-4 -16 -4 -32 -1 -35 3 -4 6 3 6 15 0 12 3 22 8 22 12 0
159 -153 165 -172 4 -10 12 -19 19 -19 7 -1 0 -5 -17 -9 -30 -8 -30 -8 8 -9
20 0 37 -4 37 -7 0 -3 -14 -26 -31 -52 -29 -45 -9 -28 29 26 19 25 20 26 77
13 31 -7 59 -11 61 -8 3 2 -12 8 -33 13 l-38 8 40 6 c39 7 39 7 -14 9 l-54 1
19 23 c17 20 16 20 -9 -2 -15 -14 -29 -23 -31 -20 -2 2 -11 24 -20 49 -9 25
-14 33 -11 18 3 -14 8 -34 11 -45 4 -10 -39 27 -95 82 -80 79 -97 101 -84 106
14 5 12 7 -9 11 -23 4 -28 1 -33 -24z"/>
<path d="M2508 1063 c7 -3 16 -2 19 1 4 3 -2 6 -13 5 -11 0 -14 -3 -6 -6z"/>
<path d="M2468 1053 c7 -3 16 -2 19 1 4 3 -2 6 -13 5 -11 0 -14 -3 -6 -6z"/>
<path d="M3785 1018 l-40 -43 42 39 42 39 4 -39 4 -39 1 43 c1 23 -2 42 -6 42
-4 0 -26 -19 -47 -42z"/>
<path d="M2428 1043 c7 -3 16 -2 19 1 4 3 -2 6 -13 5 -11 0 -14 -3 -6 -6z"/>
<path d="M1320 1021 c18 -14 21 -21 10 -22 -8 0 -2 -5 13 -11 l28 -10 -23 -27
-23 -26 26 23 c14 12 30 22 37 22 6 0 41 -16 77 -36 36 -20 65 -34 65 -31 0 3
-42 28 -92 57 -51 29 -104 60 -118 68 l-25 14 25 -21z"/>
<path d="M2388 1033 c7 -3 16 -2 19 1 4 3 -2 6 -13 5 -11 0 -14 -3 -6 -6z"/>
<path d="M1215 1020 c11 -5 29 -8 40 -8 16 0 15 2 -5 8 -34 11 -60 11 -35 0z"/>
<path d="M2711 1014 c0 -11 3 -14 6 -6 3 7 2 16 -1 19 -3 4 -6 -2 -5 -13z"/>
<path d="M3530 1026 c0 -11 113 -155 123 -156 4 0 7 7 7 16 0 8 -4 13 -9 10
-10 -6 -86 82 -78 90 2 3 21 -10 41 -29 20 -19 36 -31 36 -28 0 13 -57 62 -74
65 -9 1 -23 11 -31 22 -8 10 -15 15 -15 10z"/>
<path d="M1288 1003 c7 -3 16 -2 19 1 4 3 -2 6 -13 5 -11 0 -14 -3 -6 -6z"/>
<path d="M941 957 c-6 -16 -9 -32 -7 -35 3 -2 8 7 12 22 3 14 8 26 10 26 2 0
32 -17 66 -38 70 -43 116 -68 107 -59 -3 4 -44 31 -91 61 l-87 54 -10 -31z"/>
<path d="M3750 940 c45 -37 90 -64 90 -53 0 4 -12 14 -27 20 -16 7 -40 24 -55
38 -15 14 -31 25 -35 25 -4 0 8 -14 27 -30z"/>
<path d="M3884 945 c-3 -8 -4 -20 -1 -27 3 -8 6 -6 6 5 1 10 5 15 11 12 6 -3
7 1 4 9 -8 20 -13 20 -20 1z"/>
<path d="M2538 923 c7 -3 16 -2 19 1 4 3 -2 6 -13 5 -11 0 -14 -3 -6 -6z"/>
<path d="M4060 927 c0 -2 31 -29 69 -60 42 -35 79 -57 93 -56 22 0 22 1 2 9
-16 6 -20 15 -16 39 2 17 6 31 9 31 3 0 25 -17 50 -37 l46 -38 -29 -6 c-26 -6
-25 -7 11 -7 l40 -1 -55 49 c-30 28 -59 48 -65 47 -5 -2 -12 -17 -15 -32 -3
-16 -9 -29 -14 -28 -4 0 -28 17 -53 38 -34 28 -42 40 -31 46 9 6 5 9 -14 9
-16 0 -28 -1 -28 -3z"/>
<path d="M1284 898 l-19 -23 23 19 c21 18 27 26 19 26 -2 0 -12 -10 -23 -22z"/>
<path d="M3897 897 c-10 -10 -17 -20 -15 -23 8 -7 41 22 37 32 -2 6 -12 1 -22
-9z"/>
<path d="M4138 913 c7 -3 16 -2 19 1 4 3 -2 6 -13 5 -11 0 -14 -3 -6 -6z"/>
<path d="M914 885 c-5 -20 8 -39 76 -117 83 -95 349 -358 360 -358 4 0 24 32
46 72 26 48 54 83 84 106 25 19 46 42 47 51 2 9 0 11 -3 5 -3 -7 -31 -10 -77
-8 -68 2 -69 2 -15 -4 31 -4 59 -10 63 -13 3 -4 -10 -17 -29 -29 -32 -19 -40
-20 -72 -10 -19 7 -38 10 -40 7 -3 -3 8 -8 25 -12 17 -4 33 -11 36 -15 3 -5
-5 -31 -19 -57 -48 -95 -37 -97 -166 32 l-115 115 70 2 70 1 -55 7 c-52 6 -53
12 -5 24 11 3 -4 3 -32 0 -51 -4 -62 1 -45 22 4 5 0 1 -10 -8 -9 -10 -19 -18
-21 -18 -13 0 -157 172 -152 180 4 6 1 10 -5 10 -7 0 -9 8 -5 20 3 11 4 20 1
20 -3 0 -8 -11 -12 -25z"/>
<path d="M1553 887 c25 -20 22 -25 -20 -30 -25 -3 -22 -4 10 -2 26 1 47 -2 47
-7 0 -5 -9 -26 -20 -47 -14 -28 -28 -40 -52 -46 l-33 -8 28 -4 c17 -3 27 -11
28 -21 0 -10 4 -7 8 8 5 14 20 48 34 77 28 55 27 58 -23 82 -22 11 -23 11 -7
-2z"/>
<path d="M2618 873 c7 -3 16 -2 19 1 4 3 -2 6 -13 5 -11 0 -14 -3 -6 -6z"/>
<path d="M2296 845 c4 -16 8 -42 8 -57 1 -18 4 -23 12 -17 7 6 32 0 69 -16 32
-14 59 -24 62 -22 2 3 -22 15 -54 28 l-57 23 30 13 29 13 -36 -6 c-34 -5 -37
-4 -53 33 -13 31 -15 32 -10 8z"/>
<path d="M973 853 c9 -2 23 -2 30 0 6 3 -1 5 -18 5 -16 0 -22 -2 -12 -5z"/>
<path d="M3710 849 c0 -11 33 -15 65 -9 27 6 25 7 -17 11 -27 2 -48 1 -48 -2z"/>
<path d="M1053 843 c9 -2 23 -2 30 0 6 3 -1 5 -18 5 -16 0 -22 -2 -12 -5z"/>
<path d="M1403 843 c9 -2 25 -2 35 0 9 3 1 5 -18 5 -19 0 -27 -2 -17 -5z"/>
<path d="M2478 833 c7 -3 16 -2 19 1 4 3 -2 6 -13 5 -11 0 -14 -3 -6 -6z"/>
<path d="M3843 833 c9 -2 25 -2 35 0 9 3 1 5 -18 5 -19 0 -27 -2 -17 -5z"/>
<path d="M2415 820 c-13 -5 -14 -9 -5 -9 8 0 24 4 35 9 13 5 14 9 5 9 -8 0
-24 -4 -35 -9z"/>
<path d="M2651 794 c0 -11 3 -14 6 -6 3 7 2 16 -1 19 -3 4 -6 -2 -5 -13z"/>
<path d="M1348 793 c7 -3 16 -2 19 1 4 3 -2 6 -13 5 -11 0 -14 -3 -6 -6z"/>
<path d="M1388 783 c7 -3 16 -2 19 1 4 3 -2 6 -13 5 -11 0 -14 -3 -6 -6z"/>
<path d="M1428 773 c7 -3 16 -2 19 1 4 3 -2 6 -13 5 -11 0 -14 -3 -6 -6z"/>
<path d="M1468 763 c6 -2 18 -2 25 0 6 3 1 5 -13 5 -14 0 -19 -2 -12 -5z"/>
<path d="M2790 730 l-45 -39 29 -30 c16 -17 32 -29 34 -26 2 2 -9 15 -24 30
l-29 25 25 21 c14 12 34 27 44 35 11 7 18 16 15 18 -2 2 -24 -13 -49 -34z"/>
<path d="M4003 739 c-53 -37 -57 -49 -6 -14 45 30 50 30 56 8 3 -13 5 -11 6 6
l1 25 33 -30 32 -29 -29 33 c-17 17 -35 32 -40 32 -6 -1 -30 -14 -53 -31z"/>
<path d="M2283 728 c-8 -18 -2 -46 25 -126 19 -57 36 -101 38 -99 2 2 -7 37
-21 77 -32 94 -32 100 7 64 l31 -29 -22 32 c-12 18 -26 35 -32 38 -5 4 -7 11
-4 16 4 5 1 9 -5 9 -7 0 -9 8 -5 20 9 27 0 25 -12 -2z"/>
<path d="M4231 745 c0 -5 13 -35 29 -65 16 -30 29 -50 29 -45 0 6 -13 35 -29
65 -16 30 -29 51 -29 45z"/>
<path d="M1448 733 c6 -2 18 -2 25 0 6 3 1 5 -13 5 -14 0 -19 -2 -12 -5z"/>
<path d="M2631 724 c0 -11 3 -14 6 -6 3 7 2 16 -1 19 -3 4 -6 -2 -5 -13z"/>
<path d="M2831 724 c0 -11 3 -14 6 -6 3 7 2 16 -1 19 -3 4 -6 -2 -5 -13z"/>
<path d="M1398 723 c7 -3 16 -2 19 1 4 3 -2 6 -13 5 -11 0 -14 -3 -6 -6z"/>
<path d="M4042 685 c0 -16 2 -22 5 -12 2 9 2 23 0 30 -3 6 -5 -1 -5 -18z"/>
<path d="M1233 693 c9 -2 23 -2 30 0 6 3 -1 5 -18 5 -16 0 -22 -2 -12 -5z"/>
<path d="M2343 693 c9 -2 23 -2 30 0 6 3 -1 5 -18 5 -16 0 -22 -2 -12 -5z"/>
<path d="M3905 670 c-22 -16 -64 -39 -92 -51 -41 -16 -53 -26 -52 -43 l0 -21
9 21 c11 27 65 47 90 34 9 -5 43 -41 74 -80 31 -38 59 -70 62 -70 3 0 -16 27
-43 60 -97 122 -90 108 -68 124 31 21 71 55 65 55 -3 0 -23 -13 -45 -29z"/>
<path d="M1531 674 c0 -11 3 -14 6 -6 3 7 2 16 -1 19 -3 4 -6 -2 -5 -13z"/>
<path d="M2413 683 c9 -2 25 -2 35 0 9 3 1 5 -18 5 -19 0 -27 -2 -17 -5z"/>
<path d="M4178 679 c-4 -11 17 -39 72 -94 44 -43 77 -82 74 -87 -3 -4 2 -8 11
-8 12 0 15 5 11 16 -3 9 -6 18 -6 20 0 2 -6 4 -13 4 -18 0 -135 121 -139 145
-3 17 -5 17 -10 4z"/>
<path d="M1293 643 c15 -2 37 -2 50 0 12 2 0 4 -28 4 -27 0 -38 -2 -22 -4z"/>
<path d="M1265 610 c11 -5 27 -9 35 -9 9 0 8 4 -5 9 -11 5 -27 9 -35 9 -9 0
-8 -4 5 -9z"/>
<path d="M2752 590 c0 -19 2 -27 5 -17 2 9 2 25 0 35 -3 9 -5 1 -5 -18z"/>
<path d="M4291 615 c0 -5 6 -21 14 -35 8 -14 14 -20 14 -15 0 6 -6 21 -14 35
-8 14 -14 21 -14 15z"/>
<path d="M3841 584 c0 -11 3 -14 6 -6 3 7 2 16 -1 19 -3 4 -6 -2 -5 -13z"/>
<path d="M4032 580 c0 -14 2 -19 5 -12 2 6 2 18 0 25 -3 6 -5 1 -5 -13z"/>
<path d="M4083 535 c-26 -35 -50 -65 -53 -65 -4 0 -5 17 -3 38 2 30 0 28 -8
-13 -6 -27 -16 -53 -22 -57 -9 -5 -8 -8 3 -8 8 0 35 -22 60 -48 25 -27 34 -36
21 -20 -14 15 -22 30 -19 33 5 6 168 -96 168 -106 0 -3 -15 -13 -32 -22 -18
-8 -28 -16 -23 -16 29 -2 74 42 108 107 20 38 37 74 37 78 0 5 -18 -22 -38
-61 -21 -38 -42 -69 -48 -68 -6 1 -55 30 -109 65 -94 60 -97 63 -69 69 l29 7
-28 1 -28 1 47 63 c26 34 52 68 57 75 5 6 7 12 4 12 -4 0 -28 -29 -54 -65z"/>
<path d="M2545 522 c-23 -43 -38 -59 -65 -68 -19 -7 -30 -13 -24 -13 39 -3 72
22 98 75 36 74 29 79 -9 6z"/>
<path d="M3773 475 c0 -22 2 -30 4 -17 2 12 2 30 0 40 -3 9 -5 -1 -4 -23z"/>
<path d="M3811 484 c0 -11 3 -14 6 -6 3 7 2 16 -1 19 -3 4 -6 -2 -5 -13z"/>
<path d="M1091 409 c1 -40 3 -47 8 -25 l6 28 47 -61 48 -61 -30 -15 c-17 -9
-30 -18 -30 -21 0 -2 14 2 30 11 l30 16 0 -35 c0 -24 -11 -49 -36 -83 l-37
-48 37 34 c37 36 39 35 38 -24 -1 -29 -1 -29 8 5 5 20 5 39 0 45 -5 6 -5 36
-1 68 4 31 5 57 1 57 -11 0 -73 81 -67 87 3 3 19 -4 35 -16 17 -12 33 -21 38
-21 4 0 -13 14 -37 31 -24 17 -54 43 -66 57 l-23 25 1 -54z"/>
<path d="M2360 455 c0 -5 5 -17 10 -25 5 -8 10 -10 10 -5 0 6 -5 17 -10 25 -5
8 -10 11 -10 5z"/>
<path d="M4098 453 c7 -3 16 -2 19 1 4 3 -2 6 -13 5 -11 0 -14 -3 -6 -6z"/>
<path d="M1193 423 c9 -2 25 -2 35 0 9 3 1 5 -18 5 -19 0 -27 -2 -17 -5z"/>
<path d="M3780 405 c0 -14 4 -25 9 -25 4 0 6 11 3 25 -2 14 -6 25 -8 25 -2 0
-4 -11 -4 -25z"/>
<path d="M1262 406 c9 -10 18 -11 31 -5 25 14 21 19 -13 19 -26 0 -29 -2 -18
-14z"/>
<path d="M3918 413 c7 -3 16 -2 19 1 4 3 -2 6 -13 5 -11 0 -14 -3 -6 -6z"/>
<path d="M3848 393 c7 -3 16 -2 19 1 4 3 -2 6 -13 5 -11 0 -14 -3 -6 -6z"/>
<path d="M1297 371 c-3 -12 -1 -21 3 -21 14 0 19 15 11 29 -6 9 -10 7 -14 -8z"/>
<path d="M1239 339 c-14 -28 -8 -31 18 -9 18 14 20 19 8 24 -9 3 -19 -3 -26
-15z"/>
<path d="M4125 300 c10 -11 20 -20 23 -20 3 0 -3 9 -13 20 -10 11 -20 20 -23
20 -3 0 3 -9 13 -20z"/>
<path d="M4601 268 c1 -19 2 -19 6 -5 3 11 11 16 19 13 9 -3 12 -1 9 4 -12 19
-35 10 -34 -12z"/>
<path d="M4641 249 c-1 -8 -12 -26 -26 -39 -14 -13 -25 -27 -25 -32 0 -5 14 7
31 26 17 20 28 41 26 48 -4 9 -6 8 -6 -3z"/>
<path d="M4591 224 c0 -11 3 -14 6 -6 3 7 2 16 -1 19 -3 4 -6 -2 -5 -13z"/>
<path d="M1090 219 c0 -5 5 -7 10 -4 6 3 10 8 10 11 0 2 -4 4 -10 4 -5 0 -10
-5 -10 -11z"/>
<path d="M4150 190 c0 -36 6 -37 31 -7 21 25 24 37 9 37 -5 0 -10 -6 -10 -14
0 -8 -5 -18 -12 -22 -8 -5 -9 0 -6 14 4 12 2 22 -3 22 -5 0 -9 -13 -9 -30z"/>
<path d="M1093 165 c0 -22 2 -30 4 -17 2 12 2 30 0 40 -3 9 -5 -1 -4 -23z"/>
<path d="M4516 143 l-29 -38 31 29 c18 17 32 25 32 20 0 -6 -13 -23 -30 -39
-16 -16 -30 -25 -30 -21 0 12 -29 -14 -41 -36 -9 -17 -8 -18 8 -9 10 6 38 29
62 50 38 33 43 43 35 60 -9 20 -11 19 -38 -16z"/>
<path d="M1164 124 c-18 -14 -18 -15 4 -4 12 6 22 13 22 15 0 8 -5 6 -26 -11z"/>
<path d="M1100 94 c0 -20 102 -95 124 -92 29 4 30 23 1 38 -14 7 -25 20 -26
29 0 10 -3 11 -5 4 -3 -7 -13 -9 -22 -6 -13 4 -12 2 3 -10 11 -9 25 -17 31
-17 6 0 18 -7 25 -17 13 -15 11 -16 -16 -9 -34 8 -77 44 -69 57 3 5 -2 9 -12
9 -13 0 -14 3 -4 14 9 12 8 15 -9 13 -12 -1 -21 -7 -21 -13z"/>
</g>
</svg>
