<?xml version="1.0" standalone="no"?>
<!DOCTYPE svg PUBLIC "-//W3C//DTD SVG 20010904//EN"
 "http://www.w3.org/TR/2001/REC-SVG-20010904/DTD/svg10.dtd">
<svg version="1.0" xmlns="http://www.w3.org/2000/svg"
 width="800.000000pt" height="600.000000pt" viewBox="0 0 800.000000 600.000000"
 preserveAspectRatio="xMidYMid meet">

<g transform="translate(0.000000,600.000000) scale(0.100000,-0.100000)"
fill="#000000" stroke="none">
<path d="M2290 5210 c0 -7 6 -10 13 -7 7 2 100 -4 207 -14 107 -11 206 -18
220 -17 14 2 -60 11 -165 21 -104 10 -209 21 -232 24 -31 4 -43 2 -43 -7z"/>
<path d="M4941 5212 c0 -10 249 -217 260 -217 5 0 21 19 34 41 18 30 21 43 12
47 -6 3 -78 35 -159 71 -82 36 -148 62 -147 58z m180 -83 c65 -28 119 -56 119
-63 0 -6 -10 -23 -23 -38 l-22 -26 -103 89 c-56 49 -100 89 -96 89 3 0 59 -23
125 -51z"/>
<path d="M2848 5051 c-202 -86 -370 -159 -373 -162 -5 -6 82 -86 158 -146 l27
-21 19 -356 c10 -196 21 -359 24 -362 3 -3 129 80 281 185 231 161 276 197
285 224 6 18 51 160 101 316 l90 284 -103 98 c-62 60 -110 98 -122 97 -11 0
-185 -71 -387 -157z m495 57 c70 -64 95 -93 85 -99 -27 -15 -702 -259 -709
-257 -7 3 510 447 521 448 3 0 49 -41 103 -92z m-143 78 c0 -2 -113 -99 -250
-216 -141 -120 -247 -216 -243 -222 3 -7 1 -8 -6 -4 -6 4 -17 3 -24 -2 -9 -7
-36 10 -97 59 -47 38 -86 73 -88 78 -1 4 156 76 350 159 407 173 358 153 358
148z m150 -488 c-59 -186 -101 -301 -114 -315 -19 -19 -525 -375 -527 -370 -2
7 -37 692 -35 695 2 1 128 -70 281 -158 152 -89 279 -159 281 -157 2 2 -115
73 -261 157 -289 166 -309 179 -285 180 8 0 179 61 380 134 201 74 367 133
369 131 2 -3 -38 -136 -89 -297z"/>
<path d="M2300 5180 c0 -30 53 -316 60 -324 5 -5 103 58 219 140 116 81 209
149 207 151 -2 3 -97 -62 -211 -142 -114 -80 -208 -145 -210 -143 -1 2 -15 75
-30 163 -25 146 -35 190 -35 155z"/>
<path d="M2175 5050 c-49 -71 -91 -133 -92 -137 -2 -5 37 -48 86 -97 l89 -89
6 74 c8 107 13 379 7 379 -4 0 -46 -59 -96 -130z m85 -94 c-3 -107 -7 -197
-11 -200 -3 -3 -40 30 -83 73 l-78 78 84 121 c45 67 85 122 88 122 3 0 3 -87
0 -194z"/>
<path d="M2775 5160 c27 -12 35 -12 35 0 0 6 -12 10 -27 9 -25 0 -26 -1 -8 -9z"/>
<path d="M5942 5103 c-46 -20 -80 -39 -75 -43 10 -10 135 -61 139 -57 2 1 5
23 8 47 5 39 4 40 -3 12 -5 -18 -11 -36 -14 -39 -4 -3 -31 5 -62 17 -31 12
-54 24 -53 25 2 2 32 15 67 30 51 21 66 24 72 13 6 -9 9 -7 9 10 0 12 -1 22
-2 21 -2 0 -40 -16 -86 -36z"/>
<path d="M5285 4856 l-200 -133 -64 -94 c-35 -52 -66 -96 -68 -98 -2 -3 -29
20 -59 50 l-56 54 4 -128 3 -129 -230 -119 c-126 -65 -233 -119 -237 -119 -4
0 6 23 22 50 17 28 30 55 30 60 0 8 -25 19 -257 115 l-101 42 -65 -66 c-58
-60 -267 -340 -267 -359 0 -4 40 -50 90 -102 82 -87 91 -94 104 -77 7 9 42 86
76 170 35 83 67 156 71 160 7 9 21 -174 23 -308 l1 -80 -90 -12 c-139 -18
-134 -19 -152 27 -9 22 -19 40 -23 40 -4 0 -24 -25 -45 -56 -21 -30 -46 -60
-55 -67 -9 -7 -50 -42 -90 -79 l-73 -67 22 -27 c24 -31 26 -43 9 -80 -12 -25
-14 -26 -71 -19 -32 3 -65 9 -73 12 -11 4 -14 -12 -14 -90 0 -53 4 -98 9 -101
5 -4 37 -10 70 -14 61 -9 62 -9 91 24 16 18 41 54 56 80 23 39 39 52 98 80
l70 32 36 -28 c60 -48 84 -74 105 -113 11 -20 23 -37 27 -37 3 0 16 13 27 29
l21 29 -77 72 c-60 56 -74 74 -62 81 8 5 19 9 24 9 6 0 44 -43 84 -95 114
-146 92 -145 215 -7 59 66 116 122 129 125 12 3 96 9 187 13 l165 6 -74 -75
-74 -76 -95 65 c-52 35 -96 63 -98 61 -2 -2 37 -31 86 -65 50 -35 90 -69 90
-77 0 -20 -93 -205 -103 -205 -4 0 -48 32 -97 72 -58 46 -86 74 -78 79 7 3 70
17 141 29 70 13 125 25 123 28 -7 6 -296 -49 -296 -57 1 -3 46 -42 102 -85
l101 -80 -39 -33 c-22 -18 -45 -33 -53 -33 -15 0 -375 46 -428 55 -29 5 -32 9
-38 55 -8 60 7 58 -205 29 -104 -14 -161 -26 -173 -37 -10 -9 -70 -83 -133
-165 l-114 -149 0 -127 0 -126 104 -98 105 -97 124 31 124 31 73 -45 73 -44
52 -168 53 -168 -31 -64 -32 -64 75 -220 c41 -121 77 -224 80 -229 4 -6 57 4
125 23 l119 32 72 155 c72 154 73 155 148 218 54 46 76 70 76 87 0 12 -9 66
-20 120 -11 53 -17 102 -13 108 4 7 74 88 156 180 82 92 147 170 145 172 -2 2
-51 7 -108 11 l-105 7 -133 220 c-73 120 -131 221 -129 223 2 2 19 -7 39 -21
27 -18 60 -67 139 -210 57 -101 108 -185 113 -185 12 0 337 202 332 207 -2 2
-76 -42 -166 -98 -89 -55 -166 -97 -170 -92 -23 25 -190 338 -186 348 4 10
202 65 235 65 9 0 105 -140 99 -145 -2 -1 -73 17 -158 41 -85 24 -159 43 -164
44 -28 1 24 -15 249 -78 138 -39 258 -73 268 -77 27 -11 21 3 -34 71 l-51 65
-44 -36 -43 -36 -47 71 c-26 39 -45 72 -43 74 2 1 109 -29 237 -68 l233 -71
73 -125 c40 -69 92 -158 116 -199 l42 -73 122 183 c85 129 127 185 141 186 23
2 405 -34 410 -39 6 -6 26 -250 21 -255 -4 -4 -358 239 -399 275 -9 8 -19 13
-22 10 -3 -3 28 -28 68 -56 40 -28 78 -57 84 -64 5 -7 47 -97 93 -200 46 -104
85 -186 87 -184 2 2 -12 70 -31 152 -20 81 -34 149 -33 151 2 1 38 -23 81 -53
43 -30 80 -53 83 -50 3 3 0 66 -7 141 -6 75 -10 138 -8 139 2 2 68 40 148 85
80 46 149 87 154 92 5 5 -23 79 -69 179 -43 94 -76 172 -74 174 9 8 111 57
113 54 2 -4 118 -162 123 -167 1 -2 6 -1 10 2 3 4 -5 18 -19 32 -14 13 -44 51
-67 84 l-42 60 50 26 51 25 5 -22 c3 -13 6 -54 8 -93 2 -46 4 -36 4 30 l0 101
71 121 c40 67 75 129 78 137 4 10 -28 52 -94 122 l-101 107 67 81 c37 45 123
150 191 234 69 83 127 152 130 152 3 0 32 -120 65 -268 51 -233 75 -322 76
-287 0 6 27 160 60 343 33 183 60 345 60 360 0 15 -9 59 -20 97 -11 38 -20 71
-20 72 0 1 29 11 65 23 36 12 65 25 65 28 0 4 -41 34 -91 66 l-90 59 -267 -17
-267 -16 -265 -63 -264 -63 -90 52 -89 52 -50 -19 c-28 -11 -97 -40 -154 -64
l-102 -43 -5 32 c-3 17 -10 69 -16 115 -5 46 -11 85 -13 87 -1 1 -92 -57 -202
-130z m211 1 c7 -56 11 -103 10 -104 -3 -4 -379 -23 -383 -20 -1 2 77 56 174
120 98 63 180 114 182 111 3 -3 11 -51 17 -107z m1611 -89 c25 -94 40 -170 39
-198 -4 -67 -109 -641 -116 -633 -4 5 -30 116 -59 248 -29 132 -55 248 -57
257 -4 14 20 30 113 77 65 33 115 60 110 60 -4 1 -57 -24 -118 -55 -62 -30
-115 -52 -120 -47 -30 31 -318 388 -315 391 2 2 126 -58 275 -132 149 -75 274
-136 278 -135 5 0 -120 65 -277 144 -157 79 -283 145 -280 145 11 4 359 27
420 28 l65 2 42 -152z m71 83 c28 -18 52 -36 52 -40 0 -9 -101 -42 -110 -36
-4 3 -13 26 -19 52 -7 27 -15 57 -18 68 -5 18 -4 18 18 3 13 -8 48 -30 77 -47z
m-638 2 c0 -21 -9 -218 -20 -438 -11 -220 -20 -403 -20 -407 0 -5 -4 -7 -9 -5
-5 1 -16 -6 -23 -15 -11 -15 -99 -27 -550 -76 -299 -32 -538 -54 -538 -48 0
17 182 336 192 336 5 0 99 -23 210 -51 110 -28 202 -49 204 -46 3 2 -91 28
-208 58 l-213 54 -22 255 c-12 140 -21 256 -19 257 1 1 212 -162 469 -362 256
-201 469 -365 472 -365 4 0 3 5 -1 12 -4 7 -3 8 4 4 7 -4 12 -5 12 -2 0 2
-103 170 -230 372 -126 202 -230 371 -230 375 0 3 53 19 118 34 64 15 178 42
252 60 74 18 138 33 143 34 4 1 7 -16 7 -36z m193 -189 l165 -202 -191 -235
c-106 -129 -193 -234 -194 -233 -2 1 6 187 17 412 11 225 20 425 20 444 0 20
4 30 9 25 4 -6 83 -101 174 -211z m-808 145 l60 -34 -115 -7 c-277 -16 -312
-17 -306 -10 4 3 64 30 134 58 108 44 130 50 147 39 11 -7 47 -27 80 -46z
m309 -415 c125 -201 226 -368 223 -370 -3 -3 -211 155 -462 351 -251 197 -454
359 -451 362 5 5 256 19 376 21 l85 2 229 -366z m-754 342 c0 -2 -132 -77
-292 -166 -161 -90 -297 -165 -302 -168 -13 -7 -4 6 108 170 l101 148 45 1
c25 1 97 5 160 9 174 10 180 10 180 6z m33 -43 c11 -76 40 -463 35 -468 -6 -7
-668 147 -668 155 0 6 609 349 621 350 4 0 9 -17 12 -37z m-611 -237 c-36 -51
-40 -54 -46 -33 -3 12 -6 59 -6 104 l0 82 45 -48 46 -49 -39 -56z m-827 -171
l7 -100 -56 55 -56 54 47 48 c26 26 48 47 49 45 1 -1 5 -47 9 -102z m263 -167
c-3 -7 -214 -168 -221 -168 -4 0 -19 163 -33 350 l-6 85 131 -130 c72 -71 130
-133 129 -137z m-80 201 c81 -33 151 -64 155 -68 7 -7 -52 -120 -63 -121 -3 0
-61 56 -130 125 -69 69 -121 125 -117 125 5 0 75 -27 155 -61z m582 24 c0 -22
-98 -750 -106 -782 -4 -19 -34 22 -167 230 -90 140 -172 270 -184 290 l-22 35
232 121 c128 67 235 122 240 122 4 1 7 -7 7 -16z m270 -241 c135 -140 241
-257 235 -259 -5 -2 -142 -73 -304 -158 -162 -85 -296 -153 -297 -152 -1 1 13
112 32 247 19 135 44 320 56 413 12 92 24 167 27 166 3 -1 116 -116 251 -257z
m112 182 c177 -41 324 -77 326 -78 2 -3 -174 -333 -186 -346 -4 -5 -119 114
-373 383 -61 64 -106 117 -101 117 6 0 156 -34 334 -76z m-1193 -64 l54 -49
-69 -165 c-81 -193 -82 -192 -61 81 7 94 10 170 6 168 -3 -2 -11 -93 -18 -202
-7 -109 -14 -209 -17 -222 -5 -23 -11 -18 -90 60 -46 46 -82 89 -80 94 7 19
188 270 199 277 18 11 18 11 76 -42z m510 -403 c94 -148 171 -270 171 -273 0
-2 -133 85 -295 193 -163 108 -292 200 -288 204 5 4 55 44 113 87 79 60 108
77 116 68 7 -6 89 -132 183 -279z m1951 133 c0 -3 -30 -99 -66 -215 -36 -115
-78 -248 -92 -293 l-26 -84 -295 6 c-163 4 -374 9 -469 12 l-173 6 398 205
c219 113 465 238 547 279 81 42 146 77 143 80 -2 2 -250 -122 -551 -277 -301
-155 -549 -279 -552 -276 -3 3 -2 104 2 226 l7 221 31 5 c17 3 240 27 496 55
256 27 479 51 495 53 39 5 105 3 105 -3z m210 -193 c0 -11 -141 -249 -145
-245 -2 2 -11 82 -19 178 -9 96 -19 195 -22 220 l-5 45 95 -95 c53 -52 96 -98
96 -103z m-179 -25 c26 -278 37 -241 -87 -307 -59 -30 -108 -54 -109 -53 -5 5
170 556 174 552 3 -2 13 -89 22 -192z m-2124 7 c150 -100 272 -184 270 -186
-3 -2 -528 182 -543 191 -4 3 -10 176 -6 176 3 0 128 -82 279 -181z m949 -131
c-4 -123 -9 -224 -10 -225 -4 -4 -560 130 -568 136 -7 6 557 310 576 311 5 0
6 -93 2 -222z m-1491 142 c12 -24 13 -31 3 -34 -21 -7 -78 -13 -78 -9 0 6 52
73 56 73 2 0 11 -14 19 -30z m233 -42 c-8 -13 -39 -61 -68 -108 -29 -47 -57
-90 -62 -97 -7 -9 -33 16 -93 85 -45 53 -81 99 -78 102 5 6 228 37 277 39 37
1 38 1 24 -21z m146 -87 l108 -108 -53 -6 c-102 -12 -319 -20 -319 -12 0 10
144 235 150 235 3 0 54 -49 114 -109z m200 2 l271 -98 -174 -9 -173 -8 -107
106 c-58 58 -102 106 -97 106 5 0 131 -44 280 -97z m-575 -42 c40 -46 70 -85
68 -87 -2 -2 -77 6 -167 18 l-163 22 84 78 c65 60 86 75 95 65 7 -7 44 -50 83
-96z m-85 -81 c77 -11 141 -21 143 -24 2 -2 -45 -25 -103 -51 l-107 -48 -19
24 c-10 13 -34 45 -53 72 -41 56 -51 54 139 27z m1039 -132 c36 -65 64 -118
62 -118 -2 0 -29 9 -59 20 -54 21 -54 21 -91 106 l-37 86 23 24 c17 18 25 21
30 12 4 -7 36 -66 72 -130z m229 72 c147 -35 265 -66 263 -69 -6 -5 -409 -131
-411 -128 -11 17 -144 261 -144 264 0 3 6 3 13 1 6 -3 132 -33 279 -68z m-702
55 c0 -11 -202 -230 -208 -227 -11 5 -162 196 -162 205 0 4 26 8 58 8 31 1
102 5 157 9 150 10 155 10 155 5z m-669 -87 l22 -31 -39 7 c-49 10 -50 10 -36
42 14 29 22 26 53 -18z m246 2 c26 -48 19 -50 -26 -9 -26 25 -31 33 -20 40 21
13 22 12 46 -31z m799 -35 c18 -41 29 -75 26 -75 -7 0 -145 51 -151 56 -4 4
80 94 88 94 3 0 20 -34 37 -75z m-685 -89 c-18 -21 -26 -20 -39 7 -6 12 -25
47 -42 77 l-32 55 63 -62 c54 -53 61 -64 50 -77z m-436 98 c49 -8 91 -17 93
-19 5 -5 -43 -84 -72 -119 l-24 -28 -52 78 c-29 44 -57 84 -63 89 -18 18 13
-35 59 -100 l46 -65 -36 0 c-19 0 -46 4 -60 10 -25 9 -26 13 -26 83 0 41 3 77
7 80 9 10 28 9 128 -9z m2528 -33 l168 -6 -280 -229 c-155 -126 -281 -231
-281 -233 0 -9 37 21 289 227 145 118 267 216 271 218 4 2 -12 -64 -36 -145
-24 -81 -56 -189 -70 -239 -14 -50 -29 -96 -33 -102 -7 -12 -401 22 -430 37
-15 9 -361 472 -361 484 0 6 485 -1 763 -12z m-793 1 c0 -8 -75 -388 -85 -429
-4 -19 -27 -1 -173 142 -92 89 -165 165 -162 168 7 6 392 126 408 126 6 1 12
-3 12 -7z m-566 -73 c110 -41 115 -45 75 -53 -72 -14 -349 -89 -345 -93 2 -2
86 17 186 42 99 26 183 45 185 43 6 -6 -114 -168 -124 -168 -18 0 -247 72
-255 80 -7 7 7 45 42 115 l52 105 52 -21 c29 -12 88 -34 132 -50z m764 -165
c95 -130 172 -237 170 -238 -2 -2 -103 2 -225 7 -218 10 -222 11 -218 31 8 32
72 356 79 399 4 20 10 37 14 37 4 -1 85 -107 180 -236z m862 53 c40 -87 71
-160 69 -161 -7 -5 -291 -166 -293 -166 -3 0 128 447 139 479 3 8 7 12 9 10 2
-2 36 -75 76 -162z m-1325 -107 c121 -121 153 -158 130 -151 -16 6 -120 37
-229 71 -110 33 -201 62 -203 63 -5 6 122 177 132 177 6 0 82 -72 170 -160z
m-1180 109 c4 -22 5 -42 3 -44 -2 -2 -61 5 -132 16 -71 11 -137 18 -145 17 -9
-2 41 -12 112 -22 70 -11 126 -21 124 -23 -7 -6 -410 -94 -419 -91 -5 2 15 34
43 71 45 59 56 67 85 67 18 0 34 4 36 9 3 8 187 37 255 40 29 1 32 -2 38 -40z
m824 -125 c2 -2 2 -5 0 -7 -12 -8 -220 -53 -223 -48 -2 3 -7 34 -11 68 l-7 62
119 -36 c65 -19 120 -37 122 -39z m-865 -101 c-24 -93 -61 -232 -81 -310 -21
-79 -40 -143 -43 -143 -5 1 -296 478 -305 502 -4 10 52 26 227 64 128 28 236
52 240 53 3 0 -13 -74 -38 -166z m316 131 c122 -16 201 -31 211 -40 18 -16 34
-7 19 10 -6 8 2 21 26 40 20 15 37 26 39 24 3 -2 7 -30 11 -63 l7 -59 -32 23
c-23 16 -36 20 -43 13 -7 -7 29 -76 121 -228 73 -119 129 -220 124 -224 -11
-9 -734 -182 -740 -177 -2 3 100 148 227 322 127 175 229 319 227 321 -2 2
-108 -141 -236 -317 -129 -176 -235 -319 -236 -317 -2 2 1 136 5 298 5 162 9
321 10 353 l0 58 33 -6 c17 -3 120 -17 227 -31z m-280 -353 c-5 -178 -11 -325
-13 -327 -7 -8 -138 79 -134 89 2 7 37 137 77 289 41 153 75 277 76 275 2 -2
-1 -148 -6 -326z m-427 -264 c-7 -15 -21 -4 -91 66 l-83 83 3 98 3 98 79 -171
c43 -95 81 -170 83 -168 2 3 -35 88 -83 191 l-86 186 58 77 58 78 33 -260 c18
-143 30 -268 26 -278z m112 265 c81 -134 145 -246 142 -248 -3 -3 -55 -18
-116 -34 l-111 -28 -5 32 c-8 49 -65 498 -65 515 0 19 -12 37 155 -237z m1429
156 c30 -38 35 -49 20 -45 -10 3 -45 13 -76 22 -32 9 -58 19 -58 21 0 9 55 53
65 53 6 0 28 -23 49 -51z m676 -17 l30 -6 -114 -174 -113 -174 -43 74 c-24 41
-72 123 -106 182 -35 60 -64 111 -64 114 0 7 371 -8 410 -16z m297 -178 c27
-24 35 -43 57 -137 14 -61 24 -111 23 -113 -2 -1 -29 57 -62 130 -32 73 -60
135 -62 140 -9 16 15 5 44 -20z m-1357 -295 c-23 -90 -46 -167 -50 -171 -4 -5
-152 29 -330 74 -246 63 -317 85 -299 91 46 15 714 175 718 172 2 -2 -15 -77
-39 -166z m204 164 l48 -7 -138 -157 c-76 -87 -139 -156 -141 -155 -2 3 71
287 81 314 6 14 66 16 150 5z m-284 -352 c0 -5 -518 -150 -536 -150 -8 0 -105
288 -104 311 0 8 640 -153 640 -161z m-23 -182 c-28 -95 -51 -174 -52 -176 -2
-2 -405 172 -432 187 -19 10 -46 1 287 96 124 35 230 64 236 64 6 1 -10 -71
-39 -171z m92 -44 c1 -14 -21 -38 -64 -72 -36 -29 -65 -50 -65 -47 0 3 20 73
45 156 25 83 46 154 46 157 2 11 38 -171 38 -194z m-396 -36 c103 -45 185 -83
183 -85 -3 -4 -448 56 -453 60 -1 2 10 29 24 60 20 44 30 56 42 52 9 -4 100
-43 204 -87z m21 -78 c120 -16 220 -31 221 -32 5 -5 -125 -282 -138 -295 -15
-15 -220 -73 -228 -65 -5 5 -75 212 -137 402 -2 8 78 -66 179 -165 l184 -180
-185 189 c-172 175 -183 188 -150 182 19 -3 133 -19 254 -36z"/>
<path d="M6000 4097 c7 -8 452 -119 456 -114 3 2 -87 27 -198 55 -252 63 -264
66 -258 59z"/>
<path d="M1457 4809 c-26 -62 -46 -113 -44 -115 7 -7 239 106 235 115 -4 12
-124 111 -134 111 -5 0 -31 -50 -57 -111z m133 42 c25 -22 43 -41 40 -44 -12
-12 -193 -98 -196 -94 -3 2 14 47 37 100 46 108 41 107 119 38z"/>
<path d="M3913 4888 c-57 -17 -103 -34 -103 -38 0 -10 92 -182 95 -178 5 6
135 240 135 244 0 8 -26 2 -127 -28z m49 -94 l-60 -107 -41 81 -40 80 72 22
c40 11 83 25 97 29 14 5 27 7 29 5 2 -2 -24 -51 -57 -110z"/>
<path d="M600 4784 l-175 -125 -67 -147 c-75 -165 -74 -137 0 -249 l34 -52
111 56 c128 64 107 68 238 -44 87 -74 88 -75 103 -141 8 -37 32 -141 52 -232
l37 -165 -16 -235 -16 -235 101 -168 c55 -92 102 -166 105 -164 2 3 -8 46 -22
97 -15 50 -25 93 -23 96 2 2 41 -65 86 -150 l82 -153 67 -28 c222 -93 309
-139 366 -191 32 -30 64 -54 70 -54 7 0 0 10 -15 21 -26 19 -38 49 -20 49 10
-1 44 -48 46 -66 5 -31 30 -34 58 -7 l27 25 6 -34 c8 -41 -12 -120 -59 -241
l-34 -88 143 -161 c80 -88 142 -165 139 -169 -3 -5 1 -9 8 -9 7 0 101 -86 208
-191 181 -176 193 -190 160 -185 -19 3 -108 13 -197 22 l-163 17 -2 166 c-1
109 -4 53 -8 -164 -7 -344 5 -558 33 -580 7 -5 45 -36 84 -68 71 -58 72 -58
113 -47 47 13 45 19 -14 59 l-42 29 10 69 c6 37 15 74 20 82 6 10 2 19 -15 32
-21 16 -22 21 -11 38 6 12 12 49 12 84 0 60 2 65 38 100 21 20 41 37 44 37 4
0 27 9 52 20 l46 19 -20 33 c-11 18 -20 36 -20 40 0 3 21 6 46 5 l46 -2 67
123 c64 118 68 124 136 169 39 25 71 47 73 48 2 2 10 47 19 102 13 83 23 112
64 187 27 49 48 90 47 92 -2 1 -82 46 -178 99 -96 53 -253 146 -348 206 -162
103 -175 109 -205 101 -28 -8 -37 -6 -61 14 -35 30 -40 30 -56 -3 l-14 -28 -5
31 -6 32 -36 -15 c-23 -9 -43 -27 -55 -49 -21 -38 -22 -39 -48 -19 -13 10 -32
12 -61 8 -39 -5 -43 -3 -63 28 -13 21 -18 39 -13 49 5 8 11 27 15 42 6 26 5
28 -45 34 l-51 7 6 33 c3 19 9 50 12 69 4 22 2 35 -4 35 -6 0 -55 -16 -109
-35 -53 -20 -104 -33 -111 -30 -12 4 -14 23 -8 108 4 56 10 105 14 108 8 8
267 79 286 79 8 0 29 -34 47 -75 18 -41 35 -75 38 -75 3 0 5 42 3 94 l-3 93
151 171 152 170 114 27 c63 15 114 28 114 30 0 2 -18 33 -40 69 -22 36 -40 70
-40 74 0 5 48 23 107 41 58 17 108 33 111 35 5 6 -318 416 -327 416 -4 0 -47
-92 -95 -205 l-88 -205 -114 138 c-62 75 -114 142 -114 147 0 6 52 62 115 125
l115 115 0 172 c0 95 -3 173 -7 173 -5 0 -59 -43 -121 -95 -63 -52 -116 -95
-119 -95 -3 0 -35 18 -70 41 l-64 40 -360 -156 c-198 -86 -362 -155 -365 -153
-3 4 201 512 211 525 1 2 111 -47 245 -107 134 -61 245 -108 248 -106 2 3 -11
11 -29 19 -19 8 -130 58 -248 111 -188 85 -231 109 -352 197 -75 54 -141 99
-145 98 -5 0 -88 -56 -184 -125z m438 -68 c11 -10 -23 -43 -180 -177 -252
-214 -230 -197 -218 -163 5 16 39 135 75 264 36 129 68 241 70 248 3 7 48 -20
122 -74 65 -47 124 -91 131 -98z m-338 -93 c-40 -142 -79 -264 -86 -272 -10
-11 -34 -11 -154 2 -77 8 -143 17 -146 20 -5 5 108 267 116 266 3 0 43 -65 89
-145 46 -80 85 -143 88 -141 2 3 -35 71 -83 151 -48 81 -84 150 -80 153 19 19
321 231 325 228 2 -2 -29 -120 -69 -262z m263 -145 c-117 -284 -128 -310 -134
-311 -3 -1 -49 35 -102 81 l-97 83 203 174 c111 96 205 174 208 174 3 1 -31
-90 -78 -201z m983 -215 c-7 -7 -216 121 -213 130 1 4 49 47 107 96 l105 88 3
-155 c1 -85 0 -157 -2 -159z m-697 -187 c-166 -207 -304 -375 -306 -372 -8 8
-103 439 -98 444 8 8 700 309 703 306 2 -1 -132 -172 -299 -378z m395 154 c35
-118 61 -218 58 -222 -9 -9 -733 -310 -736 -306 -1 2 135 174 303 382 167 209
306 376 308 370 1 -5 32 -106 67 -224z m296 11 c0 -13 -218 -223 -223 -215 -5
10 -127 418 -127 428 0 3 79 -42 175 -100 96 -58 175 -109 175 -113z m-1460
98 c58 -6 106 -12 108 -14 5 -4 -174 -95 -186 -95 -9 0 -20 15 -77 103 l-18
29 34 -6 c19 -3 81 -11 139 -17z m1824 -424 c81 -102 144 -189 142 -194 -9
-14 -197 -64 -205 -55 -5 5 -25 97 -45 204 -20 107 -39 203 -42 213 -3 9 -3
17 -1 17 3 0 71 -83 151 -185z m-189 -113 c-9 -154 -15 -290 -13 -303 2 -13 9
75 16 196 7 121 16 256 19 300 l7 80 42 -213 43 -212 -57 -90 c-31 -49 -62
-89 -69 -89 -17 -1 -136 227 -130 250 8 30 152 368 155 364 2 -2 -4 -129 -13
-283z m-417 180 c-16 -37 -150 -291 -160 -304 -12 -16 -33 -16 -290 -6 -153 7
-276 14 -273 16 6 6 708 300 718 301 5 1 7 -2 5 -7z m132 -121 c57 -71 106
-134 108 -139 1 -5 -43 -15 -100 -22 -57 -7 -143 -18 -193 -25 -49 -7 -92 -11
-94 -9 -4 4 162 324 169 324 3 -1 52 -59 110 -129z m190 -277 c34 -64 59 -118
57 -121 -5 -4 -480 171 -502 185 -10 7 278 49 347 51 l36 1 62 -116z m-513 62
c13 -4 20 -13 17 -24 -18 -85 -65 -385 -62 -394 2 -6 19 79 38 190 19 111 37
198 41 194 9 -10 182 -533 178 -536 -10 -7 -282 -77 -285 -73 -3 3 3 48 12
101 9 54 14 99 12 102 -3 2 -13 -42 -22 -98 -9 -56 -18 -104 -20 -106 -2 -2
-115 45 -250 105 -236 103 -246 109 -227 124 11 9 144 103 296 209 151 105
275 194 275 197 0 7 0 7 -319 -216 -151 -105 -275 -190 -277 -189 -3 4 26 420
30 433 4 11 524 -7 563 -19z m566 -205 c6 -6 -42 -67 -128 -165 -76 -86 -140
-156 -142 -156 -1 0 -3 63 -3 139 l0 139 63 11 62 10 -63 -5 -64 -5 -111 108
c-62 59 -113 111 -115 115 -4 9 489 -179 501 -191z m-304 -141 c-10 -52 -24
-120 -30 -150 l-12 -55 -84 250 c-46 138 -86 259 -89 270 -3 11 48 -34 115
-100 l120 -120 -20 -95z m506 269 c21 -33 34 -64 29 -69 -5 -4 -43 -15 -84
-24 -41 -9 -83 -19 -93 -22 -13 -4 0 22 42 85 34 50 63 91 66 91 2 0 20 -27
40 -61z m-485 -357 c0 -106 -1 -109 -25 -120 -19 -9 -25 -9 -25 1 0 19 42 227
46 227 2 0 4 -49 4 -108z m-810 -35 c42 -20 46 -26 61 -82 9 -33 24 -85 33
-115 9 -30 12 -50 8 -45 -19 21 -161 265 -154 265 4 -1 27 -11 52 -23z m282
-124 l148 -65 -30 -37 c-16 -20 -56 -65 -88 -100 l-58 -65 -84 158 c-60 113
-86 153 -92 144 -7 -9 -8 -8 -4 5 3 10 1 27 -5 38 -12 23 -20 26 213 -78z
m527 -30 l-1 -68 -25 55 c-23 51 -23 55 -7 67 30 22 34 15 33 -54z m-385 -143
c-4 -39 -12 -74 -18 -76 -6 -2 -38 -8 -71 -14 l-60 -9 71 5 71 5 17 -42 c9
-23 16 -43 14 -44 -5 -5 -157 60 -168 71 -6 6 18 42 66 97 42 49 78 86 81 84
2 -3 1 -37 -3 -77z m196 -74 c0 -7 -139 -106 -149 -106 -8 0 -24 41 -18 46 2
2 146 57 165 63 1 1 2 -1 2 -3z m36 -13 c-3 -10 -10 -49 -17 -88 -6 -38 -14
-73 -18 -76 -3 -4 -37 8 -75 25 l-68 32 83 61 c90 67 103 73 95 46z m64 -128
c9 -11 8 -25 -5 -65 l-17 -52 -29 28 c-16 15 -29 31 -29 34 0 4 18 15 40 25
22 10 38 20 36 22 -2 3 -18 -3 -35 -11 -39 -21 -41 -20 -41 9 0 22 4 25 34 25
18 0 39 -7 46 -15z m282 -100 c6 -29 5 -30 -27 -9 -14 9 -25 14 -25 11 0 -3
30 -27 68 -53 37 -26 71 -50 75 -54 5 -5 -40 -5 -100 -2 -82 4 -111 9 -120 21
-15 19 -16 31 -4 31 5 0 11 -8 13 -17 2 -13 11 -5 28 27 21 38 58 69 81 70 4
0 9 -11 11 -25z m76 -17 c-7 -4 -22 -8 -33 -9 -11 0 -14 -3 -7 -6 7 -3 35 1
63 7 27 7 52 10 55 7 8 -8 -27 -87 -39 -87 -11 0 -78 48 -89 64 -3 5 0 23 8
39 15 28 16 28 35 11 15 -13 17 -19 7 -26z m265 -93 c75 -47 137 -88 137 -90
0 -1 -70 15 -156 37 -86 21 -161 37 -167 35 -6 -2 71 -23 171 -48 100 -24 182
-46 181 -49 0 -3 -62 -55 -137 -116 l-137 -112 -52 160 c-28 88 -50 168 -48
178 7 36 47 102 59 97 7 -3 74 -44 149 -92z m-525 49 c-16 -16 -38 -12 -38 6
0 8 41 19 49 13 3 -2 -2 -11 -11 -19z m212 -211 c85 -86 144 -150 130 -141
-14 8 -91 54 -172 102 -81 48 -145 93 -143 99 2 7 9 31 15 55 6 23 12 42 13
42 1 0 72 -71 157 -157z m87 143 c9 -8 100 -306 94 -306 -3 1 -78 73 -166 161
l-160 161 114 -6 c63 -3 116 -8 118 -10z m641 -224 c45 -25 79 -49 75 -52 -7
-6 -574 -52 -579 -47 -1 1 59 52 134 114 l137 112 75 -41 c41 -22 112 -61 158
-86z m-695 -14 c75 -45 136 -82 135 -83 -4 -4 -413 46 -417 51 -4 3 15 58 46
132 l14 33 42 -26 c23 -14 104 -62 180 -107z m-57 -73 c109 -14 203 -25 207
-25 4 0 -29 -54 -74 -120 -46 -66 -86 -120 -89 -120 -7 0 -222 236 -248 272
-16 22 -34 23 204 -7z m854 19 c0 -4 -19 -40 -41 -81 l-41 -75 -42 6 c-49 8
-453 104 -446 106 3 1 127 12 275 25 149 12 276 23 283 24 6 0 12 -2 12 -5z
m-370 -104 c129 -30 238 -56 242 -59 4 -3 -144 -33 -328 -67 -194 -35 -333
-56 -331 -50 13 32 163 236 171 233 6 -3 117 -28 246 -57z m276 -102 c-3 -18
-8 -57 -12 -86 -4 -31 -13 -56 -20 -59 -8 -3 -154 8 -325 23 -171 16 -305 30
-298 33 16 5 627 119 648 120 10 1 12 -8 7 -31z m-628 -124 c22 -5 24 -3 12 6
-12 9 -3 10 40 6 30 -3 161 -15 290 -27 217 -19 251 -24 239 -32 -2 -1 -31
-20 -63 -41 l-59 -38 -210 62 c-115 34 -211 60 -213 57 -2 -2 85 -30 193 -62
109 -32 203 -61 210 -64 8 -4 -6 -40 -46 -116 -32 -60 -62 -110 -67 -112 -5
-2 -95 83 -199 188 -105 106 -182 189 -172 185 11 -3 31 -9 45 -12z m85 -358
c65 -7 120 -16 123 -19 8 -8 -64 -142 -88 -164 -20 -18 -21 -17 -49 17 -62 73
-120 150 -114 150 3 0 46 -27 96 -61 50 -33 93 -59 95 -56 2 2 -44 36 -103 75
-60 40 -101 72 -93 72 8 -1 68 -7 133 -14z m-74 -254 c-44 -24 -78 -46 -76
-48 2 -3 36 14 75 36 39 22 74 40 77 40 3 0 5 -24 5 -53 0 -57 -6 -70 -78
-155 -25 -29 -43 -54 -40 -57 2 -2 23 20 47 50 24 30 47 55 51 55 4 0 14 -8
24 -18 16 -18 13 -21 -44 -56 -34 -21 -67 -39 -73 -40 -7 -1 -17 -5 -23 -9
-16 -10 -21 8 -30 103 l-7 82 84 -6 84 -5 -82 12 c-45 7 -84 15 -87 18 -3 2
-2 73 1 156 l6 151 83 -106 83 -106 -80 -44z m236 197 c9 -17 15 -32 13 -34
-10 -8 -69 -35 -78 -35 -6 0 1 23 15 50 14 28 27 50 30 50 2 0 12 -14 20 -31z
m-160 -446 c-4 -32 -9 -61 -11 -65 -2 -4 -26 0 -52 9 -26 8 -53 17 -61 19 -9
3 14 22 55 49 38 24 71 44 73 44 2 1 0 -25 -4 -56z m-38 -74 c24 -9 28 -14 37
-53 l7 -28 -42 33 c-92 76 -88 70 -54 63 17 -4 40 -10 52 -15z m112 -65 c2 -2
-9 -8 -24 -14 -33 -13 -33 -13 -42 30 l-6 34 34 -24 c19 -13 36 -25 38 -26z"/>
<path d="M1965 3430 c-34 -6 -35 -7 -10 -8 17 0 50 3 75 7 40 8 41 8 10 8 -19
0 -53 -3 -75 -7z"/>
<path d="M1633 4697 c-95 -39 -173 -74 -173 -78 0 -9 289 -124 295 -117 6 6
75 246 75 261 0 13 -24 5 -197 -66z m155 -57 c-17 -63 -34 -118 -37 -122 -4
-5 -67 16 -141 46 l-135 55 40 16 c96 41 300 123 302 122 1 -1 -12 -54 -29
-117z"/>
<path d="M4673 4748 c-48 -10 -46 -5 -68 -148 -9 -58 -18 -116 -21 -130 -4
-20 -3 -22 7 -13 7 7 13 27 14 45 1 18 7 75 15 126 14 101 17 104 84 116 l38
7 -57 -108 c-32 -59 -62 -114 -68 -121 -5 -7 -7 -15 -5 -18 3 -3 29 39 58 93
29 54 61 113 72 131 l20 32 -24 -1 c-13 -1 -42 -5 -65 -11z"/>
<path d="M2135 4605 c-55 -35 -101 -68 -103 -73 -1 -5 35 -22 80 -39 l83 -29
56 -193 c31 -106 59 -194 61 -197 3 -2 42 38 86 90 l82 94 -114 203 c-62 112
-117 204 -122 206 -5 1 -54 -26 -109 -62z m80 -45 c-10 -44 -21 -80 -25 -80
-6 0 -94 29 -139 45 -9 4 23 29 80 65 52 32 96 57 98 54 2 -2 -4 -40 -14 -84z
m136 -93 c53 -94 96 -173 94 -175 -1 -2 -51 34 -109 79 -59 44 -109 79 -111
77 -2 -2 50 -44 115 -93 66 -50 119 -94 120 -98 0 -9 -131 -165 -140 -166 -7
-1 -101 321 -107 364 -4 31 28 198 36 189 2 -2 48 -82 102 -177z"/>
<path d="M3278 4152 c-43 -14 -78 -29 -78 -32 0 -4 18 -20 40 -35 l40 -28 26
24 c14 13 39 41 56 62 36 45 28 46 -84 9z m51 -32 c-23 -27 -45 -50 -48 -50
-3 0 -19 11 -35 24 l-30 23 75 26 c41 14 75 26 77 26 2 1 -16 -21 -39 -49z"/>
<path d="M6706 3883 c14 -49 32 -116 41 -150 10 -35 20 -63 24 -63 8 0 19 51
19 89 1 25 -89 211 -102 211 -3 0 5 -39 18 -87z m74 -133 c0 -65 -15 -46 -40
48 -13 48 -25 94 -27 102 -3 8 11 -13 31 -48 25 -43 36 -75 36 -102z"/>
<path d="M3560 3865 c0 -6 -7 -68 -15 -140 -8 -71 -13 -131 -11 -133 4 -4 124
55 143 70 8 6 -3 33 -39 96 -51 88 -78 124 -78 107z m89 -206 c-28 -21 -98
-54 -103 -48 -1 2 3 56 10 119 7 63 13 117 14 120 0 3 23 -35 51 -84 l51 -89
-23 -18z"/>
<path d="M3465 3710 c-21 -28 -35 -53 -32 -56 3 -3 21 -2 41 1 33 7 36 10 35
39 -2 28 -2 29 -6 5 -4 -24 -39 -47 -51 -34 -8 8 49 75 59 70 5 -4 9 1 9 9 0
28 -17 17 -55 -34z"/>
<path d="M2410 3619 c-17 -33 -30 -62 -28 -65 9 -9 128 -16 128 -8 0 14 -54
133 -61 134 -3 0 -21 -27 -39 -61z m65 -11 c13 -29 22 -54 20 -56 -2 -2 -26
-1 -54 3 l-50 7 27 49 c15 27 28 49 30 49 2 0 14 -23 27 -52z"/>
<path d="M6795 3475 l-7 -146 -87 -91 c-47 -51 -79 -89 -71 -86 8 3 64 27 123
53 109 48 109 48 103 79 -3 17 -13 96 -22 176 -9 80 -20 149 -24 153 -4 5 -11
-57 -15 -138z m39 -103 l13 -93 -23 22 c-26 25 -31 73 -16 179 6 48 7 50 10
20 2 -19 9 -77 16 -128z m4 -117 c-5 -6 -168 -75 -176 -75 -4 0 24 31 62 69
l69 69 25 -29 c13 -17 23 -32 20 -34z"/>
<path d="M1792 2827 c54 -35 74 -42 103 -39 19 2 35 7 35 11 0 7 -178 72 -195
71 -5 0 20 -20 57 -43z m63 -7 c44 -17 47 -19 20 -19 -16 0 -41 8 -55 19 -31
25 -27 25 35 0z"/>
<path d="M1970 2781 c0 -5 8 -18 18 -30 16 -21 19 -21 57 -8 l40 14 -54 17
c-64 19 -61 18 -61 7z m64 -20 c19 -7 18 -8 -4 -14 -25 -6 -40 -2 -40 14 0 11
17 11 44 0z"/>
<path d="M6469 2728 c5 -13 28 -72 51 -133 23 -60 46 -114 51 -119 9 -10 59
11 59 26 0 10 -158 248 -165 248 -2 0 -1 -10 4 -22z m97 -140 c48 -75 52 -84
37 -95 -9 -7 -19 -13 -23 -13 -5 0 -30 63 -76 185 -12 32 6 11 62 -77z"/>
<path d="M5540 2485 c0 -43 1 -45 20 -35 11 6 20 13 20 16 0 9 -30 64 -35 64
-3 0 -5 -20 -5 -45z m30 -17 c0 -5 -4 -8 -10 -8 -5 0 -10 10 -10 23 0 18 2 19
10 7 5 -8 10 -18 10 -22z"/>
<path d="M6306 2397 l-89 -83 91 -67 c50 -37 94 -67 97 -67 3 0 5 68 5 150 0
83 -3 150 -7 150 -5 0 -48 -38 -97 -83z m90 -194 c-2 -3 -41 22 -85 54 l-80
60 82 73 82 74 3 -129 c1 -70 1 -130 -2 -132z"/>
<path d="M5900 2424 c0 -4 44 -61 98 -127 53 -67 100 -126 104 -131 14 -20 16
0 5 62 -10 62 -10 63 -79 113 -39 28 -72 49 -74 46 -2 -2 27 -26 65 -53 64
-45 70 -52 76 -92 4 -24 5 -45 3 -47 -5 -5 -150 177 -152 192 -2 14 -46 50
-46 37z"/>
<path d="M6477 2304 c-10 -36 -18 -134 -11 -134 13 0 74 42 74 51 0 5 -13 30
-29 55 -23 38 -30 43 -34 28z m36 -49 c16 -34 16 -35 -9 -51 -13 -9 -26 -15
-28 -13 -7 7 6 99 13 99 4 0 15 -16 24 -35z"/>
<path d="M6790 2229 c25 -22 77 -66 117 -98 l71 -59 102 -7 c55 -4 103 -6 105
-4 3 4 -139 130 -175 156 -14 10 -79 23 -235 48 -30 4 -30 4 15 -36z m109 6
c46 -8 86 -16 88 -18 4 -5 -15 -109 -22 -115 -2 -2 -45 30 -95 72 -58 47 -85
76 -73 76 10 0 56 -7 102 -15z m221 -125 l45 -40 -85 6 c-47 4 -89 10 -93 14
-5 4 -4 33 3 64 l12 56 36 -29 c20 -17 57 -48 82 -71z"/>
<path d="M6190 2143 c0 -17 111 -53 158 -52 46 2 46 2 -13 9 -33 3 -69 12 -80
18 -16 10 -4 11 60 6 44 -4 82 -11 83 -15 2 -5 27 -9 55 -9 88 1 32 17 -103
30 -69 6 -133 14 -142 16 -10 3 -18 2 -18 -3z"/>
<path d="M6980 1959 c-31 -103 -40 -125 -48 -114 -4 6 -46 47 -93 93 l-86 83
-162 -115 c-119 -84 -183 -122 -238 -142 l-75 -28 6 -60 c3 -34 11 -114 17
-178 7 -65 15 -118 18 -118 3 0 86 22 184 49 l178 48 125 -148 c69 -82 127
-149 130 -149 2 0 29 14 60 31 55 31 56 33 135 190 43 87 79 166 79 175 0 17
-186 433 -200 448 -5 5 -18 -25 -30 -65z m100 -104 c35 -77 74 -164 87 -194
l24 -54 -78 71 c-43 39 -97 90 -120 114 l-42 43 27 87 c14 48 29 84 33 80 3
-4 34 -70 69 -147z m-364 -93 c-15 -114 -31 -223 -36 -243 l-10 -35 -167 -45
-168 -45 -11 41 c-12 43 -38 284 -31 291 10 10 127 52 127 46 0 -4 -20 -79
-45 -166 -25 -87 -44 -163 -42 -169 1 -5 23 62 46 149 24 87 47 165 51 173 5
9 37 -22 105 -105 54 -66 107 -128 118 -139 41 -41 -1 15 -100 136 -57 68
-104 128 -105 132 -2 5 62 54 142 111 95 67 146 98 148 89 2 -8 -8 -107 -22
-221z m169 120 c66 -64 163 -159 216 -209 93 -88 96 -92 70 -98 -61 -13 -466
-84 -468 -82 -1 1 35 52 80 112 127 170 159 215 153 215 -3 0 -58 -70 -122
-156 -64 -85 -117 -154 -118 -152 -4 6 58 488 63 488 3 0 59 -53 126 -118z
m315 -316 c0 -2 -34 -72 -75 -156 -48 -95 -80 -150 -88 -147 -7 2 -86 52 -175
110 l-163 106 38 7 c385 73 463 86 463 80z m-297 -231 c70 -44 127 -83 127
-87 0 -4 -22 -19 -49 -32 l-49 -25 -88 106 c-49 59 -98 118 -109 132 l-20 26
31 -20 c17 -11 88 -56 157 -100z"/>
<path d="M4736 1945 l-76 -66 50 -47 50 -47 -37 -48 -38 -48 -6 83 -5 83 -2
-95 -1 -95 36 40 c19 22 42 50 50 62 18 27 74 243 63 243 -4 0 -41 -29 -84
-65z m52 -53 l-22 -90 -43 36 c-24 20 -42 40 -41 44 4 10 122 107 126 104 1
-2 -7 -44 -20 -94z"/>
<path d="M7626 1250 c-14 -35 -43 -201 -35 -198 10 4 109 120 109 128 0 4 -15
24 -34 46 -26 29 -36 35 -40 24z m42 -40 l23 -30 -42 -50 c-23 -28 -44 -48
-46 -46 -5 5 29 156 36 155 3 0 16 -13 29 -29z"/>
<path d="M6900 1084 c0 -63 6 -63 50 0 l29 44 -31 6 c-17 3 -34 6 -39 6 -5 0
-9 -25 -9 -56z m47 38 c9 -6 6 -16 -12 -37 l-24 -30 -1 38 c0 37 11 46 37 29z"/>
<path d="M7433 952 c-51 -64 -90 -118 -88 -120 2 -2 51 37 109 88 l105 92 -15
29 c-8 16 -16 29 -17 29 -1 -1 -43 -53 -94 -118z m63 20 c-28 -25 -62 -55 -75
-67 l-24 -20 14 21 c8 11 36 48 64 83 43 54 51 60 61 46 10 -14 4 -23 -40 -63z"/>
</g>
</svg>
