<?xml version="1.0" standalone="no"?>
<!DOCTYPE svg PUBLIC "-//W3C//DTD SVG 20010904//EN"
 "http://www.w3.org/TR/2001/REC-SVG-20010904/DTD/svg10.dtd">
<svg version="1.0" xmlns="http://www.w3.org/2000/svg"
 width="636.000000pt" height="833.000000pt" viewBox="0 0 636.000000 833.000000"
 preserveAspectRatio="xMidYMid meet">

<g transform="translate(0.000000,833.000000) scale(0.100000,-0.100000)"
fill="#000000" stroke="none">
<path d="M1714 8322 c3 -5 52 -12 108 -15 57 -4 130 -9 163 -12 33 -3 56 -3
50 0 -8 4 -289 35 -317 35 -5 0 -7 -4 -4 -8z"/>
<path d="M2486 8308 c-15 -6 -24 -13 -18 -17 6 -3 -53 -60 -131 -126 -78 -66
-171 -148 -208 -182 -36 -35 -74 -63 -84 -63 -19 0 -97 54 -134 94 l-24 25 79
36 c44 20 170 75 281 122 112 48 201 88 199 90 -2 2 -132 -51 -289 -118 -326
-139 -307 -118 -196 -213 l66 -56 6 -103 c4 -56 12 -190 18 -297 6 -107 15
-199 20 -205 6 -5 14 -4 22 4 10 10 9 11 -5 6 -15 -6 -18 -1 -18 28 0 43 -17
363 -25 470 -5 54 -3 77 5 77 6 0 102 -52 213 -116 111 -64 205 -119 210 -121
4 -2 7 -2 7 1 0 3 -44 30 -97 62 -367 214 -341 196 -308 207 17 5 160 56 318
113 158 57 292 104 297 104 9 0 -11 -74 -77 -275 -87 -267 -56 -225 -286 -386
-191 -134 -259 -185 -192 -144 63 38 342 235 378 267 36 31 43 47 122 293 l83
260 -89 88 c-49 48 -95 87 -102 86 -7 0 -25 -5 -41 -11z m128 -74 c47 -44 75
-79 70 -84 -10 -10 -205 -83 -444 -166 l-155 -54 69 62 c94 85 370 318 376
318 3 0 41 -34 84 -76z"/>
<path d="M4020 8295 c14 -14 58 -53 100 -86 l75 -61 -75 71 c-81 76 -78 77 48
20 86 -39 88 -42 54 -81 -8 -10 -11 -18 -6 -18 15 0 47 61 38 69 -11 9 -240
111 -250 111 -4 0 3 -11 16 -25z"/>
<path d="M1664 8255 c-31 -40 -103 -146 -119 -175 -17 -32 14 7 69 87 32 46
62 85 67 88 10 7 10 -88 0 -233 l-6 -93 -60 52 -60 53 60 -62 c33 -34 62 -62
66 -62 8 0 23 309 18 355 l-4 29 -31 -39z"/>
<path d="M1725 8250 c10 -66 33 -167 34 -150 2 23 -28 182 -35 189 -3 3 -3
-14 1 -39z"/>
<path d="M2130 8280 c0 -6 7 -10 15 -10 8 0 15 2 15 4 0 2 -7 6 -15 10 -8 3
-15 1 -15 -4z"/>
<path d="M4853 8230 c-35 -16 -63 -31 -63 -34 0 -7 66 -41 98 -50 18 -6 22 -4
22 16 0 17 -3 20 -9 9 -8 -12 -14 -12 -43 -1 -18 7 -37 17 -42 21 -11 10 59
41 92 41 12 0 22 7 22 14 0 18 -4 17 -77 -16z"/>
<path d="M1956 8145 c-144 -101 -193 -139 -131 -100 51 31 285 196 285 201 0
7 0 7 -154 -101z"/>
<path d="M4285 8016 c-163 -108 -172 -116 -224 -192 -30 -43 -56 -81 -57 -83
-2 -2 -24 15 -49 38 -24 22 -47 41 -50 41 -3 0 -4 -24 -3 -52 l1 -53 6 43 6
43 39 -40 39 -40 -27 -36 c-16 -20 -26 -38 -23 -41 2 -2 44 54 92 125 l87 129
155 7 c85 4 156 5 158 3 9 -9 -484 -278 -499 -272 -8 3 -17 13 -19 22 -3 10
-5 1 -6 -18 l-1 -35 -200 -102 c-110 -57 -200 -101 -200 -98 0 3 9 24 21 47
11 22 17 44 12 49 -4 4 -73 35 -153 69 l-144 61 -41 -43 c-39 -42 -39 -42 -2
-8 l37 34 1 -40 2 -39 6 33 6 33 107 -107 c59 -59 105 -111 102 -116 -9 -14
-177 -138 -181 -134 -3 2 -10 69 -18 148 -7 78 -13 123 -14 99 l-1 -44 -47 44
-46 43 -35 -40 c-50 -58 -162 -216 -162 -228 0 -6 35 -46 77 -90 68 -69 78
-76 89 -61 7 9 36 72 65 141 29 68 56 124 59 124 8 0 20 -153 20 -251 l0 -68
-57 -6 c-81 -9 -91 -16 -15 -10 34 2 62 2 62 -2 0 -11 -114 -193 -121 -193
-10 0 -129 143 -130 155 0 6 28 15 63 21 35 6 51 12 36 13 -21 1 -32 10 -46
38 l-19 37 -36 -50 c-20 -27 -70 -79 -111 -117 l-75 -67 16 -28 c11 -19 14
-38 9 -56 -7 -28 -7 -29 -72 -23 l-64 5 0 -79 c0 -77 1 -80 27 -90 15 -5 45
-9 67 -7 37 3 44 8 84 66 35 50 56 69 103 93 l59 29 59 -57 c32 -32 63 -67 69
-78 11 -20 11 -20 34 2 l22 23 -62 63 c-66 67 -72 77 -44 77 9 0 41 -32 71
-70 30 -39 64 -78 75 -88 25 -21 18 -11 -57 84 -32 39 -57 74 -57 77 0 3 24 8
53 10 l52 3 -52 2 c-29 1 -53 6 -53 11 0 13 118 191 128 191 4 0 47 -40 96
-89 l89 -89 -79 -7 c-121 -9 -130 -14 -21 -10 54 2 97 0 95 -5 -2 -5 -40 -50
-86 -99 -46 -50 -80 -91 -76 -91 4 0 47 42 96 94 58 62 98 96 116 100 15 3 86
8 157 11 l130 7 -64 -66 -65 -65 -45 32 c-64 45 -101 68 -101 63 0 -2 29 -25
65 -51 36 -25 65 -52 65 -59 0 -6 -18 -49 -40 -95 -28 -57 -44 -80 -52 -75
-49 28 -138 109 -134 120 3 9 -2 14 -14 14 -11 0 -20 -4 -20 -8 0 -5 38 -39
85 -76 l85 -68 -36 -29 c-29 -23 -44 -28 -68 -24 -67 11 -271 35 -291 34 -11
-1 50 -11 136 -24 234 -35 259 -50 357 -228 79 -144 89 -146 16 -4 -37 72 -63
132 -58 137 5 4 38 17 74 29 78 24 66 27 -26 6 -36 -9 -68 -14 -71 -12 -6 7
-21 107 -15 107 3 0 50 -14 105 -31 70 -22 96 -34 86 -40 -10 -6 -5 -9 17 -9
27 0 37 -8 68 -55 20 -30 36 -57 36 -59 0 -3 -41 7 -91 20 -50 14 -93 24 -95
21 -2 -2 78 -27 178 -55 99 -29 183 -50 186 -47 3 2 -14 29 -38 60 l-42 55
-39 -31 -38 -30 -37 56 c-20 30 -35 57 -32 60 4 5 363 -101 386 -114 7 -4 57
-82 111 -174 l98 -166 97 143 c53 79 104 150 114 159 18 17 24 16 292 -10 l75
-8 8 -70 c4 -38 6 -87 5 -108 l-3 -38 -135 92 c-74 50 -152 105 -172 121 -21
16 -38 26 -38 21 1 -4 29 -28 63 -53 61 -44 62 -47 132 -200 38 -85 71 -148
72 -140 2 8 -7 61 -20 118 -13 56 -22 102 -19 102 2 0 31 -18 64 -40 33 -22
65 -40 70 -40 5 0 7 12 4 28 -3 15 -8 68 -11 118 l-7 91 126 72 c69 40 129 77
133 84 3 6 -11 0 -32 -13 -78 -48 -209 -119 -213 -115 -4 4 107 396 114 404 2
2 27 -46 56 -107 28 -62 53 -110 55 -108 2 2 -19 54 -46 116 -28 61 -51 115
-51 119 0 4 21 17 46 29 52 26 40 33 111 -65 21 -29 42 -53 46 -53 8 0 1 11
-68 102 l-36 47 40 20 c50 26 49 26 54 -6 3 -23 4 -22 6 8 1 26 21 71 67 149
36 61 64 114 61 117 -3 3 -15 -13 -26 -36 -12 -22 -39 -68 -60 -102 -47 -74
-45 -77 -61 106 -6 66 -13 138 -16 160 l-6 40 78 -75 c89 -86 81 -67 -13 30
l-63 65 160 195 c88 107 164 196 168 198 5 1 23 -62 41 -140 50 -216 71 -301
78 -318 6 -16 19 51 79 394 l36 209 -17 65 c-17 63 -17 66 0 79 18 12 18 13
-2 13 -17 0 -25 11 -37 52 -8 29 -14 53 -13 54 1 2 28 -13 60 -33 40 -24 56
-40 53 -50 -4 -9 -1 -13 6 -11 27 9 14 25 -56 71 -71 46 -76 48 -137 44 l-64
-3 60 -2 61 -2 28 -102 c48 -171 46 -218 -25 -588 -23 -118 -29 -143 -35 -138
-4 5 -83 350 -91 398 -5 35 -5 35 70 75 42 22 74 41 73 43 -2 1 -38 -14 -80
-34 -45 -21 -81 -33 -86 -28 -29 30 -259 319 -256 322 2 2 90 -40 195 -92 105
-53 194 -96 198 -96 5 1 -19 15 -52 31 -33 17 -125 65 -205 108 l-145 76 60 6
60 6 -72 1 c-56 2 -120 -10 -300 -53 -125 -30 -241 -55 -258 -55 -16 0 -75 -4
-130 -8 l-100 -8 121 -2 121 -2 178 -287 c98 -159 184 -298 192 -310 7 -13 11
-23 8 -23 -8 0 -120 85 -375 284 -300 234 -390 307 -390 317 0 5 30 10 68 11
l67 2 -65 4 -65 4 94 39 c132 55 130 55 191 19 29 -17 54 -29 57 -27 2 3 -21
19 -52 37 -65 37 -65 37 -214 -26 -58 -24 -106 -42 -109 -40 -2 2 -7 26 -12
53 l-9 48 3 -52 3 -52 -51 -5 c-102 -11 -266 -18 -266 -12 0 10 271 186 286
186 7 0 15 -15 17 -32 l4 -33 1 35 c1 19 -2 40 -6 47 -5 7 -63 -26 -177 -101z
m1075 -48 c0 -183 -31 -683 -43 -690 -24 -16 -85 -27 -232 -44 -82 -9 -152
-18 -154 -20 -8 -8 57 -4 174 11 155 19 218 20 213 1 -2 -7 -37 -122 -78 -255
l-75 -242 -315 7 c-173 3 -352 9 -397 13 l-81 6 448 230 c247 126 447 231 445
233 -2 2 -208 -101 -459 -228 l-456 -232 0 191 c0 172 2 190 18 195 9 2 115
15 235 28 120 12 213 24 207 26 -10 4 -291 -21 -397 -34 -24 -3 -43 -2 -43 3
0 11 139 255 154 271 11 11 38 7 156 -23 78 -20 147 -34 152 -33 5 2 -60 21
-144 42 -84 22 -154 40 -156 42 -2 1 -9 62 -17 135 l-14 134 6 -132 5 -131
-88 19 c-205 45 -474 111 -474 117 0 4 84 55 188 113 266 151 329 185 336 178
4 -4 11 -42 16 -85 l9 -79 -4 83 c-2 45 -1 82 1 82 2 0 183 -139 401 -309 219
-171 402 -306 406 -301 5 4 -80 151 -188 325 -108 175 -194 319 -193 321 3 3
146 38 393 97 44 10 45 10 45 -65z m169 -116 c95 -116 139 -177 133 -185 -25
-34 -288 -355 -304 -372 -19 -20 -20 -19 -14 65 3 47 10 198 16 335 10 235 18
341 24 333 2 -1 67 -81 145 -176z m-2104 -308 c112 -47 119 -57 82 -116 l-22
-38 -105 106 c-116 117 -116 117 45 48z m435 -304 c-22 -168 -44 -314 -48
-324 -7 -16 -19 -2 -73 80 -120 182 -239 371 -239 380 0 5 89 55 198 111 185
96 197 101 200 80 2 -13 -15 -160 -38 -327z m449 266 c107 -25 196 -48 198
-50 7 -6 -151 -296 -159 -293 -11 3 -378 390 -388 408 -11 19 -10 19 349 -65z
m-123 -194 c79 -84 144 -156 144 -161 0 -5 -93 -58 -207 -117 -115 -59 -228
-118 -252 -131 -24 -13 -45 -23 -46 -21 -2 2 8 82 21 178 13 96 33 247 45 335
11 88 22 166 25 174 6 17 63 -37 270 -257z m-980 156 l45 -43 -45 -107 c-25
-59 -51 -118 -58 -130 -12 -22 -13 -22 -19 17 -6 37 -6 36 -8 -17 -1 -42 -5
-58 -15 -58 -7 0 -41 30 -75 66 l-62 66 20 31 c43 69 155 217 163 217 5 0 29
-19 54 -42z m302 -135 c53 -76 272 -426 268 -430 -4 -4 -326 208 -423 279 -29
21 -53 43 -53 48 0 11 161 130 177 130 6 0 20 -12 31 -27z m16 -280 c120 -79
217 -146 214 -148 -2 -2 -102 31 -223 74 -244 86 -232 77 -234 179 -1 40 2 51
12 46 6 -4 110 -72 231 -151z m1827 -40 c11 -136 11 -164 -1 -178 -19 -23
-174 -100 -168 -83 2 7 35 111 73 231 39 123 72 212 76 205 4 -7 13 -86 20
-175z m-1014 -69 c-3 -102 -7 -187 -10 -190 -2 -3 -80 13 -173 36 -255 60
-304 73 -304 80 0 5 82 51 329 182 80 43 150 78 155 78 5 0 7 -78 3 -186z
m-1281 100 c-5 -14 -56 -21 -56 -7 0 4 10 17 22 30 19 21 23 21 31 8 5 -9 6
-23 3 -31z m679 -154 l50 -17 -149 -8 -148 -7 -84 83 c-46 46 -84 86 -84 90 0
3 82 -23 183 -58 100 -36 205 -73 232 -83z m-688 46 c82 -98 85 -95 -68 -74
-73 10 -134 19 -135 21 -6 6 127 117 139 116 7 0 35 -28 64 -63z m-62 -87 c50
-7 96 -15 103 -19 12 -6 -132 -80 -156 -80 -10 0 -82 100 -82 113 0 4 10 5 23
3 12 -3 63 -10 112 -17z m1258 -91 c26 -6 47 -14 47 -18 0 -11 -333 -111 -341
-102 -9 9 -119 209 -119 215 0 2 82 -16 183 -40 100 -24 203 -49 230 -55z
m-369 -10 c30 -57 53 -104 52 -106 -2 -1 -23 5 -46 14 -37 15 -46 25 -71 81
-16 36 -29 70 -29 77 0 13 20 36 31 36 4 0 33 -46 63 -102z m-980 27 c15 -23
15 -25 -1 -25 -28 0 -47 16 -40 34 9 23 22 20 41 -9z m211 5 c4 -11 10 -18 14
-16 14 9 94 -81 87 -99 -9 -23 -23 -11 -53 48 -14 29 -28 46 -31 39 -3 -10
-11 -7 -28 9 -27 26 -31 39 -10 39 8 0 18 -9 21 -20z m690 -37 c14 -31 24 -58
21 -60 -7 -8 -116 39 -116 50 0 13 50 67 62 67 5 0 20 -25 33 -57z m-954 6
c38 -7 69 -17 69 -23 0 -6 -18 -35 -39 -65 l-39 -53 -48 71 c-26 39 -49 71
-51 71 -6 0 18 -41 54 -92 l35 -48 -32 0 c-59 0 -70 13 -70 85 0 75 -3 74 121
54z m1479 -36 c-1 -29 -66 -353 -73 -360 -7 -6 -171 148 -242 225 -33 38 -35
43 -19 49 27 10 317 102 327 102 4 1 7 -7 7 -16z m638 10 c157 -5 182 -8 187
-23 5 -15 -45 -199 -97 -358 l-20 -63 -71 6 c-148 12 -278 26 -290 31 -13 4
-298 382 -305 403 -4 13 303 15 596 4z m-1089 -75 c64 -25 66 -24 -93 -64 -60
-15 -105 -29 -100 -31 5 -2 62 10 127 26 64 15 117 25 117 21 0 -4 -22 -37
-50 -73 -47 -62 -52 -65 -77 -57 -151 47 -193 63 -193 72 0 5 18 48 39 94 l40
84 68 -26 c37 -13 92 -34 122 -46z m642 -153 c53 -71 104 -142 113 -157 l18
-28 -73 5 c-41 2 -123 7 -184 10 -60 3 -112 8 -116 13 -6 6 52 333 66 370 6
15 29 -13 176 -213z m-301 -146 c0 -5 -356 99 -369 108 -5 3 18 37 69 102 l42
53 129 -128 c71 -71 129 -132 129 -135z m-630 127 c0 -19 3 -41 6 -49 5 -13 0
-13 -30 1 -41 20 -46 44 -14 66 32 23 38 20 38 -18z m476 -193 c-2 -2 -30 3
-62 13 l-58 17 29 25 29 25 33 -38 c18 -21 31 -40 29 -42z m512 21 c39 -3 72
-7 72 -9 0 -2 -43 -70 -96 -150 l-96 -147 -89 154 c-49 84 -89 156 -89 160 0
7 159 2 298 -8z m351 -269 c11 -43 19 -81 17 -82 -4 -4 -96 197 -96 210 0 7
13 -2 30 -18 22 -22 35 -51 49 -110z"/>
<path d="M4916 7361 c9 -9 83 -27 74 -18 -3 3 -23 10 -44 16 -22 5 -35 6 -30
2z"/>
<path d="M5005 7335 c32 -13 217 -56 221 -52 5 5 -198 57 -218 56 -7 0 -8 -2
-3 -4z"/>
<path d="M4853 7203 c15 -2 37 -2 50 0 12 2 0 4 -28 4 -27 0 -38 -2 -22 -4z"/>
<path d="M3137 7420 c-4 -30 -6 -77 -6 -105 1 -33 5 -18 10 45 10 104 6 148
-4 60z"/>
<path d="M4925 6534 c-110 -91 -209 -174 -220 -186 -22 -23 -2 -8 245 192 188
152 198 160 185 159 -6 0 -100 -74 -210 -165z"/>
<path d="M3638 6543 c7 -3 16 -2 19 1 4 3 -2 6 -13 5 -11 0 -14 -3 -6 -6z"/>
<path d="M1762 8060 c0 -14 2 -19 5 -12 2 6 2 18 0 25 -3 6 -5 1 -5 -13z"/>
<path d="M1006 7998 c-43 -92 -50 -118 -36 -118 6 0 52 21 103 46 l92 47 -54
48 c-30 27 -59 49 -64 49 -4 0 -23 -33 -41 -72z m95 20 c21 -17 39 -35 39 -40
0 -9 -133 -78 -150 -78 -13 0 -8 20 26 96 13 30 29 54 34 54 6 0 29 -14 51
-32z"/>
<path d="M3105 8043 c-44 -14 -82 -27 -85 -30 -5 -5 72 -153 80 -153 6 0 103
178 108 198 5 17 -11 15 -103 -15z m45 -77 c-23 -42 -45 -78 -49 -80 -4 -3
-21 24 -39 59 l-31 64 77 24 c42 13 78 20 80 16 2 -4 -15 -42 -38 -83z"/>
<path d="M5568 8063 c23 -2 59 -2 80 0 20 2 1 4 -43 4 -44 0 -61 -2 -37 -4z"/>
<path d="M256 7952 l-150 -107 -52 -115 c-29 -63 -53 -122 -54 -131 0 -9 18
-44 40 -78 l40 -61 91 46 c110 55 112 54 216 -44 l72 -67 42 -190 42 -190 -13
-207 -13 -207 84 -136 c83 -135 106 -152 74 -55 -9 27 -14 54 -11 59 3 5 -1
22 -9 37 -8 16 -11 30 -7 32 9 3 282 -115 295 -127 4 -4 -18 -37 -49 -72 -101
-115 -83 -116 -148 8 -32 59 -62 113 -68 118 -16 15 -10 3 59 -126 l63 -115
57 -24 c114 -46 247 -111 282 -137 24 -18 30 -20 19 -7 -24 27 -23 31 9 49
l28 15 -27 -6 c-22 -5 -28 -2 -28 10 0 11 9 16 30 16 36 0 46 -18 33 -57 -8
-23 -6 -31 11 -44 12 -10 17 -21 13 -26 -5 -4 -15 1 -23 11 -7 11 -17 17 -20
13 -4 -4 4 -15 17 -26 14 -11 26 -15 30 -9 3 5 9 0 12 -11 6 -25 29 -27 47 -6
50 60 35 -77 -25 -223 l-26 -64 58 -65 c32 -35 90 -101 128 -146 65 -76 122
-133 312 -312 40 -37 75 -76 78 -86 12 -38 35 -17 94 90 55 98 66 112 120 147
l60 39 15 85 c11 56 30 111 57 164 31 61 37 81 27 87 -7 5 -20 6 -28 2 -8 -3
-40 -10 -70 -14 -51 -6 -49 -7 18 -4 39 2 72 1 72 -1 0 -5 -60 -127 -66 -133
-2 -2 -56 8 -120 23 -63 16 -118 26 -120 23 -3 -2 42 -15 98 -29 l103 -24 -93
-19 c-114 -24 -105 -32 11 -11 109 21 107 21 107 -16 0 -34 -15 -106 -23 -114
-5 -6 -458 33 -497 43 -31 7 -29 7 95 29 55 9 95 19 89 21 -7 2 -65 -5 -130
-16 -65 -11 -120 -19 -122 -16 -5 5 111 167 132 184 12 10 33 8 111 -9 53 -13
98 -21 100 -18 3 2 -30 13 -73 23 l-77 19 100 13 100 12 -120 -5 c-116 -4
-119 -4 -99 13 12 10 64 53 117 96 l95 78 128 -71 c70 -38 129 -68 132 -66 2
3 -15 14 -37 26 -43 21 -291 167 -441 259 -61 38 -91 50 -108 46 -13 -3 -35 2
-53 12 -29 17 -31 17 -44 0 -13 -18 -14 -17 -20 2 -3 12 -9 21 -13 21 -19 0
-71 -41 -77 -60 -5 -15 -11 -19 -23 -14 -10 4 -36 9 -60 12 -56 5 -79 36 -63
84 13 37 7 45 -34 50 -30 3 -30 3 -27 61 3 67 4 67 -98 32 -107 -36 -103 -39
-99 60 2 46 9 89 15 95 15 15 225 72 241 66 7 -3 26 -31 42 -63 l30 -58 1 79
0 78 129 147 130 147 95 23 c53 12 96 27 96 31 0 5 -14 32 -31 61 -16 29 -26
56 -22 60 5 5 26 15 48 24 l40 15 -35 -6 c-19 -3 -43 -8 -52 -10 -21 -6 -21
-5 -61 201 l-34 169 39 -45 c21 -24 78 -95 126 -158 82 -107 85 -114 67 -127
-10 -8 -25 -14 -34 -14 -8 0 -12 -3 -8 -6 6 -7 77 14 77 23 0 13 -265 353
-275 353 -6 0 -56 -108 -117 -252 -23 -53 -44 -96 -47 -96 -3 1 -18 -2 -34 -6
-15 -5 -51 -12 -80 -16 -39 -7 -31 -7 34 -3 l86 5 52 -101 c29 -56 50 -101 47
-101 -7 0 -222 77 -323 116 -51 20 -91 40 -88 44 3 5 36 12 73 16 37 4 60 9
50 11 -9 2 -47 0 -85 -5 -37 -5 -69 -8 -71 -7 -4 3 103 219 126 253 l15 23 24
-28 c13 -15 53 -65 90 -111 36 -45 68 -80 71 -78 2 3 -37 55 -88 116 -105 130
-109 99 27 240 l83 85 0 143 c0 107 -3 142 -12 142 -7 0 -53 -34 -103 -75 -49
-41 -94 -75 -100 -75 -6 0 -33 14 -60 31 -43 27 -53 30 -80 21 -16 -6 -156
-65 -309 -131 -153 -67 -281 -120 -283 -118 -4 5 165 429 175 438 4 4 92 -31
196 -78 104 -46 190 -82 192 -80 3 2 -40 23 -93 47 -206 90 -302 141 -413 219
-63 45 -119 81 -125 81 -5 0 -77 -49 -159 -108z m289 11 c52 -38 91 -73 88
-80 -5 -11 -303 -271 -332 -288 -11 -6 -13 -4 -7 10 4 10 31 107 61 214 31
108 57 202 60 210 7 19 25 10 130 -66z m-145 60 c0 -12 -107 -384 -119 -417
l-12 -29 -109 7 c-161 9 -156 5 -114 101 19 44 42 96 50 115 l15 34 65 -109
c36 -61 71 -114 76 -120 6 -5 2 6 -9 25 -76 130 -113 198 -113 208 0 10 64 59
195 150 60 42 75 49 75 35z m170 -330 c-97 -237 -108 -263 -118 -263 -8 0
-162 128 -162 135 0 5 340 295 345 295 2 0 -27 -75 -65 -167z m850 -53 c0 -98
-3 -130 -12 -129 -22 1 -163 94 -163 107 0 12 153 151 168 152 4 0 7 -58 7
-130z m-289 -81 c74 -248 79 -268 61 -278 -59 -30 -603 -253 -607 -249 -2 2
68 94 156 203 208 260 353 435 356 431 1 -1 17 -49 34 -107z m164 3 c50 -30
96 -60 102 -66 10 -9 -8 -32 -77 -101 -57 -57 -93 -86 -99 -80 -5 6 -30 80
-55 165 -26 85 -49 164 -52 174 -7 22 11 12 181 -92z m-235 93 c0 -13 -500
-628 -506 -622 -5 5 -84 346 -84 363 0 11 147 79 470 218 104 45 120 50 120
41z m-930 -81 c123 -11 125 -15 36 -60 l-78 -38 -22 27 c-12 15 -30 41 -40 58
l-19 32 24 -6 c13 -3 58 -9 99 -13z m1437 -391 c-4 -121 -3 -136 3 -63 4 52 8
119 9 149 0 30 4 51 8 48 3 -4 21 -82 38 -174 l33 -168 -50 -72 c-27 -40 -53
-73 -58 -73 -10 0 -74 111 -97 169 l-16 40 64 151 c35 82 66 150 68 150 2 0 1
-71 -2 -157z m-433 -50 c-37 -70 -72 -132 -78 -136 -10 -7 -137 -4 -366 10
-98 5 -103 7 -75 19 164 71 580 242 583 239 2 -2 -26 -61 -64 -132z m-92 -161
c8 -8 -13 -182 -37 -302 -4 -17 -3 -20 4 -10 4 8 11 35 15 60 18 121 39 221
46 213 10 -10 153 -443 149 -447 -2 -2 -57 -17 -123 -34 l-118 -31 5 72 c5 65
5 67 -4 22 -5 -27 -11 -60 -14 -72 l-5 -22 -68 28 c-78 33 -226 98 -294 131
-27 12 -48 26 -48 30 0 5 53 46 118 91 268 189 365 259 358 259 -4 0 -73 -46
-154 -103 -81 -57 -191 -134 -246 -171 l-98 -69 7 114 c17 254 16 253 49 259
47 8 448 -8 458 -18z m283 -94 c99 -38 184 -73 189 -78 11 -11 -44 -84 -148
-195 l-75 -80 -1 118 c0 75 4 117 11 117 5 0 -16 22 -48 49 -32 27 -80 72
-108 101 -60 63 -68 64 180 -32z m375 28 c15 -29 21 -49 15 -55 -6 -5 -41 -16
-78 -24 -59 -13 -68 -13 -63 -1 11 29 87 134 94 130 4 -2 18 -25 32 -50z
m-472 -91 l54 -51 -25 -118 c-14 -64 -27 -120 -30 -122 -3 -3 -35 86 -72 198
-38 112 -70 210 -73 218 -5 14 34 -19 146 -125z m48 -302 c-3 -7 -13 -13 -22
-13 -17 0 -16 16 9 125 l12 50 3 -74 c2 -41 1 -80 -2 -88z m-685 54 c29 -19
37 -35 57 -102 12 -43 20 -80 18 -82 -2 -2 -23 29 -46 69 -23 40 -51 88 -62
106 -23 38 -14 41 33 9z m689 -124 l-1 -48 -20 38 c-20 39 -18 57 7 57 10 0
14 -13 14 -47z m-335 -159 c-4 -23 -12 -34 -28 -37 -20 -4 -20 -4 3 -6 19 -1
29 -9 38 -33 6 -17 10 -33 8 -35 -8 -8 -136 50 -136 61 0 6 26 42 58 80 l57
69 3 -33 c2 -19 1 -48 -3 -66z m205 -38 c0 -10 -30 -139 -33 -142 -3 -3 -31 7
-63 21 l-58 26 57 40 c31 22 57 43 57 45 0 6 -14 -2 -64 -38 -40 -29 -66 -36
-66 -18 0 6 0 13 -1 17 -1 11 109 50 142 50 16 0 29 -1 29 -1z m296 -213 c-3
-3 -14 0 -23 7 -24 17 24 -28 68 -63 l34 -28 -85 6 c-83 7 -111 16 -109 39 0
6 3 6 6 -2 3 -8 21 4 50 35 40 43 45 46 55 30 5 -10 7 -21 4 -24z m60 16 c3
-6 0 -16 -7 -21 -9 -6 2 -7 34 -3 48 6 49 6 42 -17 -11 -37 -30 -52 -51 -40
-35 19 -56 49 -49 71 7 23 20 27 31 10z m221 -90 c63 -39 112 -73 110 -76 -3
-2 -51 8 -107 22 -56 14 -107 24 -112 23 -6 -2 52 -20 128 -39 l138 -35 -118
-98 c-64 -54 -118 -96 -119 -95 -5 7 -66 205 -77 246 -9 37 -8 48 10 83 11 22
23 40 27 40 4 0 58 -32 120 -71z m-432 41 c-3 -5 -13 -10 -21 -10 -8 0 -12 5
-9 10 3 6 13 10 21 10 8 0 12 -4 9 -10z m242 -65 c12 -4 83 -213 83 -244 0 -9
-62 45 -137 119 -113 111 -120 116 -37 30 99 -104 138 -149 119 -138 -55 32
-206 124 -227 139 -24 18 -26 22 -16 57 6 20 15 40 22 44 10 7 166 1 193 -7z
m-72 -185 c83 -49 145 -90 139 -90 -24 0 -338 41 -342 45 -6 5 40 135 47 135
3 0 74 -41 156 -90z m13 -87 c78 -9 142 -21 142 -26 0 -10 -118 -185 -130
-192 -7 -5 -220 227 -220 240 0 4 15 5 33 2 17 -3 96 -14 175 -24z m402 -278
c96 -9 177 -18 178 -20 2 -2 -20 -19 -48 -38 l-51 -35 -62 19 c-125 39 -239
70 -243 66 -2 -2 61 -23 141 -47 100 -29 145 -47 145 -57 0 -8 -17 -45 -37
-81 -65 -119 -45 -121 -188 19 -70 68 -140 140 -156 160 l-29 37 87 -3 c49 -1
167 -10 263 -20z"/>
<path d="M1553 6945 c0 -33 2 -45 4 -27 2 18 2 45 0 60 -2 15 -4 0 -4 -33z"/>
<path d="M1445 6790 c-25 -11 1 -11 35 0 20 6 21 8 5 8 -11 0 -29 -3 -40 -8z"/>
<path d="M1250 7923 c-19 -8 -83 -35 -143 -60 -59 -25 -105 -48 -102 -53 4 -7
228 -100 240 -100 8 0 24 45 50 143 26 98 25 100 -45 70z m30 -90 c-31 -115
-27 -112 -107 -84 -37 14 -88 33 -113 44 -39 18 -42 21 -25 29 109 47 261 103
263 97 2 -4 -6 -43 -18 -86z"/>
<path d="M3744 7920 c-24 -9 -28 -21 -44 -135 -6 -44 -14 -88 -17 -99 -3 -11
-1 -16 5 -12 5 3 15 50 22 103 7 54 16 106 21 115 9 16 65 35 76 25 3 -3 -18
-49 -47 -101 -28 -53 -49 -96 -46 -96 4 0 116 198 116 206 0 7 -65 3 -86 -6z"/>
<path d="M1579 7801 c-42 -27 -79 -53 -83 -59 -5 -9 54 -39 111 -56 17 -5 26
-22 38 -64 51 -176 81 -267 91 -267 12 0 134 135 134 148 0 9 -81 158 -153
280 -21 37 -44 67 -51 67 -6 0 -45 -22 -87 -49z m78 12 c-3 -10 -10 -41 -17
-70 l-12 -51 -59 20 c-33 11 -56 24 -53 30 8 12 126 88 137 88 5 0 6 -8 4 -17z
m102 -125 c44 -78 79 -144 76 -146 -2 -2 -32 17 -67 44 -35 26 -70 52 -78 57
-27 17 35 -37 98 -85 34 -27 62 -54 62 -60 0 -18 -106 -134 -115 -126 -14 14
-85 275 -85 315 0 41 18 143 25 143 2 0 40 -64 84 -142z"/>
<path d="M2553 7409 c-29 -11 -53 -24 -53 -29 0 -5 14 -18 31 -31 l31 -21 35
33 c19 19 39 42 44 52 8 14 6 17 -13 16 -13 0 -47 -9 -75 -20z m58 -17 c-35
-50 -46 -55 -72 -33 -28 23 -28 24 31 44 62 21 64 21 41 -11z"/>
<path d="M5493 7235 c3 -11 18 -65 33 -120 30 -115 33 -122 45 -104 18 28 8
81 -27 152 -36 74 -61 109 -51 72z m77 -168 c0 -16 -4 -26 -9 -23 -7 5 -13 23
-37 121 -2 11 7 0 20 -25 14 -25 25 -58 26 -73z"/>
<path d="M2800 7145 c0 -9 -5 -59 -11 -111 -6 -53 -8 -98 -6 -101 7 -6 127 55
127 65 0 4 -20 42 -45 85 -44 74 -65 94 -65 62z m63 -80 c19 -33 33 -63 30
-68 -6 -10 -79 -47 -93 -47 -8 0 -10 13 -6 38 3 20 8 63 11 96 4 32 10 54 15
50 4 -5 24 -36 43 -69z"/>
<path d="M2719 7028 c-17 -25 -26 -44 -19 -46 21 -7 60 8 60 24 0 14 -2 14
-16 0 -8 -9 -20 -16 -25 -16 -14 0 9 38 31 53 21 13 26 27 10 27 -5 0 -24 -19
-41 -42z"/>
<path d="M1815 6950 c-14 -27 -25 -52 -25 -55 0 -3 19 -4 43 -3 l42 1 -37 4
-38 4 20 40 c11 21 22 39 25 39 9 0 44 -78 38 -84 -4 -3 -1 -6 5 -6 7 0 12 3
12 6 0 15 -44 104 -51 104 -5 0 -20 -22 -34 -50z"/>
<path d="M5586 6864 c-3 -43 -6 -95 -6 -117 0 -34 -8 -47 -66 -110 -36 -39
-61 -73 -55 -75 17 -6 181 76 181 90 -1 28 -38 280 -43 284 -2 2 -7 -30 -11
-72z m30 -195 c-5 -4 -5 -12 -2 -18 5 -7 -17 -22 -60 -41 -37 -17 -68 -29 -69
-28 -2 2 19 27 46 56 41 45 52 52 64 42 10 -8 15 -9 15 -2 0 6 -4 14 -10 17
-12 7 -14 104 -3 132 5 11 11 -13 18 -67 6 -49 6 -88 1 -91z"/>
<path d="M3618 6713 c7 -3 16 -2 19 1 4 3 -2 6 -13 5 -11 0 -14 -3 -6 -6z"/>
<path d="M3525 6700 c-27 -7 -27 -8 -5 -8 14 0 39 4 55 8 27 7 27 8 5 8 -14 0
-38 -4 -55 -8z"/>
<path d="M3458 6683 c6 -2 18 -2 25 0 6 3 1 5 -13 5 -14 0 -19 -2 -12 -5z"/>
<path d="M2897 6590 c-59 -10 -117 -24 -127 -32 -11 -7 -65 -71 -120 -142
l-100 -129 0 -107 0 -108 93 -84 92 -85 107 27 107 28 63 -42 62 -41 44 -140
43 -140 -27 -57 -27 -56 63 -184 c35 -100 68 -187 73 -193 7 -7 7 -3 3 10 -33
89 -106 310 -106 318 0 6 21 -9 48 -34 83 -79 99 -86 28 -11 -39 39 -68 74
-65 76 7 8 392 -45 403 -55 9 -8 -107 -259 -121 -259 -18 -1 -167 -49 -154
-49 8 -1 50 9 94 20 l79 22 62 131 c56 118 69 138 124 186 34 30 64 60 66 67
3 8 -1 48 -9 91 -8 42 -15 87 -15 99 0 13 47 75 125 164 69 79 125 146 125
150 0 10 -56 19 -119 19 l-57 0 -109 184 c-60 102 -111 183 -114 181 -2 -2 35
-68 81 -147 115 -194 123 -209 108 -218 -21 -13 -610 -154 -616 -147 -3 2 162
235 303 430 19 26 33 47 30 47 -2 0 -78 -100 -168 -222 -90 -122 -170 -229
-177 -238 -13 -15 -12 90 4 458 l6 132 27 1 26 1 -25 7 c-23 6 -30 19 -46 79
-4 16 -55 14 -187 -8z m181 -29 l3 -34 -38 6 c-21 4 -65 9 -98 11 l-60 6 74
-15 c40 -8 75 -16 77 -18 2 -2 -65 -18 -149 -36 -83 -18 -163 -35 -176 -38
-21 -5 -22 -4 -11 17 6 12 27 39 46 59 31 35 40 39 131 55 54 10 105 19 113
21 8 2 31 2 50 2 32 -2 35 -5 38 -36z m-4 -78 c-3 -16 -31 -122 -61 -238 -31
-115 -58 -220 -60 -232 -3 -13 -8 -23 -12 -23 -8 0 -7 0 -149 234 -86 144
-110 191 -100 197 7 5 47 16 88 25 41 9 118 27 170 39 129 31 132 31 124 -2z
m2 -315 c-4 -144 -8 -264 -10 -266 -3 -2 -30 13 -61 33 -42 26 -55 40 -51 52
4 9 32 112 63 230 32 117 59 213 62 213 2 0 1 -118 -3 -262z m-390 40 c25
-204 29 -258 17 -258 -4 0 -38 30 -75 67 -73 73 -77 83 -60 177 l7 38 49 -106
c27 -59 50 -105 53 -103 2 2 -23 61 -56 132 l-59 128 46 62 c26 35 49 61 51
59 2 -2 14 -90 27 -196z m133 -48 c61 -101 108 -187 106 -191 -5 -8 -184 -53
-189 -48 -4 5 -56 418 -56 444 0 19 0 19 15 -1 8 -12 64 -104 124 -204z m890
-246 c-17 -65 -33 -129 -36 -141 -7 -30 -20 -29 -163 7 -160 40 -176 37 -22
-5 68 -19 128 -36 135 -38 7 -2 -23 -15 -66 -27 -99 -30 -93 -38 7 -11 90 25
86 24 86 9 0 -26 -75 -278 -83 -278 -14 0 -367 154 -367 160 0 4 61 24 135 45
75 21 134 40 131 42 -2 2 -62 -12 -132 -31 -70 -20 -135 -36 -145 -36 -11 0
-24 22 -42 73 -41 117 -59 178 -54 183 2 3 62 -9 132 -26 70 -17 129 -30 131
-28 2 3 -51 20 -119 38 l-122 34 60 17 c33 9 150 38 260 64 110 26 223 53 250
60 28 6 51 11 53 10 1 -1 -12 -55 -29 -121z m188 118 c20 -6 12 -18 -90 -134
-62 -69 -113 -123 -115 -118 -3 9 42 194 58 234 9 24 14 26 67 25 32 -1 68 -4
80 -7z m-204 -464 c5 -35 3 -40 -45 -83 -28 -25 -53 -43 -55 -41 -3 3 2 26 10
53 9 26 26 82 38 123 l22 75 12 -45 c6 -25 14 -62 18 -82z m-357 -53 c140 -61
166 -74 144 -75 -8 0 -91 10 -183 22 l-168 22 6 25 c4 15 13 36 21 49 18 27
14 28 180 -43z"/>
<path d="M3678 6373 c7 -3 16 -2 19 1 4 3 -2 6 -13 5 -11 0 -14 -3 -6 -6z"/>
<path d="M1245 6299 c15 -24 96 -60 127 -57 l33 4 -47 21 c-58 27 -120 45
-113 32z m115 -45 c0 -9 -28 -3 -46 11 -17 13 -16 14 14 4 17 -6 32 -13 32
-15z"/>
<path d="M1440 6227 c0 -10 8 -13 24 -10 13 3 27 0 30 -6 9 -13 26 -15 26 -2
0 9 -8 12 -62 27 -11 3 -18 0 -18 -9z"/>
<path d="M3897 6158 c-113 -68 -118 -70 -133 -52 -14 18 -15 18 -4 -3 6 -13
15 -23 20 -23 11 0 218 125 235 141 18 18 -1 8 -118 -63z"/>
<path d="M1468 6193 c7 -3 16 -2 19 1 4 3 -2 6 -13 5 -11 0 -14 -3 -6 -6z"/>
<path d="M5301 6193 c0 -5 19 -55 43 -113 34 -85 46 -106 64 -108 43 -6 35 26
-32 128 -60 92 -77 113 -75 93z m78 -116 c22 -35 41 -71 41 -80 0 -22 -26 -22
-33 1 -3 9 -16 45 -30 80 -14 34 -24 62 -22 62 1 0 21 -28 44 -63z"/>
<path d="M4506 5993 c-9 -27 2 -53 20 -46 18 7 18 24 0 48 -13 18 -14 18 -20
-2z m24 -23 c0 -5 -2 -10 -4 -10 -3 0 -8 5 -11 10 -3 6 -1 10 4 10 6 0 11 -4
11 -10z"/>
<path d="M5160 5899 c-60 -55 -72 -71 -60 -79 8 -5 42 -29 75 -54 33 -25 63
-46 68 -46 4 0 7 56 7 125 0 69 -3 125 -7 125 -5 -1 -42 -32 -83 -71z m76
-156 c-3 -3 -34 16 -70 43 -36 26 -65 48 -63 49 1 1 31 28 67 61 l65 59 3
-104 c1 -57 1 -106 -2 -108z"/>
<path d="M4820 5925 c0 -19 175 -230 178 -215 8 44 -15 94 -60 132 -25 22 -53
40 -61 42 -9 1 -25 13 -36 26 -11 14 -20 21 -21 15z m158 -150 c7 -21 11 -40
8 -42 -5 -5 -116 131 -116 142 0 4 21 -9 48 -28 31 -23 51 -47 60 -72z"/>
<path d="M5306 5808 c-9 -35 -7 -98 3 -98 5 0 19 8 32 19 21 17 22 21 10 49
-19 46 -37 58 -45 30z m44 -54 c0 -13 -30 -28 -38 -20 -2 3 -1 22 3 43 l7 38
14 -25 c7 -14 13 -30 14 -36z"/>
<path d="M5595 5745 c128 -115 141 -122 240 -129 l90 -7 -65 61 c-73 68 -113
93 -138 87 -12 -3 -9 -5 6 -6 22 -1 23 -4 17 -43 -4 -24 -10 -46 -14 -51 -7
-7 -141 97 -141 109 0 4 26 4 58 1 l57 -6 -60 14 c-101 24 -106 20 -50 -30z
m256 -80 c21 -19 39 -37 39 -40 0 -8 -124 7 -134 16 -5 4 -5 28 -2 53 l7 46
26 -19 c13 -11 42 -36 64 -56z"/>
<path d="M5070 5682 c0 -11 60 -35 68 -27 3 3 -1 6 -9 6 -8 1 2 5 21 9 l35 7
-42 2 c-23 0 -48 4 -57 7 -9 3 -16 2 -16 -4z"/>
<path d="M1938 5673 c18 -2 45 -2 60 0 15 2 0 4 -33 4 -33 0 -45 -2 -27 -4z"/>
<path d="M5215 5660 c17 -4 48 -8 70 -8 38 0 38 1 10 8 -16 4 -48 8 -70 8 -38
0 -38 -1 -10 -8z"/>
<path d="M5163 5643 c9 -2 23 -2 30 0 6 3 -1 5 -18 5 -16 0 -22 -2 -12 -5z"/>
<path d="M5412 5484 c-72 -51 -164 -105 -202 -121 -65 -26 -70 -30 -69 -58 1
-22 3 -24 6 -8 2 12 10 26 16 31 15 12 87 35 92 30 3 -2 -9 -51 -25 -109 -17
-57 -30 -111 -29 -119 0 -8 5 1 11 20 34 122 60 200 68 200 5 0 48 -47 95
-105 48 -58 89 -105 92 -105 7 0 6 1 -96 128 -73 89 -82 104 -70 118 19 23
210 154 224 154 8 0 9 -21 3 -77 -5 -43 -7 -85 -5 -93 2 -8 7 17 11 55 4 39
11 85 14 103 l7 32 183 -176 c101 -97 181 -179 178 -181 -3 -3 -20 -9 -38 -13
-30 -7 -28 -8 15 -7 43 2 47 4 43 22 -3 11 -6 24 -6 28 0 5 -3 6 -8 3 -4 -2
-52 37 -106 88 l-99 92 22 67 c13 37 26 67 30 67 4 0 38 -68 75 -150 38 -83
70 -149 72 -147 7 7 -140 327 -150 327 -3 0 -14 -30 -26 -67 -13 -38 -25 -71
-29 -75 -3 -4 -29 15 -56 42 -28 27 -64 60 -80 74 l-30 23 -133 -93z"/>
<path d="M3815 5514 l-67 -57 42 -42 42 -43 -28 -36 -29 -36 -6 42 -6 43 -1
-52 c-1 -29 0 -53 2 -53 3 0 20 19 39 43 39 47 57 90 35 82 -8 -3 -27 8 -43
25 l-29 30 35 30 c71 62 79 60 58 -13 -6 -21 -9 -43 -7 -49 2 -6 12 22 22 62
9 40 15 74 13 77 -3 2 -35 -22 -72 -53z"/>
<path d="M1805 5490 c-27 -7 -27 -8 -5 -8 14 0 39 4 55 8 27 7 27 8 5 8 -14 0
-38 -4 -55 -8z"/>
<path d="M5595 5265 c-48 -64 -90 -114 -92 -112 -2 2 1 35 7 73 17 117 9 125
-10 10 -10 -60 -22 -112 -27 -116 -4 -4 -63 -21 -131 -39 -67 -17 -129 -34
-137 -37 -17 -7 -31 40 -43 151 -5 44 -10 64 -11 45 -1 -40 18 -202 25 -209 3
-3 178 41 295 75 10 3 46 -32 108 -106 51 -60 98 -113 104 -117 7 -4 -17 28
-53 71 -87 104 -108 132 -90 121 111 -67 240 -157 235 -165 -4 -6 -23 -19 -43
-30 -20 -10 -30 -19 -21 -20 9 0 35 14 57 30 34 24 54 54 102 150 33 66 60
123 60 127 0 5 -29 -46 -63 -112 -40 -76 -68 -120 -78 -119 -20 1 -282 171
-272 177 4 2 54 13 111 22 56 10 100 20 98 23 -3 2 -48 -3 -100 -13 -53 -9
-100 -15 -105 -13 -6 1 17 39 50 83 76 101 121 165 115 165 -2 0 -43 -52 -91
-115z"/>
<path d="M1494 5105 c0 -77 1 -112 3 -77 l4 63 61 -78 c34 -43 65 -83 70 -90
6 -8 -10 -21 -52 -44 -33 -17 -58 -34 -56 -37 3 -2 30 11 62 28 l57 33 -5 -56
c-4 -49 -11 -64 -47 -107 -24 -28 -41 -53 -39 -56 3 -2 19 14 37 37 26 32 35
38 47 28 8 -6 14 -14 14 -18 0 -10 -104 -71 -122 -71 -17 0 -27 36 -29 104 -1
22 -4 32 -6 22 -3 -10 -2 -48 2 -85 6 -60 10 -68 49 -103 77 -72 110 -90 140
-79 35 14 33 24 -9 52 -35 23 -36 25 -29 74 4 28 10 60 15 72 5 14 3 25 -6 33
-10 9 -12 29 -8 83 5 65 9 76 40 108 19 20 52 42 74 49 42 14 47 25 25 55 -12
17 -12 21 2 31 12 9 -2 13 -72 19 -100 8 -128 1 -36 -9 37 -4 60 -12 60 -19 0
-21 -73 -137 -86 -137 -6 0 -37 32 -68 70 -31 39 -53 70 -49 70 5 0 24 -11 43
-23 69 -47 90 -59 90 -54 0 3 -32 27 -71 53 l-71 49 43 4 44 5 -55 5 -55 6 -6
65 c-4 43 -5 17 -5 -75z m286 -82 c0 -14 -46 -40 -55 -31 -3 3 2 22 12 42 16
34 18 36 30 20 7 -10 13 -24 13 -31z m-144 -370 c-3 -25 -7 -48 -9 -49 -6 -6
-88 22 -88 30 -1 9 81 66 95 66 5 0 6 -21 2 -47z m-13 -75 c18 -21 22 -38 10
-38 -5 1 -26 17 -48 36 l-40 36 30 -7 c17 -3 38 -15 48 -27z m60 -45 c-19 -15
-27 -9 -38 26 l-7 23 31 -18 c29 -17 30 -20 14 -31z"/>
<path d="M5808 5173 c6 -2 18 -2 25 0 6 3 1 5 -13 5 -14 0 -19 -2 -12 -5z"/>
<path d="M5748 5163 c6 -2 18 -2 25 0 6 3 1 5 -13 5 -14 0 -19 -2 -12 -5z"/>
<path d="M6296 4908 c-13 -42 -26 -111 -26 -135 1 -27 2 -27 45 22 25 28 45
55 45 60 0 10 -47 65 -56 65 -2 0 -6 -6 -8 -12z m54 -49 c0 -11 -62 -81 -67
-75 -2 2 1 24 7 47 19 75 18 74 40 54 11 -10 20 -22 20 -26z"/>
<path d="M1490 4819 c0 -5 19 -9 42 -9 49 0 47 5 -4 13 -21 3 -38 2 -38 -4z"/>
<path d="M5674 4794 c-4 -14 -2 -35 3 -47 9 -20 11 -19 36 18 20 29 23 41 14
47 -24 15 -47 8 -53 -18z m39 10 c7 -7 -14 -44 -25 -44 -5 0 -8 8 -8 18 0 27
18 41 33 26z"/>
<path d="M6144 4673 c-37 -48 -72 -95 -78 -103 -18 -24 45 24 113 87 63 57 64
60 49 82 -16 22 -16 22 -84 -66z m76 50 c0 -13 -13 -28 -59 -69 -49 -42 -46
-33 7 34 32 39 52 53 52 35z"/>
</g>
</svg>
