<?xml version="1.0" standalone="no"?>
<!DOCTYPE svg PUBLIC "-//W3C//DTD SVG 20010904//EN"
 "http://www.w3.org/TR/2001/REC-SVG-20010904/DTD/svg10.dtd">
<svg version="1.0" xmlns="http://www.w3.org/2000/svg"
 width="3333.000000pt" height="2500.000000pt" viewBox="0 0 3333.000000 2500.000000"
 preserveAspectRatio="xMidYMid meet">

<g transform="translate(0.000000,2500.000000) scale(0.100000,-0.100000)"
fill="#000000" stroke="none">
<path d="M9563 21740 c-25 -10 -30 -39 -11 -58 7 -7 27 -9 52 -6 46 6 401 -16
726 -47 568 -52 776 -69 910 -74 303 -10 48 26 -705 100 -253 25 -561 57 -684
70 -246 27 -256 28 -288 15z"/>
<path d="M20611 21684 c124 -131 901 -778 1023 -854 l40 -24 51 57 c87 95 169
257 152 300 -12 31 -1229 557 -1289 557 -7 0 4 -16 23 -36z m496 -219 c273
-113 654 -294 703 -334 l25 -20 -28 -53 c-29 -57 -149 -203 -165 -203 -12 0
-327 269 -592 506 -174 156 -240 219 -227 219 3 0 131 -52 284 -115z"/>
<path d="M13315 21646 c-387 -147 -1556 -638 -2520 -1059 -214 -93 -411 -179
-437 -190 -27 -12 -48 -27 -48 -35 0 -39 491 -479 767 -687 2 -1 25 -424 53
-941 71 -1334 110 -1963 125 -2032 l5 -22 43 21 c96 50 704 455 1217 812 722
503 1018 731 1079 831 16 26 319 966 681 2111 55 176 109 345 119 377 l19 56
-311 295 c-411 390 -566 517 -627 517 -14 0 -88 -25 -165 -54z m232 -18 c102
-87 375 -340 522 -483 143 -140 221 -230 221 -257 0 -4 -17 -16 -37 -27 -134
-68 -2852 -1052 -2902 -1051 -10 1 5 20 39 52 466 428 2070 1797 2107 1798 7
0 29 -15 50 -32z m-228 -32 c-67 -60 -342 -297 -819 -706 -880 -753 -1206
-1049 -1217 -1102 -4 -22 -10 -27 -22 -22 -36 15 -59 15 -96 -1 -38 -15 -40
-15 -100 14 -33 17 -107 66 -165 110 -203 153 -510 418 -510 439 0 17 421 213
1025 477 305 133 1586 680 1825 778 84 35 107 39 79 13z m984 -878 c-123 -455
-528 -1722 -677 -2120 -97 -261 -125 -318 -177 -360 -177 -143 -2082 -1481
-2143 -1504 -11 -4 -16 6 -20 38 -8 59 -94 1717 -126 2423 -5 121 -12 264 -15
319 -6 92 -5 98 12 92 45 -17 826 -459 1385 -784 466 -271 938 -531 938 -517
0 18 -489 312 -1240 744 -900 519 -1096 641 -1050 653 159 45 645 216 1820
643 459 167 932 337 1050 378 118 41 222 77 230 80 37 14 39 7 13 -85z"/>
<path d="M9584 21553 c13 -161 188 -1122 232 -1271 18 -64 18 -64 154 16 301
176 1640 1114 1640 1148 0 18 -315 -192 -920 -616 -441 -309 -830 -573 -835
-568 -4 4 -73 376 -139 758 -50 284 -93 509 -111 583 -4 15 -12 27 -18 27 -6
0 -8 -27 -3 -77z"/>
<path d="M9409 21528 c-64 -81 -337 -467 -515 -728 -192 -280 -214 -315 -214
-334 0 -8 23 -43 52 -78 53 -65 669 -690 675 -684 6 6 32 353 43 572 13 253
27 1011 22 1187 -2 64 -7 117 -12 117 -5 0 -28 -24 -51 -52z m11 -390 c0 -329
-13 -787 -30 -1098 -11 -188 -15 -220 -29 -220 -18 0 -182 150 -414 380 l-247
245 98 140 c54 77 178 257 277 400 197 287 326 465 338 465 4 0 7 -141 7 -312z"/>
<path d="M11512 21530 c5 -15 133 -69 165 -70 29 0 41 36 19 59 -22 21 -191
31 -184 11z"/>
<path d="M24899 21326 c-329 -140 -478 -221 -454 -245 28 -28 401 -189 523
-225 52 -15 53 -15 61 7 11 29 44 283 39 299 -2 6 -14 -24 -27 -68 -41 -144
-51 -164 -80 -164 -39 0 -244 72 -357 125 -80 37 -96 48 -82 56 35 19 335 147
395 167 105 36 134 38 162 8 14 -14 28 -26 33 -26 4 0 8 34 8 75 0 53 -4 75
-12 75 -7 0 -101 -38 -209 -84z"/>
<path d="M22620 20628 c-129 -82 -505 -329 -836 -549 l-601 -400 -199 -292
c-254 -373 -343 -501 -352 -505 -13 -4 -132 100 -305 268 -92 89 -169 161
-170 159 -2 -2 0 -105 4 -229 4 -124 9 -364 11 -533 l3 -308 -570 -295 c-815
-422 -1359 -696 -1363 -685 -5 16 33 96 113 236 40 72 81 150 91 174 l17 44
-27 22 c-38 30 -222 111 -895 390 l-574 239 -181 -185 c-191 -194 -359 -397
-662 -799 -275 -365 -500 -686 -535 -762 -11 -25 -9 -31 25 -75 130 -168 627
-680 691 -714 l47 -24 31 36 c36 41 129 243 283 609 150 358 229 541 287 663
42 89 52 105 59 88 22 -60 62 -594 78 -1041 14 -387 13 -550 -2 -555 -7 -2
-157 -23 -333 -46 -214 -28 -361 -43 -442 -43 -118 -1 -123 0 -148 24 -14 14
-45 72 -70 128 -48 113 -79 162 -100 162 -15 0 -73 -71 -202 -250 -124 -171
-168 -219 -329 -357 -213 -184 -559 -505 -556 -516 2 -6 22 -33 46 -61 98
-116 132 -190 120 -257 -10 -51 -68 -171 -94 -194 -18 -17 -35 -20 -96 -18
-83 2 -362 38 -414 53 -92 27 -95 14 -94 -355 0 -291 10 -405 37 -432 29 -30
447 -93 521 -79 26 5 55 23 88 54 64 60 196 237 278 372 94 154 174 230 325
307 185 95 386 183 399 176 6 -4 74 -57 151 -119 234 -187 322 -282 423 -453
66 -114 100 -161 116 -161 7 0 26 15 43 33 46 48 153 197 152 210 -1 7 -38 46
-83 87 -347 319 -506 484 -506 527 0 8 25 25 55 39 52 24 55 24 80 8 39 -26
191 -206 399 -474 204 -263 268 -334 320 -355 45 -19 60 -19 102 1 55 26 116
86 307 303 203 231 493 530 574 592 62 48 67 49 444 73 300 19 1059 49 1067
42 4 -5 -582 -606 -598 -614 -3 -1 -133 85 -289 191 -280 191 -467 310 -506
323 -30 9 32 -43 179 -148 299 -216 413 -304 478 -367 64 -63 67 -68 59 -98
-19 -65 -97 -237 -212 -463 -130 -256 -191 -360 -212 -360 -20 0 -143 90 -367
268 -226 180 -364 310 -358 338 4 22 88 44 388 99 314 58 634 124 676 139 l39
15 -46 0 c-105 2 -985 -164 -1142 -215 -27 -9 -46 -21 -44 -27 6 -20 578 -486
824 -672 19 -14 -189 -189 -308 -259 l-47 -27 -138 16 c-344 39 -1426 180
-1624 211 -100 16 -136 33 -158 77 -7 14 -21 85 -32 157 -10 74 -26 142 -35
156 -44 67 -127 63 -860 -41 -321 -46 -520 -83 -615 -116 -39 -13 -67 -32 -99
-66 -76 -82 -416 -512 -714 -903 l-287 -375 0 -526 0 -526 218 -205 c325 -307
653 -608 660 -608 4 0 237 58 518 129 l512 128 73 -46 c40 -25 176 -109 303
-186 l231 -140 88 -285 c48 -157 147 -471 219 -699 l130 -415 -132 -265 -131
-266 209 -615 c365 -1071 429 -1252 446 -1262 29 -19 241 26 676 143 l335 91
175 376 c215 465 358 754 417 846 60 94 128 163 323 331 191 164 275 252 303
313 18 43 18 48 2 161 -9 64 -34 207 -56 318 -50 257 -69 382 -69 460 l0 63
82 97 c83 99 344 398 658 753 195 221 447 516 487 573 14 20 23 40 20 43 -10
10 -209 31 -467 49 -129 9 -275 19 -325 23 l-89 7 -318 525 c-448 740 -768
1283 -768 1305 0 16 38 -1 118 -54 150 -98 237 -223 568 -811 235 -419 443
-768 497 -834 l24 -30 79 44 c296 162 1253 766 1295 817 29 34 -153 -70 -586
-337 -445 -274 -743 -440 -789 -440 -12 0 -28 10 -36 23 -204 318 -758 1366
-748 1414 2 10 11 16 19 14 8 -3 59 -20 114 -38 55 -19 280 -85 500 -148 1147
-326 1496 -426 1554 -444 35 -12 67 -18 72 -16 12 8 -5 48 -43 103 -24 35
-322 419 -367 474 -4 4 -83 -56 -176 -133 -94 -78 -175 -145 -181 -150 -16
-13 -384 546 -384 583 0 9 66 -8 409 -107 298 -86 1542 -462 1546 -468 6 -7
862 -1478 905 -1554 29 -51 55 -93 59 -93 3 0 168 244 366 542 418 629 553
822 642 918 l65 70 61 0 c180 0 1619 -140 1658 -160 12 -7 20 -42 33 -152 22
-196 54 -582 62 -762 l7 -148 -29 15 c-124 64 -1279 861 -1548 1066 -124 96
-147 111 -168 111 -45 0 35 -70 290 -253 76 -54 179 -130 231 -170 l94 -72 82
-170 c45 -93 153 -327 240 -520 309 -687 417 -915 431 -915 14 0 -38 258 -138
680 -83 353 -128 570 -117 570 14 0 71 -37 297 -193 203 -140 345 -227 369
-227 16 0 17 136 3 320 -29 367 -49 647 -55 740 l-6 105 298 170 c532 303 877
505 940 552 l32 23 -19 68 c-10 37 -46 135 -79 217 -59 149 -88 214 -298 685
-143 318 -207 476 -200 492 5 14 278 153 396 203 51 21 66 24 72 13 6 -11 291
-399 454 -620 47 -63 76 -81 90 -57 14 21 -7 61 -67 127 -100 109 -198 236
-332 426 l-126 179 93 50 c143 78 317 161 322 155 15 -14 36 -179 46 -360 7
-112 16 -207 21 -212 4 -6 8 138 8 320 l0 329 240 408 c275 467 368 632 377
666 15 61 -111 217 -575 709 -103 109 -197 210 -209 223 l-23 25 67 80 c36 43
266 324 511 624 705 862 1013 1230 1031 1230 10 0 9 5 65 -220 58 -228 122
-502 246 -1060 152 -680 247 -1050 269 -1050 5 0 14 35 21 78 16 102 159 914
260 1476 168 937 223 1283 224 1401 0 121 -10 170 -105 509 -28 98 -48 184
-46 191 3 6 97 44 209 83 215 75 312 114 322 131 4 6 -19 31 -51 56 -53 42
-538 367 -658 441 l-50 31 -430 -28 c-236 -15 -736 -46 -1110 -69 l-680 -41
-1090 -260 c-599 -143 -1097 -261 -1105 -261 -13 -1 -274 148 -659 374 l-93
56 -137 -53 c-161 -62 -237 -93 -739 -304 -210 -89 -386 -161 -391 -161 -10 0
-41 188 -81 505 -39 311 -61 454 -69 459 -3 2 -112 -63 -241 -146z m219 1 c19
-85 39 -231 65 -469 36 -335 38 -348 28 -354 -12 -7 -412 -33 -872 -55 -571
-28 -710 -34 -710 -28 0 34 1419 956 1472 957 3 0 11 -23 17 -51z m6663 -379
c159 -572 250 -962 264 -1135 7 -94 -3 -177 -82 -650 -143 -857 -372 -2045
-394 -2045 -9 0 -32 84 -96 360 -99 422 -384 1718 -384 1743 0 53 82 106 517
330 315 163 418 220 405 225 -13 4 -160 -62 -350 -157 -217 -109 -451 -214
-547 -246 -75 -25 -78 -26 -97 -8 -84 74 -1310 1595 -1297 1608 10 9 646 -299
1449 -700 544 -272 840 -413 840 -401 0 12 -368 204 -1235 643 -718 364 -1065
545 -1065 554 0 20 1748 131 1965 125 l39 -1 68 -245z m179 98 c321 -198 447
-287 433 -309 -17 -29 -306 -128 -396 -136 l-58 -6 -20 46 c-17 37 -140 481
-140 503 0 11 27 -3 181 -98z m-2450 0 c17 -32 7 -392 -36 -1263 -91 -1883
-117 -2381 -120 -2392 -3 -7 -17 -13 -33 -13 -19 0 -45 -15 -81 -45 -56 -48
-62 -50 -77 -35 -22 22 -445 136 -1227 330 -543 135 -684 166 -662 142 28 -31
1770 -472 1863 -472 12 0 22 -4 22 -9 0 -30 -462 -94 -1560 -216 -1783 -197
-2900 -300 -2900 -266 0 49 520 977 716 1278 73 112 73 113 106 106 18 -3 310
-75 648 -158 784 -195 1067 -259 1045 -236 -19 19 -497 148 -1357 366 l-388
98 -5 31 c-16 102 -165 1935 -165 2033 l0 64 83 -63 c45 -34 298 -229 562
-432 451 -349 737 -571 2125 -1652 772 -602 1129 -874 1146 -874 18 0 18 4 -2
42 -15 29 -15 31 2 23 11 -4 30 -10 43 -13 22 -4 22 -3 11 19 -29 56 -327 538
-820 1329 -495 794 -872 1403 -1023 1655 l-66 110 24 12 c45 24 316 94 920
238 336 80 738 176 895 214 157 38 288 70 292 70 4 1 13 -9 19 -21z m423 -437
c149 -179 452 -548 674 -820 375 -458 404 -496 392 -515 -30 -48 -1074 -1325
-1444 -1767 l-131 -156 -3 91 c-4 106 10 428 78 1871 28 578 56 1192 63 1365
7 174 17 322 22 330 6 10 17 3 44 -30 20 -24 157 -190 305 -369z m-3035 163
c249 -142 290 -169 270 -175 -13 -4 -116 -12 -229 -19 -113 -6 -401 -22 -640
-35 -608 -35 -834 -42 -829 -26 5 15 209 107 494 224 409 166 540 210 605 203
21 -3 149 -69 329 -172z m1004 -1211 c721 -1155 1181 -1907 1263 -2065 l17
-32 -29 19 c-304 198 -2949 2257 -3633 2829 l-145 120 35 7 c122 25 1249 81
1766 87 l121 2 605 -967z m-2793 873 c0 -16 -2477 -1402 -2487 -1392 -14 14
871 1309 900 1318 12 3 69 6 126 7 81 1 933 47 1186 64 80 5 275 7 275 3z
m105 -55 c8 -16 21 -71 30 -123 37 -234 145 -1613 145 -1856 l0 -95 -57 7
c-222 26 -2679 598 -2712 632 -8 7 26 28 299 187 551 321 2254 1276 2277 1277
1 0 9 -13 18 -29z m-2467 -759 l115 -122 -44 -63 c-188 -271 -253 -357 -273
-357 -38 0 -56 174 -55 550 l0 265 71 -75 c39 -41 123 -130 186 -198z m-3519
-752 c13 -122 51 -647 51 -691 0 -28 -16 -15 -225 188 -124 120 -225 222 -225
228 0 11 379 389 385 383 2 -2 9 -51 14 -108z m677 -532 c219 -222 385 -398
421 -445 l27 -35 -29 -25 c-153 -125 -638 -496 -800 -611 l-90 -63 -7 28 c-17
64 -96 936 -133 1468 -8 121 -17 240 -20 264 l-5 43 228 -220 c125 -121 308
-303 408 -404z m-246 504 c395 -158 982 -410 1002 -430 18 -18 -69 -212 -171
-384 -83 -141 -67 -142 -228 10 -262 246 -883 883 -883 905 0 7 98 -28 280
-101z m2774 2 c3 -9 6 -32 6 -52 0 -121 -415 -3181 -441 -3249 -13 -36 -36
-18 -117 89 -138 186 -663 995 -1260 1945 l-171 272 767 399 c815 425 1180
611 1198 612 7 0 15 -7 18 -16z m957 -869 c602 -626 979 -1031 1109 -1194 l51
-64 -203 -104 c-112 -58 -455 -237 -763 -398 -1140 -596 -1523 -791 -1533
-781 -8 9 35 343 163 1266 36 261 104 761 151 1110 84 634 122 897 145 999
l11 55 252 -255 c138 -140 416 -425 617 -634z m-469 830 c640 -143 2456 -571
2467 -581 9 -8 -459 -893 -672 -1271 -51 -90 -97 -163 -104 -163 -19 0 -203
182 -546 538 -653 680 -1170 1230 -1305 1387 -106 124 -120 145 -98 145 8 0
124 -25 258 -55z m-4067 -344 c34 -21 88 -68 292 -253 l141 -129 -15 -37
c-251 -602 -387 -922 -434 -1027 -152 -333 -162 -263 -93 635 26 346 41 801
25 764 -14 -32 -46 -408 -86 -1004 -51 -755 -55 -790 -93 -790 -26 0 -54 23
-214 173 -187 176 -458 476 -458 507 0 38 773 1109 836 1159 33 26 60 27 99 2z
m1662 -823 c292 -431 1381 -2144 1369 -2155 -6 -7 -355 221 -1116 728 -841
561 -1298 883 -1288 909 4 11 193 158 450 351 305 229 415 299 468 299 24 0
39 -17 117 -132z m8792 -474 c10 -10 10 -13 -254 -859 -351 -1123 -503 -1606
-506 -1609 -14 -10 -3627 81 -3857 97 -27 2 192 118 1185 629 670 345 1445
742 1723 884 1386 705 1627 833 1573 834 -19 0 -1412 -700 -2258 -1135 -839
-432 -2279 -1153 -2310 -1157 -20 -3 -20 2 -19 307 1 311 31 1453 40 1511 4
30 8 33 67 43 57 11 1055 123 1967 221 212 23 815 88 1340 145 888 97 967 104
1128 101 94 -1 176 -6 181 -12z m772 -678 c60 -65 109 -125 109 -133 0 -31
-354 -644 -523 -907 -59 -91 -72 -105 -78 -88 -8 20 -50 407 -69 632 -25 296
-103 1071 -116 1150 -5 32 19 11 281 -250 158 -157 336 -338 396 -404z m-687
288 c14 -126 32 -308 41 -404 9 -96 28 -287 42 -425 19 -180 27 -309 27 -460
l1 -210 -28 -48 c-16 -26 -49 -63 -75 -82 -50 -36 -761 -399 -768 -392 -13 13
432 1448 635 2047 90 266 83 248 92 223 4 -11 19 -123 33 -249z m-9569 9
c1004 -654 1896 -1256 1881 -1270 -8 -9 -1816 623 -2142 748 l-101 39 -6 45
c-10 71 -29 635 -23 661 6 24 7 24 84 -25 42 -26 181 -116 307 -198z m4731
-210 c8 -92 -1 -793 -16 -1148 -15 -367 -29 -617 -35 -623 -6 -7 -141 22 -535
113 -593 138 -1621 389 -1769 432 -51 15 -54 16 -35 30 161 121 2300 1272
2366 1273 13 0 18 -15 24 -77z m-6215 -257 c21 -44 39 -88 39 -98 0 -12 -13
-24 -35 -34 -39 -16 -301 -51 -311 -41 -10 10 119 189 195 269 l35 38 19 -28
c10 -15 36 -63 58 -106z m983 -82 c9 -3 16 -13 16 -20 0 -14 -93 -165 -425
-689 -165 -261 -148 -240 -184 -225 -34 14 -207 189 -336 340 -179 208 -335
410 -335 431 0 24 979 161 1202 168 25 0 53 -2 62 -5z m609 -463 c235 -233
425 -426 423 -429 -13 -12 -474 -55 -776 -72 -288 -15 -660 -24 -713 -16 l-48
7 36 66 c77 140 425 686 542 851 l44 62 32 -22 c18 -13 224 -214 460 -447z
m557 116 c642 -228 1368 -492 1365 -495 -3 -4 -400 -25 -974 -53 l-444 -21
-310 309 c-296 295 -537 548 -537 565 0 9 360 -113 900 -305z m-2437 84 c94
-102 440 -511 517 -611 l72 -95 -29 -3 c-59 -6 -1333 155 -1333 168 0 7 298
285 459 428 112 101 213 172 241 172 10 0 43 -27 73 -59z m-143 -677 c385 -54
670 -100 679 -109 2 -3 2 -7 0 -9 -24 -22 -834 -396 -858 -396 -14 0 -96 104
-260 329 -135 185 -159 231 -128 245 25 11 190 -6 567 -60z m4444 -38 c143
-36 443 -108 666 -161 748 -178 1324 -325 1344 -345 9 -9 -209 -82 -743 -250
-331 -103 -829 -255 -913 -278 l-38 -10 -139 251 c-339 615 -467 857 -450 857
6 0 129 -29 273 -64z m-214 -181 c64 -115 166 -300 227 -410 142 -258 217
-405 209 -412 -7 -8 -231 70 -325 113 -86 39 -132 84 -178 169 -39 75 -253
572 -253 589 0 7 36 47 80 90 59 58 85 77 102 74 18 -2 46 -46 138 -213z
m-1780 187 c0 -28 -551 -641 -770 -857 l-91 -90 -54 57 c-103 110 -491 599
-586 739 -38 57 -39 58 -18 69 11 7 148 18 312 26 161 8 443 26 627 38 350 25
580 32 580 18z m-1816 -265 c44 -69 116 -213 116 -232 0 -8 -4 -15 -8 -15 -18
0 -99 66 -179 145 -100 97 -106 121 -41 153 52 26 67 19 112 -51z m3282 -14
c80 -157 223 -517 211 -529 -5 -5 -145 43 -370 127 -195 73 -257 99 -257 109
0 29 341 385 362 378 7 -3 31 -41 54 -85z m-4340 25 c55 -60 167 -218 160
-225 -6 -6 -201 28 -269 48 -58 16 -66 44 -33 116 56 121 78 130 142 61z
m1583 -518 c26 -44 26 -64 0 -101 -28 -39 -74 -63 -97 -50 -10 5 -49 67 -87
138 -38 70 -111 202 -163 293 -52 91 -97 170 -99 175 -12 24 427 -424 446
-455z m-2094 355 c127 -19 533 -91 605 -108 42 -9 56 -17 58 -32 6 -41 -191
-353 -319 -507 l-72 -87 -196 292 c-203 302 -286 417 -301 417 -30 0 85 -186
314 -509 l137 -194 -148 6 c-219 7 -320 44 -343 125 -12 45 -13 420 -1 515 7
47 15 73 28 82 24 19 113 19 238 0z m9430 -145 c535 -12 1050 -28 1624 -48
l455 -17 -875 -715 c-1109 -907 -1465 -1203 -1449 -1208 25 -9 161 98 995 779
835 681 1324 1074 1329 1068 6 -7 -31 -172 -69 -312 -20 -73 -99 -343 -175
-602 -76 -258 -161 -551 -190 -650 -28 -99 -71 -241 -96 -317 l-45 -136 -47
-7 c-129 -17 -1069 57 -1532 121 -176 24 -207 33 -243 73 -163 180 -1467 1933
-1467 1972 0 4 8 10 18 13 24 7 1257 -2 1767 -14z m-1927 -37 c4 -26 -56 -339
-214 -1128 -138 -689 -133 -669 -160 -673 -45 -6 -196 127 -690 609 -307 300
-647 648 -665 680 -8 16 -3 21 28 34 77 33 1022 329 1448 454 188 56 248 61
253 24z m-2938 -79 c91 -36 316 -122 500 -191 357 -133 485 -189 485 -213 0
-16 -21 -23 -230 -69 -303 -69 -1185 -308 -1265 -345 l-35 -15 40 5 c70 10
469 103 790 184 282 72 610 149 692 164 27 4 31 3 26 -12 -26 -74 -400 -582
-486 -661 l-26 -24 -86 22 c-190 48 -814 245 -927 293 -46 20 -48 22 -48 60 0
23 16 81 36 132 46 116 350 736 361 736 5 0 83 -30 173 -66z m3111 -36 c326
-412 1359 -1825 1359 -1860 0 -6 -53 -7 -137 -4 -76 4 -262 11 -413 16 -871
32 -1202 55 -1262 86 -25 13 -29 20 -24 42 45 214 154 756 226 1127 50 259 97
506 106 550 17 89 38 145 53 145 6 0 48 -46 92 -102z m4084 -295 c269 -578
458 -1009 449 -1024 -7 -12 -1194 -689 -1208 -689 -15 0 551 1949 585 2011 5
11 13 19 18 19 5 0 75 -143 156 -317z m-5948 -230 c125 -111 872 -851 1010
-1002 105 -115 161 -187 151 -197 -3 -3 -286 81 -629 186 -966 297 -1173 361
-1183 370 -12 12 31 85 149 250 196 272 364 480 390 480 7 0 57 -39 112 -87z
m-4372 25 c29 -26 51 -111 61 -247 l7 -84 -69 7 c-87 9 -368 47 -584 80 -216
32 -461 59 -491 54 -55 -9 15 -23 621 -123 319 -53 348 -59 335 -67 -28 -17
-979 -229 -1420 -317 -330 -65 -315 -63 -315 -48 0 37 213 336 323 454 77 82
111 99 217 107 62 5 99 13 134 32 79 40 511 117 891 158 203 22 259 20 290 -6z
m2825 -458 c606 -181 684 -209 657 -236 -21 -21 -813 -194 -889 -194 -38 0
-39 1 -52 62 -7 29 -56 433 -56 456 0 8 7 11 18 8 9 -3 154 -46 322 -96z
m-2575 46 c50 -9 344 -50 655 -91 861 -115 1054 -150 1174 -209 38 -19 74 -32
82 -29 22 8 23 30 3 67 -17 33 -18 39 -5 64 32 61 246 226 267 205 9 -9 45
-251 64 -432 l7 -65 -53 39 c-144 104 -196 130 -237 120 -22 -5 -24 -10 -18
-43 13 -84 145 -326 496 -912 345 -575 520 -887 520 -926 0 -8 -12 -19 -27
-25 -106 -40 -2015 -503 -2713 -658 -277 -61 -330 -71 -330 -60 0 22 348 517
890 1264 576 794 975 1358 986 1392 5 16 4 16 -8 3 -7 -9 -94 -123 -194 -255
-175 -234 -292 -392 -924 -1255 -289 -395 -790 -1068 -818 -1100 -18 -20 -10
643 18 1585 11 369 23 822 27 1008 6 336 6 338 27 333 12 -3 62 -12 111 -20z
m-219 -33 c-13 -94 -80 -363 -307 -1230 -231 -882 -333 -1251 -353 -1278 -9
-13 -27 9 -96 117 -233 367 -990 1614 -1120 1846 -56 101 -61 115 -48 128 23
23 161 66 398 123 205 50 1490 337 1519 340 11 1 12 -9 7 -46z m20 -590 c-14
-783 -56 -2105 -72 -2270 -4 -46 -10 -63 -20 -63 -52 0 -425 241 -515 333
l-26 26 134 503 c337 1265 493 1838 501 1838 3 0 2 -165 -2 -367z m3646 210
c143 -187 325 -469 316 -492 -4 -11 -186 34 -673 169 -198 55 -427 117 -510
138 l-150 39 37 16 c143 60 771 225 864 226 41 1 43 0 116 -96z m-5616 -654
c121 -958 185 -1564 170 -1625 -8 -30 -39 -31 -86 -3 -19 12 -171 157 -336
323 l-302 301 13 388 c7 213 15 390 17 392 2 2 93 -190 203 -428 223 -486 424
-902 449 -932 17 -20 17 -20 10 5 -15 58 -154 372 -416 939 l-278 603 237 318
c131 175 239 317 240 316 2 -2 37 -270 79 -597z m105 338 c374 -600 920 -1514
1069 -1791 49 -91 52 -100 36 -111 -22 -16 -312 -98 -658 -185 l-266 -68 -12
66 c-38 219 -280 2132 -280 2216 0 43 17 24 111 -127z m6358 -69 c114 -119
257 -316 239 -333 -8 -8 -471 128 -539 158 l-54 24 56 55 c66 65 195 158 220
158 9 0 44 -28 78 -62z m2171 -168 c402 -19 703 -40 795 -56 50 -9 92 -18 94
-20 2 -1 -98 -157 -222 -346 -123 -189 -335 -513 -470 -720 l-245 -378 -153
263 c-582 998 -729 1254 -729 1272 0 10 611 0 930 -15z m1897 -710 c83 -48
176 -141 216 -218 20 -37 50 -115 66 -173 51 -176 168 -705 158 -715 -7 -7
-448 956 -514 1124 -8 20 19 14 74 -18z m-4859 -611 c181 -16 354 -43 351 -54
-1 -5 -178 -210 -393 -455 -563 -641 -732 -827 -743 -817 -10 11 293 1193 328
1279 11 26 40 41 99 51 51 9 245 7 358 -4z m-524 -41 c-40 -223 -295 -1190
-351 -1330 -12 -31 -20 -38 -43 -38 -83 0 -849 178 -1555 361 -779 202 -1067
291 -1039 319 22 21 2888 713 2981 719 9 1 11 -9 7 -31z m-3009 -798 c419 -87
2152 -525 2435 -616 l85 -27 -40 -14 c-178 -63 -1883 -541 -2128 -596 l-68
-15 -18 36 c-69 137 -383 1081 -406 1220 -7 41 -6 43 17 38 12 -3 68 -15 123
-26z m2585 -722 c0 -85 -111 -506 -318 -1203 -53 -178 -62 -200 -80 -198 -35
4 -1060 443 -1605 688 -177 79 -216 100 -205 111 7 6 56 26 108 43 202 67
2038 585 2093 590 4 1 7 -13 7 -31z m134 -369 c30 -151 62 -325 72 -387 16
-108 16 -114 -1 -153 -22 -49 -161 -183 -306 -295 -159 -124 -209 -158 -209
-142 0 18 44 172 205 713 74 248 141 477 151 509 12 44 19 55 25 44 5 -9 33
-139 63 -289z m-1983 -468 c649 -276 1138 -495 1163 -522 8 -8 -2 -9 -34 -5
-25 3 -175 22 -335 41 -458 56 -1408 186 -1472 202 -13 3 -23 10 -23 17 0 18
118 285 156 353 31 55 74 103 94 103 4 0 207 -85 451 -189z m-320 -386 c134
-20 487 -69 784 -110 692 -96 948 -135 957 -143 25 -25 -543 -1223 -583 -1230
-13 -2 -959 954 -1273 1287 -104 111 -176 200 -176 219 0 17 23 16 291 -23z
m-211 -185 c243 -215 1353 -1301 1342 -1312 -42 -42 -769 -248 -875 -248 l-35
0 -45 123 c-90 243 -517 1519 -517 1542 0 9 12 0 130 -105z"/>
<path d="M6269 20453 c-67 -106 -270 -562 -358 -807 l-32 -89 35 6 c18 3 89
29 157 58 163 69 657 316 737 368 53 35 61 44 53 59 -30 56 -512 452 -550 452
-6 0 -25 -21 -42 -47z m156 -77 c63 -42 289 -243 334 -296 27 -34 31 -43 21
-56 -23 -26 -684 -349 -777 -378 -19 -6 -23 -4 -23 14 0 35 187 496 261 643
59 115 99 131 184 73z"/>
<path d="M16665 20471 c-330 -85 -749 -221 -782 -254 -15 -16 16 -86 149 -340
121 -228 219 -399 233 -404 11 -3 4 -16 185 307 238 424 380 688 380 704 0 23
-37 20 -165 -13z m75 -48 c0 -20 -453 -850 -478 -875 -4 -4 -83 140 -175 321
l-168 329 98 30 c54 17 175 53 268 81 94 27 220 66 280 85 103 32 175 44 175
29z"/>
<path d="M3038 20311 c-123 -83 -458 -318 -746 -523 l-523 -373 -229 -503
c-126 -276 -240 -536 -254 -576 -31 -90 -33 -166 -6 -237 22 -60 339 -547 356
-548 6 -1 171 80 365 179 401 203 465 230 545 230 64 0 102 -14 181 -68 69
-47 536 -445 617 -526 107 -107 122 -143 196 -473 261 -1158 340 -1523 340
-1567 0 -28 -29 -474 -64 -990 l-65 -940 247 -410 c401 -670 597 -980 612
-971 13 8 -27 183 -105 459 -52 186 -78 301 -73 318 8 23 154 -235 498 -878
l193 -361 246 -103 c764 -321 1166 -517 1406 -688 39 -27 120 -93 180 -147
136 -120 235 -195 258 -195 35 0 11 38 -53 85 -85 63 -141 165 -107 194 23 18
48 1 100 -67 62 -81 97 -144 112 -203 19 -69 48 -99 97 -99 52 0 83 18 175 99
43 38 79 68 80 67 8 -8 33 -170 33 -216 0 -187 -84 -482 -286 -1004 -57 -147
-104 -272 -104 -277 0 -5 184 -216 408 -468 566 -635 762 -871 762 -917 0 -14
12 -25 38 -37 74 -34 540 -468 1154 -1078 337 -335 438 -443 438 -471 0 -13
-52 -10 -276 17 -175 21 -1256 135 -1277 135 -4 0 -7 83 -7 183 0 308 -13 738
-21 678 -16 -119 -31 -1240 -26 -1826 8 -822 32 -1163 98 -1363 l21 -62 260
-213 c332 -271 374 -300 448 -305 87 -6 259 46 274 83 10 26 -56 87 -214 196
-125 87 -150 108 -150 129 0 41 47 338 69 437 11 50 30 117 42 148 12 31 18
66 15 79 -3 13 -35 49 -70 80 -36 31 -68 65 -71 76 -3 10 3 37 15 59 36 72 51
168 60 379 10 252 15 266 153 398 111 107 179 164 198 164 28 1 394 160 391
170 -1 6 -36 69 -78 140 -42 71 -74 137 -72 147 4 24 76 32 244 25 l130 -5
218 399 c120 219 245 441 278 491 86 134 176 212 436 383 l221 145 11 50 c6
28 31 165 55 305 79 468 93 508 337 957 94 175 142 273 136 278 -2 2 -203 114
-448 250 -747 415 -1280 728 -1805 1060 -442 280 -583 360 -674 385 -36 9 -59
8 -130 -6 -112 -23 -141 -16 -226 51 -39 30 -90 67 -114 82 -40 24 -46 25 -70
12 -16 -9 -45 -50 -75 -109 l-50 -95 -18 105 c-28 169 -12 155 -126 108 -157
-66 -216 -116 -298 -255 -67 -112 -84 -121 -149 -74 -84 61 -102 64 -282 56
l-161 -7 -36 34 c-45 42 -103 138 -122 205 -14 49 -14 53 10 111 40 93 67 209
56 237 -11 30 -39 38 -240 65 -85 12 -157 23 -159 25 -2 3 15 115 39 250 46
266 47 315 6 315 -23 0 -206 -59 -541 -174 -105 -36 -230 -73 -279 -82 l-87
-17 -22 22 c-21 21 -22 29 -21 199 1 177 25 490 47 612 11 61 14 66 51 83 73
35 880 259 1085 302 74 15 74 15 99 -7 38 -36 95 -140 192 -347 49 -106 99
-209 111 -228 l22 -36 10 24 c5 14 7 172 3 395 l-6 372 357 403 c581 657 873
983 896 1001 12 9 168 51 347 93 279 65 553 134 598 150 16 6 9 19 -128 250
-134 227 -190 328 -190 347 0 30 112 70 723 263 107 33 177 61 177 68 0 48
-1323 1727 -1361 1727 -21 0 -175 -338 -529 -1165 -123 -286 -226 -524 -230
-528 -7 -8 -470 546 -723 864 -123 155 -227 296 -227 309 0 21 175 207 547
580 l413 416 0 484 c0 496 -13 919 -28 946 -11 19 -111 -55 -402 -296 -344
-284 -590 -480 -604 -480 -20 0 -87 39 -324 187 -117 74 -219 136 -226 139 -7
3 -440 -180 -962 -407 -1465 -635 -2033 -874 -2054 -867 -5 2 18 75 51 163
143 382 745 1868 799 1975 l20 40 48 -19 c76 -30 423 -183 942 -416 725 -325
1047 -462 1059 -449 11 11 -38 41 -151 92 -62 28 -363 163 -668 300 -1139 512
-1217 554 -1795 967 -274 196 -535 375 -582 399 l-32 16 -223 -149z m310 30
c166 -84 982 -675 982 -711 0 -52 -160 -204 -710 -675 -785 -672 -980 -832
-980 -802 0 1 9 27 19 57 25 70 96 320 320 1115 98 352 205 731 236 843 32
111 62 202 67 202 5 0 34 -13 66 -29z m-188 -172 c-173 -688 -521 -1872 -592
-2012 -24 -49 -48 -57 -164 -57 -184 0 -1067 100 -1091 124 -25 24 448 1104
479 1094 18 -6 142 -205 368 -593 257 -439 370 -618 370 -581 0 22 -151 295
-355 641 -175 298 -325 580 -325 612 0 16 407 311 900 653 326 226 444 303
448 291 2 -5 -16 -82 -38 -172z m1097 -899 c-103 -270 -664 -1629 -749 -1812
-28 -60 -46 -88 -58 -88 -21 0 -217 157 -535 429 -138 118 -258 222 -268 231
-18 16 10 41 600 547 772 662 1077 917 1081 900 1 -6 -31 -100 -71 -207z
m3852 -972 c0 -296 -2 -538 -6 -538 -15 0 -261 134 -403 220 -189 114 -415
263 -452 298 l-28 26 23 24 c40 44 317 285 587 511 l265 223 6 -114 c4 -62 7
-355 8 -650z m-1691 220 c-203 -287 -2422 -3039 -2478 -3073 -5 -3 -15 6 -21
22 -41 108 -340 1457 -394 1775 -6 37 -6 37 52 66 228 115 2814 1239 2856
1241 5 1 -2 -14 -15 -31z m166 -15 c35 -107 272 -905 337 -1133 94 -329 158
-579 161 -630 l3 -43 -110 -49 c-499 -224 -2928 -1229 -2940 -1216 -12 12
1660 2100 2169 2708 214 256 348 410 357 410 4 0 14 -21 23 -47z m106 22 c273
-138 1390 -826 1390 -856 0 -48 -871 -889 -921 -889 -4 0 -15 21 -23 48 -204
671 -506 1692 -506 1714 0 12 6 10 60 -17z m-5285 -374 c80 -14 422 -56 610
-76 259 -27 410 -47 419 -55 4 -5 -27 -29 -70 -55 -123 -72 -632 -324 -671
-331 -27 -5 -39 -2 -59 16 -36 34 -344 495 -344 515 0 4 12 4 28 1 15 -3 54
-10 87 -15z m7771 -1313 c478 -580 1027 -1308 1009 -1337 -31 -52 -813 -257
-847 -223 -16 16 -65 234 -143 632 -200 1015 -225 1146 -225 1160 1 17 2 16
206 -232z m-319 -55 c-4 -120 -22 -497 -41 -838 -33 -573 -45 -812 -61 -1212
-5 -108 -4 -153 4 -153 6 0 11 6 11 13 0 7 7 91 15 187 8 96 26 364 40 595 60
998 100 1563 110 1573 2 2 6 -16 10 -40 4 -24 79 -401 167 -838 87 -437 162
-811 165 -830 5 -32 -9 -57 -154 -286 -215 -338 -324 -484 -362 -484 -49 0
-328 489 -475 834 -71 166 -73 181 -40 268 109 290 597 1428 612 1428 3 0 2
-98 -1 -217z m-1787 -183 c0 -23 -132 -283 -396 -782 -224 -422 -268 -500
-295 -516 -42 -26 -205 -33 -549 -22 -740 23 -1750 74 -1750 89 0 8 21 17 726
316 929 394 2230 934 2252 935 6 0 12 -9 12 -20z m397 -328 c249 -298 603
-747 603 -764 0 -26 -196 -61 -680 -123 -234 -30 -510 -66 -614 -80 -217 -29
-306 -32 -306 -12 0 35 524 1046 658 1271 l36 59 53 -57 c29 -31 142 -163 250
-294z m824 -1109 c226 -422 370 -715 357 -728 -18 -19 -1993 707 -2063 759
-17 12 -12 15 53 30 169 38 820 134 1157 170 72 8 182 14 247 15 l116 1 133
-247z m-3086 97 c641 -28 990 -51 1066 -71 19 -5 46 -20 59 -34 l24 -26 -23
-117 c-67 -343 -242 -1462 -240 -1537 0 -28 1 -29 9 -7 17 41 67 298 145 738
101 566 156 834 173 834 10 0 26 -43 193 -528 136 -397 444 -1334 514 -1566
23 -76 32 -123 26 -129 -13 -13 -226 -73 -616 -172 -393 -100 -553 -136 -560
-124 -7 11 7 127 55 439 46 303 57 410 41 394 -16 -15 -55 -193 -101 -468 -43
-254 -65 -364 -73 -372 -11 -11 -411 157 -1142 479 -757 333 -865 387 -865
433 0 25 12 33 1140 824 1072 751 1276 900 1251 908 -15 5 -175 -102 -711
-477 -551 -385 -1351 -939 -1575 -1090 -164 -112 -180 -120 -183 -100 -5 28
20 432 58 979 44 608 61 794 74 803 14 11 942 1 1261 -13z m1547 -191 c644
-227 1888 -714 1888 -739 0 -28 -144 -219 -347 -457 -205 -243 -754 -853 -773
-861 -11 -4 -20 308 -20 740 0 319 3 408 13 408 37 1 456 79 427 79 -19 1
-119 -6 -222 -15 -103 -8 -198 -14 -212 -12 -15 2 -174 149 -454 421 -411 398
-507 497 -483 497 6 0 88 -27 183 -61z m2635 -56 c138 -213 213 -357 213 -407
0 -21 -8 -27 -62 -45 -78 -25 -165 -47 -438 -110 -118 -27 -222 -52 -231 -56
-30 -12 -29 11 5 81 52 109 416 644 437 644 4 0 38 -48 76 -107z m-2795 -30
c51 -43 265 -249 476 -458 l382 -380 -115 -565 c-63 -311 -121 -590 -128 -620
l-13 -55 -267 795 c-268 801 -447 1341 -447 1353 0 18 27 1 112 -70z m860
-1418 c6 -288 -5 -581 -22 -618 -9 -19 -35 -39 -72 -58 -63 -32 -96 -37 -104
-15 -7 18 26 211 86 511 69 339 91 431 100 414 4 -8 10 -113 12 -234z m-3396
-319 c144 -70 186 -101 214 -157 21 -41 225 -742 236 -811 5 -29 4 -39 -4 -34
-39 24 -632 1038 -632 1080 0 9 56 -14 186 -78z m437 -191 c46 -19 286 -123
533 -233 247 -110 535 -236 639 -282 105 -45 193 -85 197 -89 4 -3 -46 -70
-111 -149 -138 -166 -599 -682 -610 -682 -4 0 -15 17 -25 38 -37 77 -442 832
-515 959 -95 166 -158 253 -182 253 -11 0 -19 -4 -19 -10 0 -5 -4 -10 -9 -10
-6 0 -6 12 1 31 14 40 4 118 -21 168 -12 22 -21 43 -21 46 0 11 56 -5 143 -40z
m2947 -234 c6 -24 9 -130 8 -268 l-3 -228 -76 170 c-90 199 -103 238 -95 270
8 33 91 95 127 95 24 0 30 -5 39 -39z m-1590 -778 c-13 -152 -42 -304 -64
-338 -13 -19 -36 -27 -153 -49 -76 -14 -192 -35 -258 -45 -66 -11 -107 -19
-92 -20 28 -1 401 24 489 33 l47 5 60 -152 c33 -84 63 -165 67 -181 7 -28 6
-29 -22 -22 -59 14 -364 140 -516 214 -126 60 -158 79 -158 95 0 59 241 365
490 620 l115 119 3 -74 c2 -40 -1 -132 -8 -205z m810 -353 c0 -21 -395 -311
-539 -396 -70 -41 -76 -42 -93 -27 -23 21 -60 120 -56 151 2 20 16 30 78 54
122 49 594 228 603 228 4 0 7 -4 7 -10z m158 -22 c-5 -31 -55 -299 -98 -523
-22 -111 -36 -163 -49 -184 -16 -25 -186 38 -504 189 l-88 41 23 18 c52 40
516 380 561 410 69 47 130 81 146 81 9 0 12 -9 9 -32z m219 -536 c57 -29 67
-51 60 -131 -4 -53 -53 -230 -103 -370 -5 -16 -136 107 -206 193 -38 48 -39
50 -20 68 10 10 81 51 157 91 128 67 165 96 112 89 -12 -2 -68 -25 -125 -52
-119 -57 -149 -62 -158 -25 -12 47 1 137 22 152 31 24 207 13 261 -15z m1196
-369 c8 -16 20 -57 26 -92 15 -78 6 -92 -41 -64 -18 11 -60 37 -92 57 -33 20
-67 36 -75 36 -30 -1 82 -92 329 -267 135 -96 247 -179 249 -185 5 -14 -502
-4 -654 12 -196 21 -252 46 -290 131 -15 31 -15 41 -5 54 7 8 16 15 21 15 15
0 48 -43 54 -71 13 -59 34 -39 125 116 64 107 172 219 249 258 69 34 87 34
104 0z m315 -48 c48 -46 55 -57 46 -72 -15 -26 -55 -43 -130 -56 -36 -7 -65
-17 -64 -22 1 -18 163 -7 282 19 65 14 141 26 169 26 l52 0 -6 -42 c-12 -86
-116 -298 -154 -312 -30 -12 -260 142 -347 233 l-39 40 12 55 c20 88 77 186
108 186 8 0 40 -25 71 -55z m681 -207 c415 -255 1006 -636 998 -644 -5 -5
-188 37 -607 140 -439 108 -737 169 -715 148 22 -21 218 -76 804 -222 384 -96
640 -165 650 -175 2 -3 -4 -15 -15 -26 -63 -71 -1105 -922 -1115 -912 -12 13
-256 773 -324 1008 -34 121 -70 256 -79 300 -16 77 -16 83 2 135 52 150 178
350 221 350 8 0 89 -46 180 -102z m-1692 -5 c7 -19 -65 -91 -102 -103 -75 -25
-133 50 -66 85 63 32 160 43 168 18z m611 -308 c284 -15 502 -31 559 -41 29
-6 34 -12 62 -86 85 -221 371 -1172 357 -1186 -6 -6 -503 478 -941 917 l-410
411 48 0 c26 0 172 -7 325 -15z m483 -908 c242 -254 306 -327 269 -307 -40 21
-757 447 -855 508 -251 156 -435 290 -435 317 0 17 84 329 100 369 l11 30 350
-350 c193 -192 445 -447 560 -567z m2334 168 c279 -152 537 -295 574 -318 78
-48 167 -113 175 -126 10 -15 -91 -28 -634 -76 -782 -69 -1601 -128 -1699
-123 l-65 3 190 160 c196 166 452 378 753 624 96 78 180 140 186 137 7 -2 241
-129 520 -281z m-3092 81 c150 -90 450 -269 667 -399 217 -130 427 -256 465
-281 l70 -45 -50 4 c-340 33 -1167 132 -1498 181 -93 13 -173 24 -178 24 -28
0 11 130 121 405 99 245 112 275 122 275 5 0 131 -74 281 -164z m417 -686
c393 -48 743 -91 778 -95 34 -4 62 -12 62 -18 0 -45 -524 -819 -650 -961 l-26
-28 -161 168 c-296 312 -775 846 -863 964 -22 29 -37 57 -33 63 9 15 112 4
893 -93z m3535 89 c11 -18 -316 -636 -342 -646 -23 -9 -168 16 -428 73 -526
116 -1590 373 -1581 381 5 6 747 72 1531 138 369 30 679 57 690 59 46 8 124 5
130 -5z m-2176 -295 c207 -47 522 -120 701 -161 544 -124 944 -225 929 -233
-44 -25 -993 -212 -1664 -329 -657 -114 -1032 -167 -1050 -149 -26 26 653 958
697 958 6 0 180 -39 387 -86z m1797 -469 c3 -14 1 -53 -5 -87 -6 -35 -22 -145
-36 -245 -13 -99 -29 -203 -35 -229 -15 -68 -46 -133 -66 -141 -60 -23 -2465
188 -2565 226 -22 8 19 16 821 167 380 72 1524 282 1780 327 14 2 42 5 62 6
32 1 39 -3 44 -24z m-1806 -625 c360 -33 779 -72 930 -85 494 -46 669 -69 673
-90 2 -10 -491 -335 -510 -335 -7 0 -287 81 -622 180 -648 191 -1017 294
-1091 304 l-45 6 45 -21 c49 -23 511 -167 1085 -338 547 -164 549 -165 553
-184 7 -35 -34 -137 -143 -352 -108 -216 -265 -495 -310 -551 -21 -27 -23 -27
-47 -12 -159 104 -1552 1512 -1510 1526 5 1 51 -9 103 -23 52 -14 110 -25 129
-25 l35 1 -27 24 c-33 28 -34 32 -10 37 23 5 17 6 762 -62z m-655 -1465 c327
-35 563 -66 658 -87 48 -10 49 -11 43 -40 -24 -123 -283 -578 -376 -662 -40
-36 -55 -41 -85 -29 -31 11 -427 499 -539 662 -62 91 -70 96 304 -149 247
-162 425 -270 443 -270 33 0 -102 102 -423 320 -219 148 -379 267 -380 283 0
10 -9 11 355 -28z m-134 -448 c177 -226 328 -419 336 -428 12 -14 -12 -30
-227 -149 -273 -151 -420 -243 -396 -248 22 -5 112 38 288 136 270 150 328
178 338 162 13 -20 12 -346 -1 -392 -8 -30 -15 -38 -32 -38 -70 0 -598 90
-654 111 l-23 9 0 222 c0 123 7 381 15 573 8 193 15 376 15 408 0 34 4 56 9
52 6 -3 155 -191 332 -418z m948 284 c12 -16 42 -73 68 -126 l47 -97 -25 -19
c-27 -21 -232 -115 -280 -129 l-32 -9 6 44 c7 64 161 365 186 365 6 0 19 -13
30 -29z m-869 -1237 c129 -8 236 -17 238 -19 6 -6 -40 -90 -86 -155 -26 -36
-104 -134 -174 -218 -156 -187 -215 -272 -190 -272 13 0 114 108 214 230 52
63 117 136 143 162 l47 48 30 -18 c37 -21 108 -100 108 -119 0 -25 -56 -69
-194 -154 -162 -101 -295 -172 -363 -194 -29 -9 -55 -21 -58 -26 -4 -5 -17 -9
-30 -9 -32 0 -50 50 -70 191 -12 90 -54 530 -55 573 0 5 43 6 103 2 56 -3 208
-13 337 -22z m267 -581 c-6 -97 -41 -347 -53 -386 -5 -17 -12 -19 -63 -14 -48
4 -406 109 -420 122 -7 8 69 76 141 127 65 47 387 248 396 248 3 0 2 -44 -1
-97z m-335 -393 c132 -34 214 -64 242 -88 10 -9 26 -33 36 -52 18 -37 66 -218
58 -225 -7 -7 -421 328 -462 374 -25 28 -17 27 126 -9z m482 -218 c66 -46 127
-87 135 -93 14 -8 14 -11 -3 -24 -11 -8 -56 -29 -100 -46 -86 -33 -101 -32
-123 12 -10 21 -53 215 -53 241 0 12 0 11 144 -90z"/>
<path d="M8325 14313 c-89 -10 -232 -36 -245 -44 -9 -5 24 -9 87 -9 105 0 276
20 373 44 l55 14 -120 -1 c-66 0 -133 -2 -150 -4z"/>
<path d="M7430 19821 c-332 -118 -1268 -513 -1335 -564 -18 -14 -14 -17 64
-57 267 -134 1131 -464 1155 -440 29 29 322 1064 309 1096 -9 23 -51 16 -193
-35z m81 -243 c-64 -253 -146 -545 -189 -673 l-27 -80 -35 3 c-60 5 -319 98
-664 236 -182 74 -356 145 -386 159 l-55 25 30 11 c17 7 131 54 255 106 600
248 1121 457 1128 451 1 -2 -24 -109 -57 -238z"/>
<path d="M19730 19829 c-115 -9 -363 -62 -397 -85 -33 -21 -68 -101 -87 -199
-15 -75 -141 -859 -153 -952 -6 -48 3 -54 35 -20 33 35 51 99 62 220 22 244
87 699 110 777 35 120 88 154 300 195 78 15 143 25 145 23 7 -7 -395 -756
-492 -915 -42 -71 -53 -103 -33 -103 19 0 120 169 319 533 110 201 222 401
250 446 52 82 57 92 44 90 -5 -1 -51 -5 -103 -10z"/>
<path d="M9284 19421 c-85 -40 -286 -162 -489 -296 -225 -149 -320 -221 -320
-243 0 -33 197 -121 510 -227 77 -27 145 -53 152 -59 6 -6 70 -216 143 -466
151 -523 242 -826 306 -1023 l45 -137 28 19 c16 11 69 64 118 118 125 136 544
615 549 630 5 9 -243 457 -619 1123 -116 205 -316 537 -340 565 l-22 25 -61
-29z m0 -113 c-27 -184 -104 -518 -139 -601 -15 -36 -18 -38 -48 -32 -63 14
-547 177 -553 187 -20 32 334 275 641 439 50 27 93 49 98 49 4 0 4 -19 1 -42z
m355 -428 c355 -621 548 -976 538 -986 -5 -6 -159 103 -352 251 -192 146 -476
350 -517 371 -17 9 -32 14 -34 11 -6 -6 154 -137 360 -295 236 -180 565 -443
594 -474 l23 -25 -76 -99 c-92 -121 -337 -412 -434 -514 -58 -62 -72 -72 -81
-60 -5 8 -34 89 -64 180 -156 473 -376 1267 -376 1355 0 130 89 619 132 729
11 27 12 28 25 10 8 -11 126 -215 262 -454z"/>
<path d="M13890 17375 c-251 -73 -540 -180 -555 -205 -10 -17 68 -85 210 -184
l119 -84 69 62 c80 71 265 278 321 359 23 33 36 62 33 71 -10 25 -69 19 -197
-19z m123 -27 c-56 -74 -203 -248 -264 -312 l-76 -80 -29 18 c-50 32 -233 171
-234 177 0 7 576 207 599 208 9 1 10 -3 4 -11z"/>
<path d="M27860 16518 c0 -55 196 -798 281 -1069 42 -132 59 -167 77 -155 27
16 72 226 72 337 0 93 -70 271 -236 599 -133 264 -194 354 -194 288z m194
-398 c65 -108 136 -252 162 -325 20 -57 31 -290 15 -314 -34 -51 -84 93 -251
728 -13 49 5 28 74 -89z"/>
<path d="M14830 16103 c0 -10 -20 -200 -45 -423 -52 -469 -71 -697 -61 -707 4
-4 30 1 59 11 69 23 416 195 491 242 58 37 58 37 53 77 -16 120 -427 817 -482
817 -8 0 -15 -8 -15 -17z m84 -121 c69 -113 376 -652 376 -660 0 -35 -386
-254 -473 -269 l-37 -6 0 59 c0 72 21 296 60 639 17 143 30 266 30 273 0 23
15 11 44 -36z"/>
<path d="M14562 15613 c-91 -92 -243 -307 -257 -366 -8 -31 8 -35 110 -26 97
9 153 26 181 54 22 22 24 33 24 109 0 92 -13 121 -24 53 -10 -62 -50 -123
-101 -152 -49 -29 -108 -31 -113 -4 -4 24 75 136 150 212 53 53 74 67 97 67
34 0 46 23 36 70 -10 46 -46 40 -103 -17z"/>
<path d="M10139 15253 c-55 -86 -166 -300 -199 -383 -14 -35 -18 -56 -11 -63
20 -20 151 -37 326 -43 113 -3 185 -2 194 5 13 8 10 23 -18 98 -45 117 -164
377 -196 425 -14 21 -30 38 -35 38 -6 0 -33 -35 -61 -77z m130 -135 c66 -138
108 -242 117 -288 l7 -30 -55 0 c-53 0 -359 38 -367 45 -3 4 151 286 196 358
13 20 28 37 33 37 6 0 36 -55 69 -122z"/>
<path d="M28356 15023 c-11 -57 -26 -192 -36 -333 -9 -135 -40 -740 -40 -793
0 -17 -47 -72 -166 -198 -313 -327 -499 -539 -492 -558 3 -10 56 11 478 196
340 150 388 173 435 214 42 38 43 47 15 244 -10 77 -40 314 -65 527 -72 614
-108 806 -129 701z m144 -1186 c12 -82 19 -151 16 -154 -2 -3 -28 16 -55 42
-102 96 -138 223 -127 446 6 125 42 440 53 469 3 8 25 -136 48 -320 24 -184
53 -402 65 -483z m-141 -82 c53 -60 131 -171 131 -185 0 -10 -173 -90 -405
-188 -237 -100 -325 -133 -325 -123 0 19 528 564 541 559 3 -2 30 -30 58 -63z"/>
<path d="M7230 11952 c0 -13 85 -77 224 -167 232 -151 335 -188 464 -167 83
14 122 27 122 42 0 16 -121 69 -352 153 -305 112 -458 159 -458 139z m493
-202 c87 -34 155 -66 151 -71 -14 -23 -151 0 -229 39 -53 26 -135 89 -135 103
0 11 37 -1 213 -71z"/>
<path d="M8210 11592 c0 -33 41 -102 97 -160 29 -31 48 -42 69 -42 39 0 308
90 297 100 -18 15 -405 130 -440 130 -18 0 -23 -6 -23 -28z m250 -84 c30 -11
59 -24 63 -28 14 -12 -83 -40 -140 -40 -58 0 -93 23 -93 60 0 44 62 47 170 8z"/>
<path d="M26930 11442 c0 -35 319 -862 400 -1039 22 -46 47 -86 60 -93 50 -27
230 60 230 112 0 26 -75 150 -278 458 -182 277 -365 540 -392 565 -19 17 -20
17 -20 -3z m254 -402 c82 -116 285 -438 323 -510 18 -36 33 -75 33 -88 0 -26
-32 -59 -84 -87 -47 -26 -52 -20 -114 125 -73 170 -252 646 -252 667 0 21 11
9 94 -107z"/>
<path d="M23086 10503 c-8 -49 -8 -261 0 -290 4 -14 14 -23 26 -23 36 0 138
63 138 86 0 18 -95 205 -120 237 -29 36 -36 34 -44 -10z m84 -145 c33 -59 38
-93 14 -102 -33 -13 -54 22 -54 91 0 34 2 63 5 63 2 0 18 -24 35 -52z"/>
<path d="M26614 10292 c-74 -59 -248 -215 -493 -443 -204 -189 -219 -205 -203
-220 30 -28 512 -379 641 -467 l126 -85 8 34 c12 45 12 1065 1 1148 -5 35 -14
66 -20 68 -6 2 -33 -14 -60 -35z m38 -679 c2 -232 0 -424 -4 -428 -15 -15
-195 104 -478 315 -110 82 -200 153 -199 157 0 5 53 54 117 110 64 56 214 190
332 296 l215 194 7 -111 c3 -61 8 -301 10 -533z"/>
<path d="M24580 10101 c0 -14 135 -193 310 -411 86 -107 245 -306 352 -441
108 -136 201 -249 206 -253 33 -20 32 85 -2 286 -34 199 -52 243 -130 316 -87
81 -370 284 -463 331 -111 56 -4 -41 244 -221 161 -117 234 -182 259 -230 30
-57 67 -328 46 -328 -38 0 -632 758 -632 806 0 32 -135 154 -171 154 -10 0
-19 -4 -19 -9z"/>
<path d="M26980 9591 c-22 -84 -42 -244 -47 -395 l-6 -159 29 7 c40 10 185
102 246 156 50 45 51 46 39 81 -12 37 -123 226 -178 304 -42 58 -68 60 -83 6z
m151 -196 c27 -55 49 -109 49 -121 0 -26 -39 -63 -114 -108 -71 -43 -82 -44
-88 -11 -10 50 28 345 49 378 11 18 57 -42 104 -138z"/>
<path d="M28144 9438 c-9 -14 82 -101 302 -287 136 -115 587 -488 619 -512 10
-7 457 -41 733 -55 115 -6 132 -5 132 8 0 22 -329 322 -599 547 -117 97 -142
113 -201 131 -96 29 -312 71 -625 123 -360 60 -352 59 -361 45z m510 -113
c242 -41 445 -81 454 -90 15 -14 -65 -446 -86 -467 -28 -28 -712 540 -712 591
0 19 75 11 344 -34z m683 -253 c188 -157 502 -436 498 -441 -5 -5 -293 17
-465 35 -159 17 -238 31 -257 46 -23 18 -14 137 22 313 19 93 35 170 35 172 0
12 34 -13 167 -125z"/>
<path d="M25797 8943 c-42 -41 123 -122 383 -189 140 -36 294 -53 364 -40 21
4 36 9 34 11 -2 2 -76 13 -165 25 -221 28 -360 65 -371 98 -13 39 513 -16 618
-66 47 -22 71 -26 181 -30 141 -5 222 3 216 21 -9 30 -250 69 -727 117 -168
16 -350 37 -404 45 -113 17 -120 18 -129 8z"/>
<path d="M29175 8414 c-25 -38 -59 -135 -136 -382 -65 -210 -119 -352 -134
-352 -4 0 -163 152 -353 339 -191 186 -364 353 -384 370 l-37 32 -383 -272
c-818 -582 -994 -689 -1388 -838 l-205 -77 3 -30 c59 -675 137 -1385 158
-1438 9 -24 -125 -58 1103 274 400 108 414 111 431 93 9 -10 165 -193 345
-408 533 -633 684 -805 704 -805 18 0 262 127 338 176 80 51 140 119 210 236
123 206 521 1021 578 1185 18 50 18 53 0 100 -136 365 -795 1823 -824 1823 -5
0 -16 -12 -26 -26z m96 -201 c116 -245 600 -1314 666 -1473 l15 -35 -39 36
c-21 19 -141 130 -268 245 -126 114 -332 310 -457 434 l-228 225 86 275 c77
248 142 420 159 420 3 0 33 -57 66 -127z m-986 7 c39 -35 331 -317 650 -625
319 -309 656 -633 748 -721 177 -167 247 -245 247 -275 0 -11 -12 -21 -32 -28
-43 -14 -730 -139 -1348 -245 -576 -98 -614 -105 -618 -102 -5 5 130 193 418
581 478 645 559 759 547 772 -4 3 -8 4 -10 2 -2 -2 -25 -31 -53 -64 -74 -89
-189 -238 -504 -655 -336 -445 -421 -553 -427 -546 -17 17 211 1817 253 1995
l5 24 27 -24 c15 -13 59 -53 97 -89z m-215 5 c0 -223 -190 -1681 -250 -1919
-17 -66 -32 -121 -33 -121 -1 -1 -308 -84 -682 -184 -374 -100 -687 -184 -696
-187 -12 -3 -22 21 -47 123 -39 159 -45 190 -82 493 -41 341 -62 580 -58 680
l3 85 55 27 c120 59 443 169 456 155 9 -8 -34 -175 -148 -577 -87 -309 -189
-697 -203 -773 -4 -26 -3 -37 4 -33 12 8 63 163 131 406 216 765 259 913 273
926 14 14 55 -14 128 -88 84 -85 156 -170 450 -523 300 -362 409 -480 409
-446 0 18 -271 362 -601 761 -152 185 -309 386 -309 397 0 63 1099 840 1193
843 4 0 7 -20 7 -45z m1920 -1705 c0 -5 -70 -155 -156 -332 -290 -601 -467
-918 -512 -918 -9 0 -48 19 -86 42 -189 112 -1306 836 -1306 846 0 10 1599
308 1879 351 147 22 181 25 181 11z m-1441 -825 c526 -336 724 -470 729 -495
1 -9 -20 -30 -54 -53 -70 -45 -332 -179 -344 -175 -9 4 -741 885 -833 1003
-52 67 -57 77 -31 60 17 -11 256 -164 533 -340z"/>
<path d="M19970 8299 c-153 -117 -550 -456 -550 -470 0 -4 92 -94 205 -200
179 -168 203 -195 192 -208 -8 -9 -76 -96 -152 -194 -76 -97 -139 -176 -141
-174 -4 3 -25 285 -41 527 l-8 125 -6 -140 c-4 -77 -7 -250 -7 -385 l-1 -245
45 50 c65 72 244 283 282 332 18 23 43 66 56 96 52 116 165 518 217 771 33
159 35 186 15 186 -7 0 -55 -32 -106 -71z m54 -66 c-20 -119 -164 -713 -173
-713 -3 0 -55 42 -116 92 -119 100 -225 205 -225 223 0 22 190 190 400 353 57
45 108 82 113 82 4 0 5 -17 1 -37z"/>
<path d="M31769 5203 c-45 -114 -149 -660 -149 -781 0 -42 1 -43 21 -29 40 29
297 324 398 457 22 30 41 62 41 70 0 20 -118 169 -196 248 -69 69 -98 78 -115
35z m108 -85 c22 -24 68 -78 102 -122 55 -69 60 -80 48 -95 -8 -9 -63 -74
-123 -146 -60 -71 -134 -154 -164 -185 l-55 -55 -3 33 c-8 79 120 612 147 612
4 0 25 -19 48 -42z"/>
<path d="M28762 4703 c-24 -111 -21 -348 5 -374 6 -6 20 -8 31 -5 24 8 110
118 210 268 60 89 69 108 54 112 -30 9 -245 46 -268 46 -18 0 -24 -8 -32 -47z
m149 -13 c46 -24 56 -42 43 -77 -10 -27 -145 -202 -156 -203 -9 0 -10 169 -2
222 7 40 36 78 60 78 8 0 33 -9 55 -20z"/>
<path d="M31235 4308 c-427 -538 -643 -824 -630 -836 13 -13 205 144 618 505
147 129 267 239 267 243 0 14 -122 240 -129 240 -3 -1 -60 -69 -126 -152z
m152 10 c31 -29 29 -67 -6 -116 -24 -33 -372 -352 -510 -468 -46 -38 -33 -15
66 118 181 243 355 453 392 473 33 18 31 19 58 -7z"/>
</g>
</svg>
