<?xml version="1.0" standalone="no"?>
<!DOCTYPE svg PUBLIC "-//W3C//DTD SVG 20010904//EN"
 "http://www.w3.org/TR/2001/REC-SVG-20010904/DTD/svg10.dtd">
<svg version="1.0" xmlns="http://www.w3.org/2000/svg"
 width="2650.000000pt" height="3473.000000pt" viewBox="0 0 2650.000000 3473.000000"
 preserveAspectRatio="xMidYMid meet">

<g transform="translate(0.000000,3473.000000) scale(0.100000,-0.100000)"
fill="#000000" stroke="none">
<path d="M7151 28066 c-6 -7 -9 -20 -6 -28 5 -12 41 -16 188 -21 100 -4 254
-13 342 -21 213 -20 706 -64 775 -70 131 -12 284 -18 278 -11 -11 12 -188 33
-716 85 -279 28 -561 57 -627 65 -151 19 -219 19 -234 1z"/>
<path d="M16740 27977 c143 -137 702 -602 812 -674 23 -15 44 -22 56 -19 25 8
96 104 138 188 36 72 41 99 22 116 -19 15 -630 286 -873 387 -89 37 -223 85
-234 85 -3 -1 32 -38 79 -83z m410 -154 c250 -103 537 -243 568 -275 l22 -25
-39 -59 c-21 -32 -59 -81 -84 -109 l-45 -50 -29 26 c-15 14 -113 99 -218 189
-259 224 -455 400 -455 411 0 4 17 1 38 -7 20 -9 129 -54 242 -101z"/>
<path d="M10485 28028 c-78 -28 -381 -149 -622 -249 -148 -61 -293 -122 -323
-134 -209 -86 -1301 -555 -1545 -663 -98 -44 -181 -85 -183 -91 -9 -26 256
-272 508 -474 69 -55 131 -106 139 -112 14 -14 16 -38 46 -620 8 -165 19 -381
25 -480 6 -99 19 -346 30 -550 11 -203 22 -401 25 -440 24 -337 37 -481 45
-489 11 -11 79 30 405 247 850 565 1493 1030 1587 1148 32 40 39 59 433 1299
128 404 247 777 263 828 l30 92 -261 250 c-275 261 -387 360 -474 416 -54 35
-78 39 -128 22z m143 -75 c101 -89 461 -425 514 -479 46 -49 98 -120 98 -134
0 -5 -33 -22 -72 -38 -197 -82 -1469 -545 -2138 -780 -340 -119 -333 -117
-329 -104 11 29 1021 907 1544 1342 116 96 230 191 255 212 25 20 49 37 54 38
5 0 38 -26 74 -57z m-268 -35 c-30 -28 -307 -268 -615 -532 -860 -737 -1114
-968 -1102 -1000 7 -18 -6 -21 -33 -6 -14 7 -31 6 -61 -4 -40 -14 -45 -13 -89
9 -114 58 -580 439 -580 474 0 30 770 371 2200 975 151 64 284 120 295 126 42
19 38 7 -15 -42z m904 -675 c-31 -124 -262 -876 -391 -1268 -190 -579 -289
-843 -336 -894 -64 -69 -1843 -1321 -1877 -1321 -11 0 -17 68 -35 420 -8 162
-17 333 -20 380 -3 47 -12 218 -20 380 -48 955 -63 1295 -59 1299 7 7 384
-203 954 -532 696 -402 1038 -593 1046 -584 10 9 -422 269 -991 597 -749 431
-975 568 -975 589 0 6 19 15 43 21 86 23 525 178 1507 535 278 101 564 205
635 230 266 97 491 174 508 174 14 1 16 -4 11 -26z"/>
<path d="M7180 27947 c0 -88 125 -799 186 -1059 21 -88 29 -108 44 -108 18 0
159 82 315 185 213 140 794 548 1044 732 335 249 66 84 -433 -266 -625 -437
-915 -635 -921 -629 -3 4 -73 384 -130 713 -54 306 -83 446 -96 460 -5 5 -9
-5 -9 -28z"/>
<path d="M7027 27885 c-96 -122 -484 -677 -596 -853 l-33 -52 28 -43 c16 -23
157 -172 314 -330 331 -336 291 -329 310 -54 6 95 13 192 15 217 11 138 27
1072 19 1120 l-9 55 -48 -60z m14 -357 c-2 -518 -27 -1108 -48 -1108 -16 0
-115 91 -329 303 l-242 239 160 232 c89 127 201 290 251 361 121 174 198 277
204 271 3 -3 5 -137 4 -298z"/>
<path d="M8840 27895 c0 -12 107 -55 138 -55 24 0 32 4 32 18 0 33 -22 42 -97
42 -40 0 -73 -2 -73 -5z"/>
<path d="M20375 27716 c-192 -82 -338 -154 -374 -183 l-24 -19 34 -20 c82 -49
465 -201 477 -190 6 7 43 259 39 271 -2 5 -14 -24 -26 -65 -40 -135 -38 -133
-86 -127 -23 4 -64 14 -91 23 -78 26 -263 105 -270 115 -12 19 343 167 422
176 46 5 53 3 63 -16 21 -37 31 -23 31 44 0 45 -4 65 -12 65 -7 0 -89 -33
-183 -74z"/>
<path d="M18585 27225 c-11 -7 -121 -78 -245 -157 -269 -173 -1127 -743 -1153
-766 -11 -9 -108 -147 -216 -307 -237 -348 -263 -385 -270 -385 -12 0 -140
116 -268 243 -73 72 -135 128 -137 126 -3 -3 -1 -119 4 -259 5 -140 11 -346
14 -457 l5 -202 -122 -62 c-67 -34 -239 -122 -382 -197 -143 -74 -323 -167
-400 -207 -349 -181 -766 -387 -772 -381 -4 4 14 46 39 94 168 319 155 289
133 311 -11 11 -83 48 -160 82 -167 74 -1035 436 -1084 452 l-34 11 -143 -147
c-79 -81 -212 -234 -297 -340 -329 -411 -747 -990 -747 -1034 0 -19 104 -139
318 -367 278 -294 332 -336 375 -288 27 30 104 202 345 772 123 292 185 423
192 408 28 -51 80 -836 80 -1215 l0 -162 -32 -6 c-152 -25 -507 -67 -610 -72
-149 -7 -168 0 -200 75 -61 142 -89 192 -108 192 -13 0 -45 -35 -97 -106 -174
-237 -219 -289 -333 -387 -167 -145 -510 -459 -510 -468 0 -4 19 -31 43 -61
66 -82 84 -110 97 -153 10 -35 9 -49 -10 -105 -31 -92 -55 -128 -95 -139 -37
-10 -227 8 -379 35 -105 20 -102 22 -112 -85 -7 -83 2 -509 12 -554 9 -37 24
-44 160 -67 268 -46 323 -44 381 12 57 54 156 185 237 315 117 185 167 224
470 363 l150 69 65 -51 c259 -201 347 -295 462 -491 19 -32 44 -68 56 -79 22
-21 23 -21 44 -2 25 22 149 184 148 193 0 3 -91 89 -201 191 -203 188 -308
300 -308 331 0 21 16 33 63 49 34 11 41 10 59 -7 42 -37 197 -223 347 -417
173 -223 217 -271 268 -293 77 -32 123 7 434 357 178 201 408 426 452 444 47
20 270 36 737 56 135 5 310 12 389 16 l144 6 -263 -270 -264 -270 -285 193
c-284 191 -398 262 -407 253 -4 -5 101 -84 360 -270 165 -119 266 -212 266
-244 0 -71 -330 -724 -366 -724 -16 0 -180 122 -364 271 -153 123 -275 242
-266 258 9 13 185 52 499 111 321 60 465 94 422 98 -88 10 -994 -164 -1029
-198 -9 -9 132 -128 476 -400 l247 -194 -41 -36 c-97 -83 -186 -151 -231 -176
-48 -26 -49 -26 -150 -15 -315 36 -1282 162 -1415 185 -133 23 -138 29 -166
217 -17 117 -25 134 -73 150 -49 16 -142 8 -503 -40 -354 -48 -565 -84 -674
-112 -70 -19 -87 -28 -127 -68 -66 -69 -288 -347 -597 -751 l-272 -355 0 -451
0 -451 178 -169 c97 -93 266 -252 375 -353 l199 -184 445 111 445 112 263
-160 262 -160 88 -283 c48 -155 132 -423 186 -595 55 -172 99 -318 99 -326 0
-7 -50 -113 -110 -235 l-110 -223 14 -46 c19 -63 397 -1170 477 -1394 l63
-178 47 0 c68 0 199 29 519 116 157 42 292 79 300 81 8 3 78 140 154 306 191
415 317 670 365 744 56 87 104 137 261 273 164 143 266 247 285 293 18 44 12
93 -65 492 -16 83 -34 195 -40 249 -9 87 -8 102 6 125 21 33 249 297 481 558
223 251 451 516 533 618 l63 80 -36 7 c-30 6 -322 30 -649 54 l-86 6 -110 181
c-60 100 -235 391 -389 647 -308 511 -436 735 -431 750 5 17 130 -62 185 -117
69 -70 175 -231 323 -493 349 -615 504 -870 528 -870 18 0 54 19 237 128 392
233 962 598 951 609 -7 8 -104 -48 -386 -220 -489 -300 -765 -457 -803 -457
-9 0 -29 19 -46 43 -59 87 -278 483 -483 877 -86 165 -150 309 -145 324 4 10
31 5 119 -25 133 -44 235 -74 698 -204 190 -53 509 -144 710 -202 201 -58 377
-108 393 -111 57 -9 33 30 -194 319 l-141 179 -82 -68 c-44 -37 -115 -95 -156
-129 l-75 -62 -113 172 c-127 192 -202 316 -202 333 0 13 85 -8 400 -101 199
-58 235 -69 685 -205 536 -163 589 -180 596 -187 6 -7 547 -933 744 -1275 44
-76 82 -138 85 -138 3 0 149 217 325 481 351 527 477 705 556 787 l53 54 100
-6 c288 -20 1256 -114 1353 -132 31 -6 31 -7 42 -87 42 -320 75 -827 53 -827
-31 0 -1106 740 -1390 957 -78 59 -112 75 -112 53 0 -13 107 -97 285 -225 156
-112 242 -179 262 -205 13 -17 169 -352 298 -640 164 -365 242 -535 294 -635
l52 -100 -6 55 c-7 60 -73 370 -130 605 -65 269 -94 427 -78 421 7 -3 117 -75
242 -160 247 -167 326 -212 337 -195 7 12 0 145 -27 469 -10 129 -22 301 -26
381 l-6 147 39 24 c21 14 140 82 264 152 596 339 775 448 778 477 6 54 -73
255 -288 729 -111 245 -220 501 -220 518 0 12 196 114 319 167 l80 34 215
-293 c119 -161 221 -298 229 -304 7 -6 18 -7 26 -3 23 15 4 55 -59 125 -135
149 -390 501 -374 516 17 15 323 170 338 170 9 0 17 -20 25 -62 14 -82 31
-275 31 -363 0 -49 3 -65 10 -55 6 9 10 128 10 284 l0 269 142 241 c269 458
388 669 388 690 0 58 -144 230 -547 653 l-152 160 91 109 c50 60 251 305 446
544 433 530 728 885 803 964 l55 59 42 -164 c53 -205 83 -336 178 -759 176
-791 251 -1090 273 -1090 4 0 24 100 45 223 21 122 82 472 137 777 123 684
212 1206 241 1407 l22 151 -22 114 c-12 63 -45 195 -72 293 -28 98 -47 182
-43 186 4 4 85 35 179 68 185 64 266 99 271 117 5 16 -149 126 -421 304 l-218
143 -137 -7 c-75 -4 -158 -9 -186 -12 -27 -2 -167 -11 -310 -19 -143 -9 -359
-22 -480 -30 -121 -8 -350 -21 -510 -30 l-290 -17 -290 -68 c-159 -38 -443
-105 -630 -150 -861 -205 -966 -230 -981 -230 -15 0 -211 110 -504 283 -74 44
-142 80 -150 79 -26 -1 -190 -67 -648 -259 -244 -102 -444 -184 -446 -182 -4
6 -63 425 -81 574 -22 186 -35 255 -49 254 -6 0 -20 -6 -31 -14z m18 -87 c16
-64 66 -460 83 -650 7 -75 6 -77 -17 -82 -23 -5 -298 -22 -734 -46 -303 -17
-605 -26 -605 -18 0 29 1210 818 1256 818 6 0 14 -10 17 -22z m5695 -172 c7
-21 50 -176 96 -345 94 -341 148 -575 173 -740 16 -103 15 -118 -1 -238 -57
-415 -327 -1894 -387 -2116 -15 -57 -21 -44 -78 195 -67 273 -351 1558 -351
1584 0 43 72 89 432 275 297 154 361 189 354 196 -6 6 -136 -52 -331 -150
-194 -96 -314 -150 -420 -188 l-80 -28 -23 22 c-79 74 -1122 1371 -1111 1382
8 7 540 -251 1234 -597 585 -291 801 -393 730 -344 -28 19 -522 274 -1030 531
-469 237 -925 473 -939 486 -4 4 11 10 35 13 140 19 1165 85 1544 99 143 6
138 7 153 -37z m208 -92 c208 -129 316 -200 348 -230 l28 -27 -21 -16 c-45
-34 -286 -111 -347 -111 -28 0 -34 5 -52 48 -18 43 -112 387 -112 412 0 19 16
11 156 -76z m-2110 -21 c7 -35 -1 -392 -11 -553 -3 -41 -10 -174 -15 -295 -15
-328 -39 -827 -50 -1025 -5 -97 -19 -376 -30 -620 -12 -245 -24 -490 -28 -545
l-7 -100 -29 -2 c-17 -1 -42 -15 -60 -32 -72 -70 -214 -93 -1266 -211 -1486
-167 -2629 -275 -2653 -251 -17 17 334 656 570 1036 114 183 96 168 180 151
39 -9 262 -63 495 -121 643 -161 905 -221 916 -210 3 2 -1 7 -9 9 -154 49
-629 175 -1214 322 -148 37 -273 70 -276 73 -4 3 -19 150 -33 326 -15 176 -36
419 -46 540 -31 348 -70 854 -70 913 l0 53 148 -112 c282 -216 1300 -1006
1797 -1394 543 -425 1082 -843 1294 -1003 127 -96 164 -115 141 -72 -17 31
-13 42 11 30 11 -6 25 -10 30 -8 14 5 -125 232 -813 1333 -283 454 -677 1091
-792 1283 -22 36 -35 67 -30 72 16 16 246 77 614 164 201 48 547 131 770 185
223 54 417 99 432 100 24 1 28 -4 34 -36z m446 -458 c572 -695 833 -1015 836
-1029 3 -14 -572 -725 -1132 -1399 l-231 -278 -3 58 c-5 79 29 873 73 1743 15
291 35 737 46 1010 7 168 16 316 21 329 8 21 11 22 22 10 7 -8 173 -207 368
-444z m-2704 245 c194 -110 250 -146 235 -152 -10 -4 -272 -21 -583 -38 -750
-41 -876 -45 -883 -33 -9 14 308 153 655 287 176 67 241 86 288 83 24 -2 117
-49 288 -147z m782 -907 c803 -1286 1197 -1933 1174 -1933 -46 0 -2509 1915
-3152 2450 -93 78 -109 96 -94 101 11 4 88 12 173 18 85 6 181 13 214 16 194
14 880 41 1100 43 l150 1 435 -696z m-2330 613 c0 -7 -165 -103 -500 -291
-305 -172 -402 -226 -1234 -689 -214 -119 -393 -215 -399 -213 -10 3 120 198
529 797 l229 335 165 7 c91 3 282 14 425 23 143 9 321 20 395 24 150 9 390 13
390 7z m107 -67 c6 -20 17 -72 22 -115 29 -215 105 -1180 118 -1492 l6 -162
-34 6 c-301 52 -1459 316 -2079 474 -286 72 -280 71 -280 79 1 14 855 503
1640 939 500 277 564 311 580 309 8 -1 20 -19 27 -38z m-2144 -622 l108 -115
-84 -120 c-115 -168 -176 -244 -190 -239 -32 10 -40 79 -44 392 l-4 310 53
-57 c29 -31 101 -108 161 -171z m-3014 -752 c22 -261 36 -525 30 -523 -4 2
-94 88 -200 192 l-192 189 168 165 c143 142 169 163 175 147 4 -11 13 -87 19
-170z m610 -401 c266 -272 345 -360 338 -378 -7 -19 -175 -152 -467 -373 -246
-185 -308 -229 -316 -221 -15 15 -97 917 -130 1438 l-7 105 188 -180 c103 -99
280 -275 394 -391z m51 348 c351 -145 542 -230 558 -245 16 -17 3 -56 -68
-197 -78 -156 -136 -243 -156 -232 -55 30 -874 858 -874 882 0 11 207 -69 540
-208z m2096 113 c3 -13 -4 -102 -16 -197 -99 -784 -315 -2374 -351 -2583 -6
-33 -13 -64 -16 -68 -25 -40 -299 366 -1051 1558 -118 187 -227 361 -243 386
-16 25 -29 50 -29 55 0 5 44 31 98 58 53 28 162 84 242 126 80 42 213 112 295
155 83 43 191 99 240 125 289 151 361 189 569 294 126 64 235 116 243 116 7 0
15 -11 19 -25z m505 -412 c816 -841 1316 -1378 1306 -1406 -1 -5 -59 -38 -127
-73 -69 -36 -204 -106 -300 -156 -96 -50 -211 -110 -255 -133 -237 -126 -1033
-539 -1233 -639 -214 -107 -232 -114 -232 -93 0 30 48 403 105 812 75 539 110
797 215 1580 51 379 80 545 94 545 1 0 194 -197 427 -437z m-210 417 c305 -63
2178 -503 2237 -525 16 -6 -111 -256 -381 -755 -220 -406 -260 -474 -278 -478
-15 -3 -393 373 -720 718 -786 829 -969 1028 -969 1054 0 9 8 8 111 -14z
m-3376 -329 c53 -33 366 -323 362 -335 -19 -48 -306 -728 -350 -829 -67 -155
-110 -232 -128 -232 -19 0 -26 122 -17 280 9 160 38 551 43 595 8 60 18 505
12 500 -6 -6 -29 -220 -42 -390 -3 -41 -7 -100 -10 -130 -2 -30 -7 -93 -10
-140 -46 -720 -58 -862 -75 -890 -18 -30 -66 5 -241 177 -172 170 -304 313
-342 373 l-17 28 81 123 c172 261 601 845 640 873 31 21 57 20 94 -3z m1408
-681 c293 -432 1205 -1866 1193 -1877 -5 -6 -426 268 -1031 672 -647 432
-1021 697 -1032 731 -4 12 109 103 394 317 284 213 380 270 412 244 7 -6 36
-45 64 -87z m7593 -432 c9 -10 -7 -65 -383 -1263 -102 -324 -204 -651 -227
-725 l-42 -135 -270 3 c-452 5 -1486 28 -2304 52 -689 20 -770 23 -770 29 0 3
141 78 312 166 421 215 704 361 938 482 671 347 1167 600 1765 903 479 243
802 414 841 446 l29 24 -60 -26 c-82 -35 -1049 -522 -1610 -810 -1467 -752
-2207 -1124 -2269 -1140 l-29 -7 6 359 c7 355 20 796 33 1091 l6 152 67 10
c122 20 1703 194 3016 332 105 10 282 30 395 43 203 24 537 32 556 14z m728
-650 l38 -48 -73 -132 c-172 -314 -437 -744 -449 -731 -9 9 -31 195 -60 523
-28 314 -68 712 -85 860 -25 214 -56 227 288 -120 166 -168 320 -326 341 -352z
m-654 314 c52 -474 92 -932 97 -1092 l5 -175 -29 -55 c-21 -41 -42 -64 -83
-91 -47 -32 -630 -329 -644 -329 -16 0 199 704 466 1525 143 440 149 456 159
427 5 -12 18 -106 29 -210z m-8403 110 c160 -103 332 -215 673 -439 406 -267
1063 -715 1100 -749 24 -23 -1227 409 -1777 613 l-152 57 -5 35 c-3 20 -11
150 -17 290 -9 227 -8 301 6 301 2 0 80 -49 172 -108z m4234 -338 c10 -174
-18 -1221 -37 -1411 -4 -35 -11 -63 -16 -63 -31 0 -943 214 -1508 354 -490
122 -510 127 -510 135 0 35 2014 1121 2054 1108 7 -2 13 -50 17 -123z m-5361
-156 c22 -44 40 -87 40 -95 0 -20 -53 -40 -143 -52 -95 -13 -157 -14 -157 -2
0 11 124 178 163 218 38 41 44 36 97 -69z m865 -88 c4 -6 -2 -25 -13 -43 -29
-49 -455 -722 -473 -748 l-16 -23 -34 22 c-57 35 -212 203 -400 432 -124 151
-172 222 -157 231 31 17 520 91 813 124 150 16 272 18 280 5z m490 -371 c212
-210 385 -385 385 -388 0 -9 -271 -38 -465 -51 -82 -6 -179 -12 -215 -15 -129
-9 -587 -18 -613 -11 -15 3 -27 10 -27 14 0 21 426 692 507 800 13 17 28 32
33 32 5 0 183 -172 395 -381z m265 163 c271 -96 733 -261 915 -327 116 -42
275 -100 355 -128 l145 -51 -45 -8 c-25 -3 -198 -14 -385 -22 -187 -9 -443
-21 -568 -27 l-229 -12 -264 264 c-242 241 -454 466 -462 489 -3 8 216 -64
538 -178z m-1795 -89 c179 -208 318 -373 380 -453 l57 -75 -31 -3 c-18 -2
-116 6 -219 18 -234 26 -913 117 -918 123 -3 2 62 67 144 143 310 291 411 374
456 374 14 0 57 -42 131 -127z m-267 -494 c336 -47 654 -98 661 -104 2 -3 2
-7 0 -9 -13 -12 -229 -114 -469 -223 l-275 -124 -28 33 c-39 45 -292 390 -307
417 -34 64 26 66 418 10z m3820 -23 c75 -19 364 -89 642 -156 787 -189 1155
-283 1173 -300 5 -4 -60 -31 -145 -58 -401 -133 -1275 -402 -1303 -402 -13 0
-108 166 -379 666 -151 280 -153 284 -137 284 7 0 74 -16 149 -34z m-45 -277
c179 -321 327 -597 327 -610 0 -15 -282 89 -343 128 -56 35 -102 116 -217 385
l-104 240 77 75 c42 41 82 73 89 71 7 -2 84 -132 171 -289z m-1593 260 c0 -30
-317 -385 -593 -666 -77 -79 -143 -143 -147 -143 -16 0 -213 237 -416 501
-130 168 -170 227 -160 236 10 10 160 22 481 39 171 9 384 22 475 29 227 17
360 18 360 4z m-1588 -186 c45 -53 137 -237 125 -250 -21 -21 -237 178 -237
219 0 11 61 48 81 48 9 0 23 -8 31 -17z m2842 -25 c56 -96 206 -472 193 -484
-8 -8 -514 179 -531 196 -5 5 7 29 30 57 62 78 256 273 270 273 7 0 24 -19 38
-42z m-3735 2 c38 -38 155 -200 149 -206 -7 -6 -206 35 -245 51 -25 11 -33 20
-33 40 0 27 32 98 58 128 21 24 36 21 71 -13z m1317 -390 c36 -41 67 -85 70
-97 11 -43 -55 -111 -94 -99 -12 4 -46 57 -87 134 -61 112 -121 219 -196 347
-19 32 4 14 110 -85 73 -69 162 -159 197 -200z m-1776 244 c69 -7 419 -68 523
-90 57 -13 77 -21 77 -33 0 -22 -69 -145 -144 -260 -61 -91 -185 -250 -196
-250 -3 0 -72 101 -154 225 -175 267 -268 393 -274 376 -7 -21 119 -219 294
-464 46 -64 84 -121 84 -127 0 -26 -255 -2 -331 30 -86 38 -84 29 -84 298 0
130 3 248 8 263 8 32 52 49 107 43 19 -2 60 -7 90 -11z m8003 -124 c641 -13
1925 -54 1933 -63 2 -2 -88 -77 -199 -167 -1089 -889 -1759 -1441 -1786 -1473
-8 -10 -9 -17 -3 -17 17 0 180 126 497 385 717 585 1323 1075 1462 1184 l43
33 -6 -34 c-16 -86 -102 -402 -182 -673 -50 -165 -118 -397 -151 -515 -83
-289 -151 -502 -164 -519 -28 -34 -908 26 -1377 95 -147 21 -162 28 -212 87
-202 239 -1248 1648 -1248 1681 0 10 832 7 1393 -4z m-1508 -20 c7 -11 -47
-299 -184 -980 -115 -571 -119 -590 -137 -590 -45 0 -119 64 -523 453 -355
343 -654 652 -648 671 2 6 32 21 68 33 179 63 1133 359 1309 406 66 18 107 21
115 7z m172 -147 c216 -277 713 -950 1031 -1398 l121 -170 -62 -3 c-57 -4
-575 12 -782 23 -49 3 -182 10 -295 16 -343 17 -433 30 -446 64 -3 8 8 79 25
157 37 175 101 497 176 883 31 160 64 333 74 385 17 86 43 170 54 170 2 0 49
-57 104 -127z m-2704 62 c74 -30 249 -97 391 -149 392 -146 481 -186 459 -207
-4 -4 -71 -22 -148 -39 -334 -76 -1010 -258 -1130 -304 l-40 -16 45 6 c55 7
505 113 800 188 282 72 445 108 471 104 19 -3 15 -13 -48 -108 -87 -132 -268
-372 -330 -440 l-48 -51 -128 35 c-259 72 -756 234 -782 256 -15 12 -5 70 25
150 39 103 304 630 316 630 7 0 73 -25 147 -55z m6236 -364 c175 -378 336
-744 346 -783 6 -23 -1 -29 -87 -78 -366 -209 -921 -522 -933 -527 -9 -3 -15
1 -15 10 0 17 263 941 320 1122 10 33 53 177 95 320 73 246 87 285 105 285 4
0 80 -157 169 -349z m-5147 -134 c285 -258 927 -910 972 -987 l19 -33 -29 5
c-16 3 -153 43 -304 90 -151 47 -374 116 -495 153 -602 184 -738 228 -742 241
-11 33 431 624 467 624 5 0 55 -42 112 -93z m-3779 35 c21 -23 47 -146 47
-224 l0 -60 -62 7 c-35 3 -202 26 -373 50 -170 24 -354 49 -407 55 -275 29
-136 -12 217 -65 200 -30 465 -79 465 -86 0 -16 -1091 -258 -1457 -323 -46 -8
-43 6 18 100 112 171 255 341 311 370 15 8 66 18 113 23 49 5 95 15 110 25 34
22 153 48 400 86 400 62 588 75 618 42z m2841 -519 c129 -41 170 -62 154 -78
-12 -13 -528 -131 -673 -154 -38 -6 -82 -14 -96 -17 -19 -4 -28 0 -33 12 -7
20 -56 391 -56 428 0 23 4 22 278 -60 152 -46 344 -105 426 -131z m-2671 172
c33 -6 415 -59 722 -100 579 -77 804 -119 898 -167 53 -28 60 -29 74 -15 15
14 15 18 -1 42 -24 36 -15 66 35 115 40 39 143 114 173 126 7 3 16 -2 20 -12
8 -21 58 -405 53 -410 -2 -2 -30 16 -63 39 -109 79 -135 92 -186 88 -30 -2
-21 -39 35 -156 66 -135 164 -307 407 -710 284 -473 427 -733 417 -760 -6 -14
0 -12 -547 -150 -372 -93 -620 -153 -1235 -299 -505 -120 -865 -197 -865 -186
0 16 335 490 730 1035 561 774 901 1255 887 1255 -13 0 -177 -221 -957 -1285
-253 -345 -691 -934 -718 -965 -14 -16 -12 265 8 1015 24 869 30 1097 35 1190
2 55 5 151 5 213 l0 112 25 -5 c14 -3 35 -7 48 -10z m-143 -8 c0 -35 -74 -337
-194 -799 -240 -913 -284 -1081 -320 -1203 -52 -177 -59 -195 -67 -195 -12 0
-425 667 -811 1310 -201 334 -278 469 -278 486 0 38 206 95 840 234 80 17 294
64 475 105 182 40 336 74 343 74 6 1 12 -5 12 -12z m16 -454 c-3 -126 -8 -325
-11 -443 -12 -470 -36 -1225 -45 -1405 -5 -104 -10 -202 -10 -217 0 -35 -16
-36 -80 -3 -64 33 -303 193 -358 241 -35 30 -43 42 -39 63 3 23 79 309 294
1111 72 268 218 805 227 833 3 9 8 24 11 32 13 44 16 -7 11 -212z m3131 110
c113 -146 293 -426 282 -437 -6 -6 -204 44 -474 119 -110 30 -305 83 -432 117
-128 34 -233 65 -233 68 0 22 684 207 771 209 21 1 38 -14 86 -76z m-4828
-613 c126 -997 159 -1352 130 -1377 -28 -23 -85 22 -347 282 l-264 260 8 295
c4 162 10 317 13 343 l6 49 174 -379 c265 -574 386 -821 397 -810 10 10 -112
287 -391 887 -161 348 -205 450 -198 466 7 20 396 544 400 540 1 -1 34 -251
72 -556z m39 403 c87 -129 621 -1011 819 -1352 163 -282 199 -351 182 -362
-25 -15 -799 -222 -799 -214 0 1 -4 25 -10 53 -14 78 -62 436 -149 1132 -82
647 -99 800 -88 800 4 0 24 -26 45 -57z m5533 -140 c101 -105 212 -263 197
-278 -6 -7 -358 94 -442 126 -31 12 -56 28 -56 35 0 16 87 93 163 144 68 46
69 45 138 -27z m1774 -134 c482 -18 820 -45 848 -69 4 -4 -108 -184 -250 -401
-142 -217 -323 -494 -403 -617 -79 -122 -147 -219 -151 -215 -10 11 -581 992
-680 1168 -69 122 -77 141 -61 147 18 8 271 4 697 -13z m1708 -605 c53 -27
144 -103 171 -142 44 -65 74 -143 115 -302 46 -181 115 -509 108 -516 -6 -7
-265 556 -433 944 -16 37 -9 40 39 16z m-4134 -539 c149 -17 263 -34 270 -40
2 -3 -30 -42 -71 -87 -41 -46 -157 -177 -258 -293 -246 -281 -393 -447 -519
-585 -58 -63 -111 -121 -118 -129 -7 -8 -15 -12 -18 -9 -7 6 161 674 238 951
24 87 51 165 59 173 34 35 206 42 417 19z m-493 -52 c-13 -101 -192 -788 -268
-1030 -34 -109 -45 -133 -60 -133 -119 0 -1742 405 -2109 526 -115 38 -155 59
-129 68 79 28 1610 399 2232 541 134 30 259 59 278 64 63 16 63 16 56 -36z
m-2615 -662 c428 -89 2101 -514 2172 -553 25 -13 4 -20 -498 -164 -585 -167
-1051 -295 -1265 -349 -58 -14 -113 -28 -122 -31 -20 -6 -34 23 -109 228 -103
281 -279 837 -279 880 0 10 -7 11 101 -11z m2254 -648 c-21 -142 -81 -362
-306 -1125 -11 -38 -24 -68 -29 -68 -5 0 -55 20 -112 44 -57 24 -164 69 -238
101 -143 60 -525 225 -650 280 -542 239 -570 252 -570 264 0 5 48 25 108 45
163 54 1191 347 1602 456 85 23 160 43 165 45 33 11 37 5 30 -42z m94 -190
c49 -230 91 -470 91 -523 0 -58 -32 -103 -142 -198 -108 -94 -297 -236 -305
-229 -7 8 17 94 162 582 57 193 115 387 127 432 13 46 26 83 29 83 4 0 20 -66
38 -147z m-1691 -509 c569 -242 1012 -443 1012 -458 0 -3 -15 -3 -32 0 -18 2
-145 18 -283 34 -137 17 -333 42 -435 56 -413 56 -826 115 -843 120 -24 8 -19
28 45 172 77 175 114 232 150 232 10 0 184 -70 386 -156z m42 -379 c980 -138
1185 -167 1189 -171 12 -11 -197 -475 -371 -826 -78 -157 -115 -222 -137 -237
-66 -47 -581 -202 -753 -226 l-47 -7 -16 38 c-47 111 -477 1395 -470 1402 10
11 352 -309 820 -768 499 -489 443 -427 -271 300 -402 410 -504 522 -504 557
0 7 6 13 13 13 6 0 253 -34 547 -75z"/>
<path d="M20460 24055 c0 -18 1239 -337 1535 -395 33 -6 69 -14 80 -17 13 -3
17 -2 10 5 -20 19 -399 121 -1065 286 -519 128 -560 137 -560 121z"/>
<path d="M4317 26953 c-53 -92 -151 -308 -237 -521 -90 -226 -93 -238 -65
-234 108 18 825 375 825 410 0 29 -446 402 -480 402 -5 0 -24 -26 -43 -57z
m144 -52 c57 -38 274 -234 295 -266 12 -19 14 -29 5 -38 -15 -19 -293 -160
-493 -251 -153 -69 -198 -86 -198 -71 0 29 206 522 247 593 42 71 75 78 144
33z"/>
<path d="M13245 26971 c-249 -65 -590 -175 -630 -205 -16 -12 -14 -19 28 -107
88 -184 285 -539 298 -539 17 0 493 866 484 880 -9 14 -14 13 -180 -29z m105
-26 c0 -29 -411 -768 -421 -758 -4 5 -69 131 -144 282 -84 167 -133 276 -127
280 11 6 46 17 452 140 181 55 240 69 240 56z"/>
<path d="M1649 26917 c-119 -75 -330 -223 -893 -626 l-309 -221 -37 -82 c-21
-46 -110 -242 -199 -437 -89 -194 -170 -379 -181 -412 -24 -70 -26 -141 -5
-199 8 -24 80 -141 160 -262 l145 -218 338 169 c185 93 354 174 376 181 62 20
137 8 200 -31 52 -32 314 -250 493 -410 98 -88 155 -161 177 -226 18 -53 23
-77 201 -873 68 -305 132 -587 140 -627 16 -67 16 -90 -4 -380 -12 -169 -24
-337 -27 -373 -2 -36 -11 -164 -19 -285 -8 -121 -22 -333 -32 -471 l-17 -251
258 -428 c272 -451 426 -698 464 -743 l22 -27 -6 50 c-4 28 -24 115 -46 195
-21 80 -54 205 -74 278 -19 74 -34 141 -32 150 6 28 117 -166 393 -683 71
-132 145 -271 166 -309 l37 -69 289 -122 c781 -330 1040 -468 1288 -685 116
-101 205 -170 223 -170 26 0 9 28 -49 79 -91 80 -125 149 -81 166 36 14 146
-137 177 -242 33 -114 101 -111 237 8 l67 59 12 -57 c45 -203 -16 -449 -280
-1122 -23 -58 -41 -109 -41 -114 0 -8 159 -190 531 -607 297 -333 479 -557
479 -590 0 -9 15 -23 33 -32 18 -9 80 -58 138 -109 339 -302 1146 -1092 1206
-1181 27 -40 23 -63 -11 -54 -21 6 -408 49 -983 109 -172 18 -315 35 -317 38
-3 3 -9 180 -13 395 -10 502 -17 409 -33 -406 -23 -1154 16 -1926 104 -2051
10 -15 75 -68 393 -326 122 -98 168 -123 225 -123 84 0 228 52 228 82 0 20
-72 81 -199 167 l-123 85 6 50 c20 154 61 370 82 434 35 105 33 112 -36 173
-64 56 -74 84 -45 125 25 37 35 104 45 299 12 234 20 254 143 371 108 105 139
126 222 157 97 36 269 108 277 116 4 3 -17 45 -46 94 -64 106 -92 165 -82 175
4 4 79 7 166 7 l159 -1 177 326 c304 559 303 557 611 759 235 155 202 97 263
460 63 372 81 422 284 801 64 118 116 222 116 231 0 11 -119 82 -357 214 -634
352 -1117 636 -1581 928 -288 183 -435 270 -509 305 -62 29 -111 32 -229 17
-71 -9 -96 1 -186 76 -62 52 -101 68 -126 53 -8 -6 -33 -45 -55 -87 -22 -43
-43 -74 -47 -70 -4 4 -13 48 -20 96 -8 49 -19 91 -25 93 -6 3 -50 -12 -98 -32
-110 -46 -171 -99 -237 -209 -27 -45 -57 -86 -66 -89 -9 -4 -31 3 -48 14 -92
59 -109 63 -259 56 l-139 -7 -39 41 c-50 52 -101 153 -101 199 0 20 13 74 31
121 39 108 41 152 5 168 -14 7 -91 21 -172 33 -81 11 -148 22 -149 23 -2 1 13
92 33 200 40 224 41 279 7 284 -12 2 -163 -44 -335 -102 -317 -106 -421 -135
-452 -123 -32 13 -38 56 -33 222 7 179 32 460 47 515 9 33 15 38 72 58 146 50
723 208 941 256 43 10 77 -36 174 -234 141 -290 146 -300 153 -300 14 0 19
190 11 425 -6 173 -5 244 3 255 40 53 1048 1187 1073 1207 9 7 59 22 112 33
173 39 655 158 684 169 28 11 28 11 11 43 -9 18 -55 95 -101 172 -47 78 -105
179 -130 225 l-45 85 47 24 c60 30 205 80 430 149 271 82 305 94 305 105 0 38
-904 1198 -1129 1449 -38 43 -40 43 -55 24 -26 -34 -205 -430 -426 -948 -118
-273 -217 -496 -221 -495 -10 4 -419 498 -594 718 -176 221 -215 274 -215 292
0 23 176 213 514 555 l308 313 -5 592 c-3 326 -8 603 -12 616 -4 12 -11 22
-16 22 -14 0 -155 -110 -439 -345 -151 -124 -308 -251 -347 -282 l-73 -55 -72
42 c-40 24 -139 85 -219 136 -81 50 -156 97 -168 103 -22 12 -26 11 -666 -267
-1424 -618 -1915 -826 -1940 -820 -15 4 37 145 258 698 349 873 474 1170 492
1170 19 0 295 -121 1095 -480 231 -104 612 -265 650 -275 l25 -6 -25 22 c-14
12 -47 32 -75 45 -27 12 -203 91 -390 174 -1204 538 -1260 568 -1832 977 -243
173 -449 313 -462 313 -4 0 -45 -24 -92 -53z m206 -72 c86 -49 353 -237 626
-442 141 -105 169 -131 169 -152 0 -49 -227 -255 -1024 -930 -295 -250 -415
-345 -423 -337 -2 2 9 46 26 97 28 88 72 241 186 649 25 91 61 219 80 285 19
66 59 210 90 320 31 110 74 261 95 335 21 74 43 154 50 178 7 29 16 42 28 42
9 0 53 -20 97 -45z m-190 -47 c-87 -368 -369 -1354 -478 -1673 -58 -169 -54
-161 -83 -174 -54 -24 -308 -8 -768 49 -248 31 -286 38 -286 49 0 27 171 438
297 711 93 204 117 245 131 225 35 -52 185 -297 247 -405 140 -243 303 -514
339 -565 96 -134 -19 93 -212 420 -178 301 -332 587 -332 617 0 16 24 35 245
194 417 301 905 637 913 629 2 -2 -3 -37 -13 -77z m976 -720 c-40 -113 -133
-345 -361 -898 -260 -630 -354 -848 -369 -863 -7 -7 -19 -6 -36 3 -51 27 -685
559 -682 572 1 4 218 192 482 419 689 591 961 819 977 819 4 0 -1 -24 -11 -52z
m3270 -565 c7 -403 4 -851 -4 -860 -27 -26 -764 425 -755 463 4 16 150 148
362 328 99 83 225 190 280 237 56 48 104 85 107 83 3 -2 8 -115 10 -251z
m-1487 -255 c-190 -248 -568 -723 -1173 -1473 -640 -793 -923 -1135 -941
-1135 -21 0 -350 1469 -350 1564 0 25 62 56 570 279 118 52 238 104 265 117
28 12 154 67 280 122 127 55 264 115 305 133 407 180 1083 465 1089 460 2 -2
-19 -32 -45 -67z m276 -311 c207 -693 330 -1136 330 -1192 0 -29 24 -17 -415
-205 -950 -405 -2200 -918 -2211 -907 -6 6 306 404 775 987 135 168 346 431
470 585 437 544 914 1115 930 1115 3 0 58 -172 121 -383z m190 245 c373 -215
976 -592 994 -620 5 -9 -216 -256 -275 -307 -13 -12 -85 -79 -159 -150 -160
-153 -316 -292 -341 -306 -23 -12 -21 -17 -90 210 -176 574 -379 1270 -379
1295 0 21 22 10 250 -122z m-4801 -202 c73 -14 321 -45 640 -80 150 -17 280
-34 288 -38 18 -11 -84 -69 -358 -206 -260 -130 -293 -143 -316 -125 -30 25
-232 319 -307 447 -9 14 -11 14 53 2z m6684 -1067 c319 -385 835 -1054 909
-1180 16 -27 18 -36 8 -48 -35 -42 -664 -211 -713 -192 -22 8 -86 295 -187
832 -23 121 -62 321 -87 445 -55 269 -57 280 -50 280 3 0 57 -62 120 -137z
m-216 -125 c-6 -169 -58 -1144 -71 -1348 -10 -136 -19 -545 -13 -539 7 6 31
290 47 559 33 554 40 671 45 725 2 33 9 143 15 245 13 208 38 501 44 507 2 2
7 -18 11 -44 4 -26 61 -316 126 -643 66 -327 129 -645 141 -706 l21 -110 -124
-195 c-142 -223 -219 -335 -277 -399 -34 -38 -43 -43 -59 -34 -76 44 -453 767
-453 869 0 32 48 156 203 525 181 431 335 780 345 780 3 0 2 -87 -1 -192z
m-1537 -148 c0 -34 -538 -1053 -584 -1106 -37 -43 -121 -49 -526 -35 -454 15
-748 28 -1080 46 -317 18 -394 25 -383 36 19 18 2253 958 2523 1062 25 9 50 8
50 -3z m217 -142 c198 -235 272 -324 358 -433 180 -227 285 -367 280 -375 -13
-21 -174 -49 -571 -100 -854 -110 -804 -104 -804 -86 0 22 131 289 305 621
203 387 280 525 295 525 4 0 66 -69 137 -152z m709 -886 c23 -14 434 -805 434
-834 0 -5 -6 -8 -14 -8 -46 0 -1669 598 -1771 653 -19 10 -18 11 10 19 153 43
1004 160 1245 171 36 2 70 4 75 5 6 1 15 -2 21 -6z m-2381 -137 c551 -25 729
-39 783 -61 48 -20 53 -45 31 -155 -44 -211 -186 -1110 -203 -1284 -16 -160
48 135 124 575 83 478 138 735 155 735 12 0 64 -148 255 -715 166 -495 235
-707 326 -998 51 -163 60 -202 50 -202 -3 0 -67 -18 -143 -39 -184 -53 -536
-143 -717 -185 -125 -29 -148 -32 -153 -19 -6 16 12 162 51 408 13 83 27 186
30 230 5 73 5 78 -8 50 -14 -30 -39 -156 -101 -504 -18 -106 -36 -195 -38
-198 -16 -16 -1503 633 -1658 723 -73 43 -86 59 -68 80 18 22 248 185 1027
731 725 508 1024 723 1030 743 9 26 -91 -41 -703 -469 -836 -584 -1423 -987
-1429 -980 -3 4 9 265 18 394 4 44 9 114 11 155 54 781 73 992 88 1003 17 12
861 0 1242 -18z m1192 -164 c139 -49 513 -188 953 -356 131 -50 528 -210 592
-239 31 -14 59 -29 62 -34 17 -28 -254 -362 -659 -812 -243 -269 -301 -330
-308 -323 -4 3 -7 226 -7 494 l0 489 23 5 c12 3 99 19 192 34 94 16 156 30
138 30 -28 1 -211 -12 -326 -23 -38 -3 -40 -1 -437 386 -351 341 -415 408
-396 408 3 0 80 -27 173 -59z m2223 11 c125 -190 228 -387 216 -417 -6 -16
-144 -55 -406 -115 -124 -29 -229 -53 -235 -53 -33 -5 38 125 183 338 119 176
200 285 210 285 4 0 18 -17 32 -38z m-2360 -94 c52 -45 236 -222 409 -394
l314 -311 -106 -525 c-59 -289 -107 -529 -107 -534 0 -4 -4 -4 -9 2 -10 10
-611 1813 -611 1832 0 22 15 13 110 -70z m727 -1463 c-5 -278 -9 -293 -89
-330 -61 -28 -77 -30 -84 -12 -10 27 118 697 154 802 12 37 23 -228 19 -460z
m-2896 -33 c124 -57 157 -101 204 -272 12 -47 53 -188 89 -315 37 -126 65
-239 64 -250 -2 -15 -13 -6 -44 40 -107 157 -504 844 -504 873 0 11 29 -1 191
-76z m291 -131 c64 -22 99 -37 548 -236 190 -84 419 -185 510 -225 91 -39 168
-75 172 -79 8 -7 -102 -146 -237 -296 -321 -361 -379 -424 -385 -418 -4 5 -92
168 -195 363 -277 523 -388 710 -419 710 -7 0 -17 -5 -23 -11 -8 -8 -9 7 -6
54 5 54 2 73 -16 107 -31 60 -31 59 51 31z m2588 -207 c6 -15 9 -112 8 -230
l-3 -204 -67 149 c-37 82 -70 161 -74 175 -11 45 4 75 53 106 58 37 71 37 83
4z m-1355 -556 c-16 -263 -48 -421 -89 -439 -25 -11 -266 -55 -354 -65 -34 -4
-60 -9 -58 -12 4 -4 100 2 387 24 l75 6 37 -89 c39 -94 77 -200 77 -215 0 -5
-10 -6 -22 -3 -61 19 -335 132 -449 187 -147 70 -149 73 -98 154 87 138 453
554 487 554 10 0 12 -21 7 -102z m685 -436 c0 -23 -492 -372 -525 -372 -30 0
-85 140 -62 158 7 6 102 45 212 87 110 42 234 89 275 105 78 30 100 35 100 22z
m137 -19 c-43 -248 -100 -538 -111 -569 -13 -36 -16 -39 -50 -37 -55 4 -467
182 -466 202 1 7 338 255 488 359 116 79 147 89 139 45z m173 -451 c57 -22 84
-67 74 -127 -9 -59 -93 -315 -103 -315 -11 0 -201 198 -201 210 0 14 47 43
157 98 56 28 104 56 108 62 14 22 -43 8 -133 -35 -52 -25 -100 -45 -107 -45
-18 0 -25 23 -25 81 0 73 21 89 113 88 42 0 90 -7 117 -17z m1047 -325 c15
-33 36 -137 29 -145 -7 -6 -37 9 -129 61 -53 31 -56 35 -40 49 25 22 95 57
114 58 9 0 21 -10 26 -23z m271 -40 c23 -23 42 -51 42 -60 0 -21 -48 -44 -112
-53 -66 -9 -76 -13 -58 -24 25 -16 73 -11 230 20 195 39 200 39 200 -2 -1 -78
-104 -278 -143 -278 -24 0 -191 110 -264 175 -40 35 -53 53 -53 75 0 64 65
190 98 190 10 0 37 -19 60 -43z m-141 -247 c113 -80 206 -149 207 -155 2 -16
-129 -18 -360 -5 -330 17 -391 31 -437 103 -32 48 -31 71 0 75 18 3 26 -5 40
-35 10 -21 19 -40 20 -42 7 -11 48 40 90 111 26 42 66 100 90 128 l44 50 51
-43 c27 -23 142 -107 255 -187z m761 47 c260 -161 732 -462 787 -502 l50 -37
-40 7 c-22 4 -204 47 -405 95 -415 101 -638 150 -678 149 l-27 0 25 -11 c43
-18 293 -85 625 -169 539 -135 608 -155 602 -172 -2 -7 -50 -52 -108 -100
-183 -156 -861 -709 -864 -705 -3 4 -226 697 -264 823 -49 163 -91 335 -91
372 0 44 50 164 102 245 51 81 77 108 100 108 10 0 94 -46 186 -103z m-1488
11 c0 -6 -17 -28 -39 -49 -47 -47 -99 -54 -125 -17 -9 12 -16 26 -16 30 0 13
62 40 109 47 50 8 71 5 71 -11z m568 -263 c362 -21 454 -31 468 -49 34 -47
344 -1059 329 -1074 -7 -8 -289 266 -740 717 l-420 421 48 0 c26 0 168 -7 315
-15z m-77 -322 c347 -349 595 -606 663 -688 l41 -49 -50 28 c-524 304 -999
602 -1059 664 l-28 30 27 104 c40 153 66 238 74 238 4 0 153 -147 332 -327z
m2522 -347 c356 -194 550 -308 577 -341 10 -12 9 -16 -1 -20 -22 -7 -278 -33
-659 -65 -195 -16 -377 -32 -405 -35 -27 -2 -147 -12 -265 -20 -118 -9 -300
-22 -405 -30 -104 -8 -221 -15 -260 -15 l-70 1 32 27 c93 81 518 435 713 595
l225 185 70 -38 c39 -21 240 -131 448 -244z m-2113 -263 c352 -211 410 -247
410 -253 0 -7 1 -7 -300 25 -408 45 -1122 136 -1172 151 -15 5 -15 10 2 72 20
73 86 246 156 413 l45 106 287 -171 c158 -95 415 -249 572 -343z m2781 -143
c18 -10 16 -17 -37 -123 -45 -90 -230 -434 -239 -445 -10 -12 -400 70 -965
204 -589 140 -773 188 -753 196 10 3 106 14 213 23 107 9 290 25 405 35 116
11 320 28 455 39 665 54 884 74 898 80 2 0 12 -4 23 -9z m-3206 -60 c220 -28
492 -62 605 -75 279 -33 290 -35 290 -46 0 -44 -550 -849 -581 -849 -8 0 -290
301 -523 559 -253 280 -396 449 -396 466 0 14 201 -4 605 -55z m1100 -144 c33
-8 258 -60 500 -115 464 -105 725 -166 988 -231 88 -22 162 -40 166 -40 28 -2
-52 -25 -185 -54 -672 -146 -2135 -398 -2161 -372 -13 13 162 272 383 566 164
219 211 272 233 266 9 -3 43 -12 76 -20z m1789 -486 c0 -77 -53 -425 -74 -493
-11 -36 -27 -70 -36 -78 -13 -10 -54 -10 -227 0 -558 32 -1997 169 -1997 190
0 3 42 14 93 24 50 9 223 42 382 72 266 51 401 76 800 150 77 14 322 59 545
100 223 40 416 75 430 78 14 3 39 4 55 3 29 -1 30 -3 29 -46z m-1794 -491
c1464 -132 1611 -147 1625 -169 3 -4 -64 -53 -148 -108 -237 -154 -283 -182
-299 -182 -8 0 -251 69 -539 154 -719 211 -939 271 -963 263 -17 -6 351 -124
819 -262 214 -63 563 -171 598 -184 32 -13 33 -20 7 -98 -41 -120 -312 -628
-374 -700 l-22 -25 -60 49 c-224 187 -1281 1259 -1261 1279 2 3 51 -7 108 -21
61 -14 107 -21 112 -16 5 5 0 14 -12 20 -41 22 -18 39 44 34 17 -2 181 -17
365 -34z m-240 -1295 c179 -19 368 -43 420 -52 90 -16 95 -18 98 -43 4 -34
-133 -307 -226 -450 -74 -114 -128 -165 -161 -154 -40 12 -514 605 -498 621 8
8 34 -7 292 -176 248 -163 372 -236 381 -227 8 7 -138 115 -350 258 -193 131
-338 239 -343 256 -3 8 6 11 29 7 18 -2 179 -20 358 -40z m-176 -403 c152
-195 275 -355 274 -356 -2 -2 -102 -58 -223 -125 -224 -125 -341 -198 -331
-207 8 -8 122 48 334 164 106 58 198 103 206 100 18 -7 31 -153 22 -248 -15
-148 -51 -214 -252 -454 -118 -142 -178 -224 -169 -234 9 -8 72 58 197 206
106 127 142 163 163 163 15 0 105 -95 105 -111 0 -9 -18 -32 -39 -51 -62 -53
-342 -217 -416 -244 -37 -14 -75 -29 -85 -34 -28 -15 -49 18 -64 101 -18 93
-60 548 -52 556 3 4 84 1 179 -6 94 -6 213 -13 262 -16 110 -5 83 1 -186 44
-102 17 -203 36 -225 43 l-39 13 -3 105 c-3 85 15 788 23 880 1 14 3 43 3 65
2 39 2 39 21 20 10 -11 143 -179 295 -374z m795 270 c26 -36 91 -171 91 -189
0 -16 -217 -122 -257 -125 -25 -2 -28 1 -25 23 7 50 144 320 163 320 4 0 17
-13 28 -29z m-514 -1528 c-32 -279 -47 -369 -62 -384 -4 -4 -37 -2 -73 6 -64
13 -320 92 -329 101 -10 10 69 78 159 139 113 75 292 185 303 185 4 0 5 -21 2
-47z m-282 -378 c134 -35 202 -66 221 -103 19 -36 65 -212 57 -212 -8 0 -310
243 -371 298 -56 51 -44 53 93 17z m407 -187 c66 -46 120 -86 120 -89 0 -11
-139 -69 -165 -69 -14 0 -29 8 -35 20 -8 15 -50 196 -50 216 0 10 19 -1 130
-78z"/>
<path d="M6051 21669 c-85 -11 -171 -29 -171 -36 0 -18 420 23 439 43 7 7
-201 2 -268 -7z"/>
<path d="M5295 26411 c-270 -100 -903 -364 -1055 -441 -44 -22 -78 -45 -75
-49 8 -14 286 -134 545 -236 295 -117 502 -187 513 -176 26 26 267 862 267
925 0 23 -4 26 -32 26 -18 -1 -91 -22 -163 -49z m94 -222 c-58 -232 -106 -402
-150 -537 l-31 -93 -32 6 c-81 18 -276 87 -536 192 -157 64 -313 127 -348 141
-35 13 -60 28 -55 32 4 4 37 19 73 32 36 14 148 60 250 103 486 203 875 354
878 341 2 -8 -20 -106 -49 -217z"/>
<path d="M15835 26419 c-133 -24 -236 -52 -259 -70 -38 -30 -62 -120 -106
-399 -48 -303 -89 -554 -97 -592 -8 -40 22 -37 47 4 22 37 32 96 61 353 21
192 59 439 79 507 12 41 51 92 82 109 23 12 290 70 296 64 6 -6 -261 -509
-395 -743 -35 -62 -63 -120 -61 -130 6 -25 95 116 218 343 139 256 247 449
287 513 l34 52 -68 -1 c-37 -1 -90 -5 -118 -10z"/>
<path d="M6885 26057 c-227 -123 -665 -417 -665 -448 0 -18 195 -104 385 -170
99 -34 185 -67 191 -73 7 -6 33 -85 59 -176 213 -744 359 -1220 374 -1220 15
0 196 195 398 428 l202 232 -18 33 c-11 17 -153 271 -317 562 -361 644 -498
875 -519 875 -5 0 -46 -20 -90 -43z m40 -74 c-25 -148 -41 -228 -71 -347 -38
-153 -57 -206 -74 -206 -24 0 -500 162 -500 170 0 32 227 185 570 384 60 35
81 34 75 -1z m252 -278 c328 -572 532 -945 518 -945 -12 0 -146 96 -386 277
-227 170 -386 280 -394 271 -6 -6 110 -101 385 -313 297 -229 450 -355 450
-371 0 -23 -247 -328 -407 -502 l-86 -94 -13 25 c-57 109 -361 1170 -371 1292
-6 83 23 289 68 493 36 158 45 181 64 161 7 -8 84 -140 172 -294z"/>
<path d="M10891 24314 c-237 -70 -481 -163 -481 -183 0 -12 107 -98 212 -171
l77 -53 53 48 c132 122 308 331 308 366 0 27 -64 24 -169 -7z m113 -16 c-13
-23 -171 -211 -232 -278 -57 -63 -60 -64 -87 -52 -30 14 -204 144 -205 153 0
4 491 179 528 188 2 1 0 -5 -4 -11z"/>
<path d="M22936 23554 c31 -176 252 -974 284 -1024 8 -13 11 -13 24 0 28 27
49 139 50 255 1 105 -1 114 -37 205 -51 126 -227 482 -269 544 -43 65 -62 72
-52 20z m158 -312 c129 -214 166 -315 166 -456 0 -139 -20 -151 -64 -41 -23
57 -166 565 -166 589 0 13 2 10 64 -92z"/>
<path d="M11700 23197 c0 -18 -15 -170 -34 -338 -41 -357 -62 -606 -53 -615 4
-4 28 1 54 11 57 21 337 159 408 202 69 40 71 68 11 190 -117 240 -336 583
-372 583 -9 0 -14 -11 -14 -33z m263 -404 l141 -246 -40 -34 c-77 -66 -298
-184 -373 -199 l-31 -6 0 59 c0 63 40 465 65 663 8 63 15 119 15 125 1 16 71
-99 223 -362z"/>
<path d="M11490 22814 c-67 -57 -240 -300 -240 -338 0 -17 11 -20 80 -17 75 3
151 22 171 42 16 16 19 34 19 101 0 87 -6 95 -21 27 -12 -51 -38 -87 -87 -116
-44 -27 -80 -29 -89 -7 -10 26 26 81 107 166 59 61 81 78 103 78 27 0 28 2 25
42 -4 53 -23 59 -68 22z"/>
<path d="M7650 22468 c-50 -81 -161 -301 -175 -345 -5 -19 -1 -23 32 -32 94
-25 391 -42 420 -23 13 8 -1 53 -66 207 -63 146 -131 275 -146 275 -8 0 -37
-37 -65 -82z m131 -115 c55 -118 99 -230 99 -250 0 -13 -10 -15 -72 -9 -72 7
-291 36 -295 40 -3 3 156 287 179 319 20 28 20 28 34 8 8 -11 33 -60 55 -108z"/>
<path d="M23356 22271 c-13 -82 -35 -396 -46 -641 -6 -140 -13 -274 -16 -296
-4 -37 -21 -58 -165 -210 -263 -278 -424 -464 -401 -464 6 0 81 31 169 69 535
232 617 272 642 320 8 14 4 67 -14 192 -13 96 -36 275 -50 399 -38 334 -75
598 -91 653 -9 29 -21 19 -28 -22z m105 -834 c22 -165 39 -301 37 -303 -8 -8
-106 96 -121 129 -30 63 -40 145 -34 297 5 138 30 368 44 400 3 8 12 -39 20
-105 7 -66 32 -254 54 -418z m-105 -235 c60 -69 114 -147 114 -164 0 -17 -15
-25 -283 -139 -251 -108 -337 -141 -337 -129 0 16 445 480 460 480 3 0 23 -21
46 -48z"/>
<path d="M5150 19642 c0 -19 252 -187 372 -248 60 -31 86 -38 148 -41 86 -5
175 14 175 36 0 19 -197 101 -447 184 -212 72 -248 82 -248 69z m410 -168 c77
-31 143 -60 146 -65 9 -16 -82 -10 -145 10 -50 16 -171 91 -171 107 0 12 45
-2 170 -52z"/>
<path d="M5997 19346 c-8 -21 26 -87 73 -138 34 -40 48 -48 76 -48 35 0 254
70 254 81 0 5 -309 100 -371 113 -18 4 -29 1 -32 -8z m211 -87 c34 -11 62 -24
62 -28 0 -13 -74 -31 -123 -31 -28 0 -52 6 -61 16 -16 16 -21 46 -9 57 12 13
69 7 131 -14z"/>
<path d="M22130 19201 c0 -33 297 -797 358 -921 31 -64 47 -70 123 -45 51 17
119 68 119 89 0 33 -574 896 -596 896 -2 0 -4 -9 -4 -19z m198 -316 c79 -109
273 -416 305 -484 22 -47 28 -68 20 -80 -16 -26 -90 -74 -106 -68 -16 6 -78
151 -188 442 -44 116 -84 220 -89 233 -19 43 10 22 58 -43z"/>
<path d="M18815 18355 c-10 -86 -3 -211 12 -226 15 -15 81 12 113 46 20 22 21
24 5 61 -28 68 -98 184 -111 184 -8 0 -15 -24 -19 -65z m86 -108 c23 -44 19
-67 -11 -67 -24 0 -40 34 -40 84 0 61 12 56 51 -17z"/>
<path d="M21804 18164 c-141 -120 -555 -507 -552 -515 4 -11 421 -319 556
-411 79 -53 107 -67 115 -59 9 9 12 139 12 479 0 473 -6 582 -29 582 -7 0 -53
-34 -102 -76z m85 -304 c1 -129 4 -258 7 -287 8 -61 -5 -323 -15 -323 -20 0
-501 337 -581 407 -2 2 16 21 41 42 24 21 155 138 289 259 l245 220 6 -41 c4
-23 7 -148 8 -277z"/>
<path d="M20110 18039 c0 -13 83 -123 300 -394 97 -121 236 -295 309 -387 73
-93 136 -168 141 -168 23 0 15 131 -20 311 -31 163 -51 187 -285 354 -158 112
-231 158 -247 153 -14 -5 94 -94 263 -216 140 -101 200 -161 217 -219 17 -57
37 -231 28 -240 -21 -20 -475 547 -539 673 -41 80 -167 181 -167 133z"/>
<path d="M22171 17588 c-37 -178 -54 -458 -28 -458 21 0 159 85 210 130 27 24
47 50 47 62 0 25 -51 120 -127 236 -66 101 -86 107 -102 30z m118 -118 c51
-96 64 -139 47 -164 -14 -22 -132 -96 -153 -96 -26 0 -2 275 29 333 9 17 11
18 28 2 10 -9 32 -43 49 -75z"/>
<path d="M23170 17471 c0 -15 117 -119 370 -329 129 -108 273 -228 320 -266
47 -39 92 -77 101 -83 17 -14 339 -41 594 -49 l170 -6 -60 62 c-70 72 -335
309 -479 428 -132 109 -168 119 -723 212 -252 42 -293 46 -293 31z m465 -97
c209 -35 265 -46 339 -65 l39 -10 -7 -56 c-9 -77 -52 -292 -65 -326 l-11 -28
-31 18 c-115 67 -579 468 -579 501 0 17 21 14 315 -34z m575 -219 c63 -53 185
-158 270 -233 144 -128 152 -137 125 -140 -41 -5 -416 27 -509 43 -44 8 -83
20 -87 27 -16 25 -9 118 21 261 17 80 30 148 30 151 0 13 35 -13 150 -109z"/>
<path d="M21150 17037 c0 -35 106 -88 270 -135 144 -42 208 -52 319 -52 123 1
101 14 -49 30 -194 21 -372 75 -318 95 23 9 285 -12 397 -31 52 -9 112 -25
133 -36 65 -34 346 -38 335 -5 -8 24 -195 55 -572 92 -143 14 -307 33 -364 41
-129 17 -151 18 -151 1z"/>
<path d="M24065 16587 c-20 -31 -59 -132 -80 -205 -55 -195 -138 -423 -154
-422 -3 1 -130 122 -281 271 -151 149 -300 292 -330 318 l-55 48 -350 -249
c-690 -490 -841 -581 -1169 -704 -93 -35 -172 -67 -176 -71 -4 -4 -3 -46 1
-93 5 -47 25 -249 44 -450 38 -395 47 -471 72 -627 14 -89 19 -103 35 -103 10
0 161 39 336 86 803 216 953 256 956 253 1 -2 163 -194 359 -426 422 -499 534
-627 553 -631 20 -5 274 134 339 185 31 24 74 74 105 120 87 133 488 946 530
1076 11 34 9 46 -10 100 -100 273 -677 1547 -701 1547 -5 0 -15 -11 -24 -23z
m121 -248 c142 -306 460 -1010 531 -1179 l15 -35 -23 20 c-125 106 -510 465
-651 606 l-177 177 18 58 c10 33 39 127 64 209 69 224 118 347 133 333 2 -3
43 -88 90 -189z m-634 -156 c135 -131 412 -398 615 -593 568 -547 569 -548
542 -575 -17 -16 -219 -55 -984 -189 -502 -88 -720 -123 -723 -115 -4 10 74
120 378 529 383 516 459 624 447 636 -6 7 -173 -205 -427 -541 -260 -346 -423
-555 -430 -555 -8 0 3 110 46 465 62 513 156 1210 170 1258 7 23 47 -11 366
-320z m-449 107 c-39 -465 -167 -1395 -214 -1552 l-19 -67 -53 -14 c-63 -18
-403 -110 -826 -223 -173 -46 -318 -81 -322 -77 -16 19 -61 234 -83 403 -43
321 -82 752 -70 771 11 18 136 72 282 123 127 44 172 54 172 39 0 -11 -59
-226 -150 -553 -132 -467 -191 -720 -144 -613 19 44 90 283 164 553 70 255
145 512 162 553 6 15 15 27 20 27 33 0 182 -161 428 -460 100 -121 290 -344
358 -420 22 -25 43 -42 48 -38 9 9 -111 167 -316 418 -299 366 -442 545 -453
569 -10 21 -7 27 28 59 175 153 826 608 948 662 37 17 43 17 47 4 3 -8 0 -82
-7 -164z m1661 -1342 c-12 -39 -329 -681 -399 -810 -85 -154 -154 -258 -171
-258 -19 0 -228 129 -604 374 -173 112 -379 246 -457 296 -79 51 -141 96 -138
100 3 4 26 11 52 15 27 4 163 29 303 55 773 147 1309 243 1398 249 20 1 22 -2
16 -21z m-1259 -686 c415 -264 626 -404 647 -429 9 -12 6 -19 -18 -38 -21 -18
-245 -140 -315 -173 -9 -4 -769 910 -769 925 0 3 12 -3 28 -13 15 -10 207
-132 427 -272z"/>
<path d="M16155 16510 c-150 -114 -495 -411 -494 -425 1 -5 79 -82 174 -170
95 -88 173 -163 172 -167 -3 -12 -251 -328 -258 -328 -3 0 -11 82 -17 183 -7
100 -16 225 -20 277 l-7 95 -6 -175 c-4 -96 -7 -245 -7 -330 l-1 -155 41 45
c90 99 229 265 258 308 39 59 61 119 125 342 66 234 117 464 113 514 l-3 39
-70 -53z m21 -92 c-7 -51 -135 -589 -142 -597 -5 -5 -127 96 -214 176 -82 76
-91 95 -58 130 51 55 401 343 417 343 2 0 0 -24 -3 -52z"/>
<path d="M26299 13823 c-47 -122 -147 -703 -121 -703 12 0 149 147 251 270 52
63 71 93 71 115 0 34 10 43 -112 -100 -100 -117 -155 -171 -164 -162 -14 13
77 432 111 514 l16 38 47 -50 c26 -27 60 -66 75 -85 l27 -35 0 32 c0 25 -14
46 -77 112 -43 45 -86 81 -96 81 -10 0 -22 -12 -28 -27z"/>
<path d="M23716 13421 c-13 -20 -24 -200 -17 -268 8 -82 19 -101 47 -83 40 26
240 309 227 321 -10 9 -179 39 -220 39 -17 0 -34 -4 -37 -9z m140 -48 c13 -8
24 -25 24 -37 -1 -20 -11 -35 -95 -145 l-40 -52 -7 53 c-5 29 -5 79 -2 112 10
93 49 116 120 69z"/>
<path d="M25789 12988 c-340 -428 -511 -658 -490 -658 17 0 237 181 503 414
136 119 250 221 253 226 7 11 -94 210 -106 210 -4 0 -76 -87 -160 -192z m183
75 c34 -31 23 -69 -39 -135 -48 -50 -352 -325 -418 -377 -19 -16 -19 -16 -1
14 53 85 364 474 398 498 30 21 38 21 60 0z"/>
</g>
</svg>
