<?xml version="1.0" encoding="utf-8"?>
<!-- Generator: Adobe Illustrator 25.0.0, SVG Export Plug-In . SVG Version: 6.00 Build 0)  -->
<svg version="1.1" id="Camada_2" xmlns="http://www.w3.org/2000/svg" xmlns:xlink="http://www.w3.org/1999/xlink" x="0px" y="0px"
	 viewBox="0 0 841.89 595.28" style="enable-background:new 0 0 841.89 595.28;" xml:space="preserve">
<style type="text/css">
	.st0{fill:none;}
	.st1{fill:none;stroke:#000000;stroke-width:5;stroke-linejoin:bevel;stroke-miterlimit:10;}
	.st2{fill:none;stroke:#000000;stroke-width:4;stroke-linejoin:bevel;stroke-miterlimit:10;}
	.st3{fill:none;stroke:#000000;stroke-width:4;stroke-miterlimit:10;}
	.st4{fill:none;stroke:#000000;stroke-width:5;stroke-miterlimit:10;}
	.st5{fill:#FFFFFF;}
	.st6{fill:none;stroke:#000000;stroke-width:4;stroke-linecap:square;stroke-linejoin:bevel;stroke-miterlimit:10;}
	.st7{fill:none;stroke:#000000;stroke-width:4;stroke-linecap:square;stroke-linejoin:round;stroke-miterlimit:10;}
</style>
<path class="st0" d="M572.36,171.24"/>
<path class="st1" d="M605.48,217.8c-68.64,29.28-68.64,29.28-68.64,29.28l37.92-75.84l44.36,74.09l2.77,4.63l40.23,32.16l15.84-33.6
	l-29.76-7.2l-33.6-26.88l4.52,30.89l29.08-4.01l13.92,40.8l28.8,4.8l-12.96-38.4"/>
<polygon class="st2" points="703.76,278.64 697.28,304.92 682.7,335.7 668.48,345.24 615.38,374.58 639.32,384.3 698.54,369.72 
	682.7,335.7 718.88,335.7 698.54,369.72 718.88,335.7 "/>
<path class="st3" d="M654.18,258.85"/>
<path class="st3" d="M659.28,273.78"/>
<polyline class="st3" points="689.36,410.59 683.24,421.08 713,403.32 720.92,350.28 715.64,381 688.28,399.48 663.08,401.88 
	689,411 715.64,381 "/>
<polygon class="st4" points="729.56,358.92 722.36,392.28 718.88,411 770.12,380.64 "/>
<line class="st4" x1="722.36" y1="392.28" x2="770.12" y2="380.64"/>
<polyline class="st1" points="624.44,414.12 683.24,421.08 671.24,439.8 690.92,463.8 683.24,421.08 706.76,476.04 690.92,463.8 
	664.52,508.2 683,515.88 690.92,463.8 706.76,476.04 706.76,527.4 683,515.88 670.76,561.48 706.76,527.4 670.76,561.48 
	639.56,562.68 615.38,543 670.76,561.48 615.38,543 664.52,508.2 615.38,543 585.47,513.09 601.4,467.16 640.76,443.16 
	671.24,439.8 642.68,458.28 640.76,443.16 601.4,467.16 613.16,478.92 642.68,458.28 613.16,478.92 585.47,513.09 664.52,508.2 
	613.16,478.92 "/>
<polygon class="st4" points="543.56,522.84 568.52,558.36 620.12,579.72 663.08,579.72 615.38,593.88 555.56,576.12 "/>
<line class="st4" x1="555.56" y1="576.12" x2="568.52" y2="558.36"/>
<line class="st4" x1="620.12" y1="579.72" x2="615.38" y2="593.88"/>
<polygon class="st4" points="716.84,571.32 749,554.28 761.24,504.36 748.52,467.4 726.92,444.84 790.52,462.12 821.72,493.32 
	832.04,542.76 824.84,584.52 772.52,592.92 701,586.8 686.6,573.96 "/>
<polyline class="st1" points="701,586.8 716.84,571.32 772.52,592.92 749,554.28 824.84,584.52 "/>
<polyline class="st1" points="747.86,554.88 749,554.28 832.04,542.76 761.24,504.36 821.72,493.32 "/>
<line class="st4" x1="748.52" y1="467.4" x2="790.52" y2="462.12"/>
<polygon class="st4" points="782.84,403.32 768.11,415.14 765.08,437.88 791.72,452.76 818.12,441 818.12,418.2 "/>
<polyline class="st4" points="768.11,415.14 785,422.76 798.92,422.76 818.12,418.2 "/>
<polyline class="st4" points="818.12,441 803.24,435.96 784.52,434.76 765.08,437.88 "/>
<line class="st4" x1="784.52" y1="434.76" x2="785" y2="422.76"/>
<line class="st4" x1="798.92" y1="422.76" x2="803.24" y2="435.96"/>
<polygon class="st1" points="796.76,393.96 803.24,369.96 780.92,334.2 812.6,350.28 832.04,334.2 841.89,357.96 819.56,368.52 
	812.6,350.28 803.24,369.96 818.12,369.96 "/>
<line class="st4" x1="841.89" y1="357.96" x2="796.76" y2="393.96"/>
<polygon class="st4" points="814.28,400.44 829.16,406.92 829.16,430.92 841.89,399.24 "/>
<polygon class="st4" points="774.2,285.72 779.72,316.2 811.4,331.47 835.16,305.64 835.16,269.16 805.88,263.16 "/>
<polyline class="st4" points="774.2,285.72 808.52,300.6 835.16,269.16 808.52,300.6 811.4,331.47 "/>
<line class="st4" x1="779.72" y1="316.2" x2="808.52" y2="300.6"/>
<polygon class="st4" points="774.2,265.56 748.04,251.16 748.04,229.08 "/>
<polygon class="st4" points="748.04,229.08 749.72,188.52 775.64,208.8 "/>
<polyline class="st4" points="749.72,188.52 742.04,138.84 764.12,179.88 794.12,199.08 835.16,190.92 841.89,177.48 835.16,214.68 
	794.12,219.72 775.64,208.8 "/>
<polygon class="st4" points="780.92,156.6 761.84,108.84 799.88,74.52 838.76,93.24 838.76,141.72 824.12,166.2 796.28,172.68 "/>
<polyline class="st4" points="780.92,156.6 803.24,159.96 838.76,141.72 "/>
<polyline class="st4" points="761.84,108.84 794.12,111.24 838.76,93.24 "/>
<line class="st4" x1="794.12" y1="111.24" x2="803.24" y2="159.96"/>
<polygon class="st4" points="647,183 674.6,193.56 679.88,167.16 661.88,147.24 "/>
<line class="st4" x1="679.88" y1="167.16" x2="647" y2="183"/>
<polygon class="st4" points="531.56,558.36 457.64,586.8 342.44,567.24 305,493.32 310.76,584.52 401.89,629.64 509.48,612.84 "/>
<line class="st4" x1="457.64" y1="586.8" x2="509.48" y2="612.84"/>
<line class="st4" x1="639.32" y1="384.3" x2="646.95" y2="357.13"/>
<g id="Camada_4">
</g>
<polygon class="st2" points="614.6,214.44 574.76,171.24 565.34,130.86 "/>
<line class="st3" x1="499.4" y1="197.64" x2="536.84" y2="247.08"/>
<line class="st3" x1="529.19" y1="171.62" x2="574.76" y2="171.24"/>
<path class="st3" d="M448.52,167.16"/>
<polyline class="st3" points="510.7,149.91 451.04,185.14 501.27,197.64 529.19,171.62 510.7,149.91 565.34,130.86 "/>
<path class="st5" d="M34.89,398.33"/>
<path class="st5" d="M3.56,347.38"/>
<polygon class="st3" points="3.56,243 29.33,278.17 69.41,311.92 184.64,342.48 60.82,286.34 27.89,265.26 3.56,247.26 "/>
<path class="st3" d="M793.11,123.6"/>
<polygon class="st6" points="184.64,342.48 325,306.93 325,239.4 "/>
<polygon class="st7" points="410.12,33.96 429.8,171.24 459.08,3.24 "/>
<polyline class="st2" points="325.16,307.8 429.8,171.24 325.16,239.4 266.12,77.16 410.12,33.96 "/>
<polyline class="st3" points="185.72,343.8 133.16,218.28 325.16,239.4 "/>
<path class="st3" d="M133.16,218.28c0-4.32-31.2-218.28-31.2-218.28h-31.2L3.56,64.2L0,130.44L133.16,218.28z"/>
<polyline class="st3" points="144.2,0 266.12,77.16 133.16,218.28 33.29,268.94 "/>
<line class="st3" x1="266.12" y1="77.16" x2="272.84" y2="0"/>
<polygon class="st2" points="627.26,415.14 663.08,401.88 610.88,390.96 "/>
<path class="st3" d="M310.76,584.52l31.68-17.28L310.76,584.52z"/>
<polygon class="st1" points="819.32,47.88 759.32,33.96 686.6,44.28 742.04,13.32 790.52,16.2 "/>
<polyline class="st1" points="742.04,13.32 759.32,33.96 790.52,16.2 "/>
<line class="st1" x1="342.44" y1="567.24" x2="401.89" y2="629.64"/>
</svg>
