<?xml version="1.0" encoding="utf-8"?>
<!-- Generator: Adobe Illustrator 25.0.0, SVG Export Plug-In . SVG Version: 6.00 Build 0)  -->
<svg version="1.1" id="Camada_1" xmlns="http://www.w3.org/2000/svg" xmlns:xlink="http://www.w3.org/1999/xlink" x="0px" y="0px"
	 viewBox="0 0 588 595.28" style="enable-background:new 0 0 588 595.28;" xml:space="preserve">
<g>
	<g>
		<defs>
			<path id="SVGID_1_" d="M-10.68,5.56c0,194.72,0,389.44,0,584.16c203.12,0,406.24,0,609.36,0c0-194.72,0-389.44,0-584.16
				C395.56,5.56,192.44,5.56-10.68,5.56z M126.52,215.8c-1.04-0.28-1.95-0.06-2.81,0.34c-0.35,0.16-0.69,0.35-1.03,0.56
				c0.34-0.2,0.68-0.4,1.03-0.56C124.57,215.74,125.48,215.52,126.52,215.8C126.52,215.8,126.52,215.8,126.52,215.8z M118.07,417.18
				c0-0.1,0.05-0.24,0.07-0.35c0,0,0,0,0,0C118.13,416.94,118.07,417.08,118.07,417.18z M125.04,418.65
				c-0.06-0.03-0.13-0.07-0.19-0.1C124.91,418.58,124.98,418.61,125.04,418.65z M124.69,418.47c-0.81-0.39-1.95-0.78-3.13-1.08
				C122.74,417.69,123.88,418.07,124.69,418.47z M121.08,417.27c-0.24-0.05-0.48-0.11-0.71-0.15
				C120.6,417.17,120.84,417.22,121.08,417.27z M195.35,376.27c0.01,1.05,0.63,1.82,1.26,2.58c0,0,0,0,0,0
				C195.98,378.09,195.36,377.32,195.35,376.27z M196.66,379c0.07,0.38,0.13,0.76,0.23,1.28C196.79,379.76,196.72,379.37,196.66,379
				C196.66,379,196.66,379,196.66,379z"/>
		</defs>
		<clipPath id="SVGID_2_">
			<use xlink:href="#SVGID_1_"  style="overflow:visible;"/>
		</clipPath>
		<g style="clip-path:url(#SVGID_2_);">
			
				<image style="overflow:visible;" width="2540" height="2435" xlink:href="FC3C3D72.jpg"  transform="matrix(0.24 0 0 0.24 -10.88 5.3556)">
			</image>
		</g>
	</g>
</g>
</svg>
